<?xml version="1.0" encoding="utf-8"?>
<!-- Generator: Adobe Illustrator 18.0.0, SVG Export Plug-In . SVG Version: 6.00 Build 0)  -->
<!DOCTYPE svg PUBLIC "-//W3C//DTD SVG 1.1//EN" "http://www.w3.org/Graphics/SVG/1.1/DTD/svg11.dtd">
<svg version="1.1" id="Laag_1" xmlns="http://www.w3.org/2000/svg" xmlns:xlink="http://www.w3.org/1999/xlink" x="0px" y="0px"
	 viewBox="0 0 25 25" enable-background="new 0 0 25 25" xml:space="preserve">
<g>
	<path fill="#29438C" d="M20.7,15.5c-1.2-0.9-1.6-1-3.7-0.3c3.2,1,5,2.9,5.2,6.1c0.1,1.4-0.1,2.1-1.8,2.1c-5.2-0.1-10.3-0.1-15.5,0
		c-1.7,0-1.9-0.8-1.8-2.1c0.2-3.2,2-5.1,4.9-6.4c-2.8-0.9-4.1,0.8-5.3,2.7c-1.2,2.1-1.1,4.4-0.7,6.7c0,0.2,0.9,0.4,1.4,0.4
		c6.1,0,12.2,0,18.3,0c0.7,0,1.4,0.1,1.6-1C24,21.3,22.8,17.2,20.7,15.5z"/>
	<path fill="#2F4A90" d="M12.3,13.4c3,0.2,5.3-2.5,5.4-6.1c0.1-3.8-2.1-6.6-5.2-6.6c-2.9,0-5,2.6-5,6.1C7.4,10.5,9.4,13.3,12.3,13.4
		z M12.5,2c2.2,0,3.7,1.9,3.8,4.9c0.1,2.6-0.7,4.7-3.5,5.1c-2.2,0.3-4-2-4-5C8.8,4.1,10.3,2.1,12.5,2z"/>
</g>
</svg>
