<?xml version="1.0" encoding="utf-8"?>
<!-- Generator: Adobe Illustrator 18.0.0, SVG Export Plug-In . SVG Version: 6.00 Build 0)  -->
<!DOCTYPE svg PUBLIC "-//W3C//DTD SVG 1.1//EN" "http://www.w3.org/Graphics/SVG/1.1/DTD/svg11.dtd">
<svg version="1.1" id="Laag_1" xmlns="http://www.w3.org/2000/svg" xmlns:xlink="http://www.w3.org/1999/xlink" x="0px" y="0px"
	 viewBox="0 247.6 841.9 100" enable-background="new 0 247.6 841.9 100" xml:space="preserve">
<g>
	<rect x="114.2" y="-2668.4" fill="#1E1E1C" width="52" height="38.9"/>
	<rect x="172.5" y="-2658.2" fill="#1E1E1C" width="31.5" height="40.3"/>
	<rect x="274.1" y="-2651.6" fill="#1E1E1C" width="41.4" height="40.3"/>
	<rect x="214.3" y="-2673.7" fill="#1E1E1C" width="54.5" height="40.3"/>
	<rect x="6.6" y="-2655.1" fill="#1E1E1C" width="45" height="33"/>
	<g>
		<path fill="#FFFFFF" d="M28-2633.6L28-2633.6c0,0.2,0,0.3,0.1,0.4c0,0.1,0.1,0.1,0.2,0.2c0.1,0.1,0.3,0.3,0.4,0.5
			c0.1,0.2,0.2,0.5,0.2,0.8v0.8h-4.6v-0.8c0-0.3,0.1-0.6,0.2-0.8c0.1-0.2,0.3-0.4,0.4-0.5c0.1-0.1,0.2-0.1,0.2-0.2
			c0-0.1,0.1-0.2,0.1-0.4v-6.6c0-0.3-0.1-0.4-0.4-0.4h-3.3c-0.3,0-0.4,0.1-0.4,0.4v6.5v0.1v0c0,0.2,0,0.3,0.1,0.4
			c0.1,0.1,0.1,0.1,0.2,0.2c0.1,0.1,0.3,0.3,0.4,0.5c0.1,0.2,0.2,0.5,0.2,0.8v0.8h-4.6v-0.8c0-0.3,0.1-0.6,0.2-0.8
			c0.1-0.2,0.3-0.4,0.4-0.5c0.1-0.1,0.2-0.1,0.2-0.2c0.1-0.1,0.1-0.2,0.1-0.4v0v-15.4c0-0.2,0-0.3-0.1-0.4c-0.1-0.1-0.1-0.1-0.2-0.2
			c-0.1-0.1-0.3-0.3-0.4-0.5c-0.1-0.2-0.2-0.5-0.2-0.8v-0.8H22v0.8c0,0.3-0.1,0.6-0.2,0.8c-0.1,0.2-0.3,0.4-0.4,0.5
			c-0.1,0.1-0.1,0.1-0.2,0.2c-0.1,0.1-0.1,0.2-0.1,0.4v5.7c0,0.1,0,0.3,0.1,0.3c0.1,0.1,0.2,0.1,0.3,0.1h3.3c0.1,0,0.2,0,0.3-0.1
			c0.1-0.1,0.1-0.2,0.1-0.3v-5.7c0-0.2,0-0.3-0.1-0.4c0-0.1-0.1-0.1-0.2-0.2c-0.1-0.1-0.3-0.3-0.4-0.5c-0.1-0.2-0.2-0.5-0.2-0.8
			v-0.8h4.6v0.8c0,0.3-0.1,0.6-0.2,0.8c-0.1,0.2-0.3,0.4-0.4,0.5c-0.1,0.1-0.2,0.1-0.2,0.2c0,0.1-0.1,0.2-0.1,0.4V-2633.6z"/>
		<path fill="#FFFFFF" d="M34.1-2633c0.1,0.1,0.3,0.2,0.4,0.5c0.1,0.2,0.2,0.5,0.2,0.8l0,0.8h-4.6v-0.8c0-0.4,0.1-0.6,0.2-0.8
			c0.1-0.2,0.3-0.4,0.4-0.5c0.1-0.1,0.1-0.1,0.2-0.2c0.1-0.1,0.1-0.2,0.1-0.3v-8.7c0-0.2-0.1-0.4-0.3-0.5c-0.1-0.1-0.3-0.2-0.4-0.4
			c-0.1-0.2-0.2-0.5-0.2-0.8v-0.9h2.9c0.4,0,0.6,0.2,0.6,0.5v10.7c0,0.2,0,0.3,0.1,0.4C34-2633.1,34-2633,34.1-2633z M32.4-2646.5
			c-0.4,0-0.8-0.1-1-0.4c-0.3-0.3-0.4-0.6-0.4-1c0-0.4,0.1-0.8,0.4-1c0.3-0.3,0.6-0.4,1-0.4c0.4,0,0.7,0.1,1,0.4s0.4,0.6,0.4,1
			c0,0.4-0.1,0.7-0.4,1C33.1-2646.6,32.8-2646.5,32.4-2646.5z"/>
		<path fill="#FFFFFF" d="M39.2-2628.1c0,1.2-0.3,2.2-0.8,2.9c-0.6,0.7-1.3,1.2-2.4,1.4c-0.1,0-0.2,0-0.3,0c-0.1,0-0.2-0.1-0.2-0.2
			v-2.2c0-0.1,0-0.2,0.1-0.2c0,0,0.1-0.1,0.1-0.1c0.2-0.1,0.4-0.3,0.6-0.5c0.1-0.2,0.2-0.6,0.2-1v-14.2c0-0.2-0.1-0.4-0.3-0.5
			c-0.1-0.1-0.3-0.2-0.4-0.4c-0.1-0.2-0.2-0.5-0.2-0.8v-0.9h3c0.2,0,0.4,0,0.5,0.1c0.1,0.1,0.1,0.3,0.1,0.5V-2628.1z M37.6-2646.5
			c-0.4,0-0.8-0.1-1-0.4c-0.3-0.3-0.4-0.6-0.4-1c0-0.4,0.1-0.8,0.4-1s0.6-0.4,1-0.4c0.4,0,0.7,0.1,1,0.4s0.4,0.6,0.4,1
			c0,0.4-0.1,0.7-0.4,1C38.3-2646.6,38-2646.5,37.6-2646.5z"/>
	</g>
	<g>
		<path fill="#FFFFFF" d="M129.9-2642.8c0.1,0.1,0.3,0.3,0.4,0.5c0.1,0.2,0.2,0.5,0.2,0.8v0.8h-2.3c-0.5,0-0.8-0.2-1-0.5
			c-0.2-0.3-0.3-0.8-0.3-1.2v-7.9c0-0.8-0.2-1.3-0.5-1.6s-0.8-0.4-1.3-0.4c-0.3,0-0.6,0-0.8,0.1c-0.2,0.1-0.4,0.2-0.6,0.3
			c-0.2,0.1-0.3,0.2-0.4,0.4v8.3c0,0.2,0,0.3,0.1,0.4c0.1,0.1,0.1,0.1,0.2,0.2c0.1,0.1,0.3,0.3,0.4,0.5c0.1,0.2,0.2,0.5,0.2,0.8v0.8
			h-4.5v-0.8c0-0.4,0.1-0.6,0.2-0.8c0.1-0.2,0.3-0.4,0.4-0.4c0.1-0.1,0.2-0.1,0.2-0.2c0.1-0.1,0.1-0.2,0.1-0.4v-8.5
			c0-0.1,0-0.2-0.1-0.3c-0.1-0.1-0.1-0.1-0.2-0.2c-0.1-0.1-0.3-0.2-0.4-0.4c-0.1-0.2-0.2-0.5-0.2-0.8v-0.9h3c0.1,0,0.3,0,0.3,0.1
			c0.1,0.1,0.1,0.1,0.2,0.2c0,0.1,0.1,0.2,0.1,0.3c0.2-0.1,0.4-0.2,0.6-0.3c0.2-0.1,0.5-0.2,0.8-0.3c0.3-0.1,0.7-0.1,1-0.1
			c1.4,0,2.4,0.4,2.9,1.1c0.6,0.7,0.9,1.8,0.9,3.3v7c0,0.2,0,0.3,0.1,0.4C129.7-2642.9,129.8-2642.9,129.9-2642.8z"/>
		<path fill="#FFFFFF" d="M140.7-2643c0.1,0.1,0.3,0.3,0.5,0.5c0.2,0.3,0.3,0.6,0.3,0.9v0.8h-2.6c-0.2,0-0.4-0.1-0.5-0.2
			c-0.1-0.1-0.2-0.3-0.3-0.4c-0.2,0.1-0.4,0.3-0.6,0.4c-0.2,0.1-0.4,0.2-0.7,0.3c-0.3,0.1-0.6,0.1-0.9,0.1c-1.4,0-2.5-0.4-3.1-1.2
			c-0.6-0.8-0.9-1.9-0.9-3.4v-0.1c0-0.7,0.1-1.4,0.3-1.9c0.2-0.5,0.5-1,0.8-1.3c0.4-0.3,0.8-0.6,1.3-0.8c0.5-0.2,1-0.3,1.6-0.4
			c0.4,0,0.8-0.1,1.1-0.1c0.3-0.1,0.5-0.1,0.7-0.1c0.2-0.1,0.3-0.1,0.4-0.1v-0.2c0-0.3,0-0.6,0-0.8c0-0.3-0.1-0.5-0.2-0.7
			c-0.1-0.2-0.3-0.4-0.5-0.5c-0.2-0.1-0.5-0.2-0.9-0.2c-0.4,0-0.7,0-0.9,0.1s-0.4,0.2-0.5,0.3c-0.1,0.1-0.2,0.3-0.2,0.5
			c0,0.2,0,0.3,0,0.5v0c0,0.2-0.1,0.4-0.2,0.5c-0.1,0.1-0.3,0.2-0.5,0.2c-0.2,0-0.4,0.1-0.7,0.1c-0.3,0-0.5,0-0.7,0H132v-1
			c0-0.5,0.1-0.9,0.2-1.3c0.1-0.4,0.4-0.8,0.7-1.1c0.3-0.3,0.8-0.6,1.3-0.8c0.5-0.2,1.2-0.3,2-0.3c0.8,0,1.5,0.1,2,0.3
			c0.5,0.2,1,0.4,1.3,0.8c0.3,0.3,0.6,0.8,0.7,1.3s0.2,1.1,0.2,1.7v7.2c0,0.1,0,0.3,0,0.4C140.6-2643.1,140.7-2643,140.7-2643z
			 M136.3-2642.7c0.3,0,0.6-0.1,0.8-0.2c0.2-0.1,0.4-0.2,0.5-0.4c0.1-0.1,0.3-0.3,0.4-0.5v-4.1c-0.1,0-0.3,0.1-0.4,0.1
			c-0.1,0-0.3,0.1-0.6,0.1c-0.2,0-0.5,0.1-0.8,0.1c-0.5,0.1-1,0.3-1.3,0.7c-0.3,0.4-0.5,1-0.5,1.6v0.3c0,0.7,0.2,1.2,0.5,1.6
			C135.2-2642.9,135.7-2642.7,136.3-2642.7z"/>
		<path fill="#FFFFFF" d="M151.9-2643c0.1,0.1,0.3,0.3,0.5,0.5c0.2,0.3,0.3,0.6,0.3,0.9v0.8H150c-0.2,0-0.4-0.1-0.5-0.2
			c-0.1-0.1-0.2-0.3-0.3-0.4c-0.2,0.1-0.4,0.3-0.6,0.4c-0.2,0.1-0.4,0.2-0.7,0.3c-0.3,0.1-0.6,0.1-0.9,0.1c-1.4,0-2.5-0.4-3.1-1.2
			c-0.6-0.8-0.9-1.9-0.9-3.4v-0.1c0-0.7,0.1-1.4,0.3-1.9s0.5-1,0.8-1.3c0.4-0.3,0.8-0.6,1.3-0.8c0.5-0.2,1-0.3,1.6-0.4
			c0.4,0,0.8-0.1,1.1-0.1c0.3-0.1,0.5-0.1,0.7-0.1c0.2-0.1,0.3-0.1,0.4-0.1v-0.2c0-0.3,0-0.6,0-0.8c0-0.3-0.1-0.5-0.2-0.7
			c-0.1-0.2-0.3-0.4-0.5-0.5c-0.2-0.1-0.5-0.2-0.9-0.2s-0.7,0-0.9,0.1s-0.4,0.2-0.5,0.3c-0.1,0.1-0.2,0.3-0.2,0.5c0,0.2,0,0.3,0,0.5
			v0c0,0.2-0.1,0.4-0.2,0.5c-0.1,0.1-0.3,0.2-0.5,0.2c-0.2,0-0.4,0.1-0.7,0.1c-0.3,0-0.5,0-0.7,0h-0.6v-1c0-0.5,0.1-0.9,0.2-1.3
			c0.1-0.4,0.4-0.8,0.7-1.1c0.3-0.3,0.8-0.6,1.3-0.8c0.5-0.2,1.2-0.3,2-0.3c0.8,0,1.5,0.1,2,0.3c0.5,0.2,1,0.4,1.3,0.8
			c0.3,0.3,0.6,0.8,0.7,1.3s0.2,1.1,0.2,1.7v7.2c0,0.1,0,0.3,0,0.4C151.8-2643.1,151.8-2643,151.9-2643z M147.4-2642.7
			c0.3,0,0.6-0.1,0.8-0.2c0.2-0.1,0.4-0.2,0.5-0.4c0.1-0.1,0.3-0.3,0.4-0.5v-4.1c-0.1,0-0.3,0.1-0.4,0.1c-0.1,0-0.3,0.1-0.6,0.1
			c-0.2,0-0.5,0.1-0.8,0.1c-0.5,0.1-1,0.3-1.3,0.7c-0.3,0.4-0.5,1-0.5,1.6v0.3c0,0.7,0.2,1.2,0.5,1.6
			C146.3-2642.9,146.8-2642.7,147.4-2642.7z"/>
		<path fill="#FFFFFF" d="M161.5-2652.1c-0.1,0-0.3,0-0.4,0c-0.4-0.1-0.9-0.1-1.3-0.1c-0.4,0.1-0.8,0.2-1.1,0.4
			c-0.3,0.2-0.6,0.4-0.8,0.7c-0.2,0.3-0.3,0.6-0.3,0.8v6.9c0,0.2,0,0.3,0.1,0.4c0,0.1,0.1,0.2,0.2,0.2c0.1,0.1,0.3,0.2,0.4,0.5
			c0.1,0.2,0.2,0.5,0.2,0.8l0,0.8h-4.5v-0.8c0-0.4,0.1-0.6,0.2-0.8c0.1-0.2,0.3-0.4,0.4-0.5c0.1-0.1,0.2-0.1,0.2-0.2
			c0-0.1,0.1-0.2,0.1-0.4v-8.5c0-0.2-0.1-0.3-0.3-0.5c-0.1-0.1-0.3-0.2-0.4-0.4c-0.1-0.2-0.2-0.5-0.2-0.8v-0.9h2.9
			c0.4,0,0.7,0.2,0.7,0.6v0.4c0.2-0.2,0.5-0.4,0.8-0.5c0.2-0.1,0.5-0.3,0.8-0.4c0.3-0.1,0.6-0.2,0.9-0.2c0.4,0,0.8,0,1.2,0.1
			c0.1,0,0.2,0.1,0.3,0.2c0.1,0.1,0.2,0.2,0.2,0.4v1.6C161.7-2652.3,161.6-2652.2,161.5-2652.1z"/>
	</g>
	<g>
		<path fill="#FFFFFF" d="M187.7-2630.9c0.1,0.1,0.3,0.2,0.4,0.4c0.1,0.2,0.2,0.5,0.2,0.8v0.8h-3c-0.1,0-0.2,0-0.3-0.1
			c-0.1-0.1-0.1-0.1-0.2-0.2c-0.1-0.1-0.1-0.2-0.1-0.3c-0.1,0.1-0.3,0.2-0.5,0.3c-0.2,0.1-0.4,0.2-0.7,0.2c-0.3,0.1-0.6,0.1-1,0.1
			c-1.4,0-2.4-0.4-3-1.2c-0.6-0.8-1-1.9-1-3.3v-5c0-1.4,0.3-2.6,0.9-3.4c0.6-0.8,1.5-1.2,2.9-1.2c0.4,0,0.7,0,1,0.1
			c0.3,0.1,0.6,0.2,0.8,0.3c0.2,0.1,0.5,0.2,0.6,0.4v-4.8c0-0.3-0.1-0.5-0.3-0.6c-0.1-0.1-0.3-0.3-0.4-0.5c-0.1-0.2-0.2-0.5-0.2-0.8
			v-0.9h1.9c0.6,0,1.1,0.1,1.3,0.4c0.2,0.3,0.4,0.6,0.4,1.2v16.6c0,0.2,0,0.3,0.1,0.4C187.5-2631,187.6-2631,187.7-2630.9z
			 M184.7-2639.7c-0.2-0.1-0.3-0.3-0.5-0.4c-0.2-0.1-0.4-0.2-0.6-0.3c-0.2-0.1-0.4-0.1-0.7-0.1c-0.5,0-1,0.2-1.3,0.5
			s-0.5,0.9-0.5,1.6v5.3c0,0.7,0.1,1.3,0.4,1.6s0.7,0.5,1.2,0.5c0.3,0,0.6,0,0.8-0.1c0.3-0.1,0.5-0.2,0.6-0.3
			c0.2-0.1,0.3-0.3,0.5-0.5V-2639.7z"/>
		<path fill="#FFFFFF" d="M192.3-2635.1v2.5c0,0.7,0.2,1.2,0.5,1.4c0.4,0.2,0.8,0.3,1.3,0.3c0.5,0,0.9-0.1,1.2-0.4
			c0.3-0.3,0.5-0.6,0.4-1v-0.1c0-0.4,0.1-0.8,0.4-1.1c0.3-0.3,0.6-0.5,1.1-0.5h1.1v1.9c0,1.2-0.4,2.1-1.2,2.6
			c-0.8,0.5-1.9,0.8-3.2,0.8c-1.4,0-2.5-0.3-3.3-1c-0.8-0.7-1.2-1.7-1.2-3.1v-5.5c0-1.4,0.4-2.5,1.2-3.3c0.8-0.8,1.9-1.2,3.3-1.2
			c1.4,0,2.4,0.4,3.2,1.2c0.8,0.8,1.2,1.9,1.2,3.3v1.8c0,0.9-0.6,1.4-1.8,1.4H192.3z M192.3-2637h3.2h0.4v-1.4
			c0-0.7-0.2-1.3-0.5-1.6c-0.3-0.4-0.8-0.5-1.3-0.5c-0.5,0-0.9,0.2-1.3,0.5c-0.3,0.4-0.5,0.9-0.5,1.6V-2637z"/>
	</g>
	<g>
		<path fill="#FFFFFF" d="M229.3-2658.9c1.4,0,2.4,0.4,2.9,1.2c0.6,0.8,0.9,1.9,0.9,3.4v5c0,1.4-0.3,2.5-1,3.3
			c-0.6,0.8-1.7,1.2-3,1.2c-0.4,0-0.7,0-1-0.1c-0.3-0.1-0.5-0.1-0.7-0.2c-0.2-0.1-0.4-0.2-0.6-0.3c0,0.1-0.1,0.2-0.2,0.3
			c-0.1,0.1-0.2,0.1-0.3,0.2c-0.1,0.1-0.3,0.1-0.5,0.1h-2.7v-0.8c0-0.4,0.1-0.6,0.2-0.8c0.1-0.2,0.3-0.4,0.4-0.4
			c0.1-0.1,0.2-0.1,0.2-0.2c0-0.1,0.1-0.2,0.1-0.4v-15.3c0-0.3-0.1-0.5-0.3-0.6c-0.1-0.1-0.3-0.3-0.4-0.5c-0.1-0.2-0.2-0.5-0.2-0.8
			v-0.9h2.3c0.4,0,0.7,0.1,0.9,0.3c0.3,0.2,0.4,0.6,0.4,1.2v6.1c0.2-0.1,0.4-0.3,0.6-0.4c0.2-0.1,0.5-0.2,0.8-0.3
			C228.6-2658.9,228.9-2658.9,229.3-2658.9z M230.4-2654.5c0-0.7-0.2-1.3-0.5-1.6c-0.3-0.4-0.7-0.5-1.3-0.5c-0.2,0-0.5,0-0.7,0.1
			c-0.2,0.1-0.4,0.1-0.5,0.2c-0.2,0.1-0.4,0.2-0.5,0.3c0,1.4,0,2.7,0,3.8v4.5c0.1,0.2,0.3,0.3,0.5,0.4c0.2,0.1,0.4,0.2,0.6,0.3
			c0.2,0.1,0.5,0.1,0.9,0.1c1.1,0,1.6-0.7,1.6-2.1V-2654.5z"/>
		<path fill="#FFFFFF" d="M238.6-2647c0.1,0.1,0.3,0.2,0.4,0.5c0.1,0.2,0.2,0.5,0.2,0.8l0,0.8h-4.6v-0.8c0-0.4,0.1-0.6,0.2-0.8
			c0.1-0.2,0.3-0.4,0.4-0.5c0.1-0.1,0.1-0.1,0.2-0.2c0.1-0.1,0.1-0.2,0.1-0.3v-8.7c0-0.2-0.1-0.4-0.3-0.5c-0.1-0.1-0.3-0.2-0.4-0.4
			c-0.1-0.2-0.2-0.5-0.2-0.8v-0.9h2.9c0.4,0,0.6,0.2,0.6,0.5v10.7c0,0.2,0,0.3,0.1,0.4C238.5-2647.1,238.5-2647,238.6-2647z
			 M236.9-2660.5c-0.4,0-0.8-0.1-1-0.4c-0.3-0.3-0.4-0.6-0.4-1c0-0.4,0.1-0.8,0.4-1c0.3-0.3,0.6-0.4,1-0.4c0.4,0,0.7,0.1,1,0.4
			c0.3,0.3,0.4,0.6,0.4,1c0,0.4-0.1,0.7-0.4,1C237.6-2660.6,237.3-2660.5,236.9-2660.5z"/>
		<path fill="#FFFFFF" d="M243.3-2651.2v2.5c0,0.7,0.2,1.2,0.5,1.4c0.4,0.2,0.8,0.3,1.3,0.3c0.5,0,0.9-0.1,1.2-0.4
			c0.3-0.3,0.5-0.6,0.4-1v-0.1c0-0.4,0.1-0.8,0.4-1.1c0.3-0.3,0.6-0.5,1.1-0.5h1.1v1.9c0,1.2-0.4,2.1-1.2,2.6
			c-0.8,0.5-1.9,0.8-3.2,0.8c-1.4,0-2.5-0.3-3.3-1c-0.8-0.7-1.2-1.7-1.2-3.1v-5.5c0-1.4,0.4-2.5,1.2-3.3s1.9-1.2,3.3-1.2
			c1.4,0,2.4,0.4,3.2,1.2c0.8,0.8,1.2,1.9,1.2,3.3v1.8c0,0.9-0.6,1.4-1.8,1.4H243.3z M243.3-2653.1h3.2h0.4v-1.4
			c0-0.7-0.2-1.3-0.5-1.6c-0.3-0.4-0.8-0.5-1.3-0.5c-0.5,0-0.9,0.2-1.3,0.5c-0.3,0.4-0.5,0.9-0.5,1.6V-2653.1z"/>
		<path fill="#FFFFFF" d="M256.8-2658.9c1.4,0,2.4,0.4,2.9,1.2c0.6,0.8,0.9,1.9,0.9,3.4v5c0,1.4-0.3,2.5-1,3.3
			c-0.6,0.8-1.7,1.2-3,1.2c-0.4,0-0.7,0-1-0.1c-0.3-0.1-0.5-0.1-0.7-0.2c-0.2-0.1-0.4-0.2-0.6-0.3c0,0.1-0.1,0.2-0.2,0.3
			c-0.1,0.1-0.2,0.1-0.3,0.2c-0.1,0.1-0.3,0.1-0.5,0.1h-2.7v-0.8c0-0.4,0.1-0.6,0.2-0.8c0.1-0.2,0.3-0.4,0.4-0.4
			c0.1-0.1,0.2-0.1,0.2-0.2c0-0.1,0.1-0.2,0.1-0.4v-15.3c0-0.3-0.1-0.5-0.3-0.6c-0.1-0.1-0.3-0.3-0.4-0.5c-0.1-0.2-0.2-0.5-0.2-0.8
			v-0.9h2.3c0.4,0,0.7,0.1,0.9,0.3c0.3,0.2,0.4,0.6,0.4,1.2v6.1c0.2-0.1,0.4-0.3,0.6-0.4c0.2-0.1,0.5-0.2,0.8-0.3
			C256.1-2658.9,256.5-2658.9,256.8-2658.9z M258-2654.5c0-0.7-0.2-1.3-0.5-1.6c-0.3-0.4-0.7-0.5-1.3-0.5c-0.2,0-0.5,0-0.7,0.1
			c-0.2,0.1-0.4,0.1-0.5,0.2c-0.2,0.1-0.4,0.2-0.5,0.3c0,1.4,0,2.7,0,3.8v4.5c0.1,0.2,0.3,0.3,0.5,0.4c0.2,0.1,0.4,0.2,0.6,0.3
			c0.2,0.1,0.5,0.1,0.9,0.1c1.1,0,1.6-0.7,1.6-2.1V-2654.5z"/>
	</g>
	<g>
		<path fill="#FFFFFF" d="M286.7-2625.3c0.1,0,0.2,0,0.3,0c0.1,0,0.2,0.2,0.2,0.3v1c0,0.2,0,0.4-0.1,0.5c-0.1,0.1-0.2,0.1-0.2,0.2
			c-0.7,0.2-1.3,0.2-1.8,0.1c-0.5-0.1-1-0.3-1.4-0.5c-0.4-0.3-0.7-0.6-0.9-1c-0.2-0.4-0.3-0.8-0.3-1.3v-8.8h-1.6v-0.7
			c0-0.6,0.1-1,0.4-1.3c0.2-0.3,0.7-0.4,1.3-0.4v-3.4v-0.1c0-0.6,0.1-1.1,0.4-1.4c0.3-0.3,0.6-0.6,0.9-0.7c0.4-0.2,0.8-0.3,1.3-0.3
			v6h1.7v0.6c0,0.5-0.1,1-0.4,1.3c-0.3,0.4-0.7,0.5-1.3,0.5v8.3c0,0.4,0.1,0.7,0.4,0.9C285.8-2625.3,286.2-2625.2,286.7-2625.3z"/>
		<path fill="#FFFFFF" d="M292.7-2637.2c0.7,0,1.3,0.1,1.8,0.3c0.5,0.2,1,0.5,1.4,0.8c0.4,0.3,0.7,0.7,0.9,1.2
			c0.2,0.5,0.3,0.9,0.3,1.4v6.5c0,1.2-0.4,2.2-1.2,2.9c-0.8,0.7-1.9,1-3.2,1c-1.4,0-2.5-0.4-3.3-1.1c-0.8-0.7-1.2-1.8-1.2-3.2v-5.6
			c0-1.4,0.4-2.5,1.2-3.2C290.2-2636.9,291.3-2637.2,292.7-2637.2z M292.7-2625.3c0.5,0,0.9-0.2,1.3-0.5c0.3-0.3,0.5-0.8,0.5-1.4
			v-5.8c0-0.8-0.2-1.3-0.5-1.6c-0.4-0.3-0.8-0.4-1.3-0.4c-0.5,0-0.9,0.1-1.3,0.4c-0.3,0.3-0.5,0.8-0.5,1.5v5.9
			c0,0.7,0.2,1.2,0.5,1.5C291.7-2625.4,292.2-2625.3,292.7-2625.3z"/>
		<path fill="#FFFFFF" d="M301.6-2629.6v2.5c0,0.7,0.2,1.2,0.5,1.4c0.4,0.2,0.8,0.3,1.3,0.3c0.5,0,0.9-0.1,1.2-0.4
			c0.3-0.3,0.5-0.6,0.4-1v-0.1c0-0.4,0.1-0.8,0.4-1.1c0.3-0.3,0.6-0.5,1.1-0.5h1.1v1.9c0,1.2-0.4,2.1-1.2,2.6
			c-0.8,0.5-1.9,0.8-3.2,0.8c-1.4,0-2.5-0.3-3.3-1c-0.8-0.7-1.2-1.7-1.2-3.1v-5.5c0-1.4,0.4-2.5,1.2-3.3c0.8-0.8,1.9-1.2,3.3-1.2
			c1.4,0,2.4,0.4,3.2,1.2c0.8,0.8,1.2,1.9,1.2,3.3v1.8c0,0.9-0.6,1.4-1.8,1.4H301.6z M301.6-2631.5h3.2h0.4v-1.4
			c0-0.7-0.2-1.3-0.5-1.6c-0.3-0.4-0.8-0.5-1.3-0.5c-0.5,0-0.9,0.2-1.3,0.5c-0.3,0.4-0.5,0.9-0.5,1.6V-2631.5z"/>
	</g>
	<g>
		<rect x="56.2" y="-2668.4" fill="#1E1E1C" width="52" height="38.9"/>
		<path fill="#FFFFFF" d="M72.9-2656.8v0.9c0,0.4-0.1,0.6-0.2,0.8c-0.1,0.2-0.3,0.4-0.4,0.5c-0.1,0.1-0.2,0.1-0.2,0.2
			c0,0.1-0.1,0.2-0.1,0.4v14.2c0,1.4-0.4,2.5-1.2,3.2c-0.8,0.7-1.9,1-3.3,1c-0.7,0-1.3-0.1-1.8-0.3c-0.5-0.2-1-0.5-1.4-0.8
			c-0.4-0.3-0.7-0.7-0.9-1.2c-0.2-0.4-0.3-0.9-0.3-1.4v-1.6h1.1c1,0,1.5,0.4,1.5,1.3v0.3c0,0.5,0.1,0.8,0.4,1.1
			c0.3,0.3,0.7,0.4,1.3,0.4c0.5,0,1-0.1,1.4-0.4c0.4-0.2,0.6-0.7,0.6-1.5v-3.7c-0.3,0.2-0.6,0.4-0.9,0.6c-0.3,0.1-0.8,0.2-1.3,0.2
			c-1.4,0-2.4-0.4-3-1.3c-0.6-0.9-1-2-1-3.4v-5c0-1.4,0.3-2.5,0.9-3.3c0.6-0.8,1.5-1.2,2.9-1.2c0.7,0,1.3,0.1,1.7,0.3
			c0.4,0.2,0.7,0.3,0.8,0.4c0-0.1,0.1-0.2,0.1-0.3c0-0.1,0.1-0.1,0.2-0.2c0.1-0.1,0.2-0.1,0.3-0.1H72.9z M69.3-2646v-7.9
			c-0.1-0.1-0.3-0.3-0.4-0.4c-0.1-0.1-0.3-0.2-0.5-0.3c-0.2-0.1-0.5-0.1-0.8-0.1c-0.5,0-0.9,0.2-1.3,0.5c-0.3,0.3-0.5,0.8-0.5,1.4
			v5.9c0,0.6,0.1,1.2,0.4,1.5c0.3,0.4,0.7,0.5,1.2,0.5c0.4,0,0.6,0,0.9-0.1c0.2-0.1,0.4-0.2,0.6-0.3c0.2-0.1,0.3-0.3,0.5-0.4V-2646z
			"/>
		<path fill="#FFFFFF" d="M77.9-2644.9c0.1,0.1,0.3,0.2,0.4,0.5c0.1,0.2,0.2,0.5,0.2,0.8l0,0.8H74v-0.8c0-0.4,0.1-0.6,0.2-0.8
			s0.3-0.4,0.4-0.5c0.1-0.1,0.1-0.1,0.2-0.2c0.1-0.1,0.1-0.2,0.1-0.3v-8.7c0-0.2-0.1-0.4-0.3-0.5c-0.1-0.1-0.3-0.2-0.4-0.4
			c-0.1-0.2-0.2-0.5-0.2-0.8v-0.9h2.9c0.4,0,0.6,0.2,0.6,0.5v10.7c0,0.2,0,0.3,0.1,0.4C77.7-2645.1,77.8-2645,77.9-2644.9z
			 M76.1-2658.5c-0.4,0-0.8-0.1-1-0.4c-0.3-0.3-0.4-0.6-0.4-1c0-0.4,0.1-0.8,0.4-1s0.6-0.4,1-0.4c0.4,0,0.7,0.1,1,0.4s0.4,0.6,0.4,1
			c0,0.4-0.1,0.7-0.4,1C76.8-2658.6,76.5-2658.5,76.1-2658.5z"/>
		<path fill="#FFFFFF" d="M89.7-2645c0.1,0.1,0.3,0.3,0.4,0.5c0.1,0.2,0.2,0.5,0.2,0.8v0.8h-2.3c-0.5,0-0.8-0.2-1-0.5
			c-0.2-0.3-0.3-0.8-0.3-1.2v-7.9c0-0.8-0.2-1.3-0.5-1.6s-0.8-0.4-1.3-0.4c-0.3,0-0.6,0-0.8,0.1s-0.4,0.2-0.6,0.3
			c-0.2,0.1-0.3,0.2-0.4,0.4v8.3c0,0.2,0,0.3,0.1,0.4c0.1,0.1,0.1,0.1,0.2,0.2c0.1,0.1,0.3,0.3,0.4,0.5c0.1,0.2,0.2,0.5,0.2,0.8v0.8
			h-4.5v-0.8c0-0.4,0.1-0.6,0.2-0.8c0.1-0.2,0.3-0.4,0.4-0.4c0.1-0.1,0.2-0.1,0.2-0.2c0.1-0.1,0.1-0.2,0.1-0.4v-8.5
			c0-0.1,0-0.2-0.1-0.3c-0.1-0.1-0.1-0.1-0.2-0.2c-0.1-0.1-0.3-0.2-0.4-0.4c-0.1-0.2-0.2-0.5-0.2-0.8v-0.9h3c0.1,0,0.3,0,0.3,0.1
			c0.1,0.1,0.1,0.1,0.2,0.2c0,0.1,0.1,0.2,0.1,0.3c0.2-0.1,0.4-0.2,0.6-0.3c0.2-0.1,0.5-0.2,0.8-0.2c0.3-0.1,0.7-0.1,1-0.1
			c1.4,0,2.4,0.4,2.9,1.1s0.9,1.8,0.9,3.3v7c0,0.2,0,0.3,0.1,0.4C89.6-2645.1,89.7-2645,89.7-2645z"/>
		<path fill="#FFFFFF" d="M101.6-2656.8v0.9c0,0.4-0.1,0.6-0.2,0.8c-0.1,0.2-0.3,0.4-0.4,0.5c-0.1,0.1-0.2,0.1-0.2,0.2
			c0,0.1-0.1,0.2-0.1,0.4v14.2c0,1.4-0.4,2.5-1.2,3.2c-0.8,0.7-1.9,1-3.3,1c-0.7,0-1.3-0.1-1.8-0.3c-0.5-0.2-1-0.5-1.4-0.8
			c-0.4-0.3-0.7-0.7-0.9-1.2c-0.2-0.4-0.3-0.9-0.3-1.4v-1.6h1.1c1,0,1.5,0.4,1.5,1.3v0.3c0,0.5,0.1,0.8,0.4,1.1
			c0.3,0.3,0.7,0.4,1.3,0.4c0.5,0,1-0.1,1.4-0.4c0.4-0.2,0.6-0.7,0.6-1.5v-3.7c-0.3,0.2-0.6,0.4-0.9,0.6c-0.3,0.1-0.8,0.2-1.3,0.2
			c-1.4,0-2.4-0.4-3-1.3c-0.6-0.9-1-2-1-3.4v-5c0-1.4,0.3-2.5,0.9-3.3s1.5-1.2,2.9-1.2c0.7,0,1.3,0.1,1.7,0.3
			c0.4,0.2,0.7,0.3,0.8,0.4c0-0.1,0.1-0.2,0.1-0.3c0-0.1,0.1-0.1,0.2-0.2c0.1-0.1,0.2-0.1,0.3-0.1H101.6z M98-2646v-7.9
			c-0.1-0.1-0.3-0.3-0.4-0.4c-0.1-0.1-0.3-0.2-0.5-0.3c-0.2-0.1-0.5-0.1-0.8-0.1c-0.5,0-0.9,0.2-1.3,0.5c-0.3,0.3-0.5,0.8-0.5,1.4
			v5.9c0,0.6,0.1,1.2,0.4,1.5c0.3,0.4,0.7,0.5,1.2,0.5c0.4,0,0.6,0,0.9-0.1c0.2-0.1,0.4-0.2,0.6-0.3c0.2-0.1,0.3-0.3,0.5-0.4V-2646z
			"/>
	</g>
</g>
<g>
	<path fill="none" stroke="#000000" stroke-width="0.5569" stroke-miterlimit="10" d="M0,278.3c140.4,39.7,280.8-39.7,421.2,0"/>
	<path fill="none" stroke="#000000" stroke-width="0.5569" stroke-miterlimit="10" d="M0,288.1c140.4,39.7,280.8-39.7,421.2,0"/>
	<path fill="none" stroke="#000000" stroke-width="0.5569" stroke-miterlimit="10" d="M0,297.9c140.4,39.7,280.8-39.7,421.2,0"/>
	<path fill="none" stroke="#000000" stroke-width="0.5569" stroke-miterlimit="10" d="M0,307.8c140.4,39.7,280.8-39.7,421.2,0"/>
	<path fill="none" stroke="#000000" stroke-width="0.5569" stroke-miterlimit="10" d="M0,317.6c140.4,39.7,280.8-39.7,421.2,0"/>
</g>
<g>
	<path fill="none" stroke="#000000" stroke-width="0.5569" stroke-miterlimit="10" d="M420.7,278.3c140.4,39.7,280.8-39.7,421.2,0"
		/>
	<path fill="none" stroke="#000000" stroke-width="0.5569" stroke-miterlimit="10" d="M420.7,288.1c140.4,39.7,280.8-39.7,421.2,0"
		/>
	<path fill="none" stroke="#000000" stroke-width="0.5569" stroke-miterlimit="10" d="M420.7,297.9c140.4,39.7,280.8-39.7,421.2,0"
		/>
	<path fill="none" stroke="#000000" stroke-width="0.5569" stroke-miterlimit="10" d="M420.7,307.8c140.4,39.7,280.8-39.7,421.2,0"
		/>
	<path fill="none" stroke="#000000" stroke-width="0.5569" stroke-miterlimit="10" d="M420.7,317.6c140.4,39.7,280.8-39.7,421.2,0"
		/>
</g>
<path d="M285.9,311.3v4.5v1.2c0,0.7-0.1,1.3-0.1,1.8c-0.1,0.5-0.2,0.9-0.5,1.3c-0.2,0.4-0.5,0.8-1,1.2s-0.9,1-1.5,1.5
	c-0.4,0.4-0.6,0.5-0.7,0.4c-0.1-0.1-0.4-0.2-0.6-0.4c-0.3-0.2-0.4-0.4-0.4-0.6c0-0.1,0.2-0.4,0.7-0.8c1.2-1.2,1.9-2.4,1.8-3.4
	c-0.1-1-0.5-1.4-1.5-1.4s-1.6-0.1-2-0.2c-0.4-0.1-0.6-0.4-0.6-0.7v-4.3c0-0.4,0.3-0.6,1-0.7c0.6-0.1,1.4-0.2,2.3-0.2
	c1,0,1.7,0.1,2.3,0.2C285.6,310.9,285.9,311.1,285.9,311.3z"/>
<path d="M656.8,311.3v4.5v1.2c0,0.7-0.1,1.3-0.1,1.8c-0.1,0.5-0.2,0.9-0.5,1.3s-0.5,0.8-1,1.2c-0.4,0.4-0.9,1-1.5,1.5
	c-0.4,0.4-0.6,0.5-0.7,0.4c-0.1-0.1-0.4-0.2-0.6-0.4c-0.3-0.2-0.4-0.4-0.4-0.6c0-0.1,0.2-0.4,0.7-0.8c1.2-1.2,1.9-2.4,1.8-3.4
	c-0.1-1-0.5-1.4-1.5-1.4c-1,0-1.6-0.1-2-0.2c-0.4-0.1-0.6-0.4-0.6-0.7v-4.3c0-0.4,0.3-0.6,1-0.7c0.6-0.1,1.4-0.2,2.3-0.2
	c1,0,1.7,0.1,2.3,0.2C656.5,310.9,656.8,311.1,656.8,311.3z"/>
<g>
	<g>
		<rect x="291.6" y="292.8" width="18.7" height="21.7"/>
		<rect x="336.6" y="272.7" width="18.7" height="21.7"/>
		<rect x="313.6" y="284.5" width="18.7" height="21.7"/>
		<path fill="#FFFFFF" d="M298.2,307.8c0.1,0,0.1,0,0.2,0s0.1,0.1,0.1,0.2v0.6c0,0.1,0,0.2-0.1,0.3c-0.1,0.1-0.1,0.1-0.1,0.1
			c-0.4,0.1-0.8,0.1-1.1,0.1c-0.3-0.1-0.6-0.2-0.8-0.3c-0.2-0.2-0.4-0.4-0.5-0.6c-0.1-0.2-0.2-0.5-0.2-0.8v-5.2h-1v-0.4
			c0-0.4,0.1-0.6,0.2-0.8c0.1-0.2,0.4-0.2,0.8-0.2v-2v-0.1c0-0.4,0.1-0.7,0.2-0.8c0.2-0.2,0.4-0.4,0.5-0.4c0.2-0.1,0.5-0.2,0.8-0.2
			v3.6h1v0.4c0,0.3-0.1,0.6-0.2,0.8c-0.2,0.2-0.4,0.3-0.8,0.3v4.9c0,0.2,0.1,0.4,0.2,0.5C297.6,307.8,297.9,307.8,298.2,307.8z"/>
		<path fill="#FFFFFF" d="M301.4,307.8c0.1,0.1,0.2,0.1,0.2,0.3c0.1,0.1,0.1,0.3,0.1,0.5v0.5H299v-0.5c0-0.2,0.1-0.4,0.1-0.5
			c0.1-0.1,0.2-0.2,0.2-0.3c0.1-0.1,0.1-0.1,0.1-0.1c0.1-0.1,0.1-0.1,0.1-0.2v-5.2c0-0.1-0.1-0.2-0.2-0.3c-0.1-0.1-0.2-0.1-0.2-0.2
			s-0.1-0.3-0.1-0.5v-0.5h1.7c0.2,0,0.4,0.1,0.4,0.3v6.4c0,0.1,0,0.2,0.1,0.2C301.3,307.7,301.4,307.8,301.4,307.8z M300.4,299.7
			c-0.2,0-0.5-0.1-0.6-0.2c-0.2-0.2-0.2-0.4-0.2-0.6s0.1-0.5,0.2-0.6s0.4-0.2,0.6-0.2c0.2,0,0.4,0.1,0.6,0.2
			c0.2,0.2,0.2,0.4,0.2,0.6s-0.1,0.4-0.2,0.6C300.8,299.7,300.6,299.7,300.4,299.7z"/>
		<path fill="#FFFFFF" d="M304.2,305.3v1.5c0,0.4,0.1,0.7,0.3,0.8c0.2,0.1,0.5,0.2,0.8,0.2s0.5-0.1,0.7-0.2c0.2-0.2,0.3-0.4,0.2-0.6
			v-0.1c0-0.2,0.1-0.5,0.2-0.7c0.2-0.2,0.4-0.3,0.7-0.3h0.7v1.1c0,0.7-0.2,1.2-0.7,1.5c-0.5,0.3-1.1,0.5-1.9,0.5
			c-0.8,0-1.5-0.2-2-0.6c-0.5-0.4-0.7-1-0.7-1.8v-3.3c0-0.8,0.2-1.5,0.7-2c0.5-0.5,1.1-0.7,2-0.7s1.4,0.2,1.9,0.7
			c0.5,0.5,0.7,1.1,0.7,2v1.1c0,0.5-0.4,0.8-1.1,0.8C306.6,305.3,304.2,305.3,304.2,305.3z M304.2,304.1h1.9h0.2v-0.8
			c0-0.4-0.1-0.8-0.3-1c-0.2-0.2-0.5-0.3-0.8-0.3c-0.3,0-0.5,0.1-0.8,0.3c-0.2,0.2-0.3,0.5-0.3,1L304.2,304.1L304.2,304.1z"/>
		<path fill="#FFFFFF" d="M322.6,293.3c-0.1,0-0.2,0-0.2,0c-0.2-0.1-0.5-0.1-0.8-0.1c-0.2,0.1-0.5,0.1-0.7,0.2
			c-0.2,0.1-0.4,0.2-0.5,0.4c-0.1,0.2-0.2,0.4-0.2,0.5v4.1c0,0.1,0,0.2,0.1,0.2c0,0.1,0.1,0.1,0.1,0.1c0.1,0.1,0.2,0.1,0.2,0.3
			c0.1,0.1,0.1,0.3,0.1,0.5v0.5h-2.7v-0.5c0-0.2,0.1-0.4,0.1-0.5s0.2-0.2,0.2-0.3c0.1-0.1,0.1-0.1,0.1-0.1s0.1-0.1,0.1-0.2v-5
			c0-0.1-0.1-0.2-0.2-0.3c-0.1-0.1-0.2-0.1-0.2-0.2c-0.1-0.1-0.1-0.3-0.1-0.5v-0.5h1.7c0.2,0,0.4,0.1,0.4,0.4v0.2
			c0.1-0.1,0.3-0.2,0.5-0.3c0.1-0.1,0.3-0.2,0.5-0.2c0.2-0.1,0.4-0.1,0.5-0.1c0.2,0,0.5,0,0.7,0.1c0.1,0,0.1,0.1,0.2,0.1
			c0.1,0.1,0.1,0.1,0.1,0.2v1C322.7,293.2,322.7,293.3,322.6,293.3z"/>
		<path fill="#FFFFFF" d="M324.9,296.3v1.5c0,0.4,0.1,0.7,0.3,0.8c0.2,0.1,0.5,0.2,0.8,0.2s0.5-0.1,0.7-0.2c0.2-0.2,0.3-0.4,0.2-0.6
			v-0.1c0-0.2,0.1-0.5,0.2-0.7s0.4-0.3,0.7-0.3h0.7v1.1c0,0.7-0.2,1.2-0.7,1.5c-0.5,0.3-1.1,0.5-1.9,0.5c-0.8,0-1.5-0.2-2-0.6
			c-0.5-0.4-0.7-1-0.7-1.8v-3.3c0-0.8,0.2-1.5,0.7-2c0.5-0.5,1.1-0.7,2-0.7s1.4,0.2,1.9,0.7c0.5,0.5,0.7,1.1,0.7,2v1.1
			c0,0.5-0.4,0.8-1.1,0.8C327.4,296.3,324.9,296.3,324.9,296.3z M324.9,295.2h1.9h0.2v-0.8c0-0.4-0.1-0.8-0.3-1
			c-0.2-0.2-0.5-0.3-0.8-0.3c-0.3,0-0.5,0.1-0.8,0.3c-0.2,0.2-0.3,0.5-0.3,1L324.9,295.2L324.9,295.2z"/>
		<rect x="359.5" y="278.9" width="18.7" height="21.7"/>
		<path fill="#FFFFFF" d="M368.5,287.7c-0.1,0-0.2,0-0.2,0c-0.2-0.1-0.5-0.1-0.8-0.1c-0.2,0.1-0.5,0.1-0.7,0.2
			c-0.2,0.1-0.4,0.2-0.5,0.4s-0.2,0.4-0.2,0.5v4.1c0,0.1,0,0.2,0.1,0.2c0,0.1,0.1,0.1,0.1,0.1c0.1,0.1,0.2,0.1,0.2,0.3
			c0.1,0.1,0.1,0.3,0.1,0.5v0.5h-2.7V294c0-0.2,0.1-0.4,0.1-0.5c0.1-0.1,0.2-0.2,0.2-0.3c0.1-0.1,0.1-0.1,0.1-0.1
			c0-0.1,0.1-0.1,0.1-0.2v-5c0-0.1-0.1-0.2-0.2-0.3c-0.1-0.1-0.2-0.1-0.2-0.2c-0.1-0.1-0.1-0.3-0.1-0.5v-0.5h1.7
			c0.2,0,0.4,0.1,0.4,0.4v0.2c0.1-0.1,0.3-0.2,0.5-0.3c0.1-0.1,0.3-0.2,0.5-0.2c0.2-0.1,0.4-0.1,0.5-0.1c0.2,0,0.5,0,0.7,0.1
			c0.1,0,0.1,0.1,0.2,0.1c0.1,0.1,0.1,0.1,0.1,0.2v1C368.7,287.6,368.6,287.6,368.5,287.7z"/>
		<path fill="#FFFFFF" d="M370.9,290.7v1.5c0,0.4,0.1,0.7,0.3,0.8c0.2,0.1,0.5,0.2,0.8,0.2s0.5-0.1,0.7-0.2c0.2-0.2,0.3-0.4,0.2-0.6
			v-0.1c0-0.2,0.1-0.5,0.2-0.7c0.2-0.2,0.4-0.3,0.7-0.3h0.7v1.1c0,0.7-0.2,1.2-0.7,1.5c-0.5,0.3-1.1,0.5-1.9,0.5
			c-0.8,0-1.5-0.2-2-0.6c-0.5-0.4-0.7-1-0.7-1.8v-3.3c0-0.8,0.2-1.5,0.7-2s1.1-0.7,2-0.7s1.4,0.2,1.9,0.7c0.5,0.5,0.7,1.1,0.7,2v1.1
			c0,0.5-0.4,0.8-1.1,0.8C373.4,290.7,370.9,290.7,370.9,290.7z M370.9,289.5h1.9h0.2v-0.8c0-0.4-0.1-0.8-0.3-1
			c-0.2-0.2-0.5-0.3-0.8-0.3s-0.5,0.1-0.8,0.3c-0.2,0.2-0.3,0.5-0.3,1L370.9,289.5L370.9,289.5z"/>
		<rect x="404" y="269.9" width="18.7" height="21.7"/>
		<path fill="#FFFFFF" d="M413,278.6c-0.1,0-0.2,0-0.2,0c-0.2-0.1-0.5-0.1-0.8-0.1c-0.2,0.1-0.5,0.1-0.7,0.2s-0.4,0.2-0.5,0.4
			s-0.2,0.4-0.2,0.5v4.1c0,0.1,0,0.2,0.1,0.2c0,0.1,0.1,0.1,0.1,0.1c0.1,0.1,0.2,0.1,0.2,0.3c0.1,0.1,0.1,0.3,0.1,0.5v0.5h-2.7v-0.5
			c0-0.2,0.1-0.4,0.1-0.5c0.1-0.1,0.2-0.2,0.2-0.3c0.1-0.1,0.1-0.1,0.1-0.1c0-0.1,0.1-0.1,0.1-0.2v-5c0-0.1-0.1-0.2-0.2-0.3
			c-0.1-0.1-0.2-0.1-0.2-0.2c-0.1-0.1-0.1-0.3-0.1-0.5v-0.5h1.7c0.2,0,0.4,0.1,0.4,0.4v0.2c0.1-0.1,0.3-0.2,0.5-0.3
			c0.1-0.1,0.3-0.2,0.5-0.2c0.2-0.1,0.4-0.1,0.5-0.1c0.2,0,0.5,0,0.7,0.1c0.1,0,0.1,0.1,0.2,0.1c0.1,0.1,0.1,0.1,0.1,0.2v1
			C413.2,278.5,413.1,278.6,413,278.6z"/>
		<path fill="#FFFFFF" d="M415.4,281.6v1.5c0,0.4,0.1,0.7,0.3,0.8c0.2,0.1,0.5,0.2,0.8,0.2s0.5-0.1,0.7-0.2c0.2-0.2,0.3-0.4,0.2-0.6
			v-0.1c0-0.2,0.1-0.5,0.2-0.7c0.2-0.2,0.4-0.3,0.7-0.3h0.7v1.1c0,0.7-0.2,1.2-0.7,1.5c-0.5,0.3-1.1,0.5-1.9,0.5
			c-0.8,0-1.5-0.2-2-0.6s-0.7-1-0.7-1.8v-3.3c0-0.8,0.2-1.5,0.7-2c0.5-0.5,1.1-0.7,2-0.7c0.8,0,1.4,0.2,1.9,0.7
			c0.5,0.5,0.7,1.1,0.7,2v1.1c0,0.5-0.4,0.8-1.1,0.8C417.8,281.6,415.4,281.6,415.4,281.6z M415.4,280.5h1.9h0.2v-0.8
			c0-0.4-0.1-0.8-0.3-1c-0.2-0.2-0.5-0.3-0.8-0.3s-0.5,0.1-0.8,0.3c-0.2,0.2-0.3,0.5-0.3,1L415.4,280.5L415.4,280.5z"/>
		<path fill="#FFFFFF" d="M342.9,287.8c0.1,0.1,0.2,0.1,0.2,0.3c0.1,0.1,0.1,0.3,0.1,0.5v0.5h-2.7v-0.5c0-0.2,0.1-0.4,0.1-0.5
			s0.2-0.2,0.2-0.3c0.1-0.1,0.1-0.1,0.1-0.1c0.1-0.1,0.1-0.1,0.1-0.2v-9.3c0-0.1-0.1-0.2-0.2-0.3c-0.1-0.1-0.2-0.1-0.2-0.2
			c-0.1-0.1-0.1-0.3-0.1-0.5v-0.5h1.7c0.3,0,0.4,0.1,0.4,0.4v10.4c0,0.1,0,0.2,0.1,0.2C342.8,287.7,342.9,287.8,342.9,287.8z"/>
		<path fill="#FFFFFF" d="M346.2,287.8c0.1,0.1,0.2,0.1,0.2,0.3c0.1,0.1,0.1,0.3,0.1,0.5v0.5h-2.7v-0.5c0-0.2,0.1-0.4,0.1-0.5
			c0.1-0.1,0.2-0.2,0.2-0.3c0.1-0.1,0.1-0.1,0.1-0.1c0.1-0.1,0.1-0.1,0.1-0.2v-5.2c0-0.1-0.1-0.2-0.2-0.3c-0.1-0.1-0.2-0.1-0.2-0.2
			c-0.1-0.1-0.1-0.3-0.1-0.5v-0.5h1.7c0.2,0,0.4,0.1,0.4,0.3v6.4c0,0.1,0,0.2,0.1,0.2C346.1,287.7,346.2,287.8,346.2,287.8z
			 M345.2,279.8c-0.2,0-0.5-0.1-0.6-0.2c-0.2-0.2-0.2-0.4-0.2-0.6s0.1-0.5,0.2-0.6c0.2-0.2,0.4-0.2,0.6-0.2s0.4,0.1,0.6,0.2
			c0.2,0.2,0.2,0.4,0.2,0.6s-0.1,0.4-0.2,0.6C345.6,279.7,345.4,279.8,345.2,279.8z"/>
		<path fill="#FFFFFF" d="M349,285.3v1.5c0,0.4,0.1,0.7,0.3,0.8c0.2,0.1,0.5,0.2,0.8,0.2s0.5-0.1,0.7-0.2c0.2-0.2,0.3-0.4,0.2-0.6
			v-0.1c0-0.2,0.1-0.5,0.2-0.7c0.2-0.2,0.4-0.3,0.7-0.3h0.7v1.1c0,0.7-0.2,1.2-0.7,1.5c-0.5,0.3-1.1,0.5-1.9,0.5
			c-0.8,0-1.5-0.2-2-0.6c-0.5-0.4-0.7-1-0.7-1.8v-3.3c0-0.8,0.2-1.5,0.7-2c0.5-0.5,1.1-0.7,2-0.7c0.8,0,1.4,0.2,1.9,0.7
			c0.5,0.5,0.7,1.1,0.7,2v1.1c0,0.5-0.4,0.8-1.1,0.8C351.5,285.3,349,285.3,349,285.3z M349,284.1h1.9h0.2v-0.8c0-0.4-0.1-0.8-0.3-1
			c-0.2-0.2-0.5-0.3-0.8-0.3s-0.5,0.1-0.8,0.3c-0.2,0.2-0.3,0.5-0.3,1L349,284.1L349,284.1z"/>
		<rect x="382" y="286" width="18.7" height="21.7"/>
		<path fill="#FFFFFF" d="M388.3,301.1c0.1,0.1,0.2,0.1,0.2,0.3c0.1,0.1,0.1,0.3,0.1,0.5v0.5H386v-0.5c0-0.2,0.1-0.4,0.1-0.5
			c0.1-0.1,0.2-0.2,0.2-0.3c0.1-0.1,0.1-0.1,0.1-0.1c0.1-0.1,0.1-0.1,0.1-0.2v-9.3c0-0.1-0.1-0.2-0.2-0.3c-0.1-0.1-0.2-0.1-0.2-0.2
			c-0.1-0.1-0.1-0.3-0.1-0.5V290h1.7c0.3,0,0.4,0.1,0.4,0.4v10.4c0,0.1,0,0.2,0.1,0.2C388.2,301.1,388.3,301.1,388.3,301.1z"/>
		<path fill="#FFFFFF" d="M391.6,301.1c0.1,0.1,0.2,0.1,0.2,0.3c0.1,0.1,0.1,0.3,0.1,0.5v0.5h-2.7v-0.5c0-0.2,0.1-0.4,0.1-0.5
			c0.1-0.1,0.2-0.2,0.2-0.3c0.1-0.1,0.1-0.1,0.1-0.1c0.1-0.1,0.1-0.1,0.1-0.2v-5.2c0-0.1-0.1-0.2-0.2-0.3c-0.1-0.1-0.2-0.1-0.2-0.2
			c-0.1-0.1-0.1-0.3-0.1-0.5v-0.5h1.7c0.2,0,0.4,0.1,0.4,0.3v6.4c0,0.1,0,0.2,0.1,0.2C391.5,301.1,391.6,301.1,391.6,301.1z
			 M390.6,293.1c-0.2,0-0.5-0.1-0.6-0.2c-0.2-0.2-0.2-0.4-0.2-0.6s0.1-0.5,0.2-0.6s0.4-0.2,0.6-0.2c0.2,0,0.4,0.1,0.6,0.2
			c0.2,0.2,0.2,0.4,0.2,0.6s-0.1,0.4-0.2,0.6C391,293,390.8,293.1,390.6,293.1z"/>
		<path fill="#FFFFFF" d="M394.4,298.6v1.5c0,0.4,0.1,0.7,0.3,0.8c0.2,0.1,0.5,0.2,0.8,0.2s0.5-0.1,0.7-0.2c0.2-0.2,0.3-0.4,0.2-0.6
			v-0.1c0-0.2,0.1-0.5,0.2-0.7c0.2-0.2,0.4-0.3,0.7-0.3h0.7v1.1c0,0.7-0.2,1.2-0.7,1.5c-0.5,0.3-1.1,0.5-1.9,0.5
			c-0.8,0-1.5-0.2-2-0.6s-0.7-1-0.7-1.8v-3.3c0-0.8,0.2-1.5,0.7-2c0.5-0.5,1.1-0.7,2-0.7c0.8,0,1.4,0.2,1.9,0.7
			c0.5,0.5,0.7,1.1,0.7,2v1.1c0,0.5-0.4,0.8-1.1,0.8L394.4,298.6L394.4,298.6z M394.4,297.5h1.9h0.2v-0.8c0-0.4-0.1-0.8-0.3-1
			c-0.2-0.2-0.5-0.3-0.8-0.3s-0.5,0.1-0.8,0.3c-0.2,0.2-0.3,0.5-0.3,1L394.4,297.5L394.4,297.5z"/>
	</g>
	<polygon points="310.2,314.5 313.6,306.3 313.6,284.5 310.2,292.8 	"/>
	<polygon points="332.2,284.5 336.6,272.7 336.6,294.3 332.2,306.3 	"/>
	<polygon points="355.3,272.7 359.5,278.9 359.5,300.6 355.3,294.3 	"/>
	<polygon points="378.2,278.9 382,286 382,307.6 378.2,300.6 	"/>
	<polygon points="400.7,307.6 404,291.6 404,269.9 400.7,286 	"/>
</g>
<g>
	<g>
		<rect x="662.7" y="294.6" width="18.7" height="21.7"/>
		<rect x="707.8" y="274.4" width="18.7" height="21.7"/>
		<rect x="684.7" y="286.3" width="18.7" height="21.7"/>
		<path fill="#FFFFFF" d="M669.3,309.5c0.1,0,0.1,0,0.2,0c0.1,0,0.1,0.1,0.1,0.2v0.6c0,0.1,0,0.2-0.1,0.3c-0.1,0.1-0.1,0.1-0.1,0.1
			c-0.4,0.1-0.8,0.1-1.1,0.1s-0.6-0.2-0.8-0.3c-0.2-0.2-0.4-0.4-0.5-0.6c-0.1-0.2-0.2-0.5-0.2-0.8v-5.2h-1v-0.4
			c0-0.4,0.1-0.6,0.2-0.8c0.1-0.2,0.4-0.2,0.8-0.2v-2v-0.1c0-0.4,0.1-0.7,0.2-0.8c0.2-0.2,0.4-0.4,0.5-0.4c0.2-0.1,0.5-0.2,0.8-0.2
			v3.6h1v0.4c0,0.3-0.1,0.6-0.2,0.8c-0.2,0.2-0.4,0.3-0.8,0.3v4.9c0,0.2,0.1,0.4,0.2,0.5C668.8,309.5,669,309.6,669.3,309.5z"/>
		<path fill="#FFFFFF" d="M672.6,309.5c0.1,0.1,0.2,0.1,0.2,0.3c0.1,0.1,0.1,0.3,0.1,0.5v0.5h-2.7v-0.5c0-0.2,0.1-0.4,0.1-0.5
			s0.2-0.2,0.2-0.3c0.1-0.1,0.1-0.1,0.1-0.1c0.1-0.1,0.1-0.1,0.1-0.2v-5.2c0-0.1-0.1-0.2-0.2-0.3c-0.1-0.1-0.2-0.1-0.2-0.2
			s-0.1-0.3-0.1-0.5v-0.5h1.7c0.2,0,0.4,0.1,0.4,0.3v6.4c0,0.1,0,0.2,0.1,0.2C672.4,309.5,672.5,309.5,672.6,309.5z M671.5,301.5
			c-0.2,0-0.5-0.1-0.6-0.2c-0.2-0.2-0.2-0.4-0.2-0.6s0.1-0.5,0.2-0.6c0.2-0.2,0.4-0.2,0.6-0.2c0.2,0,0.4,0.1,0.6,0.2
			c0.2,0.2,0.2,0.4,0.2,0.6s-0.1,0.4-0.2,0.6C672,301.4,671.7,301.5,671.5,301.5z"/>
		<path fill="#FFFFFF" d="M675.3,307v1.5c0,0.4,0.1,0.7,0.3,0.8c0.2,0.1,0.5,0.2,0.8,0.2c0.3,0,0.5-0.1,0.7-0.2
			c0.2-0.2,0.3-0.4,0.2-0.6v-0.1c0-0.2,0.1-0.5,0.2-0.7c0.2-0.2,0.4-0.3,0.7-0.3h0.7v1.1c0,0.7-0.2,1.2-0.7,1.5
			c-0.5,0.3-1.1,0.5-1.9,0.5c-0.8,0-1.5-0.2-2-0.6c-0.5-0.4-0.7-1-0.7-1.8v-3.3c0-0.8,0.2-1.5,0.7-2c0.5-0.5,1.1-0.7,2-0.7
			c0.8,0,1.4,0.2,1.9,0.7c0.5,0.5,0.7,1.1,0.7,2v1.1c0,0.5-0.4,0.8-1.1,0.8C677.8,307,675.3,307,675.3,307z M675.3,305.9h1.9h0.2
			V305c0-0.4-0.1-0.8-0.3-1c-0.2-0.2-0.5-0.3-0.8-0.3c-0.3,0-0.5,0.1-0.8,0.3c-0.2,0.2-0.3,0.5-0.3,1L675.3,305.9L675.3,305.9z"/>
		<path fill="#FFFFFF" d="M693.8,295.1c-0.1,0-0.2,0-0.2,0c-0.2-0.1-0.5-0.1-0.8-0.1c-0.2,0.1-0.5,0.1-0.7,0.2
			c-0.2,0.1-0.4,0.2-0.5,0.4c-0.1,0.2-0.2,0.4-0.2,0.5v4.1c0,0.1,0,0.2,0.1,0.2c0,0.1,0.1,0.1,0.1,0.1c0.1,0.1,0.2,0.1,0.2,0.3
			c0.1,0.1,0.1,0.3,0.1,0.5v0.5h-2.7v-0.5c0-0.2,0.1-0.4,0.1-0.5s0.2-0.2,0.2-0.3c0.1-0.1,0.1-0.1,0.1-0.1c0-0.1,0.1-0.1,0.1-0.2v-5
			c0-0.1-0.1-0.2-0.2-0.3c-0.1-0.1-0.2-0.1-0.2-0.2s-0.1-0.3-0.1-0.5v-0.6h1.7c0.2,0,0.4,0.1,0.4,0.4v0.2c0.1-0.1,0.3-0.2,0.5-0.3
			c0.1-0.1,0.3-0.2,0.5-0.2c0.2-0.1,0.4-0.1,0.5-0.1c0.2,0,0.5,0,0.7,0.1c0.1,0,0.1,0.1,0.2,0.1c0.1,0.1,0.1,0.1,0.1,0.2v1
			C693.9,294.9,693.8,295,693.8,295.1z"/>
		<path fill="#FFFFFF" d="M696.1,298v1.5c0,0.4,0.1,0.7,0.3,0.8c0.2,0.1,0.5,0.2,0.8,0.2c0.3,0,0.5-0.1,0.7-0.2
			c0.2-0.2,0.3-0.4,0.2-0.6v-0.1c0-0.2,0.1-0.5,0.2-0.7c0.2-0.2,0.4-0.3,0.7-0.3h0.7v1.1c0,0.7-0.2,1.2-0.7,1.5
			c-0.5,0.3-1.1,0.5-1.9,0.5c-0.8,0-1.5-0.2-2-0.6c-0.5-0.4-0.7-1-0.7-1.8v-3.3c0-0.8,0.2-1.5,0.7-2c0.5-0.5,1.1-0.7,2-0.7
			c0.8,0,1.4,0.2,1.9,0.7c0.5,0.5,0.7,1.1,0.7,2v1.1c0,0.5-0.4,0.8-1.1,0.8C698.6,298,696.1,298,696.1,298z M696.1,296.9h1.9h0.2
			v-0.8c0-0.4-0.1-0.8-0.3-1c-0.2-0.2-0.5-0.3-0.8-0.3s-0.5,0.1-0.8,0.3c-0.2,0.2-0.3,0.5-0.3,1L696.1,296.9L696.1,296.9z"/>
		<rect x="730.7" y="280.7" width="18.7" height="21.7"/>
		<path fill="#FFFFFF" d="M739.7,289.4c-0.1,0-0.2,0-0.2,0c-0.2-0.1-0.5-0.1-0.8-0.1c-0.2,0.1-0.5,0.1-0.7,0.2
			c-0.2,0.1-0.4,0.2-0.5,0.4c-0.1,0.2-0.2,0.4-0.2,0.5v4.1c0,0.1,0,0.2,0.1,0.2c0,0.1,0.1,0.1,0.1,0.1c0.1,0.1,0.2,0.1,0.2,0.3
			c0.1,0.1,0.1,0.3,0.1,0.5v0.5h-2.7v-0.5c0-0.2,0.1-0.4,0.1-0.5s0.2-0.2,0.2-0.3c0.1-0.1,0.1-0.1,0.1-0.1c0-0.1,0.1-0.1,0.1-0.2v-5
			c0-0.1-0.1-0.2-0.2-0.3c-0.1-0.1-0.2-0.1-0.2-0.2c-0.1-0.1-0.1-0.3-0.1-0.5V288h1.7c0.2,0,0.4,0.1,0.4,0.4v0.2
			c0.1-0.1,0.3-0.2,0.5-0.3c0.1-0.1,0.3-0.2,0.5-0.2c0.2-0.1,0.4-0.1,0.5-0.1c0.2,0,0.5,0,0.7,0.1c0.1,0,0.1,0.1,0.2,0.1
			c0.1,0.1,0.1,0.1,0.1,0.2v1C739.8,289.4,739.7,289.4,739.7,289.4z"/>
		<path fill="#FFFFFF" d="M742,292.4v1.5c0,0.4,0.1,0.7,0.3,0.8c0.2,0.1,0.5,0.2,0.8,0.2s0.5-0.1,0.7-0.2c0.2-0.2,0.3-0.4,0.2-0.6
			V294c0-0.2,0.1-0.5,0.2-0.7c0.2-0.2,0.4-0.3,0.7-0.3h0.7v1.1c0,0.7-0.2,1.2-0.7,1.5c-0.5,0.3-1.1,0.5-1.9,0.5
			c-0.8,0-1.5-0.2-2-0.6c-0.5-0.4-0.7-1-0.7-1.8v-3.3c0-0.8,0.2-1.5,0.7-2c0.5-0.5,1.1-0.7,2-0.7c0.8,0,1.4,0.2,1.9,0.7
			c0.5,0.5,0.7,1.1,0.7,2v1.1c0,0.5-0.4,0.8-1.1,0.8C744.5,292.4,742,292.4,742,292.4z M742,291.3h1.9h0.2v-0.8c0-0.4-0.1-0.8-0.3-1
			c-0.2-0.2-0.5-0.3-0.8-0.3s-0.5,0.1-0.8,0.3c-0.2,0.2-0.3,0.5-0.3,1L742,291.3L742,291.3z"/>
		<rect x="775.1" y="297.3" width="27.9" height="21.7"/>
		<path fill="#FFFFFF" d="M714.1,289.5c0.1,0.1,0.2,0.1,0.2,0.3c0.1,0.1,0.1,0.3,0.1,0.5v0.5h-2.7v-0.5c0-0.2,0.1-0.4,0.1-0.5
			s0.2-0.2,0.2-0.3c0.1-0.1,0.1-0.1,0.1-0.1c0.1-0.1,0.1-0.1,0.1-0.2V280c0-0.1-0.1-0.2-0.2-0.3c-0.1-0.1-0.2-0.1-0.2-0.2
			s-0.1-0.3-0.1-0.5v-0.5h1.7c0.3,0,0.4,0.1,0.4,0.4v10.4c0,0.1,0,0.2,0.1,0.2C714,289.5,714,289.5,714.1,289.5z"/>
		<path fill="#FFFFFF" d="M717.4,289.5c0.1,0.1,0.2,0.1,0.2,0.3c0.1,0.1,0.1,0.3,0.1,0.5v0.5H715v-0.5c0-0.2,0.1-0.4,0.1-0.5
			s0.2-0.2,0.2-0.3c0.1-0.1,0.1-0.1,0.1-0.1c0.1-0.1,0.1-0.1,0.1-0.2v-5.2c0-0.1-0.1-0.2-0.2-0.3c-0.1-0.1-0.2-0.1-0.2-0.2
			s-0.1-0.3-0.1-0.5v-0.5h1.7c0.2,0,0.4,0.1,0.4,0.3v6.4c0,0.1,0,0.2,0.1,0.2C717.3,289.5,717.3,289.5,717.4,289.5z M716.3,281.5
			c-0.2,0-0.5-0.1-0.6-0.2c-0.2-0.2-0.2-0.4-0.2-0.6s0.1-0.5,0.2-0.6c0.2-0.2,0.4-0.2,0.6-0.2s0.4,0.1,0.6,0.2
			c0.2,0.2,0.2,0.4,0.2,0.6s-0.1,0.4-0.2,0.6C716.8,281.4,716.6,281.5,716.3,281.5z"/>
		<path fill="#FFFFFF" d="M720.1,287v1.5c0,0.4,0.1,0.7,0.3,0.8c0.2,0.1,0.5,0.2,0.8,0.2s0.5-0.1,0.7-0.2c0.2-0.2,0.3-0.4,0.2-0.6
			v-0.1c0-0.2,0.1-0.5,0.2-0.7c0.2-0.2,0.4-0.3,0.7-0.3h0.7v1.1c0,0.7-0.2,1.2-0.7,1.5c-0.5,0.3-1.1,0.5-1.9,0.5
			c-0.8,0-1.5-0.2-2-0.6s-0.7-1-0.7-1.8v-3.3c0-0.8,0.2-1.5,0.7-2c0.5-0.5,1.1-0.7,2-0.7c0.8,0,1.4,0.2,1.9,0.7
			c0.5,0.5,0.7,1.1,0.7,2v1.1c0,0.5-0.4,0.8-1.1,0.8H720.1z M720.1,285.9h1.9h0.2v-0.8c0-0.4-0.1-0.8-0.3-1
			c-0.2-0.2-0.5-0.3-0.8-0.3s-0.5,0.1-0.8,0.3c-0.2,0.2-0.3,0.5-0.3,1L720.1,285.9L720.1,285.9z"/>
		<rect x="753.2" y="287.7" width="18.7" height="21.7"/>
		<path fill="#FFFFFF" d="M759.5,302.9c0.1,0.1,0.2,0.1,0.2,0.3c0.1,0.1,0.1,0.3,0.1,0.5v0.5h-2.7v-0.5c0-0.2,0.1-0.4,0.1-0.5
			s0.2-0.2,0.2-0.3c0.1-0.1,0.1-0.1,0.1-0.1s0.1-0.1,0.1-0.2v-9.3c0-0.1-0.1-0.2-0.2-0.3c-0.1-0.1-0.2-0.1-0.2-0.2s-0.1-0.3-0.1-0.5
			v-0.5h1.7c0.3,0,0.4,0.1,0.4,0.4v10.4c0,0.1,0,0.2,0.1,0.2C759.3,302.8,759.4,302.8,759.5,302.9z"/>
		<path fill="#FFFFFF" d="M762.8,302.9c0.1,0.1,0.2,0.1,0.2,0.3c0.1,0.1,0.1,0.3,0.1,0.5v0.5h-2.7v-0.5c0-0.2,0.1-0.4,0.1-0.5
			s0.2-0.2,0.2-0.3c0.1-0.1,0.1-0.1,0.1-0.1s0.1-0.1,0.1-0.2v-5.2c0-0.1-0.1-0.2-0.2-0.3c-0.1-0.1-0.2-0.1-0.2-0.2
			c-0.1-0.1-0.1-0.3-0.1-0.5v-0.5h1.7c0.2,0,0.4,0.1,0.4,0.3v6.4c0,0.1,0,0.2,0.1,0.2C762.7,302.8,762.7,302.8,762.8,302.9z
			 M761.7,294.8c-0.2,0-0.5-0.1-0.6-0.2c-0.2-0.2-0.2-0.4-0.2-0.6s0.1-0.5,0.2-0.6c0.2-0.2,0.4-0.2,0.6-0.2s0.4,0.1,0.6,0.2
			c0.2,0.2,0.2,0.4,0.2,0.6s-0.1,0.4-0.2,0.6C762.2,294.8,762,294.8,761.7,294.8z"/>
		<path fill="#FFFFFF" d="M765.5,300.3v1.5c0,0.4,0.1,0.7,0.3,0.8c0.2,0.1,0.5,0.2,0.8,0.2c0.3,0,0.5-0.1,0.7-0.2
			c0.2-0.2,0.3-0.4,0.2-0.6v-0.1c0-0.2,0.1-0.5,0.2-0.7s0.4-0.3,0.7-0.3h0.7v1.1c0,0.7-0.2,1.2-0.7,1.5c-0.5,0.3-1.1,0.5-1.9,0.5
			c-0.8,0-1.5-0.2-2-0.6c-0.5-0.4-0.7-1-0.7-1.8v-3.3c0-0.8,0.2-1.5,0.7-2c0.5-0.5,1.1-0.7,2-0.7c0.8,0,1.4,0.2,1.9,0.7
			c0.5,0.5,0.7,1.1,0.7,2v1.1c0,0.5-0.4,0.8-1.1,0.8H765.5z M765.5,299.2h1.9h0.2v-0.8c0-0.4-0.1-0.8-0.3-1
			c-0.2-0.2-0.5-0.3-0.8-0.3s-0.5,0.1-0.8,0.3c-0.2,0.2-0.3,0.5-0.3,1L765.5,299.2L765.5,299.2z"/>
		<g>
			<path fill="#FFFFFF" d="M781.6,313.1c0.1,0.1,0.2,0.1,0.2,0.3c0.1,0.1,0.1,0.3,0.1,0.5v0.5h-2.7v-0.5c0-0.2,0.1-0.4,0.1-0.5
				s0.2-0.2,0.2-0.3c0.1-0.1,0.1-0.1,0.1-0.1c0.1-0.1,0.1-0.1,0.1-0.2v-9.3c0-0.1-0.1-0.2-0.2-0.3c-0.1-0.1-0.2-0.1-0.2-0.2
				s-0.1-0.3-0.1-0.5v-0.6h1.7c0.3,0,0.4,0.1,0.4,0.4v10.4c0,0.1,0,0.2,0.1,0.2C781.4,313,781.5,313.1,781.6,313.1z"/>
			<path fill="#FFFFFF" d="M785.4,306c0.4,0,0.8,0.1,1.1,0.2s0.6,0.3,0.8,0.5c0.2,0.2,0.4,0.4,0.5,0.7c0.1,0.3,0.2,0.5,0.2,0.8v3.9
				c0,0.7-0.2,1.3-0.7,1.7c-0.5,0.4-1.1,0.6-1.9,0.6c-0.8,0-1.5-0.2-2-0.7c-0.5-0.4-0.7-1.1-0.7-1.9v-3.3c0-0.8,0.2-1.5,0.7-1.9
				C783.9,306.2,784.5,306,785.4,306z M785.4,313.1c0.3,0,0.5-0.1,0.8-0.3c0.2-0.2,0.3-0.5,0.3-0.8v-3.4c0-0.5-0.1-0.8-0.3-1
				c-0.2-0.2-0.5-0.2-0.8-0.2s-0.5,0.1-0.8,0.2c-0.2,0.2-0.3,0.5-0.3,0.9v3.5c0,0.4,0.1,0.7,0.3,0.9
				C784.8,313,785.1,313.1,785.4,313.1z"/>
			<path fill="#FFFFFF" d="M798.8,313.1c0.1,0.1,0.2,0.1,0.2,0.2s0.1,0.3,0.1,0.5v0.5h-1.3c-0.3,0-0.5-0.1-0.6-0.2
				c-0.1-0.2-0.2-0.4-0.2-0.7v-4.8c0-0.4-0.1-0.7-0.3-1c-0.2-0.2-0.5-0.3-0.8-0.3c-0.2,0-0.4,0-0.5,0.1c-0.2,0.1-0.3,0.1-0.4,0.2
				c-0.1,0.1-0.2,0.1-0.4,0.2v5c0,0.1,0,0.2,0.1,0.2c0.1,0.1,0.1,0.1,0.1,0.1c0.1,0.1,0.2,0.1,0.2,0.2s0.1,0.3,0.1,0.5v0.5H794
				c-0.2,0-0.4-0.1-0.5-0.3c-0.2-0.2-0.2-0.4-0.2-0.7V309v-0.6c0-0.2-0.1-0.4-0.1-0.5c-0.1-0.1-0.2-0.2-0.3-0.4
				c-0.1-0.1-0.2-0.2-0.4-0.2c-0.2-0.1-0.3-0.1-0.4-0.1s-0.3,0-0.4,0.1c-0.1,0.1-0.2,0.1-0.4,0.2c-0.1,0.1-0.2,0.1-0.4,0.2v4.9
				c0,0.1,0,0.2,0.1,0.2c0.1,0.1,0.1,0.1,0.1,0.1c0.1,0.1,0.2,0.1,0.2,0.2s0.1,0.3,0.1,0.5v0.5h-2.7v-0.5c0-0.2,0.1-0.4,0.1-0.5
				s0.2-0.2,0.2-0.2c0.1-0.1,0.1-0.1,0.1-0.1c0.1-0.1,0.1-0.1,0.1-0.2v-4.9c0-0.1,0-0.2-0.1-0.2c-0.1-0.1-0.1-0.1-0.2-0.2
				c-0.1-0.1-0.1-0.1-0.2-0.2c-0.1-0.1-0.1-0.2-0.1-0.2v-1h1.7c0.1,0,0.2,0,0.2,0.1c0.1,0.1,0.1,0.1,0.1,0.1
				c0.1,0.1,0.1,0.1,0.1,0.2c0.1-0.1,0.2-0.2,0.4-0.2c0.1-0.1,0.3-0.1,0.5-0.2c0.2-0.1,0.4-0.1,0.7-0.1c0.8,0,1.4,0.2,1.8,0.7
				c0.2-0.1,0.4-0.2,0.5-0.4c0.2-0.1,0.4-0.2,0.7-0.2c0.2-0.1,0.5-0.1,0.9-0.1c0.8,0,1.4,0.2,1.8,0.7s0.5,1.1,0.5,1.9v4.2
				c0,0.1,0,0.2,0.1,0.2C798.7,313,798.8,313,798.8,313.1z"/>
		</g>
	</g>
	<polygon points="681.4,294.6 684.7,286.3 684.7,308 681.4,316.3 	"/>
	<polygon points="703.4,308 707.8,296.1 707.8,274.4 703.4,286.3 	"/>
	<polygon points="726.4,274.4 730.7,280.7 730.7,302.4 726.4,296.1 	"/>
	<polygon points="749.4,280.7 753.2,287.7 753.2,309.4 749.4,302.4 	"/>
	<polygon points="771.8,287.7 775.1,297.3 775.1,319.1 771.8,309.4 	"/>
</g>
<g>
	<rect x="63.4" y="294.6" fill="#1E1E1C" width="38" height="21"/>
	<rect x="103.4" y="290.1" fill="#1E1E1C" width="29.6" height="21"/>
	<rect x="217" y="299" fill="#1E1E1C" width="38.6" height="21"/>
	<rect x="184.4" y="290.1" fill="#1E1E1C" width="29.6" height="21"/>
	<rect x="257.7" y="290.1" fill="#1E1E1C" width="18.5" height="21"/>
	<rect x="135.9" y="285.3" fill="#1E1E1C" width="45.7" height="21"/>
	<g>
		<path fill="#FFFFFF" d="M74.8,309.7L74.8,309.7c0,0.1,0,0.2,0,0.3c0,0,0.1,0.1,0.1,0.1c0.1,0.1,0.2,0.2,0.3,0.3
			c0.1,0.1,0.1,0.3,0.1,0.5v0.5h-3v-0.5c0-0.2,0-0.4,0.1-0.5c0.1-0.1,0.2-0.2,0.3-0.3c0.1,0,0.1-0.1,0.1-0.1c0,0,0-0.1,0-0.2v-4.2
			c0-0.2-0.1-0.2-0.2-0.2h-2.1c-0.2,0-0.3,0.1-0.3,0.3v4.2v0v0c0,0.1,0,0.2,0.1,0.2c0,0,0.1,0.1,0.1,0.1c0.1,0.1,0.2,0.2,0.3,0.3
			c0.1,0.1,0.1,0.3,0.1,0.5v0.5h-2.9v-0.5c0-0.2,0-0.4,0.1-0.5c0.1-0.1,0.2-0.2,0.3-0.3c0.1,0,0.1-0.1,0.1-0.1c0,0,0.1-0.1,0.1-0.2
			v0v-9.9c0-0.1,0-0.2-0.1-0.2c0,0-0.1-0.1-0.1-0.1c-0.1-0.1-0.2-0.2-0.3-0.3c-0.1-0.1-0.1-0.3-0.1-0.5v-0.5H71v0.5
			c0,0.2,0,0.4-0.1,0.5c-0.1,0.1-0.2,0.2-0.3,0.3c0,0-0.1,0.1-0.1,0.1c0,0-0.1,0.1-0.1,0.2v3.7c0,0.1,0,0.2,0.1,0.2
			c0.1,0,0.1,0.1,0.2,0.1h2.1c0.1,0,0.1,0,0.2-0.1c0-0.1,0.1-0.1,0.1-0.2v-3.7c0-0.1,0-0.2,0-0.2c0,0-0.1-0.1-0.1-0.1
			c-0.1-0.1-0.2-0.2-0.3-0.3c-0.1-0.1-0.1-0.3-0.1-0.5v-0.5h3v0.5c0,0.2,0,0.4-0.1,0.5c-0.1,0.1-0.2,0.2-0.3,0.3
			c-0.1,0-0.1,0.1-0.1,0.1c0,0,0,0.1,0,0.2V309.7z"/>
		<path fill="#FFFFFF" d="M78.8,310.1c0.1,0.1,0.2,0.2,0.3,0.3c0.1,0.1,0.1,0.3,0.1,0.5l0,0.5h-2.9v-0.5c0-0.2,0-0.4,0.1-0.5
			c0.1-0.1,0.2-0.2,0.3-0.3c0,0,0.1-0.1,0.1-0.1c0,0,0.1-0.1,0.1-0.2v-5.5c0-0.1-0.1-0.2-0.2-0.3c-0.1-0.1-0.2-0.2-0.3-0.3
			c-0.1-0.1-0.1-0.3-0.1-0.5v-0.6h1.9c0.3,0,0.4,0.1,0.4,0.3v6.9c0,0.1,0,0.2,0.1,0.2C78.7,310,78.7,310,78.8,310.1z M77.6,301.4
			c-0.3,0-0.5-0.1-0.7-0.3c-0.2-0.2-0.3-0.4-0.3-0.6c0-0.3,0.1-0.5,0.3-0.7c0.2-0.2,0.4-0.3,0.7-0.3c0.2,0,0.5,0.1,0.6,0.3
			c0.2,0.2,0.3,0.4,0.3,0.7c0,0.2-0.1,0.5-0.3,0.6C78.1,301.3,77.9,301.4,77.6,301.4z"/>
		<path fill="#FFFFFF" d="M81.7,307.3v1.6c0,0.5,0.1,0.8,0.3,0.9c0.2,0.1,0.5,0.2,0.8,0.2c0.3,0,0.6-0.1,0.8-0.3
			c0.2-0.2,0.3-0.4,0.3-0.7v-0.1c0-0.3,0.1-0.5,0.2-0.7c0.2-0.2,0.4-0.3,0.7-0.3h0.7v1.2c0,0.8-0.3,1.3-0.8,1.7
			c-0.5,0.3-1.2,0.5-2.1,0.5c-0.9,0-1.6-0.2-2.1-0.7c-0.5-0.4-0.7-1.1-0.7-2v-3.5c0-0.9,0.2-1.6,0.7-2.1c0.5-0.5,1.2-0.7,2.1-0.7
			c0.9,0,1.6,0.2,2.1,0.7c0.5,0.5,0.7,1.2,0.7,2.1v1.1c0,0.6-0.4,0.9-1.2,0.9H81.7z M81.7,306.1h2H84v-0.9c0-0.5-0.1-0.8-0.3-1
			c-0.2-0.2-0.5-0.3-0.8-0.3c-0.3,0-0.6,0.1-0.8,0.3c-0.2,0.2-0.3,0.6-0.3,1V306.1z"/>
		<path fill="#FFFFFF" d="M89,310.1c0.1,0.1,0.2,0.2,0.3,0.3c0.1,0.1,0.1,0.3,0.1,0.5v0.5h-2.9v-0.5c0-0.2,0-0.4,0.1-0.5
			c0.1-0.1,0.2-0.2,0.3-0.3c0,0,0.1-0.1,0.1-0.1c0,0,0.1-0.1,0.1-0.2v-10c0-0.1-0.1-0.2-0.2-0.3c-0.1-0.1-0.2-0.2-0.3-0.3
			c-0.1-0.1-0.1-0.3-0.1-0.5v-0.6h1.8c0.3,0,0.4,0.1,0.4,0.4v11.2c0,0.1,0,0.2,0.1,0.2C88.9,310,88.9,310,89,310.1z"/>
		<path fill="#FFFFFF" d="M96.1,310.1c0.1,0.1,0.2,0.2,0.3,0.3c0.1,0.1,0.1,0.3,0.1,0.5v0.5h-1.9c-0.1,0-0.1,0-0.2-0.1
			c0,0-0.1-0.1-0.1-0.1c0,0-0.1-0.1-0.1-0.2c-0.1,0.1-0.2,0.2-0.3,0.2c-0.1,0.1-0.3,0.1-0.5,0.1c-0.2,0-0.4,0.1-0.7,0.1
			c-0.9,0-1.5-0.3-1.9-0.8c-0.4-0.5-0.6-1.2-0.6-2.1v-3.2c0-0.9,0.2-1.6,0.6-2.1c0.4-0.5,1-0.8,1.9-0.8c0.2,0,0.5,0,0.7,0.1
			c0.2,0.1,0.4,0.1,0.5,0.2c0.2,0.1,0.3,0.1,0.4,0.2v-3.1c0-0.2-0.1-0.3-0.2-0.4c-0.1-0.1-0.2-0.2-0.3-0.3c-0.1-0.1-0.1-0.3-0.1-0.5
			v-0.6h1.2c0.4,0,0.7,0.1,0.8,0.2c0.2,0.2,0.2,0.4,0.2,0.7v10.6c0,0.1,0,0.2,0.1,0.2C96,310,96.1,310,96.1,310.1z M94.2,304.4
			c-0.1-0.1-0.2-0.2-0.3-0.3c-0.1-0.1-0.2-0.1-0.4-0.2c-0.1-0.1-0.3-0.1-0.4-0.1c-0.3,0-0.6,0.1-0.8,0.3c-0.2,0.2-0.3,0.6-0.3,1v3.4
			c0,0.5,0.1,0.8,0.3,1c0.2,0.2,0.4,0.3,0.8,0.3c0.2,0,0.4,0,0.5-0.1c0.2-0.1,0.3-0.1,0.4-0.2c0.1-0.1,0.2-0.2,0.3-0.3V304.4z"/>
	</g>
	<g>
		<path fill="#FFFFFF" d="M110,300.9v1.6c0,0.5,0.1,0.8,0.3,0.9c0.2,0.1,0.5,0.2,0.8,0.2c0.3,0,0.6-0.1,0.8-0.3
			c0.2-0.2,0.3-0.4,0.3-0.7v-0.1c0-0.3,0.1-0.5,0.2-0.7c0.2-0.2,0.4-0.3,0.7-0.3h0.7v1.2c0,0.8-0.3,1.3-0.8,1.7
			c-0.5,0.3-1.2,0.5-2.1,0.5c-0.9,0-1.6-0.2-2.1-0.7s-0.7-1.1-0.7-2v-3.5c0-0.9,0.2-1.6,0.7-2.1c0.5-0.5,1.2-0.7,2.1-0.7
			c0.9,0,1.6,0.2,2.1,0.7c0.5,0.5,0.7,1.2,0.7,2.1v1.1c0,0.6-0.4,0.9-1.2,0.9H110z M110,299.7h2h0.2v-0.9c0-0.5-0.1-0.8-0.3-1
			c-0.2-0.2-0.5-0.3-0.8-0.3c-0.3,0-0.6,0.1-0.8,0.3c-0.2,0.2-0.3,0.6-0.3,1V299.7z"/>
		<path fill="#FFFFFF" d="M116.8,300.9v1.6c0,0.5,0.1,0.8,0.3,0.9c0.2,0.1,0.5,0.2,0.8,0.2c0.3,0,0.6-0.1,0.8-0.3
			c0.2-0.2,0.3-0.4,0.3-0.7v-0.1c0-0.3,0.1-0.5,0.2-0.7c0.2-0.2,0.4-0.3,0.7-0.3h0.7v1.2c0,0.8-0.3,1.3-0.8,1.7
			c-0.5,0.3-1.2,0.5-2.1,0.5c-0.9,0-1.6-0.2-2.1-0.7c-0.5-0.4-0.7-1.1-0.7-2v-3.5c0-0.9,0.2-1.6,0.7-2.1c0.5-0.5,1.2-0.7,2.1-0.7
			c0.9,0,1.6,0.2,2.1,0.7c0.5,0.5,0.7,1.2,0.7,2.1v1.1c0,0.6-0.4,0.9-1.2,0.9H116.8z M116.8,299.7h2h0.2v-0.9c0-0.5-0.1-0.8-0.3-1
			c-0.2-0.2-0.5-0.3-0.8-0.3c-0.3,0-0.6,0.1-0.8,0.3c-0.2,0.2-0.3,0.6-0.3,1V299.7z"/>
		<path fill="#FFFFFF" d="M128.1,303.7c0.1,0.1,0.2,0.2,0.3,0.3c0.1,0.1,0.1,0.3,0.1,0.5v0.5H127c-0.3,0-0.5-0.1-0.6-0.3
			c-0.1-0.2-0.2-0.5-0.2-0.8v-5.1c0-0.5-0.1-0.8-0.3-1c-0.2-0.2-0.5-0.3-0.8-0.3c-0.2,0-0.4,0-0.5,0.1c-0.1,0.1-0.3,0.1-0.4,0.2
			c-0.1,0.1-0.2,0.1-0.3,0.2v5.3c0,0.1,0,0.2,0.1,0.2c0,0,0.1,0.1,0.1,0.1c0.1,0.1,0.2,0.2,0.3,0.3c0.1,0.1,0.1,0.3,0.1,0.5v0.5
			h-2.9v-0.5c0-0.2,0-0.4,0.1-0.5c0.1-0.1,0.2-0.2,0.3-0.3c0.1,0,0.1-0.1,0.1-0.1c0,0,0.1-0.1,0.1-0.3v-5.4c0-0.1,0-0.1-0.1-0.2
			c0,0-0.1-0.1-0.2-0.1c-0.1-0.1-0.2-0.2-0.3-0.3c-0.1-0.1-0.1-0.3-0.1-0.5v-0.6h1.9c0.1,0,0.2,0,0.2,0.1c0,0,0.1,0.1,0.1,0.1
			c0,0,0,0.1,0.1,0.2c0.1-0.1,0.3-0.2,0.4-0.2c0.1-0.1,0.3-0.1,0.5-0.2c0.2,0,0.4-0.1,0.7-0.1c0.9,0,1.5,0.2,1.9,0.7
			s0.6,1.2,0.6,2.1v4.5c0,0.1,0,0.2,0.1,0.2C128,303.6,128,303.6,128.1,303.7z"/>
	</g>
	<g>
		<path fill="#FFFFFF" d="M146.2,292.1v0.5c0,0.2,0,0.4-0.1,0.5c-0.1,0.1-0.2,0.2-0.3,0.3c0,0-0.1,0.2-0.1,0.4
			c0,0.3-0.1,0.6-0.2,1.1c-0.1,0.4-0.1,0.9-0.2,1.5c-0.1,0.5-0.2,1.1-0.2,1.6c-0.1,0.5-0.2,1-0.2,1.4c-0.1,0.4-0.1,0.8-0.2,1
			c0,0.2-0.1,0.3-0.2,0.4c-0.1,0.1-0.2,0.1-0.3,0.1h-1.6c-0.2,0-0.4,0-0.5-0.1c-0.1-0.1-0.2-0.2-0.2-0.4c0-0.1,0-0.3-0.1-0.6
			c-0.1-0.3-0.1-0.8-0.2-1.2c-0.1-0.5-0.2-1-0.3-1.5c-0.1-0.5-0.2-1-0.2-1.5c-0.1-0.5-0.1-0.9-0.2-1.2c-0.1-0.3-0.1-0.5-0.1-0.6
			c0-0.1-0.1-0.2-0.1-0.2c0,0,0,0-0.1-0.1c-0.1-0.1-0.2-0.2-0.3-0.3c-0.1-0.1-0.1-0.3-0.1-0.5v-0.6h1.5c0.2,0,0.3,0,0.4,0.1
			c0.1,0.1,0.1,0.2,0.2,0.4c0,0,0,0.1,0.1,0.3c0,0.2,0.1,0.5,0.1,0.8c0,0.3,0.1,0.7,0.2,1.1c0.1,0.4,0.1,0.8,0.2,1.3
			c0.1,1,0.3,2.1,0.5,3.4c0.2-1.2,0.3-2.3,0.5-3.3c0.1-0.4,0.1-0.8,0.2-1.2c0.1-0.4,0.1-0.8,0.2-1.1c0-0.3,0.1-0.6,0.1-0.8
			c0-0.2,0.1-0.3,0.1-0.4c0-0.1,0.1-0.3,0.1-0.3c0-0.1,0-0.2,0.1-0.2c0-0.1,0.1-0.1,0.2-0.1c0.1,0,0.2,0,0.3,0H146.2z"/>
		<path fill="#FFFFFF" d="M151.9,293.7c-0.1,0-0.2,0-0.3,0c-0.3-0.1-0.6-0.1-0.8,0c-0.3,0-0.5,0.1-0.7,0.2c-0.2,0.1-0.4,0.3-0.5,0.4
			c-0.1,0.2-0.2,0.4-0.2,0.5v4.4c0,0.1,0,0.2,0,0.2c0,0.1,0.1,0.1,0.1,0.1c0.1,0.1,0.2,0.2,0.3,0.3c0.1,0.1,0.1,0.3,0.1,0.5l0,0.5
			h-2.9v-0.5c0-0.2,0-0.4,0.1-0.5c0.1-0.1,0.2-0.2,0.3-0.3c0.1,0,0.1-0.1,0.1-0.1c0-0.1,0-0.1,0-0.3v-5.4c0-0.1-0.1-0.2-0.2-0.3
			c-0.1-0.1-0.2-0.2-0.3-0.3c-0.1-0.1-0.1-0.3-0.1-0.5v-0.6h1.9c0.3,0,0.4,0.1,0.4,0.4v0.2c0.2-0.1,0.3-0.2,0.5-0.3
			c0.2-0.1,0.3-0.2,0.5-0.2c0.2-0.1,0.4-0.1,0.6-0.1c0.2,0,0.5,0,0.8,0.1c0.1,0,0.1,0,0.2,0.1c0.1,0.1,0.1,0.2,0.1,0.3v1
			C152,293.6,152,293.7,151.9,293.7z"/>
		<path fill="#FFFFFF" d="M155.5,292c0.4,0,0.8,0.1,1.2,0.2c0.3,0.1,0.6,0.3,0.9,0.5c0.2,0.2,0.4,0.5,0.6,0.8
			c0.1,0.3,0.2,0.6,0.2,0.9v4.2c0,0.8-0.3,1.4-0.8,1.8c-0.5,0.4-1.2,0.7-2,0.7c-0.9,0-1.6-0.2-2.1-0.7c-0.5-0.5-0.7-1.1-0.7-2.1
			v-3.6c0-0.9,0.2-1.6,0.7-2C154,292.3,154.7,292,155.5,292z M155.5,299.7c0.3,0,0.6-0.1,0.8-0.3c0.2-0.2,0.3-0.5,0.3-0.9v-3.7
			c0-0.5-0.1-0.9-0.3-1c-0.2-0.2-0.5-0.3-0.8-0.3c-0.3,0-0.6,0.1-0.8,0.3c-0.2,0.2-0.3,0.5-0.3,1v3.7c0,0.5,0.1,0.8,0.3,1
			C154.9,299.6,155.2,299.7,155.5,299.7z"/>
		<path fill="#FFFFFF" d="M165.5,299.6c0.1,0.1,0.2,0.2,0.3,0.3c0.1,0.1,0.1,0.3,0.1,0.5v0.5h-1.5c-0.2,0-0.4,0-0.4-0.1
			c-0.1-0.1-0.1-0.1-0.2-0.3c-0.2,0.2-0.4,0.3-0.6,0.4c-0.2,0.1-0.5,0.1-0.7,0.1c-0.9,0-1.6-0.2-2.1-0.7c-0.5-0.5-0.8-1.2-0.8-2.1
			v-4.5c0-0.1,0-0.2-0.1-0.2c0-0.1-0.1-0.1-0.2-0.1c-0.1-0.1-0.2-0.2-0.2-0.3c-0.1-0.1-0.1-0.3-0.1-0.5v-0.6h1.7
			c0.2,0,0.3,0,0.4,0.1c0.1,0.1,0.1,0.2,0.1,0.5v5.7c0,0.5,0.1,0.8,0.3,1c0.2,0.2,0.5,0.3,0.8,0.3c0.2,0,0.4,0,0.5-0.1
			c0.1-0.1,0.3-0.1,0.3-0.2c0.1-0.1,0.2-0.1,0.2-0.3v-5.4c0-0.1,0-0.2-0.1-0.2c0-0.1-0.1-0.1-0.2-0.1c-0.1-0.1-0.2-0.2-0.2-0.3
			s-0.1-0.3-0.1-0.5v-0.6h1.7c0.2,0,0.3,0.1,0.4,0.2c0.1,0.1,0.1,0.2,0.1,0.4v6v-1.8v0.1v2.3c0,0.1,0,0.2,0,0.2
			C165.4,299.6,165.5,299.6,165.5,299.6z"/>
		<path fill="#FFFFFF" d="M177.4,292.1v0.5c0,0.2,0,0.4-0.1,0.6c-0.1,0.1-0.1,0.2-0.2,0.3c-0.1,0.1-0.1,0.2-0.2,0.4
			c0,0.1,0,0.2-0.1,0.4c0,0.2-0.1,0.5-0.2,0.8c-0.1,0.3-0.1,0.7-0.2,1.1c-0.1,0.4-0.1,0.8-0.2,1.2c-0.2,0.9-0.3,1.9-0.6,3.1
			c-0.1,0.4-0.3,0.6-0.6,0.6h-1.5c-0.2,0-0.3-0.1-0.4-0.2c-0.1-0.1-0.2-0.3-0.2-0.4l-0.9-4.6l-1,4.5c-0.1,0.2-0.2,0.4-0.3,0.5
			c-0.1,0.1-0.2,0.1-0.4,0.1h-1.4c-0.2,0-0.4-0.1-0.5-0.2c-0.1-0.1-0.2-0.3-0.2-0.5c0-0.1,0-0.2-0.1-0.4c0-0.2-0.1-0.5-0.1-0.8
			c-0.1-0.3-0.1-0.7-0.2-1c-0.1-0.4-0.1-0.8-0.2-1.2c-0.2-0.9-0.3-1.9-0.5-3c0-0.2-0.1-0.3-0.2-0.4c-0.1-0.1-0.2-0.2-0.2-0.3
			c-0.1-0.1-0.1-0.3-0.1-0.5v-0.6h1.3c0.2,0,0.3,0,0.5,0.1c0.1,0.1,0.2,0.2,0.2,0.5c0,0,0,0.2,0.1,0.4c0,0.2,0.1,0.5,0.1,0.8
			c0.1,0.3,0.1,0.7,0.2,1.1c0.1,0.4,0.1,0.8,0.2,1.2c0.2,1,0.3,2,0.5,3.2c0.2-1.2,0.5-2.3,0.7-3.2c0.1-0.4,0.2-0.8,0.3-1.2
			c0.1-0.4,0.2-0.8,0.2-1.1c0.1-0.3,0.1-0.6,0.2-0.8c0-0.2,0.1-0.4,0.1-0.4c0.1-0.2,0.2-0.3,0.3-0.4c0.1-0.1,0.3-0.1,0.5-0.1
			c0.2,0,0.3,0,0.5,0.1c0.1,0,0.2,0.2,0.3,0.4c0,0,0,0.2,0.1,0.4c0,0.2,0.1,0.5,0.2,0.8c0.1,0.3,0.1,0.7,0.2,1.1
			c0.1,0.4,0.2,0.8,0.3,1.2c0.2,1,0.4,2.1,0.7,3.3c0.2-1.1,0.4-2.2,0.6-3.1c0.1-0.4,0.1-0.8,0.2-1.2c0.1-0.4,0.1-0.7,0.2-1.1
			c0.1-0.3,0.1-0.6,0.1-0.8c0-0.2,0.1-0.3,0.1-0.4c0-0.3,0.1-0.4,0.2-0.5c0.1-0.1,0.3-0.1,0.5-0.1H177.4z"/>
	</g>
	<g>
		<path fill="#FFFFFF" d="M193.2,305.5c0.1,0.1,0.2,0.2,0.3,0.3c0.1,0.1,0.1,0.3,0.1,0.5v0.5H192c-0.5,0-0.7-0.4-0.7-1.1v-5.1
			c0-0.5-0.2-0.8-0.4-1c-0.2-0.2-0.5-0.3-0.8-0.3c-0.2,0-0.4,0-0.5,0.1c-0.1,0-0.3,0.1-0.4,0.2c-0.1,0.1-0.2,0.1-0.3,0.2v5.3
			c0,0.1,0,0.2,0.1,0.2c0,0,0.1,0.1,0.1,0.1c0.1,0.1,0.2,0.2,0.3,0.3c0.1,0.1,0.1,0.3,0.1,0.5v0.5h-2.9v-0.5c0-0.2,0-0.4,0.1-0.5
			c0.1-0.1,0.2-0.2,0.3-0.3c0.1,0,0.1-0.1,0.1-0.1c0,0,0.1-0.1,0.1-0.2v-9.8c0-0.2-0.1-0.3-0.2-0.4c-0.1-0.1-0.2-0.2-0.3-0.3
			c-0.1-0.1-0.1-0.3-0.1-0.5v-0.6h1.9c0.2,0,0.4,0.1,0.4,0.4v4.5c0.1-0.1,0.3-0.2,0.4-0.3c0.1-0.1,0.3-0.1,0.5-0.2
			c0.2-0.1,0.4-0.1,0.7-0.1c0.9,0,1.5,0.3,1.9,0.8c0.4,0.5,0.6,1.2,0.6,2.1v4.4c0,0.1,0,0.2,0.1,0.2
			C193,305.4,193.1,305.5,193.2,305.5z"/>
		<path fill="#FFFFFF" d="M196,302.8v1.6c0,0.5,0.1,0.8,0.3,0.9c0.2,0.1,0.5,0.2,0.8,0.2c0.3,0,0.6-0.1,0.8-0.3
			c0.2-0.2,0.3-0.4,0.3-0.7v-0.1c0-0.3,0.1-0.5,0.2-0.7c0.2-0.2,0.4-0.3,0.7-0.3h0.7v1.2c0,0.8-0.3,1.3-0.8,1.7
			c-0.5,0.3-1.2,0.5-2.1,0.5c-0.9,0-1.6-0.2-2.1-0.7s-0.7-1.1-0.7-2v-3.5c0-0.9,0.2-1.6,0.7-2.1c0.5-0.5,1.2-0.7,2.1-0.7
			c0.9,0,1.6,0.2,2.1,0.7c0.5,0.5,0.7,1.2,0.7,2.1v1.1c0,0.6-0.4,0.9-1.2,0.9H196z M196,301.6h2h0.2v-0.9c0-0.5-0.1-0.8-0.3-1
			c-0.2-0.2-0.5-0.3-0.8-0.3c-0.3,0-0.6,0.1-0.8,0.3c-0.2,0.2-0.3,0.6-0.3,1V301.6z"/>
		<path fill="#FFFFFF" d="M211.6,305.5c0.1,0.1,0.2,0.2,0.3,0.3c0.1,0.1,0.1,0.3,0.1,0.5v0.5h-1.4c-0.3,0-0.5-0.1-0.7-0.3
			c-0.1-0.2-0.2-0.5-0.2-0.8v-5.1c0-0.5-0.1-0.8-0.3-1c-0.2-0.2-0.5-0.3-0.8-0.3c-0.2,0-0.4,0-0.5,0.1c-0.2,0-0.3,0.1-0.4,0.2
			c-0.1,0.1-0.3,0.1-0.4,0.2v5.3c0,0.1,0,0.2,0.1,0.2c0,0,0.1,0.1,0.1,0.1c0.1,0.1,0.2,0.2,0.3,0.3c0.1,0.1,0.1,0.3,0.1,0.5v0.5
			h-1.5c-0.2,0-0.4-0.1-0.5-0.3c-0.2-0.2-0.3-0.4-0.3-0.7v-4.7v-0.6c0-0.2,0-0.4-0.1-0.6c-0.1-0.2-0.2-0.3-0.3-0.4s-0.3-0.2-0.4-0.2
			c-0.2,0-0.3-0.1-0.5-0.1c-0.2,0-0.3,0-0.4,0.1c-0.1,0-0.3,0.1-0.4,0.2c-0.1,0.1-0.2,0.1-0.4,0.2v5.3c0,0.1,0,0.2,0.1,0.2
			c0,0,0.1,0.1,0.1,0.1c0.1,0.1,0.2,0.2,0.3,0.3c0.1,0.1,0.1,0.3,0.1,0.5v0.5h-2.9v-0.5c0-0.2,0-0.4,0.1-0.5
			c0.1-0.1,0.2-0.2,0.3-0.3c0.1,0,0.1-0.1,0.1-0.1c0,0,0.1-0.1,0.1-0.3v-5.2c0-0.1,0-0.2-0.1-0.2c-0.1-0.1-0.1-0.1-0.2-0.2
			c-0.1-0.1-0.1-0.1-0.2-0.2c-0.1-0.1-0.1-0.2-0.1-0.3V298h1.8c0.1,0,0.2,0,0.2,0.1c0.1,0,0.1,0.1,0.1,0.1c0,0,0.1,0.1,0.1,0.2
			c0.1-0.1,0.3-0.2,0.5-0.2c0.2-0.1,0.3-0.1,0.5-0.2c0.2,0,0.4-0.1,0.7-0.1c0.9,0,1.6,0.2,2,0.7c0.2-0.1,0.4-0.3,0.6-0.4
			c0.2-0.1,0.4-0.2,0.7-0.3c0.3-0.1,0.6-0.1,1-0.1c0.9,0,1.5,0.2,1.9,0.7c0.4,0.5,0.6,1.1,0.6,2.1v4.5c0,0.1,0,0.2,0,0.2
			C211.5,305.4,211.5,305.5,211.6,305.5z"/>
	</g>
	<g>
		<path fill="#FFFFFF" d="M222.7,307c-0.2,0-0.3,0-0.5,0.1c-0.1,0.1-0.2,0.1-0.3,0.2c-0.1,0.1-0.1,0.2-0.1,0.3s0,0.2,0,0.3v0
			c0,0.3,0.1,0.5,0.3,0.7c0.2,0.2,0.4,0.4,0.7,0.5c0.3,0.2,0.6,0.3,0.9,0.5c0.3,0.2,0.6,0.3,0.9,0.5c0.3,0.2,0.5,0.4,0.7,0.7
			c0.2,0.3,0.3,0.6,0.3,0.9v0.5c0,0.8-0.2,1.4-0.7,1.8c-0.5,0.4-1.2,0.6-2,0.6c-0.9,0-1.6-0.2-2.1-0.6c-0.5-0.4-0.8-0.9-0.8-1.7
			v-1.1h0.8c0.3,0,0.6,0.1,0.7,0.2c0.1,0.1,0.2,0.3,0.2,0.7v0c0,0.3,0.1,0.6,0.2,0.8c0.1,0.2,0.4,0.3,0.9,0.3c0.5,0,0.7-0.1,0.9-0.3
			c0.1-0.2,0.2-0.5,0.2-0.8v-0.2c0-0.2-0.1-0.4-0.3-0.5c-0.2-0.1-0.4-0.3-0.7-0.4c-0.3-0.1-0.6-0.3-0.9-0.5
			c-0.3-0.2-0.6-0.4-0.9-0.6c-0.3-0.2-0.5-0.5-0.7-0.8c-0.2-0.3-0.3-0.7-0.3-1.1v-0.4c0-0.7,0.2-1.2,0.7-1.5
			c0.5-0.3,1.1-0.5,1.8-0.5c0.5,0,1,0.1,1.3,0.2c0.4,0.1,0.7,0.3,0.9,0.5c0.2,0.2,0.4,0.5,0.5,0.7c0.1,0.3,0.2,0.6,0.2,0.9v0.9h-0.7
			c-0.3,0-0.6,0-0.8-0.1c-0.2-0.1-0.3-0.3-0.3-0.7c0-0.2-0.1-0.5-0.2-0.7C223.3,307.1,223.1,307,222.7,307z"/>
		<path fill="#FFFFFF" d="M230.1,313.2c0.1,0,0.1,0,0.2,0c0.1,0,0.1,0.1,0.1,0.2v0.7c0,0.2,0,0.3-0.1,0.3c-0.1,0.1-0.1,0.1-0.1,0.1
			c-0.4,0.1-0.8,0.1-1.2,0.1c-0.3-0.1-0.7-0.2-0.9-0.3c-0.3-0.2-0.5-0.4-0.6-0.6c-0.1-0.3-0.2-0.5-0.2-0.8v-5.6h-1v-0.4
			c0-0.4,0.1-0.7,0.2-0.8c0.2-0.2,0.4-0.3,0.8-0.3v-2.2v-0.1c0-0.4,0.1-0.7,0.3-0.9c0.2-0.2,0.4-0.4,0.6-0.5
			c0.2-0.1,0.5-0.2,0.9-0.2v3.8h1.1v0.4c0,0.3-0.1,0.6-0.2,0.8c-0.2,0.2-0.4,0.3-0.9,0.3v5.3c0,0.2,0.1,0.4,0.3,0.6
			C229.5,313.3,229.7,313.3,230.1,313.2z"/>
		<path fill="#FFFFFF" d="M236.8,313.1c0.1,0.1,0.2,0.2,0.3,0.3c0.1,0.2,0.2,0.4,0.2,0.6v0.5h-1.7c-0.1,0-0.3,0-0.3-0.1
			c-0.1-0.1-0.1-0.2-0.2-0.3c-0.1,0.1-0.2,0.2-0.4,0.2c-0.1,0.1-0.3,0.1-0.5,0.2c-0.2,0-0.4,0.1-0.6,0.1c-0.9,0-1.6-0.3-2-0.8
			c-0.4-0.5-0.6-1.2-0.6-2.2v-0.1c0-0.5,0.1-0.9,0.2-1.2c0.1-0.3,0.3-0.6,0.5-0.8c0.2-0.2,0.5-0.4,0.8-0.5c0.3-0.1,0.6-0.2,1-0.2
			c0.3,0,0.5-0.1,0.7-0.1c0.2,0,0.3-0.1,0.4-0.1c0.1,0,0.2-0.1,0.3-0.1v-0.1c0-0.2,0-0.4,0-0.5c0-0.2-0.1-0.3-0.1-0.5
			c-0.1-0.1-0.2-0.2-0.3-0.3c-0.1-0.1-0.3-0.1-0.6-0.1c-0.2,0-0.4,0-0.6,0.1c-0.1,0.1-0.2,0.1-0.3,0.2c-0.1,0.1-0.1,0.2-0.1,0.3
			c0,0.1,0,0.2,0,0.3v0c0,0.1,0,0.2-0.1,0.3c-0.1,0.1-0.2,0.1-0.3,0.1c-0.1,0-0.3,0-0.4,0c-0.2,0-0.3,0-0.5,0h-0.4v-0.6
			c0-0.3,0-0.6,0.1-0.8c0.1-0.3,0.2-0.5,0.5-0.7c0.2-0.2,0.5-0.4,0.8-0.5c0.3-0.1,0.8-0.2,1.3-0.2c0.5,0,0.9,0.1,1.3,0.2
			c0.3,0.1,0.6,0.3,0.9,0.5c0.2,0.2,0.4,0.5,0.5,0.8s0.1,0.7,0.1,1.1v4.6c0,0.1,0,0.2,0,0.2C236.7,313,236.7,313.1,236.8,313.1z
			 M234,313.3c0.2,0,0.4,0,0.5-0.1c0.1-0.1,0.3-0.1,0.3-0.2c0.1-0.1,0.2-0.2,0.2-0.3V310c-0.1,0-0.2,0-0.3,0.1c-0.1,0-0.2,0-0.4,0.1
			c-0.1,0-0.3,0-0.5,0.1c-0.3,0-0.6,0.2-0.8,0.5c-0.2,0.3-0.3,0.6-0.3,1v0.2c0,0.4,0.1,0.8,0.3,1C233.3,313.2,233.6,313.3,234,313.3
			z"/>
		<path fill="#FFFFFF" d="M243.9,313.1c0.1,0.1,0.2,0.2,0.3,0.3c0.1,0.2,0.2,0.4,0.2,0.6v0.5h-1.7c-0.1,0-0.3,0-0.3-0.1
			c-0.1-0.1-0.1-0.2-0.2-0.3c-0.1,0.1-0.2,0.2-0.4,0.2c-0.1,0.1-0.3,0.1-0.5,0.2c-0.2,0-0.4,0.1-0.6,0.1c-0.9,0-1.6-0.3-2-0.8
			c-0.4-0.5-0.6-1.2-0.6-2.2v-0.1c0-0.5,0.1-0.9,0.2-1.2c0.1-0.3,0.3-0.6,0.5-0.8c0.2-0.2,0.5-0.4,0.8-0.5c0.3-0.1,0.6-0.2,1-0.2
			c0.3,0,0.5-0.1,0.7-0.1c0.2,0,0.3-0.1,0.4-0.1c0.1,0,0.2-0.1,0.3-0.1v-0.1c0-0.2,0-0.4,0-0.5c0-0.2-0.1-0.3-0.1-0.5
			c-0.1-0.1-0.2-0.2-0.3-0.3c-0.1-0.1-0.3-0.1-0.6-0.1c-0.2,0-0.4,0-0.6,0.1c-0.1,0.1-0.2,0.1-0.3,0.2c-0.1,0.1-0.1,0.2-0.1,0.3
			c0,0.1,0,0.2,0,0.3v0c0,0.1,0,0.2-0.1,0.3c-0.1,0.1-0.2,0.1-0.3,0.1c-0.1,0-0.3,0-0.4,0c-0.2,0-0.3,0-0.5,0h-0.4v-0.6
			c0-0.3,0-0.6,0.1-0.8c0.1-0.3,0.2-0.5,0.5-0.7c0.2-0.2,0.5-0.4,0.8-0.5c0.3-0.1,0.8-0.2,1.3-0.2c0.5,0,0.9,0.1,1.3,0.2
			c0.3,0.1,0.6,0.3,0.9,0.5c0.2,0.2,0.4,0.5,0.5,0.8s0.1,0.7,0.1,1.1v4.6c0,0.1,0,0.2,0,0.2C243.8,313,243.9,313.1,243.9,313.1z
			 M241.1,313.3c0.2,0,0.4,0,0.5-0.1c0.1-0.1,0.3-0.1,0.3-0.2c0.1-0.1,0.2-0.2,0.2-0.3V310c-0.1,0-0.2,0-0.3,0.1
			c-0.1,0-0.2,0-0.4,0.1c-0.1,0-0.3,0-0.5,0.1c-0.3,0-0.6,0.2-0.8,0.5c-0.2,0.3-0.3,0.6-0.3,1v0.2c0,0.4,0.1,0.8,0.3,1
			C240.4,313.2,240.7,313.3,241.1,313.3z"/>
		<path fill="#FFFFFF" d="M251.6,313.2c0.1,0.1,0.2,0.2,0.3,0.3c0.1,0.1,0.1,0.3,0.1,0.5v0.5h-1.5c-0.3,0-0.5-0.1-0.6-0.3
			c-0.1-0.2-0.2-0.5-0.2-0.8v-5.1c0-0.5-0.1-0.8-0.3-1c-0.2-0.2-0.5-0.3-0.8-0.3c-0.2,0-0.4,0-0.5,0.1c-0.1,0.1-0.3,0.1-0.4,0.2
			c-0.1,0.1-0.2,0.1-0.3,0.2v5.3c0,0.1,0,0.2,0.1,0.2c0,0,0.1,0.1,0.1,0.1c0.1,0.1,0.2,0.2,0.3,0.3c0.1,0.1,0.1,0.3,0.1,0.5v0.5
			h-2.9v-0.5c0-0.2,0-0.4,0.1-0.5c0.1-0.1,0.2-0.2,0.3-0.3c0.1,0,0.1-0.1,0.1-0.1c0,0,0.1-0.1,0.1-0.3v-5.4c0-0.1,0-0.1-0.1-0.2
			c0,0-0.1-0.1-0.2-0.1c-0.1-0.1-0.2-0.2-0.3-0.3c-0.1-0.1-0.1-0.3-0.1-0.5v-0.6h1.9c0.1,0,0.2,0,0.2,0.1c0,0,0.1,0.1,0.1,0.1
			c0,0,0,0.1,0.1,0.2c0.1-0.1,0.3-0.2,0.4-0.2c0.1-0.1,0.3-0.1,0.5-0.2c0.2,0,0.4-0.1,0.7-0.1c0.9,0,1.5,0.2,1.9,0.7
			c0.4,0.5,0.6,1.2,0.6,2.1v4.5c0,0.1,0,0.2,0.1,0.2C251.5,313.2,251.6,313.2,251.6,313.2z"/>
	</g>
	<g>
		<path fill="#FFFFFF" d="M266.1,305.2c0.1,0.1,0.2,0.2,0.3,0.3c0.1,0.1,0.1,0.3,0.1,0.5v0.5h-1.9c-0.1,0-0.1,0-0.2-0.1
			c0,0-0.1-0.1-0.1-0.1c0,0-0.1-0.1-0.1-0.2c-0.1,0.1-0.2,0.2-0.3,0.2c-0.1,0.1-0.3,0.1-0.5,0.1c-0.2,0-0.4,0.1-0.7,0.1
			c-0.9,0-1.5-0.3-1.9-0.8c-0.4-0.5-0.6-1.2-0.6-2.1v-3.2c0-0.9,0.2-1.6,0.6-2.1c0.4-0.5,1-0.8,1.9-0.8c0.2,0,0.5,0,0.7,0.1
			c0.2,0.1,0.4,0.1,0.5,0.2c0.2,0.1,0.3,0.1,0.4,0.2V295c0-0.2-0.1-0.3-0.2-0.4c-0.1-0.1-0.2-0.2-0.3-0.3c-0.1-0.1-0.1-0.3-0.1-0.5
			v-0.6h1.2c0.4,0,0.7,0.1,0.8,0.2c0.2,0.2,0.2,0.4,0.2,0.7v10.6c0,0.1,0,0.2,0.1,0.2C265.9,305.1,266,305.1,266.1,305.2z
			 M264.2,299.6c-0.1-0.1-0.2-0.2-0.3-0.3c-0.1-0.1-0.2-0.1-0.4-0.2c-0.1-0.1-0.3-0.1-0.4-0.1c-0.3,0-0.6,0.1-0.8,0.3
			c-0.2,0.2-0.3,0.6-0.3,1v3.4c0,0.5,0.1,0.8,0.3,1c0.2,0.2,0.4,0.3,0.8,0.3c0.2,0,0.4,0,0.5-0.1c0.2-0.1,0.3-0.1,0.4-0.2
			c0.1-0.1,0.2-0.2,0.3-0.3V299.6z"/>
		<path fill="#FFFFFF" d="M269,302.5v1.6c0,0.5,0.1,0.8,0.3,0.9c0.2,0.1,0.5,0.2,0.8,0.2c0.3,0,0.6-0.1,0.8-0.3
			c0.2-0.2,0.3-0.4,0.3-0.7v-0.1c0-0.3,0.1-0.5,0.2-0.7c0.2-0.2,0.4-0.3,0.7-0.3h0.7v1.2c0,0.8-0.3,1.3-0.8,1.7
			c-0.5,0.3-1.2,0.5-2.1,0.5c-0.9,0-1.6-0.2-2.1-0.7c-0.5-0.4-0.7-1.1-0.7-2v-3.5c0-0.9,0.2-1.6,0.7-2.1c0.5-0.5,1.2-0.7,2.1-0.7
			c0.9,0,1.6,0.2,2.1,0.7c0.5,0.5,0.7,1.2,0.7,2.1v1.1c0,0.6-0.4,0.9-1.2,0.9H269z M269,301.3h2h0.2v-0.9c0-0.5-0.1-0.8-0.3-1
			c-0.2-0.2-0.5-0.3-0.8-0.3c-0.3,0-0.6,0.1-0.8,0.3c-0.2,0.2-0.3,0.6-0.3,1V301.3z"/>
	</g>
	<polygon fill="#1E1E1C" points="255.5,299 257.7,290.1 257.7,311.2 255.5,320.1 	"/>
</g>
<g>
	<rect x="432.9" y="294.6" fill="#1E1E1C" width="38" height="21"/>
	<rect x="472.9" y="290.1" fill="#1E1E1C" width="29.6" height="21"/>
	<rect x="586.5" y="299" fill="#1E1E1C" width="38.6" height="21"/>
	<rect x="553.9" y="290.1" fill="#1E1E1C" width="29.6" height="21"/>
	<rect x="627.2" y="290.1" fill="#1E1E1C" width="18.5" height="21"/>
	<rect x="505.5" y="285.3" fill="#1E1E1C" width="45.7" height="21"/>
	<g>
		<path fill="#FFFFFF" d="M444.3,309.7L444.3,309.7c0,0.1,0,0.2,0,0.3c0,0,0.1,0.1,0.1,0.1c0.1,0.1,0.2,0.2,0.3,0.3
			c0.1,0.1,0.1,0.3,0.1,0.5v0.5h-3v-0.5c0-0.2,0-0.4,0.1-0.5c0.1-0.1,0.2-0.2,0.3-0.3c0.1,0,0.1-0.1,0.1-0.1c0,0,0-0.1,0-0.2v-4.2
			c0-0.2-0.1-0.2-0.2-0.2h-2.1c-0.2,0-0.3,0.1-0.3,0.3v4.2v0v0c0,0.1,0,0.2,0.1,0.2c0,0,0.1,0.1,0.1,0.1c0.1,0.1,0.2,0.2,0.3,0.3
			c0.1,0.1,0.1,0.3,0.1,0.5v0.5h-2.9v-0.5c0-0.2,0-0.4,0.1-0.5c0.1-0.1,0.2-0.2,0.3-0.3c0.1,0,0.1-0.1,0.1-0.1c0,0,0.1-0.1,0.1-0.2
			v0v-9.9c0-0.1,0-0.2-0.1-0.2c0,0-0.1-0.1-0.1-0.1c-0.1-0.1-0.2-0.2-0.3-0.3c-0.1-0.1-0.1-0.3-0.1-0.5v-0.5h2.9v0.5
			c0,0.2,0,0.4-0.1,0.5c-0.1,0.1-0.2,0.2-0.3,0.3c0,0-0.1,0.1-0.1,0.1c0,0-0.1,0.1-0.1,0.2v3.7c0,0.1,0,0.2,0.1,0.2
			c0.1,0,0.1,0.1,0.2,0.1h2.1c0.1,0,0.1,0,0.2-0.1c0-0.1,0.1-0.1,0.1-0.2v-3.7c0-0.1,0-0.2,0-0.2c0,0-0.1-0.1-0.1-0.1
			c-0.1-0.1-0.2-0.2-0.3-0.3c-0.1-0.1-0.1-0.3-0.1-0.5v-0.5h3v0.5c0,0.2,0,0.4-0.1,0.5c-0.1,0.1-0.2,0.2-0.3,0.3
			c-0.1,0-0.1,0.1-0.1,0.1c0,0,0,0.1,0,0.2V309.7z"/>
		<path fill="#FFFFFF" d="M448.3,310.1c0.1,0.1,0.2,0.2,0.3,0.3c0.1,0.1,0.1,0.3,0.1,0.5l0,0.5h-2.9v-0.5c0-0.2,0-0.4,0.1-0.5
			c0.1-0.1,0.2-0.2,0.3-0.3c0,0,0.1-0.1,0.1-0.1c0,0,0.1-0.1,0.1-0.2v-5.5c0-0.1-0.1-0.2-0.2-0.3c-0.1-0.1-0.2-0.2-0.3-0.3
			c-0.1-0.1-0.1-0.3-0.1-0.5v-0.6h1.9c0.3,0,0.4,0.1,0.4,0.3v6.9c0,0.1,0,0.2,0.1,0.2C448.2,310,448.2,310,448.3,310.1z
			 M447.2,301.4c-0.3,0-0.5-0.1-0.7-0.3c-0.2-0.2-0.3-0.4-0.3-0.6c0-0.3,0.1-0.5,0.3-0.7s0.4-0.3,0.7-0.3c0.2,0,0.5,0.1,0.6,0.3
			c0.2,0.2,0.3,0.4,0.3,0.7c0,0.2-0.1,0.5-0.3,0.6C447.6,301.3,447.4,301.4,447.2,301.4z"/>
		<path fill="#FFFFFF" d="M451.3,307.3v1.6c0,0.5,0.1,0.8,0.3,0.9c0.2,0.1,0.5,0.2,0.8,0.2c0.3,0,0.6-0.1,0.8-0.3
			c0.2-0.2,0.3-0.4,0.3-0.7v-0.1c0-0.3,0.1-0.5,0.2-0.7c0.2-0.2,0.4-0.3,0.7-0.3h0.7v1.2c0,0.8-0.3,1.3-0.8,1.7
			c-0.5,0.3-1.2,0.5-2.1,0.5c-0.9,0-1.6-0.2-2.1-0.7c-0.5-0.4-0.7-1.1-0.7-2v-3.5c0-0.9,0.2-1.6,0.7-2.1c0.5-0.5,1.2-0.7,2.1-0.7
			c0.9,0,1.6,0.2,2.1,0.7c0.5,0.5,0.7,1.2,0.7,2.1v1.1c0,0.6-0.4,0.9-1.2,0.9H451.3z M451.3,306.1h2h0.2v-0.9c0-0.5-0.1-0.8-0.3-1
			c-0.2-0.2-0.5-0.3-0.8-0.3c-0.3,0-0.6,0.1-0.8,0.3c-0.2,0.2-0.3,0.6-0.3,1V306.1z"/>
		<path fill="#FFFFFF" d="M458.5,310.1c0.1,0.1,0.2,0.2,0.3,0.3c0.1,0.1,0.1,0.3,0.1,0.5v0.5H456v-0.5c0-0.2,0-0.4,0.1-0.5
			c0.1-0.1,0.2-0.2,0.3-0.3c0,0,0.1-0.1,0.1-0.1c0,0,0.1-0.1,0.1-0.2v-10c0-0.1-0.1-0.2-0.2-0.3c-0.1-0.1-0.2-0.2-0.3-0.3
			c-0.1-0.1-0.1-0.3-0.1-0.5v-0.6h1.8c0.3,0,0.4,0.1,0.4,0.4v11.2c0,0.1,0,0.2,0.1,0.2C458.4,310,458.5,310,458.5,310.1z"/>
		<path fill="#FFFFFF" d="M465.7,310.1c0.1,0.1,0.2,0.2,0.3,0.3c0.1,0.1,0.1,0.3,0.1,0.5v0.5h-1.9c-0.1,0-0.1,0-0.2-0.1
			c0,0-0.1-0.1-0.1-0.1c0,0-0.1-0.1-0.1-0.2c-0.1,0.1-0.2,0.2-0.3,0.2c-0.1,0.1-0.3,0.1-0.5,0.1c-0.2,0-0.4,0.1-0.7,0.1
			c-0.9,0-1.5-0.3-1.9-0.8c-0.4-0.5-0.6-1.2-0.6-2.1v-3.2c0-0.9,0.2-1.6,0.6-2.1c0.4-0.5,1-0.8,1.9-0.8c0.2,0,0.5,0,0.7,0.1
			c0.2,0.1,0.4,0.1,0.5,0.2c0.2,0.1,0.3,0.1,0.4,0.2v-3.1c0-0.2-0.1-0.3-0.2-0.4c-0.1-0.1-0.2-0.2-0.3-0.3c-0.1-0.1-0.1-0.3-0.1-0.5
			v-0.6h1.2c0.4,0,0.7,0.1,0.8,0.2c0.2,0.2,0.2,0.4,0.2,0.7v10.6c0,0.1,0,0.2,0.1,0.2C465.6,310,465.6,310,465.7,310.1z
			 M463.8,304.4c-0.1-0.1-0.2-0.2-0.3-0.3c-0.1-0.1-0.2-0.1-0.4-0.2c-0.1-0.1-0.3-0.1-0.4-0.1c-0.3,0-0.6,0.1-0.8,0.3
			c-0.2,0.2-0.3,0.6-0.3,1v3.4c0,0.5,0.1,0.8,0.3,1c0.2,0.2,0.4,0.3,0.8,0.3c0.2,0,0.4,0,0.5-0.1c0.2-0.1,0.3-0.1,0.4-0.2
			c0.1-0.1,0.2-0.2,0.3-0.3V304.4z"/>
	</g>
	<g>
		<path fill="#FFFFFF" d="M479.5,300.9v1.6c0,0.5,0.1,0.8,0.3,0.9c0.2,0.1,0.5,0.2,0.8,0.2c0.3,0,0.6-0.1,0.8-0.3
			c0.2-0.2,0.3-0.4,0.3-0.7v-0.1c0-0.3,0.1-0.5,0.2-0.7c0.2-0.2,0.4-0.3,0.7-0.3h0.7v1.2c0,0.8-0.3,1.3-0.8,1.7
			c-0.5,0.3-1.2,0.5-2.1,0.5c-0.9,0-1.6-0.2-2.1-0.7c-0.5-0.4-0.7-1.1-0.7-2v-3.5c0-0.9,0.2-1.6,0.7-2.1c0.5-0.5,1.2-0.7,2.1-0.7
			c0.9,0,1.6,0.2,2.1,0.7c0.5,0.5,0.7,1.2,0.7,2.1v1.1c0,0.6-0.4,0.9-1.2,0.9H479.5z M479.5,299.7h2h0.2v-0.9c0-0.5-0.1-0.8-0.3-1
			c-0.2-0.2-0.5-0.3-0.8-0.3c-0.3,0-0.6,0.1-0.8,0.3c-0.2,0.2-0.3,0.6-0.3,1V299.7z"/>
		<path fill="#FFFFFF" d="M486.3,300.9v1.6c0,0.5,0.1,0.8,0.3,0.9c0.2,0.1,0.5,0.2,0.8,0.2c0.3,0,0.6-0.1,0.8-0.3
			c0.2-0.2,0.3-0.4,0.3-0.7v-0.1c0-0.3,0.1-0.5,0.2-0.7c0.2-0.2,0.4-0.3,0.7-0.3h0.7v1.2c0,0.8-0.3,1.3-0.8,1.7
			c-0.5,0.3-1.2,0.5-2.1,0.5c-0.9,0-1.6-0.2-2.1-0.7c-0.5-0.4-0.7-1.1-0.7-2v-3.5c0-0.9,0.2-1.6,0.7-2.1c0.5-0.5,1.2-0.7,2.1-0.7
			c0.9,0,1.6,0.2,2.1,0.7c0.5,0.5,0.7,1.2,0.7,2.1v1.1c0,0.6-0.4,0.9-1.2,0.9H486.3z M486.3,299.7h2h0.2v-0.9c0-0.5-0.1-0.8-0.3-1
			c-0.2-0.2-0.5-0.3-0.8-0.3c-0.3,0-0.6,0.1-0.8,0.3c-0.2,0.2-0.3,0.6-0.3,1V299.7z"/>
		<path fill="#FFFFFF" d="M497.6,303.7c0.1,0.1,0.2,0.2,0.3,0.3c0.1,0.1,0.1,0.3,0.1,0.5v0.5h-1.5c-0.3,0-0.5-0.1-0.6-0.3
			c-0.1-0.2-0.2-0.5-0.2-0.8v-5.1c0-0.5-0.1-0.8-0.3-1c-0.2-0.2-0.5-0.3-0.8-0.3c-0.2,0-0.4,0-0.5,0.1s-0.3,0.1-0.4,0.2
			c-0.1,0.1-0.2,0.1-0.3,0.2v5.3c0,0.1,0,0.2,0.1,0.2c0,0,0.1,0.1,0.1,0.1c0.1,0.1,0.2,0.2,0.3,0.3c0.1,0.1,0.1,0.3,0.1,0.5v0.5
			h-2.9v-0.5c0-0.2,0-0.4,0.1-0.5c0.1-0.1,0.2-0.2,0.3-0.3c0.1,0,0.1-0.1,0.1-0.1c0,0,0.1-0.1,0.1-0.3v-5.4c0-0.1,0-0.1-0.1-0.2
			c0,0-0.1-0.1-0.2-0.1c-0.1-0.1-0.2-0.2-0.3-0.3c-0.1-0.1-0.1-0.3-0.1-0.5v-0.6h1.9c0.1,0,0.2,0,0.2,0.1c0,0,0.1,0.1,0.1,0.1
			c0,0,0,0.1,0.1,0.2c0.1-0.1,0.3-0.2,0.4-0.2c0.1-0.1,0.3-0.1,0.5-0.2c0.2,0,0.4-0.1,0.7-0.1c0.9,0,1.5,0.2,1.9,0.7
			c0.4,0.5,0.6,1.2,0.6,2.1v4.5c0,0.1,0,0.2,0.1,0.2C497.5,303.6,497.6,303.6,497.6,303.7z"/>
	</g>
	<g>
		<path fill="#FFFFFF" d="M515.7,292.1v0.5c0,0.2,0,0.4-0.1,0.5c-0.1,0.1-0.2,0.2-0.3,0.3c0,0-0.1,0.2-0.1,0.4
			c0,0.3-0.1,0.6-0.2,1.1c-0.1,0.4-0.1,0.9-0.2,1.5c-0.1,0.5-0.2,1.1-0.2,1.6c-0.1,0.5-0.2,1-0.2,1.4c-0.1,0.4-0.1,0.8-0.2,1
			c0,0.2-0.1,0.3-0.2,0.4c-0.1,0.1-0.2,0.1-0.3,0.1H512c-0.2,0-0.4,0-0.5-0.1c-0.1-0.1-0.2-0.2-0.2-0.4c0-0.1,0-0.3-0.1-0.6
			c-0.1-0.3-0.1-0.8-0.2-1.2c-0.1-0.5-0.2-1-0.3-1.5c-0.1-0.5-0.2-1-0.2-1.5c-0.1-0.5-0.1-0.9-0.2-1.2c-0.1-0.3-0.1-0.5-0.1-0.6
			c0-0.1-0.1-0.2-0.1-0.2c0,0,0,0-0.1-0.1c-0.1-0.1-0.2-0.2-0.3-0.3c-0.1-0.1-0.1-0.3-0.1-0.5v-0.6h1.5c0.2,0,0.3,0,0.4,0.1
			c0.1,0.1,0.1,0.2,0.2,0.4c0,0,0,0.1,0.1,0.3c0,0.2,0.1,0.5,0.1,0.8c0,0.3,0.1,0.7,0.2,1.1c0.1,0.4,0.1,0.8,0.2,1.3
			c0.1,1,0.3,2.1,0.5,3.4c0.2-1.2,0.3-2.3,0.5-3.3c0.1-0.4,0.1-0.8,0.2-1.2s0.1-0.8,0.2-1.1c0-0.3,0.1-0.6,0.1-0.8
			c0-0.2,0.1-0.3,0.1-0.4c0-0.1,0.1-0.3,0.1-0.3c0-0.1,0-0.2,0.1-0.2c0-0.1,0.1-0.1,0.2-0.1c0.1,0,0.2,0,0.3,0H515.7z"/>
		<path fill="#FFFFFF" d="M521.4,293.7c-0.1,0-0.2,0-0.3,0c-0.3-0.1-0.6-0.1-0.8,0c-0.3,0-0.5,0.1-0.7,0.2c-0.2,0.1-0.4,0.3-0.5,0.4
			c-0.1,0.2-0.2,0.4-0.2,0.5v4.4c0,0.1,0,0.2,0,0.2c0,0.1,0.1,0.1,0.1,0.1c0.1,0.1,0.2,0.2,0.3,0.3c0.1,0.1,0.1,0.3,0.1,0.5l0,0.5
			h-2.9v-0.5c0-0.2,0-0.4,0.1-0.5c0.1-0.1,0.2-0.2,0.3-0.3c0.1,0,0.1-0.1,0.1-0.1c0-0.1,0-0.1,0-0.3v-5.4c0-0.1-0.1-0.2-0.2-0.3
			c-0.1-0.1-0.2-0.2-0.3-0.3c-0.1-0.1-0.1-0.3-0.1-0.5v-0.6h1.9c0.3,0,0.4,0.1,0.4,0.4v0.2c0.2-0.1,0.3-0.2,0.5-0.3
			c0.2-0.1,0.3-0.2,0.5-0.2c0.2-0.1,0.4-0.1,0.6-0.1c0.2,0,0.5,0,0.8,0.1c0.1,0,0.1,0,0.2,0.1c0.1,0.1,0.1,0.2,0.1,0.3v1
			C521.6,293.6,521.5,293.7,521.4,293.7z"/>
		<path fill="#FFFFFF" d="M525.1,292c0.4,0,0.8,0.1,1.2,0.2c0.3,0.1,0.6,0.3,0.9,0.5c0.2,0.2,0.4,0.5,0.6,0.8
			c0.1,0.3,0.2,0.6,0.2,0.9v4.2c0,0.8-0.3,1.4-0.8,1.8c-0.5,0.4-1.2,0.7-2,0.7c-0.9,0-1.6-0.2-2.1-0.7c-0.5-0.5-0.7-1.1-0.7-2.1
			v-3.6c0-0.9,0.2-1.6,0.7-2C523.5,292.3,524.2,292,525.1,292z M525.1,299.7c0.3,0,0.6-0.1,0.8-0.3c0.2-0.2,0.3-0.5,0.3-0.9v-3.7
			c0-0.5-0.1-0.9-0.3-1c-0.2-0.2-0.5-0.3-0.8-0.3c-0.3,0-0.6,0.1-0.8,0.3c-0.2,0.2-0.3,0.5-0.3,1v3.7c0,0.5,0.1,0.8,0.3,1
			C524.5,299.6,524.7,299.7,525.1,299.7z"/>
		<path fill="#FFFFFF" d="M535.1,299.6c0.1,0.1,0.2,0.2,0.3,0.3c0.1,0.1,0.1,0.3,0.1,0.5v0.5H534c-0.2,0-0.4,0-0.4-0.1
			c-0.1-0.1-0.1-0.1-0.2-0.3c-0.2,0.2-0.4,0.3-0.6,0.4c-0.2,0.1-0.5,0.1-0.7,0.1c-0.9,0-1.6-0.2-2.1-0.7c-0.5-0.5-0.8-1.2-0.8-2.1
			v-4.5c0-0.1,0-0.2-0.1-0.2c0-0.1-0.1-0.1-0.2-0.1c-0.1-0.1-0.2-0.2-0.2-0.3s-0.1-0.3-0.1-0.5v-0.6h1.7c0.2,0,0.3,0,0.4,0.1
			c0.1,0.1,0.1,0.2,0.1,0.5v5.7c0,0.5,0.1,0.8,0.3,1c0.2,0.2,0.5,0.3,0.8,0.3c0.2,0,0.4,0,0.5-0.1c0.1-0.1,0.3-0.1,0.3-0.2
			c0.1-0.1,0.2-0.1,0.2-0.3v-5.4c0-0.1,0-0.2-0.1-0.2c0-0.1-0.1-0.1-0.2-0.1c-0.1-0.1-0.2-0.2-0.2-0.3s-0.1-0.3-0.1-0.5v-0.6h1.7
			c0.2,0,0.3,0.1,0.4,0.2c0.1,0.1,0.1,0.2,0.1,0.4v6v-1.8v0.1v2.3c0,0.1,0,0.2,0,0.2C535,299.6,535,299.6,535.1,299.6z"/>
		<path fill="#FFFFFF" d="M546.9,292.1v0.5c0,0.2,0,0.4-0.1,0.6c-0.1,0.1-0.1,0.2-0.2,0.3c-0.1,0.1-0.1,0.2-0.2,0.4
			c0,0.1,0,0.2-0.1,0.4c0,0.2-0.1,0.5-0.2,0.8c-0.1,0.3-0.1,0.7-0.2,1.1c-0.1,0.4-0.1,0.8-0.2,1.2c-0.2,0.9-0.3,1.9-0.6,3.1
			c-0.1,0.4-0.3,0.6-0.6,0.6h-1.5c-0.2,0-0.3-0.1-0.4-0.2c-0.1-0.1-0.2-0.3-0.2-0.4l-0.9-4.6l-1,4.5c-0.1,0.2-0.2,0.4-0.3,0.5
			c-0.1,0.1-0.2,0.1-0.4,0.1h-1.4c-0.2,0-0.4-0.1-0.5-0.2c-0.1-0.1-0.2-0.3-0.2-0.5c0-0.1,0-0.2-0.1-0.4c0-0.2-0.1-0.5-0.1-0.8
			s-0.1-0.7-0.2-1c-0.1-0.4-0.1-0.8-0.2-1.2c-0.2-0.9-0.3-1.9-0.5-3c0-0.2-0.1-0.3-0.2-0.4c-0.1-0.1-0.2-0.2-0.2-0.3
			c-0.1-0.1-0.1-0.3-0.1-0.5v-0.6h1.3c0.2,0,0.3,0,0.5,0.1c0.1,0.1,0.2,0.2,0.2,0.5c0,0,0,0.2,0.1,0.4c0,0.2,0.1,0.5,0.1,0.8
			c0.1,0.3,0.1,0.7,0.2,1.1c0.1,0.4,0.1,0.8,0.2,1.2c0.2,1,0.3,2,0.5,3.2c0.2-1.2,0.5-2.3,0.7-3.2c0.1-0.4,0.2-0.8,0.3-1.2
			c0.1-0.4,0.2-0.8,0.2-1.1c0.1-0.3,0.1-0.6,0.2-0.8c0-0.2,0.1-0.4,0.1-0.4c0.1-0.2,0.2-0.3,0.3-0.4c0.1-0.1,0.3-0.1,0.5-0.1
			c0.2,0,0.3,0,0.5,0.1c0.1,0,0.2,0.2,0.3,0.4c0,0,0,0.2,0.1,0.4c0,0.2,0.1,0.5,0.2,0.8c0.1,0.3,0.1,0.7,0.2,1.1
			c0.1,0.4,0.2,0.8,0.3,1.2c0.2,1,0.4,2.1,0.7,3.3c0.2-1.1,0.4-2.2,0.6-3.1c0.1-0.4,0.1-0.8,0.2-1.2c0.1-0.4,0.1-0.7,0.2-1.1
			s0.1-0.6,0.1-0.8c0-0.2,0.1-0.3,0.1-0.4c0-0.3,0.1-0.4,0.2-0.5c0.1-0.1,0.3-0.1,0.5-0.1H546.9z"/>
	</g>
	<g>
		<path fill="#FFFFFF" d="M562.7,305.5c0.1,0.1,0.2,0.2,0.3,0.3c0.1,0.1,0.1,0.3,0.1,0.5v0.5h-1.6c-0.5,0-0.7-0.4-0.7-1.1v-5.1
			c0-0.5-0.2-0.8-0.4-1c-0.2-0.2-0.5-0.3-0.8-0.3c-0.2,0-0.4,0-0.5,0.1c-0.1,0-0.3,0.1-0.4,0.2c-0.1,0.1-0.2,0.1-0.3,0.2v5.3
			c0,0.1,0,0.2,0.1,0.2c0,0,0.1,0.1,0.1,0.1c0.1,0.1,0.2,0.2,0.3,0.3c0.1,0.1,0.1,0.3,0.1,0.5v0.5h-2.9v-0.5c0-0.2,0-0.4,0.1-0.5
			c0.1-0.1,0.2-0.2,0.3-0.3c0.1,0,0.1-0.1,0.1-0.1c0,0,0.1-0.1,0.1-0.2v-9.8c0-0.2-0.1-0.3-0.2-0.4c-0.1-0.1-0.2-0.2-0.3-0.3
			c-0.1-0.1-0.1-0.3-0.1-0.5v-0.6h1.9c0.2,0,0.4,0.1,0.4,0.4v4.5c0.1-0.1,0.3-0.2,0.4-0.3c0.1-0.1,0.3-0.1,0.5-0.2
			c0.2-0.1,0.4-0.1,0.7-0.1c0.9,0,1.5,0.3,1.9,0.8c0.4,0.5,0.6,1.2,0.6,2.1v4.4c0,0.1,0,0.2,0.1,0.2
			C562.6,305.4,562.6,305.5,562.7,305.5z"/>
		<path fill="#FFFFFF" d="M565.5,302.8v1.6c0,0.5,0.1,0.8,0.3,0.9c0.2,0.1,0.5,0.2,0.8,0.2c0.3,0,0.6-0.1,0.8-0.3
			c0.2-0.2,0.3-0.4,0.3-0.7v-0.1c0-0.3,0.1-0.5,0.2-0.7c0.2-0.2,0.4-0.3,0.7-0.3h0.7v1.2c0,0.8-0.3,1.3-0.8,1.7
			c-0.5,0.3-1.2,0.5-2.1,0.5c-0.9,0-1.6-0.2-2.1-0.7c-0.5-0.4-0.7-1.1-0.7-2v-3.5c0-0.9,0.2-1.6,0.7-2.1c0.5-0.5,1.2-0.7,2.1-0.7
			c0.9,0,1.6,0.2,2.1,0.7c0.5,0.5,0.7,1.2,0.7,2.1v1.1c0,0.6-0.4,0.9-1.2,0.9H565.5z M565.5,301.6h2h0.2v-0.9c0-0.5-0.1-0.8-0.3-1
			c-0.2-0.2-0.5-0.3-0.8-0.3c-0.3,0-0.6,0.1-0.8,0.3c-0.2,0.2-0.3,0.6-0.3,1V301.6z"/>
		<path fill="#FFFFFF" d="M581.1,305.5c0.1,0.1,0.2,0.2,0.3,0.3c0.1,0.1,0.1,0.3,0.1,0.5v0.5h-1.4c-0.3,0-0.5-0.1-0.7-0.3
			c-0.1-0.2-0.2-0.5-0.2-0.8v-5.1c0-0.5-0.1-0.8-0.3-1c-0.2-0.2-0.5-0.3-0.8-0.3c-0.2,0-0.4,0-0.5,0.1c-0.2,0-0.3,0.1-0.4,0.2
			c-0.1,0.1-0.3,0.1-0.4,0.2v5.3c0,0.1,0,0.2,0.1,0.2c0,0,0.1,0.1,0.1,0.1c0.1,0.1,0.2,0.2,0.3,0.3c0.1,0.1,0.1,0.3,0.1,0.5v0.5
			h-1.5c-0.2,0-0.4-0.1-0.5-0.3c-0.2-0.2-0.3-0.4-0.3-0.7v-4.7v-0.6c0-0.2,0-0.4-0.1-0.6c-0.1-0.2-0.2-0.3-0.3-0.4
			c-0.1-0.1-0.3-0.2-0.4-0.2c-0.2,0-0.3-0.1-0.5-0.1c-0.2,0-0.3,0-0.4,0.1c-0.1,0-0.3,0.1-0.4,0.2c-0.1,0.1-0.2,0.1-0.4,0.2v5.3
			c0,0.1,0,0.2,0.1,0.2c0,0,0.1,0.1,0.1,0.1c0.1,0.1,0.2,0.2,0.3,0.3c0.1,0.1,0.1,0.3,0.1,0.5v0.5h-2.9v-0.5c0-0.2,0-0.4,0.1-0.5
			c0.1-0.1,0.2-0.2,0.3-0.3c0.1,0,0.1-0.1,0.1-0.1c0,0,0.1-0.1,0.1-0.3v-5.2c0-0.1,0-0.2-0.1-0.2c-0.1-0.1-0.1-0.1-0.2-0.2
			c-0.1-0.1-0.1-0.1-0.2-0.2c-0.1-0.1-0.1-0.2-0.1-0.3V298h1.8c0.1,0,0.2,0,0.2,0.1c0.1,0,0.1,0.1,0.1,0.1c0,0,0.1,0.1,0.1,0.2
			c0.1-0.1,0.3-0.2,0.5-0.2c0.2-0.1,0.3-0.1,0.5-0.2c0.2,0,0.4-0.1,0.7-0.1c0.9,0,1.6,0.2,2,0.7c0.2-0.1,0.4-0.3,0.6-0.4
			c0.2-0.1,0.4-0.2,0.7-0.3c0.3-0.1,0.6-0.1,1-0.1c0.9,0,1.5,0.2,1.9,0.7c0.4,0.5,0.6,1.1,0.6,2.1v4.5c0,0.1,0,0.2,0,0.2
			C581,305.4,581.1,305.5,581.1,305.5z"/>
	</g>
	<g>
		<path fill="#FFFFFF" d="M592.3,307c-0.2,0-0.3,0-0.5,0.1c-0.1,0.1-0.2,0.1-0.3,0.2c-0.1,0.1-0.1,0.2-0.1,0.3s0,0.2,0,0.3v0
			c0,0.3,0.1,0.5,0.3,0.7c0.2,0.2,0.4,0.4,0.7,0.5c0.3,0.2,0.6,0.3,0.9,0.5c0.3,0.2,0.6,0.3,0.9,0.5c0.3,0.2,0.5,0.4,0.7,0.7
			c0.2,0.3,0.3,0.6,0.3,0.9v0.5c0,0.8-0.2,1.4-0.7,1.8c-0.5,0.4-1.2,0.6-2,0.6c-0.9,0-1.6-0.2-2.1-0.6c-0.5-0.4-0.8-0.9-0.8-1.7
			v-1.1h0.8c0.3,0,0.6,0.1,0.7,0.2c0.1,0.1,0.2,0.3,0.2,0.7v0c0,0.3,0.1,0.6,0.2,0.8c0.1,0.2,0.4,0.3,0.9,0.3s0.7-0.1,0.9-0.3
			c0.1-0.2,0.2-0.5,0.2-0.8v-0.2c0-0.2-0.1-0.4-0.3-0.5c-0.2-0.1-0.4-0.3-0.7-0.4c-0.3-0.1-0.6-0.3-0.9-0.5
			c-0.3-0.2-0.6-0.4-0.9-0.6c-0.3-0.2-0.5-0.5-0.7-0.8c-0.2-0.3-0.3-0.7-0.3-1.1v-0.4c0-0.7,0.2-1.2,0.7-1.5
			c0.5-0.3,1.1-0.5,1.8-0.5c0.5,0,1,0.1,1.3,0.2c0.4,0.1,0.7,0.3,0.9,0.5c0.2,0.2,0.4,0.5,0.5,0.7c0.1,0.3,0.2,0.6,0.2,0.9v0.9h-0.7
			c-0.3,0-0.6,0-0.8-0.1c-0.2-0.1-0.3-0.3-0.3-0.7c0-0.2-0.1-0.5-0.2-0.7C592.9,307.1,592.6,307,592.3,307z"/>
		<path fill="#FFFFFF" d="M599.6,313.2c0.1,0,0.1,0,0.2,0c0.1,0,0.1,0.1,0.1,0.2v0.7c0,0.2,0,0.3-0.1,0.3c-0.1,0.1-0.1,0.1-0.1,0.1
			c-0.4,0.1-0.8,0.1-1.2,0.1c-0.3-0.1-0.7-0.2-0.9-0.3c-0.3-0.2-0.5-0.4-0.6-0.6c-0.1-0.3-0.2-0.5-0.2-0.8v-5.6h-1v-0.4
			c0-0.4,0.1-0.7,0.2-0.8c0.2-0.2,0.4-0.3,0.8-0.3v-2.2v-0.1c0-0.4,0.1-0.7,0.3-0.9c0.2-0.2,0.4-0.4,0.6-0.5
			c0.2-0.1,0.5-0.2,0.9-0.2v3.8h1.1v0.4c0,0.3-0.1,0.6-0.2,0.8c-0.2,0.2-0.4,0.3-0.9,0.3v5.3c0,0.2,0.1,0.4,0.3,0.6
			C599,313.3,599.2,313.3,599.6,313.2z"/>
		<path fill="#FFFFFF" d="M606.3,313.1c0.1,0.1,0.2,0.2,0.3,0.3c0.1,0.2,0.2,0.4,0.2,0.6v0.5h-1.7c-0.1,0-0.3,0-0.3-0.1
			c-0.1-0.1-0.1-0.2-0.2-0.3c-0.1,0.1-0.2,0.2-0.4,0.2c-0.1,0.1-0.3,0.1-0.5,0.2c-0.2,0-0.4,0.1-0.6,0.1c-0.9,0-1.6-0.3-2-0.8
			c-0.4-0.5-0.6-1.2-0.6-2.2v-0.1c0-0.5,0.1-0.9,0.2-1.2c0.1-0.3,0.3-0.6,0.5-0.8c0.2-0.2,0.5-0.4,0.8-0.5c0.3-0.1,0.6-0.2,1-0.2
			c0.3,0,0.5-0.1,0.7-0.1c0.2,0,0.3-0.1,0.4-0.1c0.1,0,0.2-0.1,0.3-0.1v-0.1c0-0.2,0-0.4,0-0.5c0-0.2-0.1-0.3-0.1-0.5
			c-0.1-0.1-0.2-0.2-0.3-0.3c-0.1-0.1-0.3-0.1-0.6-0.1s-0.4,0-0.6,0.1c-0.1,0.1-0.2,0.1-0.3,0.2c-0.1,0.1-0.1,0.2-0.1,0.3
			c0,0.1,0,0.2,0,0.3v0c0,0.1,0,0.2-0.1,0.3c-0.1,0.1-0.2,0.1-0.3,0.1c-0.1,0-0.3,0-0.4,0c-0.2,0-0.3,0-0.5,0h-0.4v-0.6
			c0-0.3,0-0.6,0.1-0.8c0.1-0.3,0.2-0.5,0.5-0.7c0.2-0.2,0.5-0.4,0.8-0.5s0.8-0.2,1.3-0.2c0.5,0,0.9,0.1,1.3,0.2
			c0.3,0.1,0.6,0.3,0.9,0.5c0.2,0.2,0.4,0.5,0.5,0.8s0.1,0.7,0.1,1.1v4.6c0,0.1,0,0.2,0,0.2C606.2,313,606.3,313.1,606.3,313.1z
			 M603.5,313.3c0.2,0,0.4,0,0.5-0.1c0.1-0.1,0.3-0.1,0.3-0.2c0.1-0.1,0.2-0.2,0.2-0.3V310c-0.1,0-0.2,0-0.3,0.1
			c-0.1,0-0.2,0-0.4,0.1c-0.1,0-0.3,0-0.5,0.1c-0.3,0-0.6,0.2-0.8,0.5c-0.2,0.3-0.3,0.6-0.3,1v0.2c0,0.4,0.1,0.8,0.3,1
			C602.8,313.2,603.1,313.3,603.5,313.3z"/>
		<path fill="#FFFFFF" d="M613.4,313.1c0.1,0.1,0.2,0.2,0.3,0.3c0.1,0.2,0.2,0.4,0.2,0.6v0.5h-1.7c-0.1,0-0.3,0-0.3-0.1
			c-0.1-0.1-0.1-0.2-0.2-0.3c-0.1,0.1-0.2,0.2-0.4,0.2c-0.1,0.1-0.3,0.1-0.5,0.2c-0.2,0-0.4,0.1-0.6,0.1c-0.9,0-1.6-0.3-2-0.8
			c-0.4-0.5-0.6-1.2-0.6-2.2v-0.1c0-0.5,0.1-0.9,0.2-1.2c0.1-0.3,0.3-0.6,0.5-0.8c0.2-0.2,0.5-0.4,0.8-0.5c0.3-0.1,0.6-0.2,1-0.2
			c0.3,0,0.5-0.1,0.7-0.1c0.2,0,0.3-0.1,0.4-0.1c0.1,0,0.2-0.1,0.3-0.1v-0.1c0-0.2,0-0.4,0-0.5c0-0.2-0.1-0.3-0.1-0.5
			c-0.1-0.1-0.2-0.2-0.3-0.3c-0.1-0.1-0.3-0.1-0.6-0.1s-0.4,0-0.6,0.1c-0.1,0.1-0.2,0.1-0.3,0.2c-0.1,0.1-0.1,0.2-0.1,0.3
			c0,0.1,0,0.2,0,0.3v0c0,0.1,0,0.2-0.1,0.3c-0.1,0.1-0.2,0.1-0.3,0.1c-0.1,0-0.3,0-0.4,0c-0.2,0-0.3,0-0.5,0h-0.4v-0.6
			c0-0.3,0-0.6,0.1-0.8c0.1-0.3,0.2-0.5,0.5-0.7c0.2-0.2,0.5-0.4,0.8-0.5s0.8-0.2,1.3-0.2c0.5,0,0.9,0.1,1.3,0.2
			c0.3,0.1,0.6,0.3,0.9,0.5c0.2,0.2,0.4,0.5,0.5,0.8s0.1,0.7,0.1,1.1v4.6c0,0.1,0,0.2,0,0.2C613.4,313,613.4,313.1,613.4,313.1z
			 M610.6,313.3c0.2,0,0.4,0,0.5-0.1c0.1-0.1,0.3-0.1,0.3-0.2c0.1-0.1,0.2-0.2,0.2-0.3V310c-0.1,0-0.2,0-0.3,0.1
			c-0.1,0-0.2,0-0.4,0.1c-0.1,0-0.3,0-0.5,0.1c-0.3,0-0.6,0.2-0.8,0.5c-0.2,0.3-0.3,0.6-0.3,1v0.2c0,0.4,0.1,0.8,0.3,1
			C609.9,313.2,610.2,313.3,610.6,313.3z"/>
		<path fill="#FFFFFF" d="M621.2,313.2c0.1,0.1,0.2,0.2,0.3,0.3c0.1,0.1,0.1,0.3,0.1,0.5v0.5h-1.5c-0.3,0-0.5-0.1-0.6-0.3
			c-0.1-0.2-0.2-0.5-0.2-0.8v-5.1c0-0.5-0.1-0.8-0.3-1s-0.5-0.3-0.8-0.3c-0.2,0-0.4,0-0.5,0.1c-0.1,0.1-0.3,0.1-0.4,0.2
			c-0.1,0.1-0.2,0.1-0.3,0.2v5.3c0,0.1,0,0.2,0.1,0.2c0,0,0.1,0.1,0.1,0.1c0.1,0.1,0.2,0.2,0.3,0.3c0.1,0.1,0.1,0.3,0.1,0.5v0.5
			h-2.9v-0.5c0-0.2,0-0.4,0.1-0.5c0.1-0.1,0.2-0.2,0.3-0.3c0.1,0,0.1-0.1,0.1-0.1c0,0,0.1-0.1,0.1-0.3v-5.4c0-0.1,0-0.1-0.1-0.2
			c0,0-0.1-0.1-0.2-0.1c-0.1-0.1-0.2-0.2-0.3-0.3c-0.1-0.1-0.1-0.3-0.1-0.5v-0.6h1.9c0.1,0,0.2,0,0.2,0.1c0,0,0.1,0.1,0.1,0.1
			c0,0,0,0.1,0.1,0.2c0.1-0.1,0.3-0.2,0.4-0.2c0.1-0.1,0.3-0.1,0.5-0.2c0.2,0,0.4-0.1,0.7-0.1c0.9,0,1.5,0.2,1.9,0.7
			c0.4,0.5,0.6,1.2,0.6,2.1v4.5c0,0.1,0,0.2,0.1,0.2C621.1,313.2,621.1,313.2,621.2,313.2z"/>
	</g>
	<g>
		<path fill="#FFFFFF" d="M635.6,305.2c0.1,0.1,0.2,0.2,0.3,0.3c0.1,0.1,0.1,0.3,0.1,0.5v0.5h-1.9c-0.1,0-0.1,0-0.2-0.1
			c0,0-0.1-0.1-0.1-0.1c0,0-0.1-0.1-0.1-0.2c-0.1,0.1-0.2,0.2-0.3,0.2c-0.1,0.1-0.3,0.1-0.5,0.1c-0.2,0-0.4,0.1-0.7,0.1
			c-0.9,0-1.5-0.3-1.9-0.8c-0.4-0.5-0.6-1.2-0.6-2.1v-3.2c0-0.9,0.2-1.6,0.6-2.1c0.4-0.5,1-0.8,1.9-0.8c0.2,0,0.5,0,0.7,0.1
			c0.2,0.1,0.4,0.1,0.5,0.2c0.2,0.1,0.3,0.1,0.4,0.2V295c0-0.2-0.1-0.3-0.2-0.4c-0.1-0.1-0.2-0.2-0.3-0.3c-0.1-0.1-0.1-0.3-0.1-0.5
			v-0.6h1.2c0.4,0,0.7,0.1,0.8,0.2c0.2,0.2,0.2,0.4,0.2,0.7v10.6c0,0.1,0,0.2,0.1,0.2C635.5,305.1,635.5,305.1,635.6,305.2z
			 M633.7,299.6c-0.1-0.1-0.2-0.2-0.3-0.3c-0.1-0.1-0.2-0.1-0.4-0.2c-0.1-0.1-0.3-0.1-0.4-0.1c-0.3,0-0.6,0.1-0.8,0.3
			c-0.2,0.2-0.3,0.6-0.3,1v3.4c0,0.5,0.1,0.8,0.3,1c0.2,0.2,0.4,0.3,0.8,0.3c0.2,0,0.4,0,0.5-0.1c0.2-0.1,0.3-0.1,0.4-0.2
			c0.1-0.1,0.2-0.2,0.3-0.3V299.6z"/>
		<path fill="#FFFFFF" d="M638.5,302.5v1.6c0,0.5,0.1,0.8,0.3,0.9c0.2,0.1,0.5,0.2,0.8,0.2c0.3,0,0.6-0.1,0.8-0.3
			c0.2-0.2,0.3-0.4,0.3-0.7v-0.1c0-0.3,0.1-0.5,0.2-0.7c0.2-0.2,0.4-0.3,0.7-0.3h0.7v1.2c0,0.8-0.3,1.3-0.8,1.7
			c-0.5,0.3-1.2,0.5-2.1,0.5c-0.9,0-1.6-0.2-2.1-0.7c-0.5-0.4-0.7-1.1-0.7-2v-3.5c0-0.9,0.2-1.6,0.7-2.1c0.5-0.5,1.2-0.7,2.1-0.7
			c0.9,0,1.6,0.2,2.1,0.7c0.5,0.5,0.7,1.2,0.7,2.1v1.1c0,0.6-0.4,0.9-1.2,0.9H638.5z M638.5,301.3h2h0.2v-0.9c0-0.5-0.1-0.8-0.3-1
			c-0.2-0.2-0.5-0.3-0.8-0.3c-0.3,0-0.6,0.1-0.8,0.3c-0.2,0.2-0.3,0.6-0.3,1V301.3z"/>
	</g>
	<polygon fill="#1E1E1C" points="625.1,299 627.2,290.1 627.2,311.2 625.1,320.1 	"/>
</g>
</svg>
