<?xml version="1.0" encoding="utf-8"?>
<!-- Generator: Adobe Illustrator 18.0.0, SVG Export Plug-In . SVG Version: 6.00 Build 0)  -->
<!DOCTYPE svg PUBLIC "-//W3C//DTD SVG 1.1//EN" "http://www.w3.org/Graphics/SVG/1.1/DTD/svg11.dtd">
<svg version="1.1" id="Laag_1" xmlns="http://www.w3.org/2000/svg" xmlns:xlink="http://www.w3.org/1999/xlink" x="0px" y="0px"
	 viewBox="0 247.6 841.9 100" enable-background="new 0 247.6 841.9 100" xml:space="preserve">
<g>
	<rect x="114.2" y="-2668.4" fill="#1E1E1C" width="52" height="38.9"/>
	<rect x="172.5" y="-2658.2" fill="#1E1E1C" width="31.5" height="40.3"/>
	<rect x="274.1" y="-2651.6" fill="#1E1E1C" width="41.4" height="40.3"/>
	<rect x="214.3" y="-2673.7" fill="#1E1E1C" width="54.5" height="40.3"/>
	<rect x="6.6" y="-2655.1" fill="#1E1E1C" width="45" height="33"/>
	<g>
		<path fill="#FFFFFF" d="M28-2633.6L28-2633.6c0,0.2,0,0.3,0.1,0.4c0,0.1,0.1,0.1,0.2,0.2c0.1,0.1,0.3,0.3,0.4,0.5
			c0.1,0.2,0.2,0.5,0.2,0.8v0.8h-4.6v-0.8c0-0.3,0.1-0.6,0.2-0.8c0.1-0.2,0.3-0.4,0.4-0.5c0.1-0.1,0.2-0.1,0.2-0.2
			c0-0.1,0.1-0.2,0.1-0.4v-6.6c0-0.3-0.1-0.4-0.4-0.4h-3.3c-0.3,0-0.4,0.1-0.4,0.4v6.5v0.1v0c0,0.2,0,0.3,0.1,0.4
			c0.1,0.1,0.1,0.1,0.2,0.2c0.1,0.1,0.3,0.3,0.4,0.5c0.1,0.2,0.2,0.5,0.2,0.8v0.8h-4.6v-0.8c0-0.3,0.1-0.6,0.2-0.8
			c0.1-0.2,0.3-0.4,0.4-0.5c0.1-0.1,0.2-0.1,0.2-0.2c0.1-0.1,0.1-0.2,0.1-0.4v0v-15.4c0-0.2,0-0.3-0.1-0.4c-0.1-0.1-0.1-0.1-0.2-0.2
			c-0.1-0.1-0.3-0.3-0.4-0.5c-0.1-0.2-0.2-0.5-0.2-0.8v-0.8H22v0.8c0,0.3-0.1,0.6-0.2,0.8c-0.1,0.2-0.3,0.4-0.4,0.5
			c-0.1,0.1-0.1,0.1-0.2,0.2c-0.1,0.1-0.1,0.2-0.1,0.4v5.7c0,0.1,0,0.3,0.1,0.3c0.1,0.1,0.2,0.1,0.3,0.1h3.3c0.1,0,0.2,0,0.3-0.1
			c0.1-0.1,0.1-0.2,0.1-0.3v-5.7c0-0.2,0-0.3-0.1-0.4c0-0.1-0.1-0.1-0.2-0.2c-0.1-0.1-0.3-0.3-0.4-0.5c-0.1-0.2-0.2-0.5-0.2-0.8
			v-0.8h4.6v0.8c0,0.3-0.1,0.6-0.2,0.8c-0.1,0.2-0.3,0.4-0.4,0.5c-0.1,0.1-0.2,0.1-0.2,0.2c0,0.1-0.1,0.2-0.1,0.4V-2633.6z"/>
		<path fill="#FFFFFF" d="M34.1-2633c0.1,0.1,0.3,0.2,0.4,0.5c0.1,0.2,0.2,0.5,0.2,0.8l0,0.8h-4.6v-0.8c0-0.4,0.1-0.6,0.2-0.8
			c0.1-0.2,0.3-0.4,0.4-0.5c0.1-0.1,0.1-0.1,0.2-0.2c0.1-0.1,0.1-0.2,0.1-0.3v-8.7c0-0.2-0.1-0.4-0.3-0.5c-0.1-0.1-0.3-0.2-0.4-0.4
			c-0.1-0.2-0.2-0.5-0.2-0.8v-0.9h2.9c0.4,0,0.6,0.2,0.6,0.5v10.7c0,0.2,0,0.3,0.1,0.4C34-2633.1,34-2633,34.1-2633z M32.4-2646.5
			c-0.4,0-0.8-0.1-1-0.4c-0.3-0.3-0.4-0.6-0.4-1c0-0.4,0.1-0.8,0.4-1c0.3-0.3,0.6-0.4,1-0.4c0.4,0,0.7,0.1,1,0.4s0.4,0.6,0.4,1
			c0,0.4-0.1,0.7-0.4,1C33.1-2646.6,32.8-2646.5,32.4-2646.5z"/>
		<path fill="#FFFFFF" d="M39.2-2628.1c0,1.2-0.3,2.2-0.8,2.9c-0.6,0.7-1.3,1.2-2.4,1.4c-0.1,0-0.2,0-0.3,0c-0.1,0-0.2-0.1-0.2-0.2
			v-2.2c0-0.1,0-0.2,0.1-0.2c0,0,0.1-0.1,0.1-0.1c0.2-0.1,0.4-0.3,0.6-0.5c0.1-0.2,0.2-0.6,0.2-1v-14.2c0-0.2-0.1-0.4-0.3-0.5
			c-0.1-0.1-0.3-0.2-0.4-0.4c-0.1-0.2-0.2-0.5-0.2-0.8v-0.9h3c0.2,0,0.4,0,0.5,0.1c0.1,0.1,0.1,0.3,0.1,0.5V-2628.1z M37.6-2646.5
			c-0.4,0-0.8-0.1-1-0.4c-0.3-0.3-0.4-0.6-0.4-1c0-0.4,0.1-0.8,0.4-1s0.6-0.4,1-0.4c0.4,0,0.7,0.1,1,0.4s0.4,0.6,0.4,1
			c0,0.4-0.1,0.7-0.4,1C38.3-2646.6,38-2646.5,37.6-2646.5z"/>
	</g>
	<g>
		<path fill="#FFFFFF" d="M129.9-2642.8c0.1,0.1,0.3,0.3,0.4,0.5c0.1,0.2,0.2,0.5,0.2,0.8v0.8h-2.3c-0.5,0-0.8-0.2-1-0.5
			c-0.2-0.3-0.3-0.8-0.3-1.2v-7.9c0-0.8-0.2-1.3-0.5-1.6s-0.8-0.4-1.3-0.4c-0.3,0-0.6,0-0.8,0.1c-0.2,0.1-0.4,0.2-0.6,0.3
			c-0.2,0.1-0.3,0.2-0.4,0.4v8.3c0,0.2,0,0.3,0.1,0.4c0.1,0.1,0.1,0.1,0.2,0.2c0.1,0.1,0.3,0.3,0.4,0.5c0.1,0.2,0.2,0.5,0.2,0.8v0.8
			h-4.5v-0.8c0-0.4,0.1-0.6,0.2-0.8c0.1-0.2,0.3-0.4,0.4-0.4c0.1-0.1,0.2-0.1,0.2-0.2c0.1-0.1,0.1-0.2,0.1-0.4v-8.5
			c0-0.1,0-0.2-0.1-0.3c-0.1-0.1-0.1-0.1-0.2-0.2c-0.1-0.1-0.3-0.2-0.4-0.4c-0.1-0.2-0.2-0.5-0.2-0.8v-0.9h3c0.1,0,0.3,0,0.3,0.1
			c0.1,0.1,0.1,0.1,0.2,0.2c0,0.1,0.1,0.2,0.1,0.3c0.2-0.1,0.4-0.2,0.6-0.3c0.2-0.1,0.5-0.2,0.8-0.3c0.3-0.1,0.7-0.1,1-0.1
			c1.4,0,2.4,0.4,2.9,1.1c0.6,0.7,0.9,1.8,0.9,3.3v7c0,0.2,0,0.3,0.1,0.4C129.7-2642.9,129.8-2642.9,129.9-2642.8z"/>
		<path fill="#FFFFFF" d="M140.7-2643c0.1,0.1,0.3,0.3,0.5,0.5c0.2,0.3,0.3,0.6,0.3,0.9v0.8h-2.6c-0.2,0-0.4-0.1-0.5-0.2
			c-0.1-0.1-0.2-0.3-0.3-0.4c-0.2,0.1-0.4,0.3-0.6,0.4c-0.2,0.1-0.4,0.2-0.7,0.3c-0.3,0.1-0.6,0.1-0.9,0.1c-1.4,0-2.5-0.4-3.1-1.2
			c-0.6-0.8-0.9-1.9-0.9-3.4v-0.1c0-0.7,0.1-1.4,0.3-1.9c0.2-0.5,0.5-1,0.8-1.3c0.4-0.3,0.8-0.6,1.3-0.8c0.5-0.2,1-0.3,1.6-0.4
			c0.4,0,0.8-0.1,1.1-0.1c0.3-0.1,0.5-0.1,0.7-0.1c0.2-0.1,0.3-0.1,0.4-0.1v-0.2c0-0.3,0-0.6,0-0.8c0-0.3-0.1-0.5-0.2-0.7
			c-0.1-0.2-0.3-0.4-0.5-0.5c-0.2-0.1-0.5-0.2-0.9-0.2c-0.4,0-0.7,0-0.9,0.1s-0.4,0.2-0.5,0.3c-0.1,0.1-0.2,0.3-0.2,0.5
			c0,0.2,0,0.3,0,0.5v0c0,0.2-0.1,0.4-0.2,0.5c-0.1,0.1-0.3,0.2-0.5,0.2c-0.2,0-0.4,0.1-0.7,0.1c-0.3,0-0.5,0-0.7,0H132v-1
			c0-0.5,0.1-0.9,0.2-1.3c0.1-0.4,0.4-0.8,0.7-1.1c0.3-0.3,0.8-0.6,1.3-0.8c0.5-0.2,1.2-0.3,2-0.3c0.8,0,1.5,0.1,2,0.3
			c0.5,0.2,1,0.4,1.3,0.8c0.3,0.3,0.6,0.8,0.7,1.3s0.2,1.1,0.2,1.7v7.2c0,0.1,0,0.3,0,0.4C140.6-2643.1,140.7-2643,140.7-2643z
			 M136.3-2642.7c0.3,0,0.6-0.1,0.8-0.2c0.2-0.1,0.4-0.2,0.5-0.4c0.1-0.1,0.3-0.3,0.4-0.5v-4.1c-0.1,0-0.3,0.1-0.4,0.1
			c-0.1,0-0.3,0.1-0.6,0.1c-0.2,0-0.5,0.1-0.8,0.1c-0.5,0.1-1,0.3-1.3,0.7c-0.3,0.4-0.5,1-0.5,1.6v0.3c0,0.7,0.2,1.2,0.5,1.6
			C135.2-2642.9,135.7-2642.7,136.3-2642.7z"/>
		<path fill="#FFFFFF" d="M151.9-2643c0.1,0.1,0.3,0.3,0.5,0.5c0.2,0.3,0.3,0.6,0.3,0.9v0.8H150c-0.2,0-0.4-0.1-0.5-0.2
			c-0.1-0.1-0.2-0.3-0.3-0.4c-0.2,0.1-0.4,0.3-0.6,0.4c-0.2,0.1-0.4,0.2-0.7,0.3c-0.3,0.1-0.6,0.1-0.9,0.1c-1.4,0-2.5-0.4-3.1-1.2
			c-0.6-0.8-0.9-1.9-0.9-3.4v-0.1c0-0.7,0.1-1.4,0.3-1.9s0.5-1,0.8-1.3c0.4-0.3,0.8-0.6,1.3-0.8c0.5-0.2,1-0.3,1.6-0.4
			c0.4,0,0.8-0.1,1.1-0.1c0.3-0.1,0.5-0.1,0.7-0.1c0.2-0.1,0.3-0.1,0.4-0.1v-0.2c0-0.3,0-0.6,0-0.8c0-0.3-0.1-0.5-0.2-0.7
			c-0.1-0.2-0.3-0.4-0.5-0.5c-0.2-0.1-0.5-0.2-0.9-0.2s-0.7,0-0.9,0.1s-0.4,0.2-0.5,0.3c-0.1,0.1-0.2,0.3-0.2,0.5c0,0.2,0,0.3,0,0.5
			v0c0,0.2-0.1,0.4-0.2,0.5c-0.1,0.1-0.3,0.2-0.5,0.2c-0.2,0-0.4,0.1-0.7,0.1c-0.3,0-0.5,0-0.7,0h-0.6v-1c0-0.5,0.1-0.9,0.2-1.3
			c0.1-0.4,0.4-0.8,0.7-1.1c0.3-0.3,0.8-0.6,1.3-0.8c0.5-0.2,1.2-0.3,2-0.3c0.8,0,1.5,0.1,2,0.3c0.5,0.2,1,0.4,1.3,0.8
			c0.3,0.3,0.6,0.8,0.7,1.3s0.2,1.1,0.2,1.7v7.2c0,0.1,0,0.3,0,0.4C151.8-2643.1,151.8-2643,151.9-2643z M147.4-2642.7
			c0.3,0,0.6-0.1,0.8-0.2c0.2-0.1,0.4-0.2,0.5-0.4c0.1-0.1,0.3-0.3,0.4-0.5v-4.1c-0.1,0-0.3,0.1-0.4,0.1c-0.1,0-0.3,0.1-0.6,0.1
			c-0.2,0-0.5,0.1-0.8,0.1c-0.5,0.1-1,0.3-1.3,0.7c-0.3,0.4-0.5,1-0.5,1.6v0.3c0,0.7,0.2,1.2,0.5,1.6
			C146.3-2642.9,146.8-2642.7,147.4-2642.7z"/>
		<path fill="#FFFFFF" d="M161.5-2652.1c-0.1,0-0.3,0-0.4,0c-0.4-0.1-0.9-0.1-1.3-0.1c-0.4,0.1-0.8,0.2-1.1,0.4
			c-0.3,0.2-0.6,0.4-0.8,0.7c-0.2,0.3-0.3,0.6-0.3,0.8v6.9c0,0.2,0,0.3,0.1,0.4c0,0.1,0.1,0.2,0.2,0.2c0.1,0.1,0.3,0.2,0.4,0.5
			c0.1,0.2,0.2,0.5,0.2,0.8l0,0.8h-4.5v-0.8c0-0.4,0.1-0.6,0.2-0.8c0.1-0.2,0.3-0.4,0.4-0.5c0.1-0.1,0.2-0.1,0.2-0.2
			c0-0.1,0.1-0.2,0.1-0.4v-8.5c0-0.2-0.1-0.3-0.3-0.5c-0.1-0.1-0.3-0.2-0.4-0.4c-0.1-0.2-0.2-0.5-0.2-0.8v-0.9h2.9
			c0.4,0,0.7,0.2,0.7,0.6v0.4c0.2-0.2,0.5-0.4,0.8-0.5c0.2-0.1,0.5-0.3,0.8-0.4c0.3-0.1,0.6-0.2,0.9-0.2c0.4,0,0.8,0,1.2,0.1
			c0.1,0,0.2,0.1,0.3,0.2c0.1,0.1,0.2,0.2,0.2,0.4v1.6C161.7-2652.3,161.6-2652.2,161.5-2652.1z"/>
	</g>
	<g>
		<path fill="#FFFFFF" d="M187.7-2630.9c0.1,0.1,0.3,0.2,0.4,0.4c0.1,0.2,0.2,0.5,0.2,0.8v0.8h-3c-0.1,0-0.2,0-0.3-0.1
			c-0.1-0.1-0.1-0.1-0.2-0.2c-0.1-0.1-0.1-0.2-0.1-0.3c-0.1,0.1-0.3,0.2-0.5,0.3c-0.2,0.1-0.4,0.2-0.7,0.2c-0.3,0.1-0.6,0.1-1,0.1
			c-1.4,0-2.4-0.4-3-1.2c-0.6-0.8-1-1.9-1-3.3v-5c0-1.4,0.3-2.6,0.9-3.4c0.6-0.8,1.5-1.2,2.9-1.2c0.4,0,0.7,0,1,0.1
			c0.3,0.1,0.6,0.2,0.8,0.3c0.2,0.1,0.5,0.2,0.6,0.4v-4.8c0-0.3-0.1-0.5-0.3-0.6c-0.1-0.1-0.3-0.3-0.4-0.5c-0.1-0.2-0.2-0.5-0.2-0.8
			v-0.9h1.9c0.6,0,1.1,0.1,1.3,0.4c0.2,0.3,0.4,0.6,0.4,1.2v16.6c0,0.2,0,0.3,0.1,0.4C187.5-2631,187.6-2631,187.7-2630.9z
			 M184.7-2639.7c-0.2-0.1-0.3-0.3-0.5-0.4c-0.2-0.1-0.4-0.2-0.6-0.3c-0.2-0.1-0.4-0.1-0.7-0.1c-0.5,0-1,0.2-1.3,0.5
			s-0.5,0.9-0.5,1.6v5.3c0,0.7,0.1,1.3,0.4,1.6s0.7,0.5,1.2,0.5c0.3,0,0.6,0,0.8-0.1c0.3-0.1,0.5-0.2,0.6-0.3
			c0.2-0.1,0.3-0.3,0.5-0.5V-2639.7z"/>
		<path fill="#FFFFFF" d="M192.3-2635.1v2.5c0,0.7,0.2,1.2,0.5,1.4c0.4,0.2,0.8,0.3,1.3,0.3c0.5,0,0.9-0.1,1.2-0.4
			c0.3-0.3,0.5-0.6,0.4-1v-0.1c0-0.4,0.1-0.8,0.4-1.1c0.3-0.3,0.6-0.5,1.1-0.5h1.1v1.9c0,1.2-0.4,2.1-1.2,2.6
			c-0.8,0.5-1.9,0.8-3.2,0.8c-1.4,0-2.5-0.3-3.3-1c-0.8-0.7-1.2-1.7-1.2-3.1v-5.5c0-1.4,0.4-2.5,1.2-3.3c0.8-0.8,1.9-1.2,3.3-1.2
			c1.4,0,2.4,0.4,3.2,1.2c0.8,0.8,1.2,1.9,1.2,3.3v1.8c0,0.9-0.6,1.4-1.8,1.4H192.3z M192.3-2637h3.2h0.4v-1.4
			c0-0.7-0.2-1.3-0.5-1.6c-0.3-0.4-0.8-0.5-1.3-0.5c-0.5,0-0.9,0.2-1.3,0.5c-0.3,0.4-0.5,0.9-0.5,1.6V-2637z"/>
	</g>
	<g>
		<path fill="#FFFFFF" d="M229.3-2658.9c1.4,0,2.4,0.4,2.9,1.2c0.6,0.8,0.9,1.9,0.9,3.4v5c0,1.4-0.3,2.5-1,3.3
			c-0.6,0.8-1.7,1.2-3,1.2c-0.4,0-0.7,0-1-0.1c-0.3-0.1-0.5-0.1-0.7-0.2c-0.2-0.1-0.4-0.2-0.6-0.3c0,0.1-0.1,0.2-0.2,0.3
			c-0.1,0.1-0.2,0.1-0.3,0.2c-0.1,0.1-0.3,0.1-0.5,0.1h-2.7v-0.8c0-0.4,0.1-0.6,0.2-0.8c0.1-0.2,0.3-0.4,0.4-0.4
			c0.1-0.1,0.2-0.1,0.2-0.2c0-0.1,0.1-0.2,0.1-0.4v-15.3c0-0.3-0.1-0.5-0.3-0.6c-0.1-0.1-0.3-0.3-0.4-0.5c-0.1-0.2-0.2-0.5-0.2-0.8
			v-0.9h2.3c0.4,0,0.7,0.1,0.9,0.3c0.3,0.2,0.4,0.6,0.4,1.2v6.1c0.2-0.1,0.4-0.3,0.6-0.4c0.2-0.1,0.5-0.2,0.8-0.3
			C228.6-2658.9,228.9-2658.9,229.3-2658.9z M230.4-2654.5c0-0.7-0.2-1.3-0.5-1.6c-0.3-0.4-0.7-0.5-1.3-0.5c-0.2,0-0.5,0-0.7,0.1
			c-0.2,0.1-0.4,0.1-0.5,0.2c-0.2,0.1-0.4,0.2-0.5,0.3c0,1.4,0,2.7,0,3.8v4.5c0.1,0.2,0.3,0.3,0.5,0.4c0.2,0.1,0.4,0.2,0.6,0.3
			c0.2,0.1,0.5,0.1,0.9,0.1c1.1,0,1.6-0.7,1.6-2.1V-2654.5z"/>
		<path fill="#FFFFFF" d="M238.6-2647c0.1,0.1,0.3,0.2,0.4,0.5c0.1,0.2,0.2,0.5,0.2,0.8l0,0.8h-4.6v-0.8c0-0.4,0.1-0.6,0.2-0.8
			c0.1-0.2,0.3-0.4,0.4-0.5c0.1-0.1,0.1-0.1,0.2-0.2c0.1-0.1,0.1-0.2,0.1-0.3v-8.7c0-0.2-0.1-0.4-0.3-0.5c-0.1-0.1-0.3-0.2-0.4-0.4
			c-0.1-0.2-0.2-0.5-0.2-0.8v-0.9h2.9c0.4,0,0.6,0.2,0.6,0.5v10.7c0,0.2,0,0.3,0.1,0.4C238.5-2647.1,238.5-2647,238.6-2647z
			 M236.9-2660.5c-0.4,0-0.8-0.1-1-0.4c-0.3-0.3-0.4-0.6-0.4-1c0-0.4,0.1-0.8,0.4-1c0.3-0.3,0.6-0.4,1-0.4c0.4,0,0.7,0.1,1,0.4
			c0.3,0.3,0.4,0.6,0.4,1c0,0.4-0.1,0.7-0.4,1C237.6-2660.6,237.3-2660.5,236.9-2660.5z"/>
		<path fill="#FFFFFF" d="M243.3-2651.2v2.5c0,0.7,0.2,1.2,0.5,1.4c0.4,0.2,0.8,0.3,1.3,0.3c0.5,0,0.9-0.1,1.2-0.4
			c0.3-0.3,0.5-0.6,0.4-1v-0.1c0-0.4,0.1-0.8,0.4-1.1c0.3-0.3,0.6-0.5,1.1-0.5h1.1v1.9c0,1.2-0.4,2.1-1.2,2.6
			c-0.8,0.5-1.9,0.8-3.2,0.8c-1.4,0-2.5-0.3-3.3-1c-0.8-0.7-1.2-1.7-1.2-3.1v-5.5c0-1.4,0.4-2.5,1.2-3.3s1.9-1.2,3.3-1.2
			c1.4,0,2.4,0.4,3.2,1.2c0.8,0.8,1.2,1.9,1.2,3.3v1.8c0,0.9-0.6,1.4-1.8,1.4H243.3z M243.3-2653.1h3.2h0.4v-1.4
			c0-0.7-0.2-1.3-0.5-1.6c-0.3-0.4-0.8-0.5-1.3-0.5c-0.5,0-0.9,0.2-1.3,0.5c-0.3,0.4-0.5,0.9-0.5,1.6V-2653.1z"/>
		<path fill="#FFFFFF" d="M256.8-2658.9c1.4,0,2.4,0.4,2.9,1.2c0.6,0.8,0.9,1.9,0.9,3.4v5c0,1.4-0.3,2.5-1,3.3
			c-0.6,0.8-1.7,1.2-3,1.2c-0.4,0-0.7,0-1-0.1c-0.3-0.1-0.5-0.1-0.7-0.2c-0.2-0.1-0.4-0.2-0.6-0.3c0,0.1-0.1,0.2-0.2,0.3
			c-0.1,0.1-0.2,0.1-0.3,0.2c-0.1,0.1-0.3,0.1-0.5,0.1h-2.7v-0.8c0-0.4,0.1-0.6,0.2-0.8c0.1-0.2,0.3-0.4,0.4-0.4
			c0.1-0.1,0.2-0.1,0.2-0.2c0-0.1,0.1-0.2,0.1-0.4v-15.3c0-0.3-0.1-0.5-0.3-0.6c-0.1-0.1-0.3-0.3-0.4-0.5c-0.1-0.2-0.2-0.5-0.2-0.8
			v-0.9h2.3c0.4,0,0.7,0.1,0.9,0.3c0.3,0.2,0.4,0.6,0.4,1.2v6.1c0.2-0.1,0.4-0.3,0.6-0.4c0.2-0.1,0.5-0.2,0.8-0.3
			C256.1-2658.9,256.5-2658.9,256.8-2658.9z M258-2654.5c0-0.7-0.2-1.3-0.5-1.6c-0.3-0.4-0.7-0.5-1.3-0.5c-0.2,0-0.5,0-0.7,0.1
			c-0.2,0.1-0.4,0.1-0.5,0.2c-0.2,0.1-0.4,0.2-0.5,0.3c0,1.4,0,2.7,0,3.8v4.5c0.1,0.2,0.3,0.3,0.5,0.4c0.2,0.1,0.4,0.2,0.6,0.3
			c0.2,0.1,0.5,0.1,0.9,0.1c1.1,0,1.6-0.7,1.6-2.1V-2654.5z"/>
	</g>
	<g>
		<path fill="#FFFFFF" d="M286.7-2625.3c0.1,0,0.2,0,0.3,0c0.1,0,0.2,0.2,0.2,0.3v1c0,0.2,0,0.4-0.1,0.5c-0.1,0.1-0.2,0.1-0.2,0.2
			c-0.7,0.2-1.3,0.2-1.8,0.1c-0.5-0.1-1-0.3-1.4-0.5c-0.4-0.3-0.7-0.6-0.9-1c-0.2-0.4-0.3-0.8-0.3-1.3v-8.8h-1.6v-0.7
			c0-0.6,0.1-1,0.4-1.3c0.2-0.3,0.7-0.4,1.3-0.4v-3.4v-0.1c0-0.6,0.1-1.1,0.4-1.4c0.3-0.3,0.6-0.6,0.9-0.7c0.4-0.2,0.8-0.3,1.3-0.3
			v6h1.7v0.6c0,0.5-0.1,1-0.4,1.3c-0.3,0.4-0.7,0.5-1.3,0.5v8.3c0,0.4,0.1,0.7,0.4,0.9C285.8-2625.3,286.2-2625.2,286.7-2625.3z"/>
		<path fill="#FFFFFF" d="M292.7-2637.2c0.7,0,1.3,0.1,1.8,0.3c0.5,0.2,1,0.5,1.4,0.8c0.4,0.3,0.7,0.7,0.9,1.2
			c0.2,0.5,0.3,0.9,0.3,1.4v6.5c0,1.2-0.4,2.2-1.2,2.9c-0.8,0.7-1.9,1-3.2,1c-1.4,0-2.5-0.4-3.3-1.1c-0.8-0.7-1.2-1.8-1.2-3.2v-5.6
			c0-1.4,0.4-2.5,1.2-3.2C290.2-2636.9,291.3-2637.2,292.7-2637.2z M292.7-2625.3c0.5,0,0.9-0.2,1.3-0.5c0.3-0.3,0.5-0.8,0.5-1.4
			v-5.8c0-0.8-0.2-1.3-0.5-1.6c-0.4-0.3-0.8-0.4-1.3-0.4c-0.5,0-0.9,0.1-1.3,0.4c-0.3,0.3-0.5,0.8-0.5,1.5v5.9
			c0,0.7,0.2,1.2,0.5,1.5C291.7-2625.4,292.2-2625.3,292.7-2625.3z"/>
		<path fill="#FFFFFF" d="M301.6-2629.6v2.5c0,0.7,0.2,1.2,0.5,1.4c0.4,0.2,0.8,0.3,1.3,0.3c0.5,0,0.9-0.1,1.2-0.4
			c0.3-0.3,0.5-0.6,0.4-1v-0.1c0-0.4,0.1-0.8,0.4-1.1c0.3-0.3,0.6-0.5,1.1-0.5h1.1v1.9c0,1.2-0.4,2.1-1.2,2.6
			c-0.8,0.5-1.9,0.8-3.2,0.8c-1.4,0-2.5-0.3-3.3-1c-0.8-0.7-1.2-1.7-1.2-3.1v-5.5c0-1.4,0.4-2.5,1.2-3.3c0.8-0.8,1.9-1.2,3.3-1.2
			c1.4,0,2.4,0.4,3.2,1.2c0.8,0.8,1.2,1.9,1.2,3.3v1.8c0,0.9-0.6,1.4-1.8,1.4H301.6z M301.6-2631.5h3.2h0.4v-1.4
			c0-0.7-0.2-1.3-0.5-1.6c-0.3-0.4-0.8-0.5-1.3-0.5c-0.5,0-0.9,0.2-1.3,0.5c-0.3,0.4-0.5,0.9-0.5,1.6V-2631.5z"/>
	</g>
	<g>
		<rect x="56.2" y="-2668.4" fill="#1E1E1C" width="52" height="38.9"/>
		<path fill="#FFFFFF" d="M72.9-2656.8v0.9c0,0.4-0.1,0.6-0.2,0.8c-0.1,0.2-0.3,0.4-0.4,0.5c-0.1,0.1-0.2,0.1-0.2,0.2
			c0,0.1-0.1,0.2-0.1,0.4v14.2c0,1.4-0.4,2.5-1.2,3.2c-0.8,0.7-1.9,1-3.3,1c-0.7,0-1.3-0.1-1.8-0.3c-0.5-0.2-1-0.5-1.4-0.8
			c-0.4-0.3-0.7-0.7-0.9-1.2c-0.2-0.4-0.3-0.9-0.3-1.4v-1.6h1.1c1,0,1.5,0.4,1.5,1.3v0.3c0,0.5,0.1,0.8,0.4,1.1
			c0.3,0.3,0.7,0.4,1.3,0.4c0.5,0,1-0.1,1.4-0.4c0.4-0.2,0.6-0.7,0.6-1.5v-3.7c-0.3,0.2-0.6,0.4-0.9,0.6c-0.3,0.1-0.8,0.2-1.3,0.2
			c-1.4,0-2.4-0.4-3-1.3c-0.6-0.9-1-2-1-3.4v-5c0-1.4,0.3-2.5,0.9-3.3c0.6-0.8,1.5-1.2,2.9-1.2c0.7,0,1.3,0.1,1.7,0.3
			c0.4,0.2,0.7,0.3,0.8,0.4c0-0.1,0.1-0.2,0.1-0.3c0-0.1,0.1-0.1,0.2-0.2c0.1-0.1,0.2-0.1,0.3-0.1H72.9z M69.3-2646v-7.9
			c-0.1-0.1-0.3-0.3-0.4-0.4c-0.1-0.1-0.3-0.2-0.5-0.3c-0.2-0.1-0.5-0.1-0.8-0.1c-0.5,0-0.9,0.2-1.3,0.5c-0.3,0.3-0.5,0.8-0.5,1.4
			v5.9c0,0.6,0.1,1.2,0.4,1.5c0.3,0.4,0.7,0.5,1.2,0.5c0.4,0,0.6,0,0.9-0.1c0.2-0.1,0.4-0.2,0.6-0.3c0.2-0.1,0.3-0.3,0.5-0.4V-2646z
			"/>
		<path fill="#FFFFFF" d="M77.9-2644.9c0.1,0.1,0.3,0.2,0.4,0.5c0.1,0.2,0.2,0.5,0.2,0.8l0,0.8H74v-0.8c0-0.4,0.1-0.6,0.2-0.8
			s0.3-0.4,0.4-0.5c0.1-0.1,0.1-0.1,0.2-0.2c0.1-0.1,0.1-0.2,0.1-0.3v-8.7c0-0.2-0.1-0.4-0.3-0.5c-0.1-0.1-0.3-0.2-0.4-0.4
			c-0.1-0.2-0.2-0.5-0.2-0.8v-0.9h2.9c0.4,0,0.6,0.2,0.6,0.5v10.7c0,0.2,0,0.3,0.1,0.4C77.7-2645.1,77.8-2645,77.9-2644.9z
			 M76.1-2658.5c-0.4,0-0.8-0.1-1-0.4c-0.3-0.3-0.4-0.6-0.4-1c0-0.4,0.1-0.8,0.4-1s0.6-0.4,1-0.4c0.4,0,0.7,0.1,1,0.4s0.4,0.6,0.4,1
			c0,0.4-0.1,0.7-0.4,1C76.8-2658.6,76.5-2658.5,76.1-2658.5z"/>
		<path fill="#FFFFFF" d="M89.7-2645c0.1,0.1,0.3,0.3,0.4,0.5c0.1,0.2,0.2,0.5,0.2,0.8v0.8h-2.3c-0.5,0-0.8-0.2-1-0.5
			c-0.2-0.3-0.3-0.8-0.3-1.2v-7.9c0-0.8-0.2-1.3-0.5-1.6s-0.8-0.4-1.3-0.4c-0.3,0-0.6,0-0.8,0.1s-0.4,0.2-0.6,0.3
			c-0.2,0.1-0.3,0.2-0.4,0.4v8.3c0,0.2,0,0.3,0.1,0.4c0.1,0.1,0.1,0.1,0.2,0.2c0.1,0.1,0.3,0.3,0.4,0.5c0.1,0.2,0.2,0.5,0.2,0.8v0.8
			h-4.5v-0.8c0-0.4,0.1-0.6,0.2-0.8c0.1-0.2,0.3-0.4,0.4-0.4c0.1-0.1,0.2-0.1,0.2-0.2c0.1-0.1,0.1-0.2,0.1-0.4v-8.5
			c0-0.1,0-0.2-0.1-0.3c-0.1-0.1-0.1-0.1-0.2-0.2c-0.1-0.1-0.3-0.2-0.4-0.4c-0.1-0.2-0.2-0.5-0.2-0.8v-0.9h3c0.1,0,0.3,0,0.3,0.1
			c0.1,0.1,0.1,0.1,0.2,0.2c0,0.1,0.1,0.2,0.1,0.3c0.2-0.1,0.4-0.2,0.6-0.3c0.2-0.1,0.5-0.2,0.8-0.2c0.3-0.1,0.7-0.1,1-0.1
			c1.4,0,2.4,0.4,2.9,1.1s0.9,1.8,0.9,3.3v7c0,0.2,0,0.3,0.1,0.4C89.6-2645.1,89.7-2645,89.7-2645z"/>
		<path fill="#FFFFFF" d="M101.6-2656.8v0.9c0,0.4-0.1,0.6-0.2,0.8c-0.1,0.2-0.3,0.4-0.4,0.5c-0.1,0.1-0.2,0.1-0.2,0.2
			c0,0.1-0.1,0.2-0.1,0.4v14.2c0,1.4-0.4,2.5-1.2,3.2c-0.8,0.7-1.9,1-3.3,1c-0.7,0-1.3-0.1-1.8-0.3c-0.5-0.2-1-0.5-1.4-0.8
			c-0.4-0.3-0.7-0.7-0.9-1.2c-0.2-0.4-0.3-0.9-0.3-1.4v-1.6h1.1c1,0,1.5,0.4,1.5,1.3v0.3c0,0.5,0.1,0.8,0.4,1.1
			c0.3,0.3,0.7,0.4,1.3,0.4c0.5,0,1-0.1,1.4-0.4c0.4-0.2,0.6-0.7,0.6-1.5v-3.7c-0.3,0.2-0.6,0.4-0.9,0.6c-0.3,0.1-0.8,0.2-1.3,0.2
			c-1.4,0-2.4-0.4-3-1.3c-0.6-0.9-1-2-1-3.4v-5c0-1.4,0.3-2.5,0.9-3.3s1.5-1.2,2.9-1.2c0.7,0,1.3,0.1,1.7,0.3
			c0.4,0.2,0.7,0.3,0.8,0.4c0-0.1,0.1-0.2,0.1-0.3c0-0.1,0.1-0.1,0.2-0.2c0.1-0.1,0.2-0.1,0.3-0.1H101.6z M98-2646v-7.9
			c-0.1-0.1-0.3-0.3-0.4-0.4c-0.1-0.1-0.3-0.2-0.5-0.3c-0.2-0.1-0.5-0.1-0.8-0.1c-0.5,0-0.9,0.2-1.3,0.5c-0.3,0.3-0.5,0.8-0.5,1.4
			v5.9c0,0.6,0.1,1.2,0.4,1.5c0.3,0.4,0.7,0.5,1.2,0.5c0.4,0,0.6,0,0.9-0.1c0.2-0.1,0.4-0.2,0.6-0.3c0.2-0.1,0.3-0.3,0.5-0.4V-2646z
			"/>
	</g>
</g>
<g>
	<path fill="none" stroke="#000000" stroke-width="0.5569" stroke-miterlimit="10" d="M0,278.3c140.4,39.7,280.8-39.7,421.2,0"/>
	<path fill="none" stroke="#000000" stroke-width="0.5569" stroke-miterlimit="10" d="M0,288.1c140.4,39.7,280.8-39.7,421.2,0"/>
	<path fill="none" stroke="#000000" stroke-width="0.5569" stroke-miterlimit="10" d="M0,297.9c140.4,39.7,280.8-39.7,421.2,0"/>
	<path fill="none" stroke="#000000" stroke-width="0.5569" stroke-miterlimit="10" d="M0,307.8c140.4,39.7,280.8-39.7,421.2,0"/>
	<path fill="none" stroke="#000000" stroke-width="0.5569" stroke-miterlimit="10" d="M0,317.6c140.4,39.7,280.8-39.7,421.2,0"/>
</g>
<g>
	<path fill="none" stroke="#000000" stroke-width="0.5569" stroke-miterlimit="10" d="M420.7,278.3c140.4,39.7,280.8-39.7,421.2,0"
		/>
	<path fill="none" stroke="#000000" stroke-width="0.5569" stroke-miterlimit="10" d="M420.7,288.1c140.4,39.7,280.8-39.7,421.2,0"
		/>
	<path fill="none" stroke="#000000" stroke-width="0.5569" stroke-miterlimit="10" d="M420.7,297.9c140.4,39.7,280.8-39.7,421.2,0"
		/>
	<path fill="none" stroke="#000000" stroke-width="0.5569" stroke-miterlimit="10" d="M420.7,307.8c140.4,39.7,280.8-39.7,421.2,0"
		/>
	<path fill="none" stroke="#000000" stroke-width="0.5569" stroke-miterlimit="10" d="M420.7,317.6c140.4,39.7,280.8-39.7,421.2,0"
		/>
</g>
<path d="M285.9,311.3v4.5v1.2c0,0.7-0.1,1.3-0.1,1.8c-0.1,0.5-0.2,0.9-0.5,1.3c-0.2,0.4-0.5,0.8-1,1.2s-0.9,1-1.5,1.5
	c-0.4,0.4-0.6,0.5-0.7,0.4c-0.1-0.1-0.4-0.2-0.6-0.4c-0.3-0.2-0.4-0.4-0.4-0.6c0-0.1,0.2-0.4,0.7-0.8c1.2-1.2,1.9-2.4,1.8-3.4
	c-0.1-1-0.5-1.4-1.5-1.4s-1.6-0.1-2-0.2c-0.4-0.1-0.6-0.4-0.6-0.7v-4.3c0-0.4,0.3-0.6,1-0.7c0.6-0.1,1.4-0.2,2.3-0.2
	c1,0,1.7,0.1,2.3,0.2C285.6,310.9,285.9,311.1,285.9,311.3z"/>
<path d="M656.8,311.3v4.5v1.2c0,0.7-0.1,1.3-0.1,1.8c-0.1,0.5-0.2,0.9-0.5,1.3s-0.5,0.8-1,1.2c-0.4,0.4-0.9,1-1.5,1.5
	c-0.4,0.4-0.6,0.5-0.7,0.4c-0.1-0.1-0.4-0.2-0.6-0.4c-0.3-0.2-0.4-0.4-0.4-0.6c0-0.1,0.2-0.4,0.7-0.8c1.2-1.2,1.9-2.4,1.8-3.4
	c-0.1-1-0.5-1.4-1.5-1.4c-1,0-1.6-0.1-2-0.2c-0.4-0.1-0.6-0.4-0.6-0.7v-4.3c0-0.4,0.3-0.6,1-0.7c0.6-0.1,1.4-0.2,2.3-0.2
	c1,0,1.7,0.1,2.3,0.2C656.5,310.9,656.8,311.1,656.8,311.3z"/>
<g>
	<g>
		<rect x="291.6" y="292.8" width="18.7" height="21.7"/>
		<rect x="336.6" y="272.7" width="18.7" height="21.7"/>
		<rect x="313.6" y="284.5" width="18.7" height="21.7"/>
		<path fill="#FFFFFF" d="M298.2,307.8c0.1,0,0.1,0,0.2,0s0.1,0.1,0.1,0.2v0.6c0,0.1,0,0.2-0.1,0.3c-0.1,0.1-0.1,0.1-0.1,0.1
			c-0.4,0.1-0.8,0.1-1.1,0.1c-0.3-0.1-0.6-0.2-0.8-0.3c-0.2-0.2-0.4-0.4-0.5-0.6c-0.1-0.2-0.2-0.5-0.2-0.8v-5.2h-1v-0.4
			c0-0.4,0.1-0.6,0.2-0.8c0.1-0.2,0.4-0.2,0.8-0.2v-2v-0.1c0-0.4,0.1-0.7,0.2-0.8c0.2-0.2,0.4-0.4,0.5-0.4c0.2-0.1,0.5-0.2,0.8-0.2
			v3.6h1v0.4c0,0.3-0.1,0.6-0.2,0.8c-0.2,0.2-0.4,0.3-0.8,0.3v4.9c0,0.2,0.1,0.4,0.2,0.5C297.6,307.8,297.9,307.8,298.2,307.8z"/>
		<path fill="#FFFFFF" d="M301.4,307.8c0.1,0.1,0.2,0.1,0.2,0.3c0.1,0.1,0.1,0.3,0.1,0.5v0.5H299v-0.5c0-0.2,0.1-0.4,0.1-0.5
			c0.1-0.1,0.2-0.2,0.2-0.3c0.1-0.1,0.1-0.1,0.1-0.1c0.1-0.1,0.1-0.1,0.1-0.2v-5.2c0-0.1-0.1-0.2-0.2-0.3c-0.1-0.1-0.2-0.1-0.2-0.2
			s-0.1-0.3-0.1-0.5v-0.5h1.7c0.2,0,0.4,0.1,0.4,0.3v6.4c0,0.1,0,0.2,0.1,0.2C301.3,307.7,301.4,307.8,301.4,307.8z M300.4,299.7
			c-0.2,0-0.5-0.1-0.6-0.2c-0.2-0.2-0.2-0.4-0.2-0.6s0.1-0.5,0.2-0.6s0.4-0.2,0.6-0.2c0.2,0,0.4,0.1,0.6,0.2
			c0.2,0.2,0.2,0.4,0.2,0.6s-0.1,0.4-0.2,0.6C300.8,299.7,300.6,299.7,300.4,299.7z"/>
		<path fill="#FFFFFF" d="M304.2,305.3v1.5c0,0.4,0.1,0.7,0.3,0.8c0.2,0.1,0.5,0.2,0.8,0.2s0.5-0.1,0.7-0.2c0.2-0.2,0.3-0.4,0.2-0.6
			v-0.1c0-0.2,0.1-0.5,0.2-0.7c0.2-0.2,0.4-0.3,0.7-0.3h0.7v1.1c0,0.7-0.2,1.2-0.7,1.5c-0.5,0.3-1.1,0.5-1.9,0.5
			c-0.8,0-1.5-0.2-2-0.6c-0.5-0.4-0.7-1-0.7-1.8v-3.3c0-0.8,0.2-1.5,0.7-2c0.5-0.5,1.1-0.7,2-0.7s1.4,0.2,1.9,0.7
			c0.5,0.5,0.7,1.1,0.7,2v1.1c0,0.5-0.4,0.8-1.1,0.8C306.6,305.3,304.2,305.3,304.2,305.3z M304.2,304.1h1.9h0.2v-0.8
			c0-0.4-0.1-0.8-0.3-1c-0.2-0.2-0.5-0.3-0.8-0.3c-0.3,0-0.5,0.1-0.8,0.3c-0.2,0.2-0.3,0.5-0.3,1L304.2,304.1L304.2,304.1z"/>
		<path fill="#FFFFFF" d="M322.6,293.3c-0.1,0-0.2,0-0.2,0c-0.2-0.1-0.5-0.1-0.8-0.1c-0.2,0.1-0.5,0.1-0.7,0.2
			c-0.2,0.1-0.4,0.2-0.5,0.4c-0.1,0.2-0.2,0.4-0.2,0.5v4.1c0,0.1,0,0.2,0.1,0.2c0,0.1,0.1,0.1,0.1,0.1c0.1,0.1,0.2,0.1,0.2,0.3
			c0.1,0.1,0.1,0.3,0.1,0.5v0.5h-2.7v-0.5c0-0.2,0.1-0.4,0.1-0.5s0.2-0.2,0.2-0.3c0.1-0.1,0.1-0.1,0.1-0.1s0.1-0.1,0.1-0.2v-5
			c0-0.1-0.1-0.2-0.2-0.3c-0.1-0.1-0.2-0.1-0.2-0.2c-0.1-0.1-0.1-0.3-0.1-0.5v-0.5h1.7c0.2,0,0.4,0.1,0.4,0.4v0.2
			c0.1-0.1,0.3-0.2,0.5-0.3c0.1-0.1,0.3-0.2,0.5-0.2c0.2-0.1,0.4-0.1,0.5-0.1c0.2,0,0.5,0,0.7,0.1c0.1,0,0.1,0.1,0.2,0.1
			c0.1,0.1,0.1,0.1,0.1,0.2v1C322.7,293.2,322.7,293.3,322.6,293.3z"/>
		<path fill="#FFFFFF" d="M324.9,296.3v1.5c0,0.4,0.1,0.7,0.3,0.8c0.2,0.1,0.5,0.2,0.8,0.2s0.5-0.1,0.7-0.2c0.2-0.2,0.3-0.4,0.2-0.6
			v-0.1c0-0.2,0.1-0.5,0.2-0.7s0.4-0.3,0.7-0.3h0.7v1.1c0,0.7-0.2,1.2-0.7,1.5c-0.5,0.3-1.1,0.5-1.9,0.5c-0.8,0-1.5-0.2-2-0.6
			c-0.5-0.4-0.7-1-0.7-1.8v-3.3c0-0.8,0.2-1.5,0.7-2c0.5-0.5,1.1-0.7,2-0.7s1.4,0.2,1.9,0.7c0.5,0.5,0.7,1.1,0.7,2v1.1
			c0,0.5-0.4,0.8-1.1,0.8C327.4,296.3,324.9,296.3,324.9,296.3z M324.9,295.2h1.9h0.2v-0.8c0-0.4-0.1-0.8-0.3-1
			c-0.2-0.2-0.5-0.3-0.8-0.3c-0.3,0-0.5,0.1-0.8,0.3c-0.2,0.2-0.3,0.5-0.3,1L324.9,295.2L324.9,295.2z"/>
		<rect x="359.5" y="278.9" width="18.7" height="21.7"/>
		<path fill="#FFFFFF" d="M368.5,287.7c-0.1,0-0.2,0-0.2,0c-0.2-0.1-0.5-0.1-0.8-0.1c-0.2,0.1-0.5,0.1-0.7,0.2
			c-0.2,0.1-0.4,0.2-0.5,0.4s-0.2,0.4-0.2,0.5v4.1c0,0.1,0,0.2,0.1,0.2c0,0.1,0.1,0.1,0.1,0.1c0.1,0.1,0.2,0.1,0.2,0.3
			c0.1,0.1,0.1,0.3,0.1,0.5v0.5h-2.7V294c0-0.2,0.1-0.4,0.1-0.5c0.1-0.1,0.2-0.2,0.2-0.3c0.1-0.1,0.1-0.1,0.1-0.1
			c0-0.1,0.1-0.1,0.1-0.2v-5c0-0.1-0.1-0.2-0.2-0.3c-0.1-0.1-0.2-0.1-0.2-0.2c-0.1-0.1-0.1-0.3-0.1-0.5v-0.5h1.7
			c0.2,0,0.4,0.1,0.4,0.4v0.2c0.1-0.1,0.3-0.2,0.5-0.3c0.1-0.1,0.3-0.2,0.5-0.2c0.2-0.1,0.4-0.1,0.5-0.1c0.2,0,0.5,0,0.7,0.1
			c0.1,0,0.1,0.1,0.2,0.1c0.1,0.1,0.1,0.1,0.1,0.2v1C368.7,287.6,368.6,287.6,368.5,287.7z"/>
		<path fill="#FFFFFF" d="M370.9,290.7v1.5c0,0.4,0.1,0.7,0.3,0.8c0.2,0.1,0.5,0.2,0.8,0.2s0.5-0.1,0.7-0.2c0.2-0.2,0.3-0.4,0.2-0.6
			v-0.1c0-0.2,0.1-0.5,0.2-0.7c0.2-0.2,0.4-0.3,0.7-0.3h0.7v1.1c0,0.7-0.2,1.2-0.7,1.5c-0.5,0.3-1.1,0.5-1.9,0.5
			c-0.8,0-1.5-0.2-2-0.6c-0.5-0.4-0.7-1-0.7-1.8v-3.3c0-0.8,0.2-1.5,0.7-2s1.1-0.7,2-0.7s1.4,0.2,1.9,0.7c0.5,0.5,0.7,1.1,0.7,2v1.1
			c0,0.5-0.4,0.8-1.1,0.8C373.4,290.7,370.9,290.7,370.9,290.7z M370.9,289.5h1.9h0.2v-0.8c0-0.4-0.1-0.8-0.3-1
			c-0.2-0.2-0.5-0.3-0.8-0.3s-0.5,0.1-0.8,0.3c-0.2,0.2-0.3,0.5-0.3,1L370.9,289.5L370.9,289.5z"/>
		<rect x="404" y="269.9" width="18.7" height="21.7"/>
		<path fill="#FFFFFF" d="M413,278.6c-0.1,0-0.2,0-0.2,0c-0.2-0.1-0.5-0.1-0.8-0.1c-0.2,0.1-0.5,0.1-0.7,0.2s-0.4,0.2-0.5,0.4
			s-0.2,0.4-0.2,0.5v4.1c0,0.1,0,0.2,0.1,0.2c0,0.1,0.1,0.1,0.1,0.1c0.1,0.1,0.2,0.1,0.2,0.3c0.1,0.1,0.1,0.3,0.1,0.5v0.5h-2.7v-0.5
			c0-0.2,0.1-0.4,0.1-0.5c0.1-0.1,0.2-0.2,0.2-0.3c0.1-0.1,0.1-0.1,0.1-0.1c0-0.1,0.1-0.1,0.1-0.2v-5c0-0.1-0.1-0.2-0.2-0.3
			c-0.1-0.1-0.2-0.1-0.2-0.2c-0.1-0.1-0.1-0.3-0.1-0.5v-0.5h1.7c0.2,0,0.4,0.1,0.4,0.4v0.2c0.1-0.1,0.3-0.2,0.5-0.3
			c0.1-0.1,0.3-0.2,0.5-0.2c0.2-0.1,0.4-0.1,0.5-0.1c0.2,0,0.5,0,0.7,0.1c0.1,0,0.1,0.1,0.2,0.1c0.1,0.1,0.1,0.1,0.1,0.2v1
			C413.2,278.5,413.1,278.6,413,278.6z"/>
		<path fill="#FFFFFF" d="M415.4,281.6v1.5c0,0.4,0.1,0.7,0.3,0.8c0.2,0.1,0.5,0.2,0.8,0.2s0.5-0.1,0.7-0.2c0.2-0.2,0.3-0.4,0.2-0.6
			v-0.1c0-0.2,0.1-0.5,0.2-0.7c0.2-0.2,0.4-0.3,0.7-0.3h0.7v1.1c0,0.7-0.2,1.2-0.7,1.5c-0.5,0.3-1.1,0.5-1.9,0.5
			c-0.8,0-1.5-0.2-2-0.6s-0.7-1-0.7-1.8v-3.3c0-0.8,0.2-1.5,0.7-2c0.5-0.5,1.1-0.7,2-0.7c0.8,0,1.4,0.2,1.9,0.7
			c0.5,0.5,0.7,1.1,0.7,2v1.1c0,0.5-0.4,0.8-1.1,0.8C417.8,281.6,415.4,281.6,415.4,281.6z M415.4,280.5h1.9h0.2v-0.8
			c0-0.4-0.1-0.8-0.3-1c-0.2-0.2-0.5-0.3-0.8-0.3s-0.5,0.1-0.8,0.3c-0.2,0.2-0.3,0.5-0.3,1L415.4,280.5L415.4,280.5z"/>
		<path fill="#FFFFFF" d="M342.9,287.8c0.1,0.1,0.2,0.1,0.2,0.3c0.1,0.1,0.1,0.3,0.1,0.5v0.5h-2.7v-0.5c0-0.2,0.1-0.4,0.1-0.5
			s0.2-0.2,0.2-0.3c0.1-0.1,0.1-0.1,0.1-0.1c0.1-0.1,0.1-0.1,0.1-0.2v-9.3c0-0.1-0.1-0.2-0.2-0.3c-0.1-0.1-0.2-0.1-0.2-0.2
			c-0.1-0.1-0.1-0.3-0.1-0.5v-0.5h1.7c0.3,0,0.4,0.1,0.4,0.4v10.4c0,0.1,0,0.2,0.1,0.2C342.8,287.7,342.9,287.8,342.9,287.8z"/>
		<path fill="#FFFFFF" d="M346.2,287.8c0.1,0.1,0.2,0.1,0.2,0.3c0.1,0.1,0.1,0.3,0.1,0.5v0.5h-2.7v-0.5c0-0.2,0.1-0.4,0.1-0.5
			c0.1-0.1,0.2-0.2,0.2-0.3c0.1-0.1,0.1-0.1,0.1-0.1c0.1-0.1,0.1-0.1,0.1-0.2v-5.2c0-0.1-0.1-0.2-0.2-0.3c-0.1-0.1-0.2-0.1-0.2-0.2
			c-0.1-0.1-0.1-0.3-0.1-0.5v-0.5h1.7c0.2,0,0.4,0.1,0.4,0.3v6.4c0,0.1,0,0.2,0.1,0.2C346.1,287.7,346.2,287.8,346.2,287.8z
			 M345.2,279.8c-0.2,0-0.5-0.1-0.6-0.2c-0.2-0.2-0.2-0.4-0.2-0.6s0.1-0.5,0.2-0.6c0.2-0.2,0.4-0.2,0.6-0.2s0.4,0.1,0.6,0.2
			c0.2,0.2,0.2,0.4,0.2,0.6s-0.1,0.4-0.2,0.6C345.6,279.7,345.4,279.8,345.2,279.8z"/>
		<path fill="#FFFFFF" d="M349,285.3v1.5c0,0.4,0.1,0.7,0.3,0.8c0.2,0.1,0.5,0.2,0.8,0.2s0.5-0.1,0.7-0.2c0.2-0.2,0.3-0.4,0.2-0.6
			v-0.1c0-0.2,0.1-0.5,0.2-0.7c0.2-0.2,0.4-0.3,0.7-0.3h0.7v1.1c0,0.7-0.2,1.2-0.7,1.5c-0.5,0.3-1.1,0.5-1.9,0.5
			c-0.8,0-1.5-0.2-2-0.6c-0.5-0.4-0.7-1-0.7-1.8v-3.3c0-0.8,0.2-1.5,0.7-2c0.5-0.5,1.1-0.7,2-0.7c0.8,0,1.4,0.2,1.9,0.7
			c0.5,0.5,0.7,1.1,0.7,2v1.1c0,0.5-0.4,0.8-1.1,0.8C351.5,285.3,349,285.3,349,285.3z M349,284.1h1.9h0.2v-0.8c0-0.4-0.1-0.8-0.3-1
			c-0.2-0.2-0.5-0.3-0.8-0.3s-0.5,0.1-0.8,0.3c-0.2,0.2-0.3,0.5-0.3,1L349,284.1L349,284.1z"/>
		<rect x="382" y="286" width="18.7" height="21.7"/>
		<path fill="#FFFFFF" d="M388.3,301.1c0.1,0.1,0.2,0.1,0.2,0.3c0.1,0.1,0.1,0.3,0.1,0.5v0.5H386v-0.5c0-0.2,0.1-0.4,0.1-0.5
			c0.1-0.1,0.2-0.2,0.2-0.3c0.1-0.1,0.1-0.1,0.1-0.1c0.1-0.1,0.1-0.1,0.1-0.2v-9.3c0-0.1-0.1-0.2-0.2-0.3c-0.1-0.1-0.2-0.1-0.2-0.2
			c-0.1-0.1-0.1-0.3-0.1-0.5V290h1.7c0.3,0,0.4,0.1,0.4,0.4v10.4c0,0.1,0,0.2,0.1,0.2C388.2,301.1,388.3,301.1,388.3,301.1z"/>
		<path fill="#FFFFFF" d="M391.6,301.1c0.1,0.1,0.2,0.1,0.2,0.3c0.1,0.1,0.1,0.3,0.1,0.5v0.5h-2.7v-0.5c0-0.2,0.1-0.4,0.1-0.5
			c0.1-0.1,0.2-0.2,0.2-0.3c0.1-0.1,0.1-0.1,0.1-0.1c0.1-0.1,0.1-0.1,0.1-0.2v-5.2c0-0.1-0.1-0.2-0.2-0.3c-0.1-0.1-0.2-0.1-0.2-0.2
			c-0.1-0.1-0.1-0.3-0.1-0.5v-0.5h1.7c0.2,0,0.4,0.1,0.4,0.3v6.4c0,0.1,0,0.2,0.1,0.2C391.5,301.1,391.6,301.1,391.6,301.1z
			 M390.6,293.1c-0.2,0-0.5-0.1-0.6-0.2c-0.2-0.2-0.2-0.4-0.2-0.6s0.1-0.5,0.2-0.6s0.4-0.2,0.6-0.2c0.2,0,0.4,0.1,0.6,0.2
			c0.2,0.2,0.2,0.4,0.2,0.6s-0.1,0.4-0.2,0.6C391,293,390.8,293.1,390.6,293.1z"/>
		<path fill="#FFFFFF" d="M394.4,298.6v1.5c0,0.4,0.1,0.7,0.3,0.8c0.2,0.1,0.5,0.2,0.8,0.2s0.5-0.1,0.7-0.2c0.2-0.2,0.3-0.4,0.2-0.6
			v-0.1c0-0.2,0.1-0.5,0.2-0.7c0.2-0.2,0.4-0.3,0.7-0.3h0.7v1.1c0,0.7-0.2,1.2-0.7,1.5c-0.5,0.3-1.1,0.5-1.9,0.5
			c-0.8,0-1.5-0.2-2-0.6s-0.7-1-0.7-1.8v-3.3c0-0.8,0.2-1.5,0.7-2c0.5-0.5,1.1-0.7,2-0.7c0.8,0,1.4,0.2,1.9,0.7
			c0.5,0.5,0.7,1.1,0.7,2v1.1c0,0.5-0.4,0.8-1.1,0.8L394.4,298.6L394.4,298.6z M394.4,297.5h1.9h0.2v-0.8c0-0.4-0.1-0.8-0.3-1
			c-0.2-0.2-0.5-0.3-0.8-0.3s-0.5,0.1-0.8,0.3c-0.2,0.2-0.3,0.5-0.3,1L394.4,297.5L394.4,297.5z"/>
	</g>
	<polygon points="310.2,314.5 313.6,306.3 313.6,284.5 310.2,292.8 	"/>
	<polygon points="332.2,284.5 336.6,272.7 336.6,294.3 332.2,306.3 	"/>
	<polygon points="355.3,272.7 359.5,278.9 359.5,300.6 355.3,294.3 	"/>
	<polygon points="378.2,278.9 382,286 382,307.6 378.2,300.6 	"/>
	<polygon points="400.7,307.6 404,291.6 404,269.9 400.7,286 	"/>
</g>
<g>
	<g>
		<rect x="662.7" y="294.6" width="18.7" height="21.7"/>
		<rect x="707.8" y="274.4" width="18.7" height="21.7"/>
		<rect x="684.7" y="286.3" width="18.7" height="21.7"/>
		<path fill="#FFFFFF" d="M669.3,309.5c0.1,0,0.1,0,0.2,0c0.1,0,0.1,0.1,0.1,0.2v0.6c0,0.1,0,0.2-0.1,0.3c-0.1,0.1-0.1,0.1-0.1,0.1
			c-0.4,0.1-0.8,0.1-1.1,0.1s-0.6-0.2-0.8-0.3c-0.2-0.2-0.4-0.4-0.5-0.6c-0.1-0.2-0.2-0.5-0.2-0.8v-5.2h-1v-0.4
			c0-0.4,0.1-0.6,0.2-0.8c0.1-0.2,0.4-0.2,0.8-0.2v-2v-0.1c0-0.4,0.1-0.7,0.2-0.8c0.2-0.2,0.4-0.4,0.5-0.4c0.2-0.1,0.5-0.2,0.8-0.2
			v3.6h1v0.4c0,0.3-0.1,0.6-0.2,0.8c-0.2,0.2-0.4,0.3-0.8,0.3v4.9c0,0.2,0.1,0.4,0.2,0.5C668.8,309.5,669,309.6,669.3,309.5z"/>
		<path fill="#FFFFFF" d="M672.6,309.5c0.1,0.1,0.2,0.1,0.2,0.3c0.1,0.1,0.1,0.3,0.1,0.5v0.5h-2.7v-0.5c0-0.2,0.1-0.4,0.1-0.5
			s0.2-0.2,0.2-0.3c0.1-0.1,0.1-0.1,0.1-0.1c0.1-0.1,0.1-0.1,0.1-0.2v-5.2c0-0.1-0.1-0.2-0.2-0.3c-0.1-0.1-0.2-0.1-0.2-0.2
			s-0.1-0.3-0.1-0.5v-0.5h1.7c0.2,0,0.4,0.1,0.4,0.3v6.4c0,0.1,0,0.2,0.1,0.2C672.4,309.5,672.5,309.5,672.6,309.5z M671.5,301.5
			c-0.2,0-0.5-0.1-0.6-0.2c-0.2-0.2-0.2-0.4-0.2-0.6s0.1-0.5,0.2-0.6c0.2-0.2,0.4-0.2,0.6-0.2c0.2,0,0.4,0.1,0.6,0.2
			c0.2,0.2,0.2,0.4,0.2,0.6s-0.1,0.4-0.2,0.6C672,301.4,671.7,301.5,671.5,301.5z"/>
		<path fill="#FFFFFF" d="M675.3,307v1.5c0,0.4,0.1,0.7,0.3,0.8c0.2,0.1,0.5,0.2,0.8,0.2c0.3,0,0.5-0.1,0.7-0.2
			c0.2-0.2,0.3-0.4,0.2-0.6v-0.1c0-0.2,0.1-0.5,0.2-0.7c0.2-0.2,0.4-0.3,0.7-0.3h0.7v1.1c0,0.7-0.2,1.2-0.7,1.5
			c-0.5,0.3-1.1,0.5-1.9,0.5c-0.8,0-1.5-0.2-2-0.6c-0.5-0.4-0.7-1-0.7-1.8v-3.3c0-0.8,0.2-1.5,0.7-2c0.5-0.5,1.1-0.7,2-0.7
			c0.8,0,1.4,0.2,1.9,0.7c0.5,0.5,0.7,1.1,0.7,2v1.1c0,0.5-0.4,0.8-1.1,0.8C677.8,307,675.3,307,675.3,307z M675.3,305.9h1.9h0.2
			V305c0-0.4-0.1-0.8-0.3-1c-0.2-0.2-0.5-0.3-0.8-0.3c-0.3,0-0.5,0.1-0.8,0.3c-0.2,0.2-0.3,0.5-0.3,1L675.3,305.9L675.3,305.9z"/>
		<path fill="#FFFFFF" d="M693.8,295.1c-0.1,0-0.2,0-0.2,0c-0.2-0.1-0.5-0.1-0.8-0.1c-0.2,0.1-0.5,0.1-0.7,0.2
			c-0.2,0.1-0.4,0.2-0.5,0.4c-0.1,0.2-0.2,0.4-0.2,0.5v4.1c0,0.1,0,0.2,0.1,0.2c0,0.1,0.1,0.1,0.1,0.1c0.1,0.1,0.2,0.1,0.2,0.3
			c0.1,0.1,0.1,0.3,0.1,0.5v0.5h-2.7v-0.5c0-0.2,0.1-0.4,0.1-0.5s0.2-0.2,0.2-0.3c0.1-0.1,0.1-0.1,0.1-0.1c0-0.1,0.1-0.1,0.1-0.2v-5
			c0-0.1-0.1-0.2-0.2-0.3c-0.1-0.1-0.2-0.1-0.2-0.2s-0.1-0.3-0.1-0.5v-0.6h1.7c0.2,0,0.4,0.1,0.4,0.4v0.2c0.1-0.1,0.3-0.2,0.5-0.3
			c0.1-0.1,0.3-0.2,0.5-0.2c0.2-0.1,0.4-0.1,0.5-0.1c0.2,0,0.5,0,0.7,0.1c0.1,0,0.1,0.1,0.2,0.1c0.1,0.1,0.1,0.1,0.1,0.2v1
			C693.9,294.9,693.8,295,693.8,295.1z"/>
		<path fill="#FFFFFF" d="M696.1,298v1.5c0,0.4,0.1,0.7,0.3,0.8c0.2,0.1,0.5,0.2,0.8,0.2c0.3,0,0.5-0.1,0.7-0.2
			c0.2-0.2,0.3-0.4,0.2-0.6v-0.1c0-0.2,0.1-0.5,0.2-0.7c0.2-0.2,0.4-0.3,0.7-0.3h0.7v1.1c0,0.7-0.2,1.2-0.7,1.5
			c-0.5,0.3-1.1,0.5-1.9,0.5c-0.8,0-1.5-0.2-2-0.6c-0.5-0.4-0.7-1-0.7-1.8v-3.3c0-0.8,0.2-1.5,0.7-2c0.5-0.5,1.1-0.7,2-0.7
			c0.8,0,1.4,0.2,1.9,0.7c0.5,0.5,0.7,1.1,0.7,2v1.1c0,0.5-0.4,0.8-1.1,0.8C698.6,298,696.1,298,696.1,298z M696.1,296.9h1.9h0.2
			v-0.8c0-0.4-0.1-0.8-0.3-1c-0.2-0.2-0.5-0.3-0.8-0.3s-0.5,0.1-0.8,0.3c-0.2,0.2-0.3,0.5-0.3,1L696.1,296.9L696.1,296.9z"/>
		<rect x="730.7" y="280.7" width="18.7" height="21.7"/>
		<path fill="#FFFFFF" d="M739.7,289.4c-0.1,0-0.2,0-0.2,0c-0.2-0.1-0.5-0.1-0.8-0.1c-0.2,0.1-0.5,0.1-0.7,0.2
			c-0.2,0.1-0.4,0.2-0.5,0.4c-0.1,0.2-0.2,0.4-0.2,0.5v4.1c0,0.1,0,0.2,0.1,0.2c0,0.1,0.1,0.1,0.1,0.1c0.1,0.1,0.2,0.1,0.2,0.3
			c0.1,0.1,0.1,0.3,0.1,0.5v0.5h-2.7v-0.5c0-0.2,0.1-0.4,0.1-0.5s0.2-0.2,0.2-0.3c0.1-0.1,0.1-0.1,0.1-0.1c0-0.1,0.1-0.1,0.1-0.2v-5
			c0-0.1-0.1-0.2-0.2-0.3c-0.1-0.1-0.2-0.1-0.2-0.2c-0.1-0.1-0.1-0.3-0.1-0.5V288h1.7c0.2,0,0.4,0.1,0.4,0.4v0.2
			c0.1-0.1,0.3-0.2,0.5-0.3c0.1-0.1,0.3-0.2,0.5-0.2c0.2-0.1,0.4-0.1,0.5-0.1c0.2,0,0.5,0,0.7,0.1c0.1,0,0.1,0.1,0.2,0.1
			c0.1,0.1,0.1,0.1,0.1,0.2v1C739.8,289.4,739.7,289.4,739.7,289.4z"/>
		<path fill="#FFFFFF" d="M742,292.4v1.5c0,0.4,0.1,0.7,0.3,0.8c0.2,0.1,0.5,0.2,0.8,0.2s0.5-0.1,0.7-0.2c0.2-0.2,0.3-0.4,0.2-0.6
			V294c0-0.2,0.1-0.5,0.2-0.7c0.2-0.2,0.4-0.3,0.7-0.3h0.7v1.1c0,0.7-0.2,1.2-0.7,1.5c-0.5,0.3-1.1,0.5-1.9,0.5
			c-0.8,0-1.5-0.2-2-0.6c-0.5-0.4-0.7-1-0.7-1.8v-3.3c0-0.8,0.2-1.5,0.7-2c0.5-0.5,1.1-0.7,2-0.7c0.8,0,1.4,0.2,1.9,0.7
			c0.5,0.5,0.7,1.1,0.7,2v1.1c0,0.5-0.4,0.8-1.1,0.8C744.5,292.4,742,292.4,742,292.4z M742,291.3h1.9h0.2v-0.8c0-0.4-0.1-0.8-0.3-1
			c-0.2-0.2-0.5-0.3-0.8-0.3s-0.5,0.1-0.8,0.3c-0.2,0.2-0.3,0.5-0.3,1L742,291.3L742,291.3z"/>
		<rect x="775.1" y="297.3" width="27.9" height="21.7"/>
		<path fill="#FFFFFF" d="M714.1,289.5c0.1,0.1,0.2,0.1,0.2,0.3c0.1,0.1,0.1,0.3,0.1,0.5v0.5h-2.7v-0.5c0-0.2,0.1-0.4,0.1-0.5
			s0.2-0.2,0.2-0.3c0.1-0.1,0.1-0.1,0.1-0.1c0.1-0.1,0.1-0.1,0.1-0.2V280c0-0.1-0.1-0.2-0.2-0.3c-0.1-0.1-0.2-0.1-0.2-0.2
			s-0.1-0.3-0.1-0.5v-0.5h1.7c0.3,0,0.4,0.1,0.4,0.4v10.4c0,0.1,0,0.2,0.1,0.2C714,289.5,714,289.5,714.1,289.5z"/>
		<path fill="#FFFFFF" d="M717.4,289.5c0.1,0.1,0.2,0.1,0.2,0.3c0.1,0.1,0.1,0.3,0.1,0.5v0.5H715v-0.5c0-0.2,0.1-0.4,0.1-0.5
			s0.2-0.2,0.2-0.3c0.1-0.1,0.1-0.1,0.1-0.1c0.1-0.1,0.1-0.1,0.1-0.2v-5.2c0-0.1-0.1-0.2-0.2-0.3c-0.1-0.1-0.2-0.1-0.2-0.2
			s-0.1-0.3-0.1-0.5v-0.5h1.7c0.2,0,0.4,0.1,0.4,0.3v6.4c0,0.1,0,0.2,0.1,0.2C717.3,289.5,717.3,289.5,717.4,289.5z M716.3,281.5
			c-0.2,0-0.5-0.1-0.6-0.2c-0.2-0.2-0.2-0.4-0.2-0.6s0.1-0.5,0.2-0.6c0.2-0.2,0.4-0.2,0.6-0.2s0.4,0.1,0.6,0.2
			c0.2,0.2,0.2,0.4,0.2,0.6s-0.1,0.4-0.2,0.6C716.8,281.4,716.6,281.5,716.3,281.5z"/>
		<path fill="#FFFFFF" d="M720.1,287v1.5c0,0.4,0.1,0.7,0.3,0.8c0.2,0.1,0.5,0.2,0.8,0.2s0.5-0.1,0.7-0.2c0.2-0.2,0.3-0.4,0.2-0.6
			v-0.1c0-0.2,0.1-0.5,0.2-0.7c0.2-0.2,0.4-0.3,0.7-0.3h0.7v1.1c0,0.7-0.2,1.2-0.7,1.5c-0.5,0.3-1.1,0.5-1.9,0.5
			c-0.8,0-1.5-0.2-2-0.6s-0.7-1-0.7-1.8v-3.3c0-0.8,0.2-1.5,0.7-2c0.5-0.5,1.1-0.7,2-0.7c0.8,0,1.4,0.2,1.9,0.7
			c0.5,0.5,0.7,1.1,0.7,2v1.1c0,0.5-0.4,0.8-1.1,0.8H720.1z M720.1,285.9h1.9h0.2v-0.8c0-0.4-0.1-0.8-0.3-1
			c-0.2-0.2-0.5-0.3-0.8-0.3s-0.5,0.1-0.8,0.3c-0.2,0.2-0.3,0.5-0.3,1L720.1,285.9L720.1,285.9z"/>
		<rect x="753.2" y="287.7" width="18.7" height="21.7"/>
		<path fill="#FFFFFF" d="M759.5,302.9c0.1,0.1,0.2,0.1,0.2,0.3c0.1,0.1,0.1,0.3,0.1,0.5v0.5h-2.7v-0.5c0-0.2,0.1-0.4,0.1-0.5
			s0.2-0.2,0.2-0.3c0.1-0.1,0.1-0.1,0.1-0.1s0.1-0.1,0.1-0.2v-9.3c0-0.1-0.1-0.2-0.2-0.3c-0.1-0.1-0.2-0.1-0.2-0.2s-0.1-0.3-0.1-0.5
			v-0.5h1.7c0.3,0,0.4,0.1,0.4,0.4v10.4c0,0.1,0,0.2,0.1,0.2C759.3,302.8,759.4,302.8,759.5,302.9z"/>
		<path fill="#FFFFFF" d="M762.8,302.9c0.1,0.1,0.2,0.1,0.2,0.3c0.1,0.1,0.1,0.3,0.1,0.5v0.5h-2.7v-0.5c0-0.2,0.1-0.4,0.1-0.5
			s0.2-0.2,0.2-0.3c0.1-0.1,0.1-0.1,0.1-0.1s0.1-0.1,0.1-0.2v-5.2c0-0.1-0.1-0.2-0.2-0.3c-0.1-0.1-0.2-0.1-0.2-0.2
			c-0.1-0.1-0.1-0.3-0.1-0.5v-0.5h1.7c0.2,0,0.4,0.1,0.4,0.3v6.4c0,0.1,0,0.2,0.1,0.2C762.7,302.8,762.7,302.8,762.8,302.9z
			 M761.7,294.8c-0.2,0-0.5-0.1-0.6-0.2c-0.2-0.2-0.2-0.4-0.2-0.6s0.1-0.5,0.2-0.6c0.2-0.2,0.4-0.2,0.6-0.2s0.4,0.1,0.6,0.2
			c0.2,0.2,0.2,0.4,0.2,0.6s-0.1,0.4-0.2,0.6C762.2,294.8,762,294.8,761.7,294.8z"/>
		<path fill="#FFFFFF" d="M765.5,300.3v1.5c0,0.4,0.1,0.7,0.3,0.8c0.2,0.1,0.5,0.2,0.8,0.2c0.3,0,0.5-0.1,0.7-0.2
			c0.2-0.2,0.3-0.4,0.2-0.6v-0.1c0-0.2,0.1-0.5,0.2-0.7s0.4-0.3,0.7-0.3h0.7v1.1c0,0.7-0.2,1.2-0.7,1.5c-0.5,0.3-1.1,0.5-1.9,0.5
			c-0.8,0-1.5-0.2-2-0.6c-0.5-0.4-0.7-1-0.7-1.8v-3.3c0-0.8,0.2-1.5,0.7-2c0.5-0.5,1.1-0.7,2-0.7c0.8,0,1.4,0.2,1.9,0.7
			c0.5,0.5,0.7,1.1,0.7,2v1.1c0,0.5-0.4,0.8-1.1,0.8H765.5z M765.5,299.2h1.9h0.2v-0.8c0-0.4-0.1-0.8-0.3-1
			c-0.2-0.2-0.5-0.3-0.8-0.3s-0.5,0.1-0.8,0.3c-0.2,0.2-0.3,0.5-0.3,1L765.5,299.2L765.5,299.2z"/>
		<g>
			<path fill="#FFFFFF" d="M781.6,313.1c0.1,0.1,0.2,0.1,0.2,0.3c0.1,0.1,0.1,0.3,0.1,0.5v0.5h-2.7v-0.5c0-0.2,0.1-0.4,0.1-0.5
				s0.2-0.2,0.2-0.3c0.1-0.1,0.1-0.1,0.1-0.1c0.1-0.1,0.1-0.1,0.1-0.2v-9.3c0-0.1-0.1-0.2-0.2-0.3c-0.1-0.1-0.2-0.1-0.2-0.2
				s-0.1-0.3-0.1-0.5v-0.6h1.7c0.3,0,0.4,0.1,0.4,0.4v10.4c0,0.1,0,0.2,0.1,0.2C781.4,313,781.5,313.1,781.6,313.1z"/>
			<path fill="#FFFFFF" d="M785.4,306c0.4,0,0.8,0.1,1.1,0.2s0.6,0.3,0.8,0.5c0.2,0.2,0.4,0.4,0.5,0.7c0.1,0.3,0.2,0.5,0.2,0.8v3.9
				c0,0.7-0.2,1.3-0.7,1.7c-0.5,0.4-1.1,0.6-1.9,0.6c-0.8,0-1.5-0.2-2-0.7c-0.5-0.4-0.7-1.1-0.7-1.9v-3.3c0-0.8,0.2-1.5,0.7-1.9
				C783.9,306.2,784.5,306,785.4,306z M785.4,313.1c0.3,0,0.5-0.1,0.8-0.3c0.2-0.2,0.3-0.5,0.3-0.8v-3.4c0-0.5-0.1-0.8-0.3-1
				c-0.2-0.2-0.5-0.2-0.8-0.2s-0.5,0.1-0.8,0.2c-0.2,0.2-0.3,0.5-0.3,0.9v3.5c0,0.4,0.1,0.7,0.3,0.9
				C784.8,313,785.1,313.1,785.4,313.1z"/>
			<path fill="#FFFFFF" d="M798.8,313.1c0.1,0.1,0.2,0.1,0.2,0.2s0.1,0.3,0.1,0.5v0.5h-1.3c-0.3,0-0.5-0.1-0.6-0.2
				c-0.1-0.2-0.2-0.4-0.2-0.7v-4.8c0-0.4-0.1-0.7-0.3-1c-0.2-0.2-0.5-0.3-0.8-0.3c-0.2,0-0.4,0-0.5,0.1c-0.2,0.1-0.3,0.1-0.4,0.2
				c-0.1,0.1-0.2,0.1-0.4,0.2v5c0,0.1,0,0.2,0.1,0.2c0.1,0.1,0.1,0.1,0.1,0.1c0.1,0.1,0.2,0.1,0.2,0.2s0.1,0.3,0.1,0.5v0.5H794
				c-0.2,0-0.4-0.1-0.5-0.3c-0.2-0.2-0.2-0.4-0.2-0.7V309v-0.6c0-0.2-0.1-0.4-0.1-0.5c-0.1-0.1-0.2-0.2-0.3-0.4
				c-0.1-0.1-0.2-0.2-0.4-0.2c-0.2-0.1-0.3-0.1-0.4-0.1s-0.3,0-0.4,0.1c-0.1,0.1-0.2,0.1-0.4,0.2c-0.1,0.1-0.2,0.1-0.4,0.2v4.9
				c0,0.1,0,0.2,0.1,0.2c0.1,0.1,0.1,0.1,0.1,0.1c0.1,0.1,0.2,0.1,0.2,0.2s0.1,0.3,0.1,0.5v0.5h-2.7v-0.5c0-0.2,0.1-0.4,0.1-0.5
				s0.2-0.2,0.2-0.2c0.1-0.1,0.1-0.1,0.1-0.1c0.1-0.1,0.1-0.1,0.1-0.2v-4.9c0-0.1,0-0.2-0.1-0.2c-0.1-0.1-0.1-0.1-0.2-0.2
				c-0.1-0.1-0.1-0.1-0.2-0.2c-0.1-0.1-0.1-0.2-0.1-0.2v-1h1.7c0.1,0,0.2,0,0.2,0.1c0.1,0.1,0.1,0.1,0.1,0.1
				c0.1,0.1,0.1,0.1,0.1,0.2c0.1-0.1,0.2-0.2,0.4-0.2c0.1-0.1,0.3-0.1,0.5-0.2c0.2-0.1,0.4-0.1,0.7-0.1c0.8,0,1.4,0.2,1.8,0.7
				c0.2-0.1,0.4-0.2,0.5-0.4c0.2-0.1,0.4-0.2,0.7-0.2c0.2-0.1,0.5-0.1,0.9-0.1c0.8,0,1.4,0.2,1.8,0.7s0.5,1.1,0.5,1.9v4.2
				c0,0.1,0,0.2,0.1,0.2C798.7,313,798.8,313,798.8,313.1z"/>
		</g>
	</g>
	<polygon points="681.4,294.6 684.7,286.3 684.7,308 681.4,316.3 	"/>
	<polygon points="703.4,308 707.8,296.1 707.8,274.4 703.4,286.3 	"/>
	<polygon points="726.4,274.4 730.7,280.7 730.7,302.4 726.4,296.1 	"/>
	<polygon points="749.4,280.7 753.2,287.7 753.2,309.4 749.4,302.4 	"/>
	<polygon points="771.8,287.7 775.1,297.3 775.1,319.1 771.8,309.4 	"/>
</g>
<g>
	<rect x="468.8" y="274.1" fill="#1E1E1C" width="37.7" height="21.6"/>
	<rect x="509.3" y="281.6" fill="#1E1E1C" width="32.7" height="21.6"/>
	<rect x="544.7" y="281.6" fill="#1E1E1C" width="15.8" height="21.6"/>
	<rect x="604.8" y="287.3" fill="#1E1E1C" width="15.8" height="21.6"/>
	<rect x="622.4" y="295.6" fill="#1E1E1C" width="23.4" height="21.6"/>
	<rect x="590.1" y="281.8" fill="#1E1E1C" width="12.4" height="19.6"/>
	<rect x="561.7" y="276.3" fill="#1E1E1C" width="24.3" height="21.6"/>
	<rect x="446.6" y="281.2" fill="#1E1E1C" width="19" height="19.6"/>
	<g>
		<path fill="#FFFFFF" d="M452.6,284.7c0.5,0,0.8,0.1,1.2,0.2c0.3,0.1,0.6,0.3,0.8,0.5c0.2,0.2,0.4,0.5,0.5,0.8
			c0.1,0.3,0.1,0.7,0.1,1.1v6.8c0,0.8-0.2,1.4-0.6,1.9c-0.4,0.5-1.1,0.7-2,0.7h-3.4v-0.4c0-0.2,0-0.4,0.1-0.5
			c0.1-0.1,0.1-0.2,0.3-0.3c0.1-0.1,0.2-0.2,0.2-0.3v-8.8c0-0.1,0-0.2-0.1-0.2c0-0.1-0.1-0.1-0.1-0.1c-0.1-0.1-0.2-0.1-0.2-0.3
			c-0.1-0.1-0.1-0.3-0.1-0.5v-0.5H452.6z M453.6,287.3c0-0.4-0.1-0.7-0.2-0.9c-0.2-0.2-0.4-0.3-0.7-0.3h-1.1c-0.1,0-0.1,0-0.2,0.1
			c0,0-0.1,0.1-0.1,0.2v8.9c0,0.1,0,0.1,0,0.2c0,0,0.1,0.1,0.1,0.1h1.2c0.3,0,0.6-0.1,0.7-0.3c0.2-0.2,0.2-0.5,0.2-0.9V287.3z"/>
		<path fill="#FFFFFF" d="M457.7,293.1v1.5c0,0.4,0.1,0.7,0.3,0.8c0.2,0.1,0.5,0.2,0.8,0.2c0.3,0,0.5-0.1,0.7-0.2
			c0.2-0.2,0.3-0.4,0.3-0.6v-0.1c0-0.2,0.1-0.5,0.2-0.6c0.1-0.2,0.4-0.3,0.6-0.3h0.7v1.1c0,0.7-0.2,1.2-0.7,1.5
			c-0.5,0.3-1.1,0.5-1.9,0.5c-0.8,0-1.4-0.2-1.9-0.6s-0.7-1-0.7-1.8v-3.2c0-0.8,0.2-1.5,0.7-1.9c0.4-0.4,1.1-0.7,1.9-0.7
			c0.8,0,1.4,0.2,1.9,0.7c0.4,0.4,0.7,1.1,0.7,1.9v1c0,0.5-0.4,0.8-1.1,0.8H457.7z M457.7,292h1.8h0.2v-0.8c0-0.4-0.1-0.7-0.3-0.9
			c-0.2-0.2-0.4-0.3-0.7-0.3c-0.3,0-0.5,0.1-0.7,0.3c-0.2,0.2-0.3,0.5-0.3,0.9V292z"/>
	</g>
	<g>
		<path fill="#FFFFFF" d="M476.3,281.1v0.5c0,0.2,0,0.4-0.1,0.5c-0.1,0.1-0.2,0.2-0.2,0.3c0,0-0.1,0.1-0.1,0.4c0,0.3-0.1,0.6-0.2,1
			c-0.1,0.4-0.1,0.8-0.2,1.3c-0.1,0.5-0.1,1-0.2,1.4c-0.1,0.5-0.1,0.9-0.2,1.3c-0.1,0.4-0.1,0.7-0.2,0.9c0,0.1-0.1,0.3-0.1,0.4
			c-0.1,0.1-0.2,0.1-0.3,0.1H473c-0.2,0-0.4,0-0.4-0.1c-0.1,0-0.2-0.2-0.2-0.4c0-0.1,0-0.3-0.1-0.6c-0.1-0.3-0.1-0.7-0.2-1.1
			c-0.1-0.4-0.2-0.9-0.2-1.4c-0.1-0.5-0.2-0.9-0.2-1.4c-0.1-0.4-0.1-0.8-0.2-1.1c0-0.3-0.1-0.5-0.1-0.5c0-0.1-0.1-0.2-0.1-0.2
			c0,0,0,0-0.1-0.1c-0.1-0.1-0.2-0.1-0.2-0.3c-0.1-0.1-0.1-0.3-0.1-0.4v-0.5h1.4c0.2,0,0.3,0,0.4,0.1c0.1,0,0.1,0.2,0.2,0.4
			c0,0,0,0.1,0,0.3c0,0.2,0.1,0.4,0.1,0.7c0,0.3,0.1,0.6,0.2,1c0.1,0.4,0.1,0.8,0.2,1.1c0.1,0.9,0.3,1.9,0.4,3.1
			c0.2-1.1,0.3-2.1,0.4-3c0.1-0.4,0.1-0.7,0.2-1.1c0.1-0.4,0.1-0.7,0.1-1c0-0.3,0.1-0.5,0.1-0.7c0-0.2,0-0.3,0.1-0.3
			c0-0.1,0.1-0.2,0.1-0.3c0-0.1,0-0.1,0.1-0.2c0-0.1,0.1-0.1,0.1-0.1c0.1,0,0.2,0,0.3,0H476.3z"/>
		<path fill="#FFFFFF" d="M481.5,282.6c-0.1,0-0.2,0-0.2,0c-0.3-0.1-0.5-0.1-0.8,0c-0.2,0-0.5,0.1-0.7,0.2c-0.2,0.1-0.3,0.2-0.5,0.4
			c-0.1,0.2-0.2,0.3-0.2,0.5v4c0,0.1,0,0.2,0,0.2c0,0,0.1,0.1,0.1,0.1c0.1,0.1,0.2,0.1,0.2,0.3c0.1,0.1,0.1,0.3,0.1,0.5l0,0.4h-2.6
			v-0.5c0-0.2,0-0.4,0.1-0.5c0.1-0.1,0.2-0.2,0.3-0.3c0.1,0,0.1-0.1,0.1-0.1c0,0,0-0.1,0-0.2v-4.9c0-0.1-0.1-0.2-0.2-0.3
			c-0.1-0.1-0.2-0.1-0.2-0.3c-0.1-0.1-0.1-0.3-0.1-0.4v-0.5h1.7c0.3,0,0.4,0.1,0.4,0.4v0.2c0.1-0.1,0.3-0.2,0.4-0.3
			c0.1-0.1,0.3-0.1,0.5-0.2s0.3-0.1,0.5-0.1c0.2,0,0.4,0,0.7,0c0.1,0,0.1,0,0.2,0.1c0.1,0.1,0.1,0.1,0.1,0.3v0.9
			C481.6,282.5,481.6,282.5,481.5,282.6z"/>
		<path fill="#FFFFFF" d="M484.8,281.1c0.4,0,0.7,0.1,1,0.2c0.3,0.1,0.6,0.3,0.8,0.5c0.2,0.2,0.4,0.4,0.5,0.7
			c0.1,0.3,0.2,0.5,0.2,0.8v3.8c0,0.7-0.2,1.2-0.7,1.6c-0.5,0.4-1.1,0.6-1.8,0.6c-0.8,0-1.4-0.2-1.9-0.6s-0.7-1-0.7-1.9v-3.2
			c0-0.8,0.2-1.4,0.7-1.8C483.3,281.3,484,281.1,484.8,281.1z M484.8,287.9c0.3,0,0.5-0.1,0.7-0.3c0.2-0.2,0.3-0.5,0.3-0.8v-3.3
			c0-0.5-0.1-0.8-0.3-0.9c-0.2-0.2-0.4-0.2-0.7-0.2c-0.3,0-0.5,0.1-0.7,0.2c-0.2,0.2-0.3,0.4-0.3,0.9v3.4c0,0.4,0.1,0.7,0.3,0.9
			C484.2,287.8,484.5,287.9,484.8,287.9z"/>
		<path fill="#FFFFFF" d="M493.8,287.9c0.1,0.1,0.2,0.2,0.2,0.3c0.1,0.1,0.1,0.3,0.1,0.5v0.5h-1.3c-0.2,0-0.3,0-0.4-0.1
			c-0.1,0-0.1-0.1-0.2-0.2c-0.2,0.1-0.3,0.3-0.5,0.3c-0.2,0.1-0.4,0.1-0.6,0.1c-0.8,0-1.4-0.2-1.9-0.6c-0.5-0.4-0.7-1-0.7-1.9v-4
			c0-0.1,0-0.2-0.1-0.2c0-0.1-0.1-0.1-0.1-0.1c-0.1-0.1-0.2-0.2-0.2-0.3c-0.1-0.1-0.1-0.3-0.1-0.5v-0.5h1.5c0.2,0,0.3,0,0.4,0.1
			c0.1,0.1,0.1,0.2,0.1,0.4v5.1c0,0.4,0.1,0.7,0.3,0.9c0.2,0.2,0.4,0.3,0.7,0.3c0.2,0,0.4,0,0.5-0.1c0.1,0,0.2-0.1,0.3-0.2
			c0.1-0.1,0.1-0.1,0.2-0.2v-4.9c0-0.1,0-0.2-0.1-0.2c0-0.1-0.1-0.1-0.1-0.1c-0.1-0.1-0.2-0.2-0.2-0.3c-0.1-0.1-0.1-0.3-0.1-0.5
			v-0.5h1.5c0.2,0,0.3,0.1,0.4,0.2c0.1,0.1,0.1,0.2,0.1,0.3v5.4v-1.6v0.1v2.1c0,0.1,0,0.2,0,0.2
			C493.7,287.8,493.7,287.9,493.8,287.9z"/>
		<path fill="#FFFFFF" d="M504.4,281.1v0.5c0,0.2,0,0.4-0.1,0.5c-0.1,0.1-0.1,0.2-0.2,0.3c-0.1,0.1-0.1,0.2-0.2,0.3
			c0,0.1,0,0.2-0.1,0.4c0,0.2-0.1,0.4-0.1,0.7c-0.1,0.3-0.1,0.6-0.2,1c-0.1,0.3-0.1,0.7-0.2,1c-0.1,0.8-0.3,1.7-0.5,2.8
			c-0.1,0.4-0.3,0.6-0.5,0.6H501c-0.2,0-0.3-0.1-0.4-0.2c-0.1-0.1-0.2-0.2-0.2-0.4l-0.8-4.1l-0.9,4.1c-0.1,0.2-0.1,0.4-0.2,0.4
			c-0.1,0.1-0.2,0.1-0.3,0.1h-1.3c-0.2,0-0.4-0.1-0.5-0.2c-0.1-0.1-0.2-0.3-0.2-0.4c0-0.1,0-0.2-0.1-0.4c0-0.2-0.1-0.4-0.1-0.7
			s-0.1-0.6-0.2-0.9c-0.1-0.3-0.1-0.7-0.2-1c-0.1-0.8-0.3-1.7-0.5-2.7c0-0.2-0.1-0.3-0.2-0.4c-0.1-0.1-0.2-0.1-0.2-0.3
			c-0.1-0.1-0.1-0.3-0.1-0.4v-0.5h1.2c0.2,0,0.3,0,0.4,0.1c0.1,0.1,0.2,0.2,0.2,0.4c0,0,0,0.1,0,0.3c0,0.2,0.1,0.4,0.1,0.7
			c0,0.3,0.1,0.6,0.2,1c0.1,0.4,0.1,0.7,0.2,1.1c0.1,0.9,0.3,1.8,0.5,2.9c0.2-1.1,0.4-2.1,0.6-2.9c0.1-0.4,0.2-0.7,0.2-1.1
			c0.1-0.4,0.2-0.7,0.2-1c0.1-0.3,0.1-0.5,0.2-0.7c0-0.2,0.1-0.3,0.1-0.4c0.1-0.2,0.1-0.3,0.3-0.4c0.1-0.1,0.3-0.1,0.4-0.1
			c0.2,0,0.3,0,0.4,0.1c0.1,0,0.2,0.2,0.3,0.4c0,0,0,0.1,0.1,0.3c0,0.2,0.1,0.4,0.2,0.7c0.1,0.3,0.1,0.6,0.2,1s0.2,0.7,0.2,1.1
			c0.2,0.9,0.4,1.9,0.6,2.9c0.2-1,0.4-2,0.5-2.8c0.1-0.4,0.1-0.7,0.2-1.1c0.1-0.4,0.1-0.7,0.2-1c0.1-0.3,0.1-0.5,0.1-0.7
			c0-0.2,0.1-0.3,0.1-0.4c0-0.2,0.1-0.4,0.2-0.5c0.1-0.1,0.3-0.1,0.4-0.1H504.4z"/>
	</g>
	<path fill="#FFFFFF" d="M517.2,288.4v0.5c0,0.2,0,0.4-0.1,0.5c-0.1,0.1-0.2,0.2-0.2,0.3c0,0-0.1,0.1-0.1,0.4c0,0.3-0.1,0.6-0.2,1
		c-0.1,0.4-0.1,0.8-0.2,1.3c-0.1,0.5-0.1,1-0.2,1.4c-0.1,0.5-0.1,0.9-0.2,1.3c-0.1,0.4-0.1,0.7-0.2,0.9c0,0.1-0.1,0.3-0.1,0.4
		c-0.1,0.1-0.2,0.1-0.3,0.1h-1.5c-0.2,0-0.4,0-0.4-0.1c-0.1,0-0.2-0.2-0.2-0.4c0-0.1,0-0.3-0.1-0.6c-0.1-0.3-0.1-0.7-0.2-1.1
		c-0.1-0.4-0.2-0.9-0.2-1.4c-0.1-0.5-0.2-0.9-0.2-1.4c-0.1-0.4-0.1-0.8-0.2-1.1c0-0.3-0.1-0.5-0.1-0.5c0-0.1-0.1-0.2-0.1-0.2
		c0,0,0,0-0.1-0.1c-0.1-0.1-0.2-0.1-0.2-0.3c-0.1-0.1-0.1-0.3-0.1-0.4v-0.5h1.4c0.2,0,0.3,0,0.4,0.1c0.1,0,0.1,0.2,0.2,0.4
		c0,0,0,0.1,0,0.3c0,0.2,0.1,0.4,0.1,0.7c0,0.3,0.1,0.6,0.2,1c0.1,0.4,0.1,0.8,0.2,1.1c0.1,0.9,0.3,1.9,0.4,3.1
		c0.2-1.1,0.3-2.1,0.4-3c0.1-0.4,0.1-0.7,0.2-1.1c0.1-0.4,0.1-0.7,0.1-1c0-0.3,0.1-0.5,0.1-0.7c0-0.2,0-0.3,0.1-0.3
		c0-0.1,0.1-0.2,0.1-0.3c0-0.1,0-0.1,0.1-0.2c0-0.1,0.1-0.1,0.1-0.1c0.1,0,0.2,0,0.3,0H517.2z"/>
	<path fill="#FFFFFF" d="M520,295.2c0.1,0.1,0.2,0.1,0.2,0.3c0.1,0.1,0.1,0.3,0.1,0.5v0.4h-2.6v-0.5c0-0.2,0-0.4,0.1-0.5
		c0.1-0.1,0.2-0.2,0.2-0.3c0,0,0.1-0.1,0.1-0.1c0,0,0.1-0.1,0.1-0.2v-9c0-0.1-0.1-0.2-0.2-0.3c-0.1-0.1-0.2-0.1-0.2-0.3
		c-0.1-0.1-0.1-0.3-0.1-0.4v-0.5h1.7c0.3,0,0.4,0.1,0.4,0.4v10.1c0,0.1,0,0.2,0,0.2C519.9,295.1,520,295.2,520,295.2z"/>
	<path fill="#FFFFFF" d="M523.7,288.3c0.4,0,0.7,0.1,1,0.2c0.3,0.1,0.6,0.3,0.8,0.5c0.2,0.2,0.4,0.4,0.5,0.7
		c0.1,0.3,0.2,0.5,0.2,0.8v3.8c0,0.7-0.2,1.2-0.7,1.6c-0.5,0.4-1.1,0.6-1.8,0.6c-0.8,0-1.4-0.2-1.9-0.6c-0.4-0.4-0.7-1-0.7-1.9v-3.2
		c0-0.8,0.2-1.4,0.7-1.8C522.3,288.5,522.9,288.3,523.7,288.3z M523.7,295.2c0.3,0,0.5-0.1,0.7-0.3c0.2-0.2,0.3-0.5,0.3-0.8v-3.3
		c0-0.5-0.1-0.8-0.3-0.9c-0.2-0.2-0.4-0.2-0.7-0.2c-0.3,0-0.5,0.1-0.7,0.2c-0.2,0.2-0.3,0.4-0.3,0.9v3.4c0,0.4,0.1,0.7,0.3,0.9
		C523.1,295.1,523.4,295.2,523.7,295.2z"/>
	<path fill="#FFFFFF" d="M529.9,288.3c0.4,0,0.7,0.1,1,0.2c0.3,0.1,0.6,0.3,0.8,0.5c0.2,0.2,0.4,0.4,0.5,0.7
		c0.1,0.3,0.2,0.5,0.2,0.8v3.8c0,0.7-0.2,1.2-0.7,1.6c-0.5,0.4-1.1,0.6-1.8,0.6c-0.8,0-1.4-0.2-1.9-0.6c-0.4-0.4-0.7-1-0.7-1.9v-3.2
		c0-0.8,0.2-1.4,0.7-1.8C528.4,288.5,529.1,288.3,529.9,288.3z M529.9,295.2c0.3,0,0.5-0.1,0.7-0.3c0.2-0.2,0.3-0.5,0.3-0.8v-3.3
		c0-0.5-0.1-0.8-0.3-0.9c-0.2-0.2-0.4-0.2-0.7-0.2c-0.3,0-0.5,0.1-0.7,0.2c-0.2,0.2-0.3,0.4-0.3,0.9v3.4c0,0.4,0.1,0.7,0.3,0.9
		C529.3,295.1,529.6,295.2,529.9,295.2z"/>
	<path fill="#FFFFFF" d="M539.2,288.4v0.5c0,0.2,0,0.4-0.1,0.5c-0.1,0.1-0.2,0.2-0.3,0.3c-0.1,0-0.1,0.1-0.1,0.1c0,0,0,0.1,0,0.2
		v8.2c0,0.8-0.2,1.4-0.7,1.8c-0.5,0.4-1.1,0.6-1.9,0.6c-0.4,0-0.7-0.1-1-0.2c-0.3-0.1-0.6-0.3-0.8-0.5c-0.2-0.2-0.4-0.4-0.5-0.7
		c-0.1-0.3-0.2-0.5-0.2-0.8v-0.9h0.7c0.6,0,0.9,0.2,0.9,0.7v0.2c0,0.3,0.1,0.5,0.2,0.6c0.2,0.1,0.4,0.2,0.7,0.2
		c0.3,0,0.6-0.1,0.8-0.2s0.3-0.4,0.3-0.9v-2.1c-0.2,0.1-0.4,0.2-0.5,0.3c-0.2,0.1-0.4,0.1-0.8,0.1c-0.8,0-1.4-0.2-1.7-0.7
		c-0.4-0.5-0.6-1.1-0.6-2v-2.9c0-0.8,0.2-1.5,0.5-1.9s0.9-0.7,1.7-0.7c0.4,0,0.7,0.1,1,0.2c0.2,0.1,0.4,0.2,0.4,0.2
		c0-0.1,0-0.1,0.1-0.2c0,0,0.1-0.1,0.1-0.1c0,0,0.1-0.1,0.2-0.1H539.2z M537.1,294.6v-4.5c-0.1-0.1-0.2-0.2-0.3-0.2
		c-0.1-0.1-0.2-0.1-0.3-0.2c-0.1,0-0.3-0.1-0.5-0.1c-0.3,0-0.5,0.1-0.7,0.3c-0.2,0.2-0.3,0.5-0.3,0.8v3.4c0,0.4,0.1,0.7,0.2,0.9
		c0.1,0.2,0.4,0.3,0.7,0.3c0.2,0,0.4,0,0.5-0.1c0.1,0,0.3-0.1,0.4-0.2c0.1-0.1,0.2-0.1,0.3-0.2V294.6z"/>
	<g>
		<path fill="#FFFFFF" d="M551.2,295.9c0.1,0,0.1,0,0.2,0c0.1,0,0.1,0.1,0.1,0.2v0.6c0,0.1,0,0.2-0.1,0.3c0,0-0.1,0.1-0.1,0.1
			c-0.4,0.1-0.7,0.1-1,0.1c-0.3-0.1-0.6-0.2-0.8-0.3c-0.2-0.1-0.4-0.3-0.5-0.6c-0.1-0.2-0.2-0.5-0.2-0.7v-5.1h-0.9V290
			c0-0.3,0.1-0.6,0.2-0.8c0.1-0.2,0.4-0.2,0.7-0.2v-2V287c0-0.4,0.1-0.6,0.2-0.8s0.3-0.3,0.5-0.4c0.2-0.1,0.5-0.2,0.8-0.2v3.4h1v0.3
			c0,0.3-0.1,0.6-0.2,0.8c-0.1,0.2-0.4,0.3-0.8,0.3v4.8c0,0.2,0.1,0.4,0.2,0.5C550.7,295.9,550.9,295.9,551.2,295.9z"/>
		<path fill="#FFFFFF" d="M553.6,293.4v1.5c0,0.4,0.1,0.7,0.3,0.8c0.2,0.1,0.5,0.2,0.8,0.2c0.3,0,0.5-0.1,0.7-0.2
			c0.2-0.2,0.3-0.4,0.3-0.6V295c0-0.2,0.1-0.5,0.2-0.6c0.1-0.2,0.4-0.3,0.6-0.3h0.7v1.1c0,0.7-0.2,1.2-0.7,1.5
			c-0.5,0.3-1.1,0.5-1.9,0.5c-0.8,0-1.4-0.2-1.9-0.6c-0.4-0.4-0.7-1-0.7-1.8v-3.2c0-0.8,0.2-1.5,0.7-1.9c0.4-0.4,1.1-0.7,1.9-0.7
			c0.8,0,1.4,0.2,1.9,0.7c0.4,0.4,0.7,1.1,0.7,1.9v1c0,0.5-0.4,0.8-1.1,0.8H553.6z M553.6,292.3h1.8h0.2v-0.8c0-0.4-0.1-0.7-0.3-0.9
			c-0.2-0.2-0.4-0.3-0.7-0.3c-0.3,0-0.5,0.1-0.7,0.3c-0.2,0.2-0.3,0.5-0.3,0.9V292.3z"/>
	</g>
	<g>
		<path fill="#FFFFFF" d="M570.5,282.1v0.5c0,0.2,0,0.4-0.1,0.5c-0.1,0.1-0.2,0.2-0.3,0.3c-0.1,0-0.1,0.1-0.1,0.1c0,0,0,0.1,0,0.2
			v8.2c0,0.8-0.2,1.4-0.7,1.8c-0.5,0.4-1.1,0.6-1.9,0.6c-0.4,0-0.7-0.1-1-0.2c-0.3-0.1-0.6-0.3-0.8-0.5s-0.4-0.4-0.5-0.7
			c-0.1-0.3-0.2-0.5-0.2-0.8v-0.9h0.7c0.6,0,0.9,0.2,0.9,0.7v0.2c0,0.3,0.1,0.5,0.2,0.6c0.2,0.1,0.4,0.2,0.7,0.2
			c0.3,0,0.6-0.1,0.8-0.2c0.2-0.1,0.3-0.4,0.3-0.9v-2.1c-0.2,0.1-0.4,0.2-0.5,0.3c-0.2,0.1-0.4,0.1-0.8,0.1c-0.8,0-1.4-0.2-1.7-0.7
			c-0.4-0.5-0.6-1.1-0.6-2v-2.9c0-0.8,0.2-1.5,0.5-1.9s0.9-0.7,1.7-0.7c0.4,0,0.7,0.1,1,0.2c0.2,0.1,0.4,0.2,0.4,0.2
			c0-0.1,0-0.1,0.1-0.2c0,0,0.1-0.1,0.1-0.1c0,0,0.1-0.1,0.2-0.1H570.5z M568.4,288.3v-4.5c-0.1-0.1-0.2-0.2-0.3-0.2
			c-0.1-0.1-0.2-0.1-0.3-0.2c-0.1,0-0.3-0.1-0.5-0.1c-0.3,0-0.5,0.1-0.7,0.3c-0.2,0.2-0.3,0.5-0.3,0.8v3.4c0,0.4,0.1,0.7,0.2,0.9
			c0.1,0.2,0.4,0.3,0.7,0.3c0.2,0,0.4,0,0.5-0.1c0.1,0,0.3-0.1,0.4-0.2c0.1-0.1,0.2-0.1,0.3-0.2V288.3z"/>
		<path fill="#FFFFFF" d="M572.8,286.4v1.5c0,0.4,0.1,0.7,0.3,0.8c0.2,0.1,0.5,0.2,0.8,0.2c0.3,0,0.5-0.1,0.7-0.2
			c0.2-0.2,0.3-0.4,0.3-0.6V288c0-0.2,0.1-0.5,0.2-0.6c0.1-0.2,0.4-0.3,0.6-0.3h0.7v1.1c0,0.7-0.2,1.2-0.7,1.5
			c-0.5,0.3-1.1,0.5-1.9,0.5c-0.8,0-1.4-0.2-1.9-0.6c-0.4-0.4-0.7-1-0.7-1.8v-3.2c0-0.8,0.2-1.5,0.7-1.9c0.4-0.4,1.1-0.7,1.9-0.7
			c0.8,0,1.4,0.2,1.9,0.7c0.4,0.4,0.7,1.1,0.7,1.9v1c0,0.5-0.4,0.8-1.1,0.8H572.8z M572.8,285.3h1.8h0.2v-0.8c0-0.4-0.1-0.7-0.3-0.9
			c-0.2-0.2-0.4-0.3-0.7-0.3c-0.3,0-0.5,0.1-0.7,0.3c-0.2,0.2-0.3,0.5-0.3,0.9V285.3z"/>
		<path fill="#FFFFFF" d="M583,288.9c0.1,0.1,0.2,0.2,0.2,0.3c0.1,0.1,0.1,0.3,0.1,0.5v0.5H582c-0.3,0-0.5-0.1-0.6-0.3
			c-0.1-0.2-0.2-0.4-0.2-0.7v-4.6c0-0.4-0.1-0.7-0.3-0.9s-0.4-0.3-0.7-0.3c-0.2,0-0.3,0-0.5,0.1c-0.1,0-0.2,0.1-0.3,0.2
			c-0.1,0.1-0.2,0.1-0.3,0.2v4.8c0,0.1,0,0.2,0,0.2c0,0,0.1,0.1,0.1,0.1c0.1,0.1,0.2,0.2,0.2,0.3c0.1,0.1,0.1,0.3,0.1,0.5v0.5h-2.6
			v-0.5c0-0.2,0-0.4,0.1-0.5c0.1-0.1,0.2-0.2,0.2-0.3c0.1,0,0.1-0.1,0.1-0.1c0,0,0-0.1,0-0.2v-4.9c0-0.1,0-0.1-0.1-0.2
			c0,0-0.1-0.1-0.1-0.1c-0.1-0.1-0.2-0.1-0.2-0.3c-0.1-0.1-0.1-0.3-0.1-0.4v-0.5h1.7c0.1,0,0.1,0,0.2,0.1c0,0,0.1,0.1,0.1,0.1
			c0,0,0,0.1,0,0.2c0.1-0.1,0.2-0.1,0.4-0.2c0.1-0.1,0.3-0.1,0.4-0.1c0.2,0,0.4-0.1,0.6-0.1c0.8,0,1.4,0.2,1.7,0.6s0.5,1.1,0.5,1.9
			v4c0,0.1,0,0.2,0,0.2C582.9,288.8,582.9,288.8,583,288.9z"/>
	</g>
	<g>
		<path fill="#FFFFFF" d="M593.5,285.4c0.2,0,0.4,0,0.5,0c0.1,0,0.2,0.1,0.2,0.2v1c0,0.1-0.1,0.1-0.2,0.2c-0.1,0-0.3,0.1-0.5,0.1
			s-0.3,0.1-0.3,0.4c0,0.3,0.2,0.5,0.6,0.9c0.1,0.1,0.2,0.2,0.2,0.2c0,0,0,0.1-0.1,0.2c-0.1,0.1-0.1,0.1-0.2,0.1c0,0-0.1,0-0.2-0.1
			c-0.2-0.2-0.3-0.3-0.4-0.4c-0.1-0.1-0.2-0.2-0.2-0.3c-0.1-0.1-0.1-0.2-0.1-0.3c0-0.1,0-0.3,0-0.5v-0.3v-1
			C592.7,285.4,593,285.4,593.5,285.4z"/>
		<path fill="#FFFFFF" d="M598.3,296.3c0.1,0,0.1,0,0.2,0c0.1,0,0.1,0.1,0.1,0.2v0.6c0,0.1,0,0.2-0.1,0.3c0,0-0.1,0.1-0.1,0.1
			c-0.4,0.1-0.7,0.1-1,0.1c-0.3-0.1-0.6-0.2-0.8-0.3c-0.2-0.1-0.4-0.3-0.5-0.6c-0.1-0.2-0.2-0.5-0.2-0.7v-5.1h-0.9v-0.4
			c0-0.3,0.1-0.6,0.2-0.8c0.1-0.2,0.4-0.2,0.7-0.2v-2v-0.1c0-0.4,0.1-0.6,0.2-0.8c0.2-0.2,0.3-0.3,0.5-0.4c0.2-0.1,0.5-0.2,0.8-0.2
			v3.4h1v0.3c0,0.3-0.1,0.6-0.2,0.8c-0.1,0.2-0.4,0.3-0.8,0.3v4.8c0,0.2,0.1,0.4,0.2,0.5C597.8,296.4,598,296.4,598.3,296.3z"/>
	</g>
	<g>
		<path fill="#FFFFFF" d="M611.9,300.9c0.1,0.1,0.2,0.2,0.3,0.3c0.1,0.2,0.2,0.3,0.2,0.5v0.5h-1.5c-0.1,0-0.2,0-0.3-0.1
			c-0.1-0.1-0.1-0.2-0.2-0.2c-0.1,0.1-0.2,0.2-0.3,0.2c-0.1,0.1-0.3,0.1-0.4,0.1c-0.2,0-0.3,0.1-0.5,0.1c-0.8,0-1.4-0.2-1.8-0.7
			c-0.4-0.5-0.5-1.1-0.5-1.9v0c0-0.4,0.1-0.8,0.2-1.1c0.1-0.3,0.3-0.6,0.5-0.8c0.2-0.2,0.5-0.3,0.7-0.5c0.3-0.1,0.6-0.2,0.9-0.2
			c0.3,0,0.5,0,0.6-0.1c0.2,0,0.3-0.1,0.4-0.1c0.1,0,0.2-0.1,0.2-0.1v-0.1c0-0.2,0-0.3,0-0.5c0-0.2-0.1-0.3-0.1-0.4
			c-0.1-0.1-0.2-0.2-0.3-0.3c-0.1-0.1-0.3-0.1-0.5-0.1c-0.2,0-0.4,0-0.5,0.1c-0.1,0.1-0.2,0.1-0.3,0.2c-0.1,0.1-0.1,0.2-0.1,0.3
			c0,0.1,0,0.2,0,0.3v0c0,0.1,0,0.2-0.1,0.3c-0.1,0.1-0.2,0.1-0.3,0.1c-0.1,0-0.2,0-0.4,0c-0.1,0-0.3,0-0.4,0h-0.3v-0.6
			c0-0.3,0-0.5,0.1-0.8c0.1-0.2,0.2-0.5,0.4-0.6c0.2-0.2,0.4-0.3,0.8-0.4c0.3-0.1,0.7-0.2,1.2-0.2c0.5,0,0.8,0.1,1.2,0.2
			c0.3,0.1,0.6,0.3,0.8,0.5c0.2,0.2,0.3,0.4,0.4,0.7s0.1,0.6,0.1,1v4.1c0,0.1,0,0.2,0,0.2C611.8,300.8,611.9,300.9,611.9,300.9z
			 M609.4,301c0.2,0,0.4,0,0.5-0.1c0.1-0.1,0.2-0.1,0.3-0.2c0.1-0.1,0.2-0.2,0.2-0.3v-2.3c-0.1,0-0.1,0-0.3,0.1
			c-0.1,0-0.2,0-0.3,0.1c-0.1,0-0.3,0-0.5,0.1c-0.3,0-0.6,0.2-0.8,0.4s-0.3,0.6-0.3,0.9v0.1c0,0.4,0.1,0.7,0.3,0.9
			C608.7,300.9,609,301,609.4,301z"/>
		<path fill="#FFFFFF" d="M615.7,295.4c-0.2,0-0.3,0-0.4,0.1c-0.1,0.1-0.2,0.1-0.3,0.2c-0.1,0.1-0.1,0.2-0.1,0.3c0,0.1,0,0.2,0,0.3
			v0c0,0.2,0.1,0.4,0.3,0.6s0.4,0.3,0.6,0.5c0.3,0.1,0.5,0.3,0.8,0.4c0.3,0.1,0.6,0.3,0.8,0.5s0.5,0.4,0.6,0.6
			c0.2,0.2,0.3,0.5,0.3,0.8v0.4c0,0.7-0.2,1.3-0.7,1.7c-0.4,0.4-1,0.6-1.8,0.6c-0.8,0-1.4-0.2-1.9-0.5c-0.5-0.3-0.7-0.9-0.7-1.5v-1
			h0.7c0.3,0,0.5,0,0.6,0.1c0.1,0.1,0.2,0.3,0.2,0.6v0c0,0.3,0.1,0.5,0.2,0.7c0.1,0.2,0.4,0.3,0.8,0.3s0.7-0.1,0.8-0.3
			c0.1-0.2,0.2-0.4,0.2-0.7v-0.2c0-0.2-0.1-0.3-0.2-0.5c-0.2-0.1-0.4-0.3-0.6-0.4c-0.3-0.1-0.5-0.3-0.8-0.4
			c-0.3-0.1-0.6-0.3-0.8-0.5c-0.3-0.2-0.5-0.4-0.6-0.7c-0.2-0.3-0.2-0.6-0.2-1v-0.4c0-0.6,0.2-1,0.6-1.3c0.4-0.3,1-0.4,1.6-0.4
			c0.5,0,0.9,0.1,1.2,0.2c0.3,0.1,0.6,0.3,0.8,0.4c0.2,0.2,0.3,0.4,0.4,0.7c0.1,0.3,0.1,0.5,0.1,0.8v0.8h-0.6c-0.3,0-0.5,0-0.7-0.1
			c-0.2-0.1-0.3-0.3-0.3-0.6c0-0.2-0.1-0.4-0.2-0.6C616.3,295.5,616,295.4,615.7,295.4z"/>
	</g>
	<g>
		<path fill="#FFFFFF" d="M628.3,302.7v1.4h0.9v0.5c0,0.3-0.1,0.5-0.2,0.6c-0.2,0.2-0.4,0.2-0.7,0.2v5.1c0,0.1,0,0.2,0,0.2
			c0,0,0.1,0.1,0.1,0.1c0.1,0.1,0.2,0.1,0.2,0.3c0.1,0.1,0.1,0.3,0.1,0.5v0.5h-2.6v-0.5c0-0.2,0-0.4,0.1-0.5
			c0.1-0.1,0.2-0.2,0.2-0.3c0.1,0,0.1-0.1,0.1-0.1c0,0,0-0.1,0-0.2v-5h-0.9V305c0-0.2,0.1-0.4,0.2-0.6c0.1-0.2,0.4-0.3,0.8-0.3v-1.9
			v-0.4c0-0.3,0.1-0.5,0.2-0.8c0.1-0.2,0.3-0.4,0.5-0.6c0.2-0.2,0.5-0.3,0.8-0.3c0.3-0.1,0.7,0,1,0.1c0,0,0.1,0,0.1,0
			c0,0,0.1,0.1,0.1,0.1v1c0,0.1,0,0.1,0,0.1s-0.1,0-0.1,0c-0.3-0.1-0.6-0.1-0.7,0.1c-0.2,0.1-0.2,0.3-0.2,0.6V302.7z"/>
		<path fill="#FFFFFF" d="M635,310.8c0.1,0.1,0.2,0.2,0.3,0.3c0.1,0.2,0.2,0.3,0.2,0.5v0.5h-1.5c-0.1,0-0.2,0-0.3-0.1
			c-0.1-0.1-0.1-0.2-0.2-0.2c-0.1,0.1-0.2,0.2-0.3,0.2c-0.1,0.1-0.3,0.1-0.4,0.1c-0.2,0-0.3,0.1-0.5,0.1c-0.8,0-1.4-0.2-1.8-0.7
			c-0.4-0.5-0.5-1.1-0.5-1.9v0c0-0.4,0.1-0.8,0.2-1.1s0.3-0.6,0.5-0.8c0.2-0.2,0.5-0.3,0.7-0.5s0.6-0.2,0.9-0.2c0.3,0,0.5,0,0.6-0.1
			c0.2,0,0.3-0.1,0.4-0.1c0.1,0,0.2-0.1,0.2-0.1v-0.1c0-0.2,0-0.3,0-0.5c0-0.2-0.1-0.3-0.1-0.4c-0.1-0.1-0.2-0.2-0.3-0.3
			s-0.3-0.1-0.5-0.1s-0.4,0-0.5,0.1c-0.1,0.1-0.2,0.1-0.3,0.2c-0.1,0.1-0.1,0.2-0.1,0.3c0,0.1,0,0.2,0,0.3v0c0,0.1,0,0.2-0.1,0.3
			c-0.1,0.1-0.2,0.1-0.3,0.1c-0.1,0-0.2,0-0.4,0c-0.1,0-0.3,0-0.4,0H630V306c0-0.3,0-0.5,0.1-0.8c0.1-0.2,0.2-0.5,0.4-0.6
			c0.2-0.2,0.4-0.3,0.8-0.4c0.3-0.1,0.7-0.2,1.2-0.2c0.5,0,0.8,0.1,1.2,0.2c0.3,0.1,0.6,0.3,0.8,0.5c0.2,0.2,0.3,0.4,0.4,0.7
			c0.1,0.3,0.1,0.6,0.1,1v4.1c0,0.1,0,0.2,0,0.2C635,310.7,635,310.8,635,310.8z M632.5,310.9c0.2,0,0.4,0,0.5-0.1
			c0.1-0.1,0.2-0.1,0.3-0.2c0.1-0.1,0.2-0.2,0.2-0.3V308c-0.1,0-0.1,0-0.3,0.1c-0.1,0-0.2,0-0.3,0.1s-0.3,0-0.5,0.1
			c-0.3,0-0.6,0.2-0.8,0.4s-0.3,0.6-0.3,0.9v0.1c0,0.4,0.1,0.7,0.3,0.9C631.8,310.8,632.1,310.9,632.5,310.9z"/>
		<path fill="#FFFFFF" d="M638.4,310.9c0.1,0.1,0.2,0.1,0.2,0.3c0.1,0.1,0.1,0.3,0.1,0.5v0.4h-2.6v-0.5c0-0.2,0-0.4,0.1-0.5
			c0.1-0.1,0.2-0.2,0.2-0.3c0,0,0.1-0.1,0.1-0.1c0,0,0.1-0.1,0.1-0.2v-9c0-0.1-0.1-0.2-0.2-0.3c-0.1-0.1-0.2-0.1-0.2-0.3
			c-0.1-0.1-0.1-0.3-0.1-0.4v-0.5h1.7c0.3,0,0.4,0.1,0.4,0.4v10.1c0,0.1,0,0.2,0,0.2C638.3,310.8,638.3,310.9,638.4,310.9z"/>
		<path fill="#FFFFFF" d="M642.3,310.9c0.1,0,0.1,0,0.2,0c0.1,0,0.1,0.1,0.1,0.2v0.6c0,0.1,0,0.2-0.1,0.3c0,0-0.1,0.1-0.1,0.1
			c-0.4,0.1-0.7,0.1-1,0.1c-0.3-0.1-0.6-0.2-0.8-0.3c-0.2-0.1-0.4-0.3-0.5-0.6c-0.1-0.2-0.2-0.5-0.2-0.7v-5.1h-0.9v-0.4
			c0-0.3,0.1-0.6,0.2-0.8c0.1-0.2,0.4-0.2,0.7-0.2v-2v-0.1c0-0.4,0.1-0.6,0.2-0.8c0.2-0.2,0.3-0.3,0.5-0.4c0.2-0.1,0.5-0.2,0.8-0.2
			v3.4h1v0.3c0,0.3-0.1,0.6-0.2,0.8c-0.1,0.2-0.4,0.3-0.8,0.3v4.8c0,0.2,0.1,0.4,0.2,0.5C641.8,310.9,642,311,642.3,310.9z"/>
	</g>
	<polyline fill="#1E1E1C" points="561.7,276.3 560.5,281.6 560.5,303.2 561.7,297.9 	"/>
	<polygon fill="#1E1E1C" points="620.5,287.3 622.4,295.6 622.4,317.2 620.5,308.9 	"/>
</g>
<g>
	<rect x="93.8" y="274.1" fill="#1E1E1C" width="37.7" height="21.6"/>
	<rect x="134.3" y="281.6" fill="#1E1E1C" width="32.7" height="21.6"/>
	<rect x="169.7" y="281.6" fill="#1E1E1C" width="15.8" height="21.6"/>
	<rect x="229.8" y="287.3" fill="#1E1E1C" width="15.8" height="21.6"/>
	<rect x="247.4" y="295.6" fill="#1E1E1C" width="23.4" height="21.6"/>
	<rect x="215.1" y="281.8" fill="#1E1E1C" width="12.4" height="19.6"/>
	<rect x="186.7" y="276.3" fill="#1E1E1C" width="24.3" height="21.6"/>
	<rect x="71.6" y="281.2" fill="#1E1E1C" width="19" height="19.6"/>
	<g>
		<path fill="#FFFFFF" d="M77.6,284.7c0.5,0,0.8,0.1,1.2,0.2c0.3,0.1,0.6,0.3,0.8,0.5c0.2,0.2,0.4,0.5,0.5,0.8
			c0.1,0.3,0.1,0.7,0.1,1.1v6.8c0,0.8-0.2,1.4-0.6,1.9c-0.4,0.5-1.1,0.7-2,0.7h-3.4v-0.4c0-0.2,0-0.4,0.1-0.5
			c0.1-0.1,0.1-0.2,0.3-0.3c0.1-0.1,0.2-0.2,0.2-0.3v-8.8c0-0.1,0-0.2-0.1-0.2c0-0.1-0.1-0.1-0.1-0.1c-0.1-0.1-0.2-0.1-0.2-0.3
			c-0.1-0.1-0.1-0.3-0.1-0.5v-0.5H77.6z M78.6,287.3c0-0.4-0.1-0.7-0.2-0.9c-0.2-0.2-0.4-0.3-0.7-0.3h-1.1c-0.1,0-0.1,0-0.2,0.1
			c0,0-0.1,0.1-0.1,0.2v8.9c0,0.1,0,0.1,0,0.2c0,0,0.1,0.1,0.1,0.1h1.2c0.3,0,0.6-0.1,0.7-0.3c0.2-0.2,0.2-0.5,0.2-0.9V287.3z"/>
		<path fill="#FFFFFF" d="M82.7,293.1v1.5c0,0.4,0.1,0.7,0.3,0.8c0.2,0.1,0.5,0.2,0.8,0.2c0.3,0,0.5-0.1,0.7-0.2
			c0.2-0.2,0.3-0.4,0.3-0.6v-0.1c0-0.2,0.1-0.5,0.2-0.6c0.1-0.2,0.4-0.3,0.6-0.3h0.7v1.1c0,0.7-0.2,1.2-0.7,1.5
			c-0.5,0.3-1.1,0.5-1.9,0.5c-0.8,0-1.4-0.2-1.9-0.6s-0.7-1-0.7-1.8v-3.2c0-0.8,0.2-1.5,0.7-1.9c0.4-0.4,1.1-0.7,1.9-0.7
			c0.8,0,1.4,0.2,1.9,0.7c0.4,0.4,0.7,1.1,0.7,1.9v1c0,0.5-0.4,0.8-1.1,0.8H82.7z M82.7,292h1.8h0.2v-0.8c0-0.4-0.1-0.7-0.3-0.9
			c-0.2-0.2-0.4-0.3-0.7-0.3c-0.3,0-0.5,0.1-0.7,0.3c-0.2,0.2-0.3,0.5-0.3,0.9V292z"/>
	</g>
	<g>
		<path fill="#FFFFFF" d="M101.3,281.1v0.5c0,0.2,0,0.4-0.1,0.5c-0.1,0.1-0.2,0.2-0.2,0.3c0,0-0.1,0.1-0.1,0.4c0,0.3-0.1,0.6-0.2,1
			c-0.1,0.4-0.1,0.8-0.2,1.3c-0.1,0.5-0.1,1-0.2,1.4c-0.1,0.5-0.1,0.9-0.2,1.3c-0.1,0.4-0.1,0.7-0.2,0.9c0,0.1-0.1,0.3-0.1,0.4
			c-0.1,0.1-0.2,0.1-0.3,0.1H98c-0.2,0-0.4,0-0.4-0.1c-0.1,0-0.2-0.2-0.2-0.4c0-0.1,0-0.3-0.1-0.6c-0.1-0.3-0.1-0.7-0.2-1.1
			c-0.1-0.4-0.2-0.9-0.2-1.4c-0.1-0.5-0.2-0.9-0.2-1.4c-0.1-0.4-0.1-0.8-0.2-1.1c0-0.3-0.1-0.5-0.1-0.5c0-0.1-0.1-0.2-0.1-0.2
			c0,0,0,0-0.1-0.1c-0.1-0.1-0.2-0.1-0.2-0.3c-0.1-0.1-0.1-0.3-0.1-0.4v-0.5h1.4c0.2,0,0.3,0,0.4,0.1c0.1,0,0.1,0.2,0.2,0.4
			c0,0,0,0.1,0,0.3c0,0.2,0.1,0.4,0.1,0.7c0,0.3,0.1,0.6,0.2,1c0.1,0.4,0.1,0.8,0.2,1.1c0.1,0.9,0.3,1.9,0.4,3.1
			c0.2-1.1,0.3-2.1,0.4-3c0.1-0.4,0.1-0.7,0.2-1.1c0.1-0.4,0.1-0.7,0.1-1c0-0.3,0.1-0.5,0.1-0.7c0-0.2,0-0.3,0.1-0.3
			c0-0.1,0.1-0.2,0.1-0.3c0-0.1,0-0.1,0.1-0.2c0-0.1,0.1-0.1,0.1-0.1c0.1,0,0.2,0,0.3,0H101.3z"/>
		<path fill="#FFFFFF" d="M106.5,282.6c-0.1,0-0.2,0-0.2,0c-0.3-0.1-0.5-0.1-0.8,0c-0.2,0-0.5,0.1-0.7,0.2c-0.2,0.1-0.3,0.2-0.5,0.4
			c-0.1,0.2-0.2,0.3-0.2,0.5v4c0,0.1,0,0.2,0,0.2c0,0,0.1,0.1,0.1,0.1c0.1,0.1,0.2,0.1,0.2,0.3c0.1,0.1,0.1,0.3,0.1,0.5l0,0.4h-2.6
			v-0.5c0-0.2,0-0.4,0.1-0.5c0.1-0.1,0.2-0.2,0.3-0.3c0.1,0,0.1-0.1,0.1-0.1c0,0,0-0.1,0-0.2v-4.9c0-0.1-0.1-0.2-0.2-0.3
			c-0.1-0.1-0.2-0.1-0.2-0.3c-0.1-0.1-0.1-0.3-0.1-0.4v-0.5h1.7c0.3,0,0.4,0.1,0.4,0.4v0.2c0.1-0.1,0.3-0.2,0.4-0.3
			c0.1-0.1,0.3-0.1,0.5-0.2s0.3-0.1,0.5-0.1c0.2,0,0.4,0,0.7,0c0.1,0,0.1,0,0.2,0.1c0.1,0.1,0.1,0.1,0.1,0.3v0.9
			C106.6,282.5,106.6,282.5,106.5,282.6z"/>
		<path fill="#FFFFFF" d="M109.8,281.1c0.4,0,0.7,0.1,1,0.2c0.3,0.1,0.6,0.3,0.8,0.5c0.2,0.2,0.4,0.4,0.5,0.7
			c0.1,0.3,0.2,0.5,0.2,0.8v3.8c0,0.7-0.2,1.2-0.7,1.6c-0.5,0.4-1.1,0.6-1.8,0.6c-0.8,0-1.4-0.2-1.9-0.6s-0.7-1-0.7-1.9v-3.2
			c0-0.8,0.2-1.4,0.7-1.8C108.3,281.3,109,281.1,109.8,281.1z M109.8,287.9c0.3,0,0.5-0.1,0.7-0.3c0.2-0.2,0.3-0.5,0.3-0.8v-3.3
			c0-0.5-0.1-0.8-0.3-0.9c-0.2-0.2-0.4-0.2-0.7-0.2c-0.3,0-0.5,0.1-0.7,0.2c-0.2,0.2-0.3,0.4-0.3,0.9v3.4c0,0.4,0.1,0.7,0.3,0.9
			S109.5,287.9,109.8,287.9z"/>
		<path fill="#FFFFFF" d="M118.8,287.9c0.1,0.1,0.2,0.2,0.2,0.3c0.1,0.1,0.1,0.3,0.1,0.5v0.5h-1.3c-0.2,0-0.3,0-0.4-0.1
			c-0.1,0-0.1-0.1-0.2-0.2c-0.2,0.1-0.3,0.3-0.5,0.3c-0.2,0.1-0.4,0.1-0.6,0.1c-0.8,0-1.4-0.2-1.9-0.6c-0.5-0.4-0.7-1-0.7-1.9v-4
			c0-0.1,0-0.2-0.1-0.2c0-0.1-0.1-0.1-0.1-0.1c-0.1-0.1-0.2-0.2-0.2-0.3c-0.1-0.1-0.1-0.3-0.1-0.5v-0.5h1.5c0.2,0,0.3,0,0.4,0.1
			c0.1,0.1,0.1,0.2,0.1,0.4v5.1c0,0.4,0.1,0.7,0.3,0.9c0.2,0.2,0.4,0.3,0.7,0.3c0.2,0,0.4,0,0.5-0.1c0.1,0,0.2-0.1,0.3-0.2
			c0.1-0.1,0.1-0.1,0.2-0.2v-4.9c0-0.1,0-0.2-0.1-0.2c0-0.1-0.1-0.1-0.1-0.1c-0.1-0.1-0.2-0.2-0.2-0.3c-0.1-0.1-0.1-0.3-0.1-0.5
			v-0.5h1.5c0.2,0,0.3,0.1,0.4,0.2c0.1,0.1,0.1,0.2,0.1,0.3v5.4v-1.6v0.1v2.1c0,0.1,0,0.2,0,0.2
			C118.7,287.8,118.7,287.9,118.8,287.9z"/>
		<path fill="#FFFFFF" d="M129.4,281.1v0.5c0,0.2,0,0.4-0.1,0.5c-0.1,0.1-0.1,0.2-0.2,0.3c-0.1,0.1-0.1,0.2-0.2,0.3
			c0,0.1,0,0.2-0.1,0.4c0,0.2-0.1,0.4-0.1,0.7c-0.1,0.3-0.1,0.6-0.2,1c-0.1,0.3-0.1,0.7-0.2,1c-0.1,0.8-0.3,1.7-0.5,2.8
			c-0.1,0.4-0.3,0.6-0.5,0.6H126c-0.2,0-0.3-0.1-0.4-0.2c-0.1-0.1-0.2-0.2-0.2-0.4l-0.8-4.1l-0.9,4.1c-0.1,0.2-0.1,0.4-0.2,0.4
			c-0.1,0.1-0.2,0.1-0.3,0.1h-1.3c-0.2,0-0.4-0.1-0.5-0.2c-0.1-0.1-0.2-0.3-0.2-0.4c0-0.1,0-0.2-0.1-0.4c0-0.2-0.1-0.4-0.1-0.7
			s-0.1-0.6-0.2-0.9c-0.1-0.3-0.1-0.7-0.2-1c-0.1-0.8-0.3-1.7-0.5-2.7c0-0.2-0.1-0.3-0.2-0.4c-0.1-0.1-0.2-0.1-0.2-0.3
			c-0.1-0.1-0.1-0.3-0.1-0.4v-0.5h1.2c0.2,0,0.3,0,0.4,0.1c0.1,0.1,0.2,0.2,0.2,0.4c0,0,0,0.1,0,0.3c0,0.2,0.1,0.4,0.1,0.7
			c0,0.3,0.1,0.6,0.2,1c0.1,0.4,0.1,0.7,0.2,1.1c0.1,0.9,0.3,1.8,0.5,2.9c0.2-1.1,0.4-2.1,0.6-2.9c0.1-0.4,0.2-0.7,0.2-1.1
			c0.1-0.4,0.2-0.7,0.2-1c0.1-0.3,0.1-0.5,0.2-0.7c0-0.2,0.1-0.3,0.1-0.4c0.1-0.2,0.1-0.3,0.3-0.4c0.1-0.1,0.3-0.1,0.4-0.1
			c0.2,0,0.3,0,0.4,0.1c0.1,0,0.2,0.2,0.3,0.4c0,0,0,0.1,0.1,0.3c0,0.2,0.1,0.4,0.2,0.7c0.1,0.3,0.1,0.6,0.2,1s0.2,0.7,0.2,1.1
			c0.2,0.9,0.4,1.9,0.6,2.9c0.2-1,0.4-2,0.5-2.8c0.1-0.4,0.1-0.7,0.2-1.1c0.1-0.4,0.1-0.7,0.2-1c0.1-0.3,0.1-0.5,0.1-0.7
			c0-0.2,0.1-0.3,0.1-0.4c0-0.2,0.1-0.4,0.2-0.5c0.1-0.1,0.3-0.1,0.4-0.1H129.4z"/>
	</g>
	<path fill="#FFFFFF" d="M142.2,288.4v0.5c0,0.2,0,0.4-0.1,0.5c-0.1,0.1-0.2,0.2-0.2,0.3c0,0-0.1,0.1-0.1,0.4c0,0.3-0.1,0.6-0.2,1
		c-0.1,0.4-0.1,0.8-0.2,1.3c-0.1,0.5-0.1,1-0.2,1.4c-0.1,0.5-0.1,0.9-0.2,1.3c-0.1,0.4-0.1,0.7-0.2,0.9c0,0.1-0.1,0.3-0.1,0.4
		c-0.1,0.1-0.2,0.1-0.3,0.1h-1.5c-0.2,0-0.4,0-0.4-0.1c-0.1,0-0.2-0.2-0.2-0.4c0-0.1,0-0.3-0.1-0.6c-0.1-0.3-0.1-0.7-0.2-1.1
		c-0.1-0.4-0.2-0.9-0.2-1.4c-0.1-0.5-0.2-0.9-0.2-1.4c-0.1-0.4-0.1-0.8-0.2-1.1c0-0.3-0.1-0.5-0.1-0.5c0-0.1-0.1-0.2-0.1-0.2
		c0,0,0,0-0.1-0.1c-0.1-0.1-0.2-0.1-0.2-0.3c-0.1-0.1-0.1-0.3-0.1-0.4v-0.5h1.4c0.2,0,0.3,0,0.4,0.1c0.1,0,0.1,0.2,0.2,0.4
		c0,0,0,0.1,0,0.3c0,0.2,0.1,0.4,0.1,0.7c0,0.3,0.1,0.6,0.2,1c0.1,0.4,0.1,0.8,0.2,1.1c0.1,0.9,0.3,1.9,0.4,3.1
		c0.2-1.1,0.3-2.1,0.4-3c0.1-0.4,0.1-0.7,0.2-1.1c0.1-0.4,0.1-0.7,0.1-1c0-0.3,0.1-0.5,0.1-0.7c0-0.2,0-0.3,0.1-0.3
		c0-0.1,0.1-0.2,0.1-0.3c0-0.1,0-0.1,0.1-0.2c0-0.1,0.1-0.1,0.1-0.1c0.1,0,0.2,0,0.3,0H142.2z"/>
	<path fill="#FFFFFF" d="M145,295.2c0.1,0.1,0.2,0.1,0.2,0.3c0.1,0.1,0.1,0.3,0.1,0.5v0.4h-2.6v-0.5c0-0.2,0-0.4,0.1-0.5
		c0.1-0.1,0.2-0.2,0.2-0.3c0,0,0.1-0.1,0.1-0.1c0,0,0.1-0.1,0.1-0.2v-9c0-0.1-0.1-0.2-0.2-0.3c-0.1-0.1-0.2-0.1-0.2-0.3
		c-0.1-0.1-0.1-0.3-0.1-0.4v-0.5h1.7c0.3,0,0.4,0.1,0.4,0.4v10.1c0,0.1,0,0.2,0,0.2C144.9,295.1,145,295.2,145,295.2z"/>
	<path fill="#FFFFFF" d="M148.7,288.3c0.4,0,0.7,0.1,1,0.2c0.3,0.1,0.6,0.3,0.8,0.5c0.2,0.2,0.4,0.4,0.5,0.7
		c0.1,0.3,0.2,0.5,0.2,0.8v3.8c0,0.7-0.2,1.2-0.7,1.6c-0.5,0.4-1.1,0.6-1.8,0.6c-0.8,0-1.4-0.2-1.9-0.6c-0.4-0.4-0.7-1-0.7-1.9v-3.2
		c0-0.8,0.2-1.4,0.7-1.8C147.3,288.5,147.9,288.3,148.7,288.3z M148.7,295.2c0.3,0,0.5-0.1,0.7-0.3c0.2-0.2,0.3-0.5,0.3-0.8v-3.3
		c0-0.5-0.1-0.8-0.3-0.9c-0.2-0.2-0.4-0.2-0.7-0.2c-0.3,0-0.5,0.1-0.7,0.2c-0.2,0.2-0.3,0.4-0.3,0.9v3.4c0,0.4,0.1,0.7,0.3,0.9
		C148.1,295.1,148.4,295.2,148.7,295.2z"/>
	<path fill="#FFFFFF" d="M154.9,288.3c0.4,0,0.7,0.1,1,0.2c0.3,0.1,0.6,0.3,0.8,0.5c0.2,0.2,0.4,0.4,0.5,0.7
		c0.1,0.3,0.2,0.5,0.2,0.8v3.8c0,0.7-0.2,1.2-0.7,1.6c-0.5,0.4-1.1,0.6-1.8,0.6c-0.8,0-1.4-0.2-1.9-0.6c-0.4-0.4-0.7-1-0.7-1.9v-3.2
		c0-0.8,0.2-1.4,0.7-1.8C153.4,288.5,154.1,288.3,154.9,288.3z M154.9,295.2c0.3,0,0.5-0.1,0.7-0.3c0.2-0.2,0.3-0.5,0.3-0.8v-3.3
		c0-0.5-0.1-0.8-0.3-0.9c-0.2-0.2-0.4-0.2-0.7-0.2c-0.3,0-0.5,0.1-0.7,0.2c-0.2,0.2-0.3,0.4-0.3,0.9v3.4c0,0.4,0.1,0.7,0.3,0.9
		C154.3,295.1,154.6,295.2,154.9,295.2z"/>
	<path fill="#FFFFFF" d="M164.2,288.4v0.5c0,0.2,0,0.4-0.1,0.5c-0.1,0.1-0.2,0.2-0.3,0.3c-0.1,0-0.1,0.1-0.1,0.1c0,0,0,0.1,0,0.2
		v8.2c0,0.8-0.2,1.4-0.7,1.8c-0.5,0.4-1.1,0.6-1.9,0.6c-0.4,0-0.7-0.1-1-0.2c-0.3-0.1-0.6-0.3-0.8-0.5c-0.2-0.2-0.4-0.4-0.5-0.7
		c-0.1-0.3-0.2-0.5-0.2-0.8v-0.9h0.7c0.6,0,0.9,0.2,0.9,0.7v0.2c0,0.3,0.1,0.5,0.2,0.6c0.2,0.1,0.4,0.2,0.7,0.2
		c0.3,0,0.6-0.1,0.8-0.2c0.2-0.1,0.3-0.4,0.3-0.9v-2.1c-0.2,0.1-0.4,0.2-0.5,0.3c-0.2,0.1-0.4,0.1-0.8,0.1c-0.8,0-1.4-0.2-1.7-0.7
		c-0.4-0.5-0.6-1.1-0.6-2v-2.9c0-0.8,0.2-1.5,0.5-1.9c0.3-0.4,0.9-0.7,1.7-0.7c0.4,0,0.7,0.1,1,0.2c0.2,0.1,0.4,0.2,0.4,0.2
		c0-0.1,0-0.1,0.1-0.2c0,0,0.1-0.1,0.1-0.1c0,0,0.1-0.1,0.2-0.1H164.2z M162.1,294.6v-4.5c-0.1-0.1-0.2-0.2-0.3-0.2
		c-0.1-0.1-0.2-0.1-0.3-0.2c-0.1,0-0.3-0.1-0.5-0.1c-0.3,0-0.5,0.1-0.7,0.3c-0.2,0.2-0.3,0.5-0.3,0.8v3.4c0,0.4,0.1,0.7,0.2,0.9
		c0.1,0.2,0.4,0.3,0.7,0.3c0.2,0,0.4,0,0.5-0.1c0.1,0,0.3-0.1,0.4-0.2c0.1-0.1,0.2-0.1,0.3-0.2V294.6z"/>
	<g>
		<path fill="#FFFFFF" d="M176.2,295.9c0.1,0,0.1,0,0.2,0c0.1,0,0.1,0.1,0.1,0.2v0.6c0,0.1,0,0.2-0.1,0.3c0,0-0.1,0.1-0.1,0.1
			c-0.4,0.1-0.7,0.1-1,0.1c-0.3-0.1-0.6-0.2-0.8-0.3c-0.2-0.1-0.4-0.3-0.5-0.6c-0.1-0.2-0.2-0.5-0.2-0.7v-5.1h-0.9V290
			c0-0.3,0.1-0.6,0.2-0.8c0.1-0.2,0.4-0.2,0.7-0.2v-2V287c0-0.4,0.1-0.6,0.2-0.8c0.2-0.2,0.3-0.3,0.5-0.4c0.2-0.1,0.5-0.2,0.8-0.2
			v3.4h1v0.3c0,0.3-0.1,0.6-0.2,0.8c-0.1,0.2-0.4,0.3-0.8,0.3v4.8c0,0.2,0.1,0.4,0.2,0.5C175.7,295.9,175.9,295.9,176.2,295.9z"/>
		<path fill="#FFFFFF" d="M178.6,293.4v1.5c0,0.4,0.1,0.7,0.3,0.8c0.2,0.1,0.5,0.2,0.8,0.2c0.3,0,0.5-0.1,0.7-0.2
			c0.2-0.2,0.3-0.4,0.3-0.6V295c0-0.2,0.1-0.5,0.2-0.6c0.1-0.2,0.4-0.3,0.6-0.3h0.7v1.1c0,0.7-0.2,1.2-0.7,1.5
			c-0.5,0.3-1.1,0.5-1.9,0.5c-0.8,0-1.4-0.2-1.9-0.6c-0.4-0.4-0.7-1-0.7-1.8v-3.2c0-0.8,0.2-1.5,0.7-1.9c0.4-0.4,1.1-0.7,1.9-0.7
			c0.8,0,1.4,0.2,1.9,0.7c0.4,0.4,0.7,1.1,0.7,1.9v1c0,0.5-0.4,0.8-1.1,0.8H178.6z M178.6,292.3h1.8h0.2v-0.8c0-0.4-0.1-0.7-0.3-0.9
			c-0.2-0.2-0.4-0.3-0.7-0.3c-0.3,0-0.5,0.1-0.7,0.3c-0.2,0.2-0.3,0.5-0.3,0.9V292.3z"/>
	</g>
	<g>
		<path fill="#FFFFFF" d="M195.5,282.1v0.5c0,0.2,0,0.4-0.1,0.5c-0.1,0.1-0.2,0.2-0.3,0.3c-0.1,0-0.1,0.1-0.1,0.1c0,0,0,0.1,0,0.2
			v8.2c0,0.8-0.2,1.4-0.7,1.8c-0.5,0.4-1.1,0.6-1.9,0.6c-0.4,0-0.7-0.1-1-0.2c-0.3-0.1-0.6-0.3-0.8-0.5c-0.2-0.2-0.4-0.4-0.5-0.7
			c-0.1-0.3-0.2-0.5-0.2-0.8v-0.9h0.7c0.6,0,0.9,0.2,0.9,0.7v0.2c0,0.3,0.1,0.5,0.2,0.6c0.2,0.1,0.4,0.2,0.7,0.2
			c0.3,0,0.6-0.1,0.8-0.2c0.2-0.1,0.3-0.4,0.3-0.9v-2.1c-0.2,0.1-0.4,0.2-0.5,0.3c-0.2,0.1-0.4,0.1-0.8,0.1c-0.8,0-1.4-0.2-1.7-0.7
			c-0.4-0.5-0.6-1.1-0.6-2v-2.9c0-0.8,0.2-1.5,0.5-1.9c0.3-0.4,0.9-0.7,1.7-0.7c0.4,0,0.7,0.1,1,0.2c0.2,0.1,0.4,0.2,0.4,0.2
			c0-0.1,0-0.1,0.1-0.2c0,0,0.1-0.1,0.1-0.1c0,0,0.1-0.1,0.2-0.1H195.5z M193.4,288.3v-4.5c-0.1-0.1-0.2-0.2-0.3-0.2
			c-0.1-0.1-0.2-0.1-0.3-0.2c-0.1,0-0.3-0.1-0.5-0.1c-0.3,0-0.5,0.1-0.7,0.3c-0.2,0.2-0.3,0.5-0.3,0.8v3.4c0,0.4,0.1,0.7,0.2,0.9
			c0.1,0.2,0.4,0.3,0.7,0.3c0.2,0,0.4,0,0.5-0.1c0.1,0,0.3-0.1,0.4-0.2c0.1-0.1,0.2-0.1,0.3-0.2V288.3z"/>
		<path fill="#FFFFFF" d="M197.8,286.4v1.5c0,0.4,0.1,0.7,0.3,0.8c0.2,0.1,0.5,0.2,0.8,0.2c0.3,0,0.5-0.1,0.7-0.2
			c0.2-0.2,0.3-0.4,0.3-0.6V288c0-0.2,0.1-0.5,0.2-0.6c0.1-0.2,0.4-0.3,0.6-0.3h0.7v1.1c0,0.7-0.2,1.2-0.7,1.5
			c-0.5,0.3-1.1,0.5-1.9,0.5c-0.8,0-1.4-0.2-1.9-0.6c-0.4-0.4-0.7-1-0.7-1.8v-3.2c0-0.8,0.2-1.5,0.7-1.9c0.4-0.4,1.1-0.7,1.9-0.7
			c0.8,0,1.4,0.2,1.9,0.7c0.4,0.4,0.7,1.1,0.7,1.9v1c0,0.5-0.4,0.8-1.1,0.8H197.8z M197.8,285.3h1.8h0.2v-0.8c0-0.4-0.1-0.7-0.3-0.9
			c-0.2-0.2-0.4-0.3-0.7-0.3c-0.3,0-0.5,0.1-0.7,0.3c-0.2,0.2-0.3,0.5-0.3,0.9V285.3z"/>
		<path fill="#FFFFFF" d="M208,288.9c0.1,0.1,0.2,0.2,0.2,0.3c0.1,0.1,0.1,0.3,0.1,0.5v0.5H207c-0.3,0-0.5-0.1-0.6-0.3
			c-0.1-0.2-0.2-0.4-0.2-0.7v-4.6c0-0.4-0.1-0.7-0.3-0.9s-0.4-0.3-0.7-0.3c-0.2,0-0.3,0-0.5,0.1c-0.1,0-0.2,0.1-0.3,0.2
			c-0.1,0.1-0.2,0.1-0.3,0.2v4.8c0,0.1,0,0.2,0,0.2c0,0,0.1,0.1,0.1,0.1c0.1,0.1,0.2,0.2,0.2,0.3c0.1,0.1,0.1,0.3,0.1,0.5v0.5h-2.6
			v-0.5c0-0.2,0-0.4,0.1-0.5c0.1-0.1,0.2-0.2,0.2-0.3c0.1,0,0.1-0.1,0.1-0.1c0,0,0-0.1,0-0.2v-4.9c0-0.1,0-0.1-0.1-0.2
			c0,0-0.1-0.1-0.1-0.1c-0.1-0.1-0.2-0.1-0.2-0.3c-0.1-0.1-0.1-0.3-0.1-0.4v-0.5h1.7c0.1,0,0.1,0,0.2,0.1c0,0,0.1,0.1,0.1,0.1
			c0,0,0,0.1,0,0.2c0.1-0.1,0.2-0.1,0.4-0.2c0.1-0.1,0.3-0.1,0.4-0.1c0.2,0,0.4-0.1,0.6-0.1c0.8,0,1.4,0.2,1.7,0.6s0.5,1.1,0.5,1.9
			v4c0,0.1,0,0.2,0,0.2C207.9,288.8,207.9,288.8,208,288.9z"/>
	</g>
	<g>
		<path fill="#FFFFFF" d="M218.5,285.4c0.2,0,0.4,0,0.5,0c0.1,0,0.2,0.1,0.2,0.2v1c0,0.1-0.1,0.1-0.2,0.2c-0.1,0-0.3,0.1-0.5,0.1
			c-0.2,0-0.3,0.1-0.3,0.4c0,0.3,0.2,0.5,0.6,0.9c0.1,0.1,0.2,0.2,0.2,0.2c0,0,0,0.1-0.1,0.2c-0.1,0.1-0.1,0.1-0.2,0.1
			c0,0-0.1,0-0.2-0.1c-0.2-0.2-0.3-0.3-0.4-0.4c-0.1-0.1-0.2-0.2-0.2-0.3c-0.1-0.1-0.1-0.2-0.1-0.3c0-0.1,0-0.3,0-0.5v-0.3v-1
			C217.7,285.4,218,285.4,218.5,285.4z"/>
		<path fill="#FFFFFF" d="M223.3,296.3c0.1,0,0.1,0,0.2,0c0.1,0,0.1,0.1,0.1,0.2v0.6c0,0.1,0,0.2-0.1,0.3c0,0-0.1,0.1-0.1,0.1
			c-0.4,0.1-0.7,0.1-1,0.1c-0.3-0.1-0.6-0.2-0.8-0.3c-0.2-0.1-0.4-0.3-0.5-0.6c-0.1-0.2-0.2-0.5-0.2-0.7v-5.1h-0.9v-0.4
			c0-0.3,0.1-0.6,0.2-0.8c0.1-0.2,0.4-0.2,0.7-0.2v-2v-0.1c0-0.4,0.1-0.6,0.2-0.8c0.2-0.2,0.3-0.3,0.5-0.4c0.2-0.1,0.5-0.2,0.8-0.2
			v3.4h1v0.3c0,0.3-0.1,0.6-0.2,0.8c-0.1,0.2-0.4,0.3-0.8,0.3v4.8c0,0.2,0.1,0.4,0.2,0.5C222.8,296.4,223,296.4,223.3,296.3z"/>
	</g>
	<g>
		<path fill="#FFFFFF" d="M236.9,300.9c0.1,0.1,0.2,0.2,0.3,0.3c0.1,0.2,0.2,0.3,0.2,0.5v0.5h-1.5c-0.1,0-0.2,0-0.3-0.1
			c-0.1-0.1-0.1-0.2-0.2-0.2c-0.1,0.1-0.2,0.2-0.3,0.2c-0.1,0.1-0.3,0.1-0.4,0.1c-0.2,0-0.3,0.1-0.5,0.1c-0.8,0-1.4-0.2-1.8-0.7
			c-0.4-0.5-0.5-1.1-0.5-1.9v0c0-0.4,0.1-0.8,0.2-1.1c0.1-0.3,0.3-0.6,0.5-0.8c0.2-0.2,0.5-0.3,0.7-0.5c0.3-0.1,0.6-0.2,0.9-0.2
			c0.3,0,0.5,0,0.6-0.1c0.2,0,0.3-0.1,0.4-0.1c0.1,0,0.2-0.1,0.2-0.1v-0.1c0-0.2,0-0.3,0-0.5c0-0.2-0.1-0.3-0.1-0.4
			c-0.1-0.1-0.2-0.2-0.3-0.3c-0.1-0.1-0.3-0.1-0.5-0.1c-0.2,0-0.4,0-0.5,0.1c-0.1,0.1-0.2,0.1-0.3,0.2c-0.1,0.1-0.1,0.2-0.1,0.3
			c0,0.1,0,0.2,0,0.3v0c0,0.1,0,0.2-0.1,0.3c-0.1,0.1-0.2,0.1-0.3,0.1c-0.1,0-0.2,0-0.4,0c-0.1,0-0.3,0-0.4,0h-0.3v-0.6
			c0-0.3,0-0.5,0.1-0.8c0.1-0.2,0.2-0.5,0.4-0.6c0.2-0.2,0.4-0.3,0.8-0.4c0.3-0.1,0.7-0.2,1.2-0.2c0.5,0,0.8,0.1,1.2,0.2
			c0.3,0.1,0.6,0.3,0.8,0.5c0.2,0.2,0.3,0.4,0.4,0.7s0.1,0.6,0.1,1v4.1c0,0.1,0,0.2,0,0.2C236.8,300.8,236.9,300.9,236.9,300.9z
			 M234.4,301c0.2,0,0.4,0,0.5-0.1c0.1-0.1,0.2-0.1,0.3-0.2c0.1-0.1,0.2-0.2,0.2-0.3v-2.3c-0.1,0-0.1,0-0.3,0.1
			c-0.1,0-0.2,0-0.3,0.1s-0.3,0-0.5,0.1c-0.3,0-0.6,0.2-0.8,0.4c-0.2,0.3-0.3,0.6-0.3,0.9v0.1c0,0.4,0.1,0.7,0.3,0.9
			C233.7,300.9,234,301,234.4,301z"/>
		<path fill="#FFFFFF" d="M240.7,295.4c-0.2,0-0.3,0-0.4,0.1c-0.1,0.1-0.2,0.1-0.3,0.2s-0.1,0.2-0.1,0.3c0,0.1,0,0.2,0,0.3v0
			c0,0.2,0.1,0.4,0.3,0.6s0.4,0.3,0.6,0.5c0.3,0.1,0.5,0.3,0.8,0.4c0.3,0.1,0.6,0.3,0.8,0.5s0.5,0.4,0.6,0.6
			c0.2,0.2,0.3,0.5,0.3,0.8v0.4c0,0.7-0.2,1.3-0.7,1.7c-0.4,0.4-1,0.6-1.8,0.6c-0.8,0-1.4-0.2-1.9-0.5c-0.5-0.3-0.7-0.9-0.7-1.5v-1
			h0.7c0.3,0,0.5,0,0.6,0.1c0.1,0.1,0.2,0.3,0.2,0.6v0c0,0.3,0.1,0.5,0.2,0.7c0.1,0.2,0.4,0.3,0.8,0.3s0.7-0.1,0.8-0.3
			c0.1-0.2,0.2-0.4,0.2-0.7v-0.2c0-0.2-0.1-0.3-0.2-0.5c-0.2-0.1-0.4-0.3-0.6-0.4c-0.3-0.1-0.5-0.3-0.8-0.4
			c-0.3-0.1-0.6-0.3-0.8-0.5c-0.3-0.2-0.5-0.4-0.6-0.7c-0.2-0.3-0.2-0.6-0.2-1v-0.4c0-0.6,0.2-1,0.6-1.3c0.4-0.3,1-0.4,1.6-0.4
			c0.5,0,0.9,0.1,1.2,0.2c0.3,0.1,0.6,0.3,0.8,0.4c0.2,0.2,0.3,0.4,0.4,0.7c0.1,0.3,0.1,0.5,0.1,0.8v0.8h-0.6c-0.3,0-0.5,0-0.7-0.1
			c-0.2-0.1-0.3-0.3-0.3-0.6c0-0.2-0.1-0.4-0.2-0.6C241.3,295.5,241,295.4,240.7,295.4z"/>
	</g>
	<g>
		<path fill="#FFFFFF" d="M253.3,302.7v1.4h0.9v0.5c0,0.3-0.1,0.5-0.2,0.6c-0.2,0.2-0.4,0.2-0.7,0.2v5.1c0,0.1,0,0.2,0,0.2
			c0,0,0.1,0.1,0.1,0.1c0.1,0.1,0.2,0.1,0.2,0.3c0.1,0.1,0.1,0.3,0.1,0.5v0.5h-2.6v-0.5c0-0.2,0-0.4,0.1-0.5
			c0.1-0.1,0.2-0.2,0.2-0.3c0.1,0,0.1-0.1,0.1-0.1c0,0,0-0.1,0-0.2v-5h-0.9V305c0-0.2,0.1-0.4,0.2-0.6c0.1-0.2,0.4-0.3,0.8-0.3v-1.9
			v-0.4c0-0.3,0.1-0.5,0.2-0.8c0.1-0.2,0.3-0.4,0.5-0.6c0.2-0.2,0.5-0.3,0.8-0.3c0.3-0.1,0.7,0,1,0.1c0,0,0.1,0,0.1,0
			c0,0,0.1,0.1,0.1,0.1v1c0,0.1,0,0.1,0,0.1c0,0-0.1,0-0.1,0c-0.3-0.1-0.6-0.1-0.7,0.1c-0.2,0.1-0.2,0.3-0.2,0.6V302.7z"/>
		<path fill="#FFFFFF" d="M260,310.8c0.1,0.1,0.2,0.2,0.3,0.3c0.1,0.2,0.2,0.3,0.2,0.5v0.5h-1.5c-0.1,0-0.2,0-0.3-0.1
			c-0.1-0.1-0.1-0.2-0.2-0.2c-0.1,0.1-0.2,0.2-0.3,0.2c-0.1,0.1-0.3,0.1-0.4,0.1c-0.2,0-0.3,0.1-0.5,0.1c-0.8,0-1.4-0.2-1.8-0.7
			c-0.4-0.5-0.5-1.1-0.5-1.9v0c0-0.4,0.1-0.8,0.2-1.1s0.3-0.6,0.5-0.8c0.2-0.2,0.5-0.3,0.7-0.5s0.6-0.2,0.9-0.2c0.3,0,0.5,0,0.6-0.1
			c0.2,0,0.3-0.1,0.4-0.1c0.1,0,0.2-0.1,0.2-0.1v-0.1c0-0.2,0-0.3,0-0.5c0-0.2-0.1-0.3-0.1-0.4c-0.1-0.1-0.2-0.2-0.3-0.3
			s-0.3-0.1-0.5-0.1s-0.4,0-0.5,0.1c-0.1,0.1-0.2,0.1-0.3,0.2c-0.1,0.1-0.1,0.2-0.1,0.3c0,0.1,0,0.2,0,0.3v0c0,0.1,0,0.2-0.1,0.3
			c-0.1,0.1-0.2,0.1-0.3,0.1c-0.1,0-0.2,0-0.4,0c-0.1,0-0.3,0-0.4,0H255V306c0-0.3,0-0.5,0.1-0.8c0.1-0.2,0.2-0.5,0.4-0.6
			c0.2-0.2,0.4-0.3,0.8-0.4c0.3-0.1,0.7-0.2,1.2-0.2c0.5,0,0.8,0.1,1.2,0.2s0.6,0.3,0.8,0.5c0.2,0.2,0.3,0.4,0.4,0.7
			c0.1,0.3,0.1,0.6,0.1,1v4.1c0,0.1,0,0.2,0,0.2C260,310.7,260,310.8,260,310.8z M257.5,310.9c0.2,0,0.4,0,0.5-0.1
			c0.1-0.1,0.2-0.1,0.3-0.2c0.1-0.1,0.2-0.2,0.2-0.3V308c-0.1,0-0.1,0-0.3,0.1c-0.1,0-0.2,0-0.3,0.1c-0.1,0-0.3,0-0.5,0.1
			c-0.3,0-0.6,0.2-0.8,0.4c-0.2,0.3-0.3,0.6-0.3,0.9v0.1c0,0.4,0.1,0.7,0.3,0.9C256.8,310.8,257.1,310.9,257.5,310.9z"/>
		<path fill="#FFFFFF" d="M263.4,310.9c0.1,0.1,0.2,0.1,0.2,0.3c0.1,0.1,0.1,0.3,0.1,0.5v0.4h-2.6v-0.5c0-0.2,0-0.4,0.1-0.5
			c0.1-0.1,0.2-0.2,0.2-0.3c0,0,0.1-0.1,0.1-0.1c0,0,0.1-0.1,0.1-0.2v-9c0-0.1-0.1-0.2-0.2-0.3c-0.1-0.1-0.2-0.1-0.2-0.3
			c-0.1-0.1-0.1-0.3-0.1-0.4v-0.5h1.7c0.3,0,0.4,0.1,0.4,0.4v10.1c0,0.1,0,0.2,0,0.2C263.3,310.8,263.3,310.9,263.4,310.9z"/>
		<path fill="#FFFFFF" d="M267.3,310.9c0.1,0,0.1,0,0.2,0c0.1,0,0.1,0.1,0.1,0.2v0.6c0,0.1,0,0.2-0.1,0.3c0,0-0.1,0.1-0.1,0.1
			c-0.4,0.1-0.7,0.1-1,0.1c-0.3-0.1-0.6-0.2-0.8-0.3c-0.2-0.1-0.4-0.3-0.5-0.6c-0.1-0.2-0.2-0.5-0.2-0.7v-5.1h-0.9v-0.4
			c0-0.3,0.1-0.6,0.2-0.8c0.1-0.2,0.4-0.2,0.7-0.2v-2v-0.1c0-0.4,0.1-0.6,0.2-0.8s0.3-0.3,0.5-0.4c0.2-0.1,0.5-0.2,0.8-0.2v3.4h1
			v0.3c0,0.3-0.1,0.6-0.2,0.8c-0.1,0.2-0.4,0.3-0.8,0.3v4.8c0,0.2,0.1,0.4,0.2,0.5C266.8,310.9,267,311,267.3,310.9z"/>
	</g>
	<polyline fill="#1E1E1C" points="186.7,276.3 185.5,281.6 185.5,303.2 186.7,297.9 	"/>
	<polygon fill="#1E1E1C" points="245.5,287.3 247.4,295.6 247.4,317.2 245.5,308.9 	"/>
</g>
</svg>
