<?xml version="1.0" encoding="utf-8"?>
<!-- Generator: Adobe Illustrator 18.0.0, SVG Export Plug-In . SVG Version: 6.00 Build 0)  -->
<!DOCTYPE svg PUBLIC "-//W3C//DTD SVG 1.1//EN" "http://www.w3.org/Graphics/SVG/1.1/DTD/svg11.dtd">
<svg version="1.1" id="nslogo" xmlns="http://www.w3.org/2000/svg" xmlns:xlink="http://www.w3.org/1999/xlink" x="0px" y="0px"
	 viewBox="0 0 1190.6 841.9" enable-background="new 0 0 1190.6 841.9" xml:space="preserve">
<g>
	<path fill="none" d="M682.3,561.2c0.3,0,0.5,0,0.8,0h235.4l96.1-91.3H854.7l6.5,15.2L682.3,561.2z"/>
	<path fill="none" d="M842.6,492l-149.9,63.7l0,0l-12.6,5.3c0.7,0.1,1.5,0.1,2.2,0.1l178.8-76l-6.5-15.2h-0.6
		C856,479,851.3,488.3,842.6,492z"/>
	<path fill="none" d="M526.6,314.1c-0.4-1.8,0.7-3.7,2.6-4c8.2-1.2,16.6-1.9,25-2.1l-8.9-9.2l-171.5,72.9l1,2.3h37.2
		C443,342,483.2,321.2,526.6,314.1z"/>
	<path fill="none" d="M545.2,298.8l-6.3-6.5c-9.6-4.8-19.2-9.6-28.8-9.6H274.8l-91.3,91.3h191.2l-1-2.3L545.2,298.8z"/>
	<path fill="none" d="M725.5,242.5c2.6,0,4.9,1.7,5.9,4l6,14.1l5.8-2.5c9.9-4.2,21.4,0.4,25.6,10.3l44.8,105.4h0.2l-68.2-160.4
		l-113.5,48.3l0.8,0.9C661.5,249.1,693.1,242,725.5,242.5z"/>
	<path fill="#2A3982" d="M852.9,466.4c0.5,1.2,0.9,2.4,1.1,3.6h0.6l-40.8-96.1h-0.2L852.9,466.4z"/>
	
		<rect x="679.6" y="558.4" transform="matrix(0.9203 -0.3912 0.3912 0.9203 -163.7417 312.98)" fill="#273B80" width="13.7" height="0"/>
	<polygon fill="#273B80" points="669.5,565.6 680.1,561.1 680.1,561.1 	"/>
	<path fill="#E7B324" d="M854.1,470c-0.3-1.2-0.6-2.4-1.1-3.6l-39.3-92.5l-44.8-105.4c-4.2-9.9-15.7-14.6-25.6-10.3l-5.8,2.5
		l48.2,113.3l32,75.4c0,0,0,0,0,0l6.5,15.2c0.8,1.8,0.6,3.8-0.3,5.5c-0.7,1.3-1.7,2.4-3.2,3.1l-138.1,58.7L649,546l5.3,5.7
		c8.6,4.3,17.2,8.6,25.9,9.4l12.6-5.3L842.6,492C851.3,488.3,856,479,854.1,470z"/>
	<path fill="#84828F" d="M682.5,531.8l138.1-58.7c1.5-0.6,2.5-1.8,3.2-3.1h-59c-5.4,0-10.7-0.4-16.1-1.1
		c-33.9,11.2-64.7,31.2-89.1,58.5c-9.1-0.3-18.2,0-27.2,0.8l11.9,12.8l35.7-15.2L682.5,531.8z"/>
	<path fill="#84828F" d="M811.5,458.4c-21.6,0.2-42.7,3.8-62.8,10.5c5.3,0.7,10.7,1.1,16.1,1.1h59c0.8-1.7,1.1-3.6,0.3-5.5
		l-6.5-15.2C819.4,453.7,816.2,458.3,811.5,458.4z"/>
	<polygon fill="#84828F" points="679.9,525.8 644.3,540.9 649,546 682.5,531.8 	"/>
	<path fill="#E5E5E8" d="M567.8,311.5C567.8,311.5,567.8,311.5,567.8,311.5c0,0.2,0.1,0.3,0.2,0.5L567.8,311.5z"/>
	<g>
		<path fill="#E5E5E8" d="M544.3,356.2c-0.5,0.2-1,0.3-1.5,0.4c-23.1,3.8-45.2,11.6-65.6,23.1c-3.1,1.8-7.1,0.7-8.9-2.5
			c-0.3-0.6-0.5-1.3-0.6-1.9c-0.6-2.7,0.6-5.6,3.1-7c21.3-12,44.3-20.1,68.3-24.3l-12.5-29.4c-0.1-0.2,0-0.3-0.1-0.5
			c-43.4,7.1-83.6,27.9-114.6,59.8h21.3c9.8,0,19.6,1.3,29.1,3.6c9.5,2.3,18.8,5.7,27.6,10.1c11-5.5,22.4-10.1,34.4-13.7
			c3.4-1,7.1,0.9,8.1,4.4c1,3.4-0.9,7.1-4.4,8.1c-8.4,2.5-16.5,5.6-24.3,9.1c4.2,2.7,8.2,5.7,12,8.9c14.1-5.7,28.8-9.8,43.7-12.4
			L544.3,356.2z"/>
		<path fill="#E5E5E8" d="M564.7,404.1c-0.5,0.2-1,0.3-1.5,0.4c-12.5,2.1-24.9,5.4-36.8,9.8l9.7,10.4c10.9-3.8,22.2-6.8,33.7-8.8
			L564.7,404.1z"/>
		<path fill="#E5E5E8" d="M817.6,449.3l-1.2-2.8l-30.9-72.6l-48.2-113.3l-6-14.1c-1-2.4-3.3-4-5.9-4c-32.3-0.6-63.9,6.5-92.5,20.2
			c-24.4,11.7-46.7,28.1-65.2,48.8l0.2,0.5c0,0,0,0,0,0l7.4,17.5l0.5,1.1l31.4,73.8c0,0,0,0,0,0c1,2.4-1,5-3.6,4.5l-17.1-3.2
			l-8.7,13.2c0.4,0.7,0.7,1.4,0.8,2.2c0.6,3.6-1.8,6.9-5.4,7.5c-9.4,1.5-18.6,3.8-27.6,6.6l29.6,31.8c9.8-2.4,19.9-4.2,30.1-5.2
			c3.6-0.3,6.8,2.3,7.1,5.9c0.3,2.9-1.4,5.5-3.9,6.6c-0.6,0.3-1.2,0.4-1.9,0.5c-7.1,0.7-14.2,1.8-21.1,3.2l10,10.8
			c6.6-1.3,13.3-2.3,20-2.9c3.6-0.3,6.8,2.3,7.1,5.8c0.3,2.9-1.4,5.5-3.9,6.6c-0.6,0.3-1.2,0.4-1.9,0.5c-3.6,0.4-7.1,0.8-10.7,1.4
			l12.7,13.7l13.3,14.3c9-0.8,18.1-1.2,27.2-0.8c24.4-27.3,55.2-47.2,89.1-58.5c20.1-6.7,41.3-10.3,62.8-10.5
			C816.2,458.3,819.4,453.7,817.6,449.3z M598.6,450.4c-0.6,0.3-1.2,0.4-1.9,0.5c-8.6,0.8-17.2,2.3-25.6,4.2c-3.5,0.8-7-1.4-7.8-4.9
			c-0.8-3.5,1.4-7,4.9-7.8c9-2.1,18.2-3.6,27.3-4.5c3.6-0.4,6.8,2.3,7.1,5.8C602.8,446.7,601.1,449.3,598.6,450.4z M764.1,373.9
			c0.1,0.3,0.3,0.7,0.3,1c0.3,2.9-1.4,5.5-3.9,6.6c-0.6,0.2-1.2,0.4-1.9,0.5c-8.6,0.8-17.2,2.3-25.6,4.2c-3.5,0.8-7-1.4-7.8-4.9
			c-0.8-3.5,1.4-7,4.9-7.8c5-1.1,10-2.1,15-2.9c4.1-0.6,8.2-1.2,12.3-1.6C760.5,368.8,763.3,370.9,764.1,373.9z M744,326.9
			c0.3,2.9-1.4,5.5-3.9,6.6c-0.6,0.2-1.2,0.4-1.9,0.5c-10.4,1-20.8,2.9-30.9,5.6c-8.5,2.2-16.8,4.9-25,8.2c-3.3,1.4-7.1-0.2-8.5-3.6
			c-1.4-3.3,0.4-7.3,3.6-8.5c6.4-2.6,13-4.8,19.6-6.8c13-3.9,26.3-6.6,39.9-7.9C740.4,320.7,743.6,323.3,744,326.9z M726.7,297.2
			c3.6-0.3,6.8,2.3,7.1,5.8c0.3,2.9-1.4,5.5-3.9,6.6c-0.6,0.3-1.2,0.4-1.9,0.5c-4.3,0.4-8.7,1-13,1.7c-3.5,0.6-6.9-1.8-7.5-5.4
			c-0.6-3.5,1.8-6.9,5.4-7.5C717.4,298.2,722.1,297.6,726.7,297.2z M632.7,299.5c7.9-4.5,16.1-8.3,24.4-11.7
			c15.2-6.2,31-10.6,47.3-13.1c4-0.6,8-1.1,12-1.5c3.6-0.3,6.8,2.3,7.1,5.9c0.3,2.9-1.4,5.5-3.9,6.6c-0.6,0.3-1.2,0.4-1.9,0.5
			c-17.5,1.7-34.5,5.7-50.8,11.8c-9.5,3.6-18.8,7.9-27.8,13c-3.1,1.8-7.1,0.6-8.9-2.5c-0.3-0.6-0.5-1.3-0.6-1.9
			C629.1,303.7,630.2,300.9,632.7,299.5z M598.2,332.2c-2.3-2.7-2-6.9,0.7-9.2c3.1-2.6,6.3-5.2,9.5-7.6c0.5-0.4,1-0.8,1.4-1.1
			c1.2-0.9,2.6-1.2,4-1.2c2,0,3.9,0.8,5.2,2.5c2.2,2.9,1.6,7-1.3,9.1c-3.4,2.6-6.9,5.3-10.2,8.2c-0.5,0.4-1.1,0.8-1.7,1
			C603.2,335.1,600.1,334.5,598.2,332.2z M608.4,356.3c-2.3-2.7-2-6.9,0.7-9.2c20.1-17.2,42.9-30.2,67.7-38.9
			c3.1-1.1,6.2-2.1,9.4-3.1c3.4-1,7.1,0.9,8.1,4.4c1,3.4-0.8,7.1-4.4,8.1c-1,0.3-2,0.7-3,1c-25.6,8.1-48.9,21-69.3,38.4
			c-0.5,0.4-1.1,0.8-1.7,1C613.4,359.2,610.3,358.5,608.4,356.3z M625.7,382.1c-2.5,0.9-5.3,0.2-7.1-1.9c-1.6-1.9-1.9-4.4-1-6.5
			c0.4-1,0.9-1.9,1.8-2.7c10.5-8.9,21.8-16.9,33.8-23.6c3.2-1.8,7.1-0.6,8.9,2.5c1.8,3.1,0.7,7.1-2.5,8.9
			c-11.2,6.3-21.9,13.8-31.7,22.2c-0.5,0.4-1.1,0.8-1.7,1C626,382,625.8,382,625.7,382.1z M628.8,404.2c-2.3-2.7-2-6.9,0.7-9.2
			c1.6-1.4,3.2-2.7,4.8-4c24.5-19.7,52.7-33.6,83-41c9.7-2.4,19.6-4.1,29.7-5.1c3.6-0.3,6.8,2.3,7.1,5.8c0.3,2.9-1.4,5.5-3.9,6.6
			c-0.6,0.2-1.2,0.4-1.9,0.5c-6.9,0.7-13.6,1.7-20.3,3.1c-30.9,6.2-59.7,19.6-84.6,39.4c-1.8,1.5-3.6,2.9-5.4,4.5
			C635.2,407.3,631.1,406.9,628.8,404.2z M639,428.3c-2.3-2.7-2-6.9,0.7-9.2c4-3.4,8.1-6.6,12.3-9.7c16-11.7,33.4-21.1,52-28
			c3.4-1.2,7.1,0.5,8.4,3.8c1.3,3.4-0.4,7.1-3.9,8.4c-16.9,6.3-32.8,14.8-47.4,25.3c-4.4,3.2-8.8,6.6-13,10.1
			c-0.5,0.4-1.1,0.8-1.7,1C644,431.1,640.9,430.5,639,428.3z M649.2,452.2c-2.3-2.7-2-6.9,0.7-9.2c6.4-5.5,13.1-10.5,20-15.1
			c29.1-19.4,62.3-31.4,97.6-34.8c3.6-0.3,6.8,2.3,7.1,5.9c0.3,2.9-1.4,5.5-3.9,6.6c-0.6,0.2-1.2,0.4-1.9,0.5
			c-32.1,3.1-62.5,13.8-89.2,31.2c-7.3,4.8-14.4,10-21.1,15.7C655.6,455.2,651.5,454.9,649.2,452.2z M684.1,465
			c-5.3,3.7-10.6,7.7-15.5,12c-0.5,0.4-1.1,0.8-1.7,1c-2.6,1.1-5.6,0.5-7.5-1.8c-2.3-2.7-2-6.9,0.7-9.2c5.3-4.5,10.8-8.8,16.5-12.7
			c2.9-2.1,7-1.3,9.1,1.6C687.8,458.9,687,462.9,684.1,465z M780.8,429.6c-0.6,0.2-1.2,0.4-1.9,0.5c-25.6,2.5-50.2,9.8-73,21.7
			c-2.3,1.2-4.9,0.8-6.8-0.6c-0.1-0.1-0.3-0.2-0.4-0.2c-0.6-0.5-1.2-1.2-1.6-2c-1.7-3.2-0.4-7.1,2.8-8.8
			c24.4-12.7,50.5-20.5,77.8-23.1c3.6-0.3,6.8,2.3,7.1,5.8C785.1,425.8,783.4,428.5,780.8,429.6z"/>
	</g>
	<path fill="#84828F" d="M684.1,465c3-2.1,3.7-6.1,1.6-9.1c-2.1-3-6.1-3.7-9.1-1.6c-5.7,4-11.2,8.2-16.5,12.7
		c-2.7,2.3-3.1,6.4-0.7,9.2c1.9,2.2,5,2.9,7.5,1.8c0.6-0.3,1.2-0.6,1.7-1C673.5,472.7,678.7,468.7,684.1,465z"/>
	<path fill="#84828F" d="M697.1,449c1.7,3.2,5.5,4.4,8.8,2.8c22.8-11.9,47.4-19.2,73-21.7c0.7-0.1,1.3-0.2,1.9-0.5
		c2.6-1.1,4.2-3.7,3.9-6.6c-0.4-3.6-3.5-6.2-7.1-5.8c-27.3,2.7-53.5,10.5-77.8,23.1C696.7,441.9,695.4,445.8,697.1,449z"/>
	<path fill="#84828F" d="M649.2,452.2c2.3,2.7,6.4,3.1,9.2,0.7c6.7-5.7,13.8-11,21.1-15.7c-2.1-1.8-4.1-3.7-6-5.6l-3.6-3.7
		c-6.9,4.6-13.6,9.7-20,15.1C647.2,445.3,646.8,449.4,649.2,452.2z"/>
	<path fill="#84828F" d="M679.5,437.2c26.7-17.3,57.1-28,89.2-31.2c0.7-0.1,1.3-0.2,1.9-0.5c2.6-1.1,4.2-3.7,3.9-6.6
		c-0.4-3.6-3.5-6.2-7.1-5.9c-35.2,3.4-68.5,15.4-97.6,34.8l3.6,3.7C675.4,433.5,677.4,435.4,679.5,437.2z"/>
	<path fill="#84828F" d="M639,428.3c1.9,2.2,5,2.9,7.5,1.8c0.6-0.3,1.2-0.6,1.7-1c4.2-3.6,8.5-6.9,13-10.1l-9.1-9.4
		c-4.2,3.1-8.3,6.3-12.3,9.7C637,421.4,636.7,425.5,639,428.3z"/>
	<path fill="#84828F" d="M708.6,393.6c3.4-1.3,5.1-5,3.9-8.4c-1.2-3.4-5-5.1-8.4-3.8c-18.6,6.9-36.1,16.3-52,28l9.1,9.4
		C675.8,408.3,691.6,399.9,708.6,393.6z"/>
	<path fill="#84828F" d="M764.1,373.9c-0.8-3-3.6-5.1-6.8-4.8c-4.1,0.4-8.2,1-12.3,1.6c5,1.9,10,3.2,14.9,3.2H764.1z"/>
	<path fill="#84828F" d="M725.1,381.4c0.8,3.5,4.3,5.7,7.8,4.9c8.4-2,17.1-3.4,25.6-4.2c0.7-0.1,1.3-0.2,1.9-0.5
		c2.6-1.1,4.2-3.7,3.9-6.6c0-0.4-0.2-0.7-0.3-1h-4.2c-5,0-10-1.3-14.9-3.2c-5,0.8-10.1,1.7-15,2.9
		C726.5,374.4,724.3,377.9,725.1,381.4z"/>
	<path fill="#84828F" d="M748.3,358c0.7-0.1,1.3-0.2,1.9-0.5c2.6-1.1,4.2-3.7,3.9-6.6c-0.4-3.6-3.5-6.2-7.1-5.8
		c-10.1,1-20,2.7-29.7,5.1l10.6,11C734.7,359.7,741.4,358.7,748.3,358z"/>
	<path fill="#84828F" d="M628.8,404.2c2.3,2.7,6.4,3.1,9.2,0.7c1.8-1.5,3.6-3,5.4-4.5l-9.1-9.4c-1.6,1.3-3.2,2.6-4.8,4
		C626.8,397.3,626.5,401.5,628.8,404.2z"/>
	<path fill="#84828F" d="M643.4,400.5c24.8-19.7,53.7-33.1,84.6-39.4l-10.6-11c-30.3,7.3-58.5,21.2-83,41L643.4,400.5z"/>
	<path fill="#84828F" d="M618.6,380.2c1.8,2.1,4.6,2.7,7.1,1.9l-8.1-8.4C616.7,375.8,617,378.3,618.6,380.2z"/>
	<path fill="#84828F" d="M626.1,382c0.6-0.3,1.2-0.6,1.7-1c9.8-8.4,20.5-15.8,31.7-22.2c3.1-1.8,4.2-5.7,2.5-8.9
		c-1.8-3.1-5.7-4.3-8.9-2.5c-12,6.7-23.3,14.7-33.8,23.6c-0.9,0.7-1.4,1.7-1.8,2.7l8.1,8.4C625.8,382,626,382,626.1,382z"/>
	<path fill="#84828F" d="M738.1,334c0.7-0.1,1.3-0.2,1.9-0.5c2.6-1.1,4.2-3.7,3.9-6.6c-0.4-3.6-3.5-6.2-7.1-5.9
		c-13.5,1.3-26.9,4.1-39.9,7.9l10.3,10.6C717.4,337,727.7,335.1,738.1,334z"/>
	<path fill="#84828F" d="M673.8,344.2c1.4,3.3,5.2,4.9,8.5,3.6c8.1-3.3,16.5-6,25-8.2L697,329c-6.6,2-13.2,4.1-19.6,6.8
		C674.1,336.9,672.4,340.9,673.8,344.2z"/>
	<path fill="#84828F" d="M690,317.6c3.5-1,5.4-4.7,4.4-8.1c-1-3.4-4.7-5.4-8.1-4.4c-3.2,0.9-6.3,2-9.4,3.1l10.1,10.4
		C688,318.3,689,317.9,690,317.6z"/>
	<path fill="#84828F" d="M608.4,356.3c1.9,2.2,5,2.9,7.5,1.8c0.6-0.3,1.2-0.6,1.7-1c20.4-17.4,43.8-30.3,69.3-38.4l-10.1-10.4
		c-24.9,8.7-47.6,21.7-67.7,38.9C606.4,349.4,606.1,353.6,608.4,356.3z"/>
	<path fill="#84828F" d="M707.5,306.5c0.6,3.6,3.9,6,7.5,5.4c4.3-0.7,8.7-1.3,13-1.7c0.7-0.1,1.3-0.2,1.9-0.5
		c2.6-1.1,4.2-3.7,3.9-6.6c-0.4-3.6-3.5-6.2-7.1-5.8c-4.6,0.5-9.3,1.1-13.8,1.8C709.3,299.6,706.9,302.9,707.5,306.5z"/>
	<path fill="#84828F" d="M609.8,314.4c-0.5,0.4-1,0.7-1.4,1.1l5.4-2.3C612.4,313.2,611,313.5,609.8,314.4z"/>
	<path fill="#84828F" d="M598.2,332.2c1.9,2.2,5,2.9,7.5,1.8c0.6-0.3,1.2-0.6,1.7-1c3.4-2.9,6.8-5.6,10.2-8.2
		c2.9-2.1,3.5-6.2,1.3-9.1c-1.3-1.7-3.2-2.5-5.2-2.5l-5.4,2.3c-3.2,2.4-6.4,4.9-9.5,7.6C596.2,325.4,595.9,329.5,598.2,332.2z"/>
	<path fill="#84828F" d="M704.5,274.6c-16.3,2.5-32.1,6.9-47.3,13.1l4.8,5L704.5,274.6z"/>
	<path fill="#84828F" d="M657.2,287.8c-8.3,3.4-16.5,7.2-24.4,11.7c-2.5,1.4-3.7,4.3-3.1,7l32.3-13.7L657.2,287.8z"/>
	<path fill="#84828F" d="M666.9,297.9c16.3-6.1,33.3-10.1,50.8-11.8c0.7-0.1,1.3-0.2,1.9-0.5c2.6-1.1,4.2-3.7,3.9-6.6
		c-0.4-3.6-3.5-6.2-7.1-5.9c-4,0.4-8,0.9-12,1.5L662,292.7L666.9,297.9z"/>
	<path fill="#84828F" d="M639.1,310.8c9-5.1,18.3-9.4,27.8-13l-5-5.2l-32.3,13.7c0.1,0.6,0.3,1.3,0.6,1.9
		C632,311.5,636,312.6,639.1,310.8z"/>
	<path fill="#2A3982" d="M956.9,191.4H827.2l182.5,182.5H813.8l40.8,96.1h159.9l-96.1,91.3H683.1c-0.3,0-0.5,0-0.8,0
		c-0.7,0-1.5-0.1-2.2-0.1c-8.6-0.8-17.2-5.1-25.9-9.4L649,546l-4.7-5.1l-11.9-12.8l-13.3-14.3l-12.7-13.7l-10.6-11.4l-10-10.8
		l-10.3-11l-29.6-31.8l-9.7-10.4l-9.7-10.4l-1.9-2c-2.8-2.8-5.7-5.4-8.7-7.9c-3.8-3.2-7.9-6.2-12-8.9c-4.4-2.9-9-5.5-13.8-7.9
		c-8.8-4.4-18.1-7.8-27.6-10.1c-9.6-2.3-19.3-3.6-29.1-3.6h-21.3h-37.2H183.5l91.3-91.3h235.4c9.6,0,19.2,4.8,28.8,9.6l6.3,6.5
		l8.9,9.2c2.7-0.1,5.3-0.1,8,0c2.4,0,4.5,1.4,5.6,3.5c0,0,0.1,0,0.1,0c18.5-20.7,40.7-37.1,65.2-48.8l-0.8-0.9L596.6,225
		c-24-24-57.6-38.4-91.3-38.4h-269L5.8,422l230.6,230.6H366L183.5,470h232h17.7c3.9,0,7.8,0.8,11.6,2.1c5.7,1.8,11.5,4.7,17.2,7.5
		l13.6,14.1l5.3,5.5l9.9,10.2l9.1,9.4l8.5,8.9l9.1,9.5l10.6,11l11.6,12.1l22,22.8l19.4,20.1l0.7,0.8l9.9,10.2
		c24,24,57.6,38.4,91.3,38.4h273.8L1187.4,422L956.9,191.4z"/>
	<g>
		<path fill="#84828F" d="M615.8,485.9c-6.8,0.7-13.4,1.6-20,2.9l10.6,11.4c3.5-0.5,7.1-1,10.7-1.4c0.7-0.1,1.3-0.2,1.9-0.5
			c2.6-1.1,4.2-3.7,3.9-6.6C622.5,488.2,619.3,485.6,615.8,485.9z"/>
		<path fill="#84828F" d="M608.7,474.3c2.6-1.1,4.2-3.7,3.9-6.6c-0.4-3.6-3.5-6.2-7.1-5.9c-10.2,1-20.3,2.7-30.1,5.2l10.3,11
			c6.9-1.4,14-2.5,21.1-3.2C607.5,474.7,608.1,474.6,608.7,474.3z"/>
		<path fill="#84828F" d="M598.6,450.4c2.6-1.1,4.2-3.7,3.9-6.6c-0.4-3.6-3.5-6.2-7.1-5.8c-9.2,0.9-18.3,2.4-27.3,4.5
			c-3.5,0.8-5.7,4.3-4.9,7.8c0.8,3.5,4.3,5.7,7.8,4.9c8.4-2,17.1-3.4,25.6-4.2C597.3,450.8,598,450.7,598.6,450.4z"/>
		<path fill="#84828F" d="M578.8,421.1c-0.1-0.8-0.4-1.5-0.8-2.2l-0.9,1.4c-1.4,2.2-4.7,1.9-5.7-0.5l-1.6-3.7
			c-11.5,2-22.7,5-33.7,8.8l9.7,10.4c9-2.8,18.2-5.1,27.6-6.6C576.9,428,579.4,424.6,578.8,421.1z"/>
		<path fill="#84828F" d="M564.7,404.1l-5.2-12.1c-15,2.6-29.7,6.7-43.7,12.4c3,2.5,6,5.2,8.7,7.9l1.9,2c11.9-4.4,24.3-7.7,36.8-9.8
			C563.8,404.5,564.3,404.3,564.7,404.1z"/>
		<path fill="#84828F" d="M532.5,378.3c-1-3.4-4.7-5.4-8.1-4.4c-11.9,3.6-23.4,8.2-34.4,13.7c4.7,2.4,9.3,5,13.8,7.9
			c7.9-3.5,16-6.6,24.3-9.1C531.6,385.4,533.5,381.7,532.5,378.3z"/>
		<path fill="#84828F" d="M544.3,356.2l-4.8-11.4l-0.3-0.7c-24.1,4.1-47.1,12.3-68.3,24.3c-2.5,1.4-3.7,4.3-3.1,7
			c0.1,0.6,0.3,1.3,0.6,1.9c1.8,3.1,5.8,4.3,8.9,2.5c20.4-11.5,42.5-19.2,65.6-23.1C543.4,356.5,543.9,356.4,544.3,356.2z"/>
	</g>
	<polygon fill="#E7B324" points="575.5,329.5 575,329.6 575.9,330.6 	"/>
	<rect x="571.7" y="311.2" fill="#E7B324" width="0" height="19"/>
	<rect x="591.6" y="327.4" fill="#E7B324" width="0" height="80.2"/>
	
		<rect x="575.1" y="330" transform="matrix(0.3911 0.9203 -0.9203 0.3911 654.2753 -328.8957)" fill="#E7B324" width="1.2" height="0"/>
	<path fill="#E7B324" d="M541.8,343.8c-0.4,0-0.7-0.1-1.1,0c-0.5,0.1-1,0.2-1.6,0.3l0.3,0.7L541.8,343.8z"/>
	<path fill="#E7B324" d="M607.3,404.4l-31.4-73.8l-0.9-0.9l0.4-0.2L568,312c-0.1-0.2-0.2-0.3-0.3-0.5c-1.1-2.1-3.2-3.5-5.6-3.5
		c-2.7,0-5.3,0-8,0c-8.4,0.2-16.7,0.9-25,2.1c-1.9,0.3-3.1,2.2-2.6,4c0,0.2,0,0.4,0.1,0.5l12.5,29.4c0.5-0.1,1-0.2,1.6-0.3
		c0.4-0.1,0.7,0,1.1,0l-2.3,1l4.8,11.4l15.2,35.8l5.2,12.1l5,11.9l1.6,3.7c1,2.4,4.3,2.7,5.7,0.5l0.9-1.4l8.7-13.2l17.1,3.2
		C606.3,409.4,608.3,406.8,607.3,404.4z"/>
</g>
</svg>
