<?xml version="1.0" encoding="utf-8"?>
<!-- Generator: Adobe Illustrator 18.0.0, SVG Export Plug-In . SVG Version: 6.00 Build 0)  -->
<!DOCTYPE svg PUBLIC "-//W3C//DTD SVG 1.1//EN" "http://www.w3.org/Graphics/SVG/1.1/DTD/svg11.dtd">
<svg version="1.1" id="Laag_1" xmlns="http://www.w3.org/2000/svg" xmlns:xlink="http://www.w3.org/1999/xlink" x="0px" y="0px"
	 viewBox="0 0 566.9 566.9" enable-background="new 0 0 566.9 566.9" xml:space="preserve">
<circle fill="#006EB4" cx="284.8" cy="283.8" r="198.7"/>
<path fill="#FFFFFF" d="M405.2,292.4c6.5-3.9,6.5-13.3,0-17.2L318.9,224l-85.7-50.9c-6.7-3.9-15.1,0.8-15.1,8.6v102.1v102.1
	c0,7.7,8.4,12.5,15.1,8.6l85.7-50.9L405.2,292.4z"/>
<circle fill="#006EB4" cx="281.7" cy="283.8" r="198.7"/>
<g>
	<path fill="#FFFFFF" d="M272.2,397.8h-73c-0.4,0-0.8-0.4-0.8-0.8V170.6c0-0.4,0.4-0.8,0.8-0.8h73c0.4,0,0.8,0.4,0.8,0.8V397
		C273,397.4,272.6,397.8,272.2,397.8z"/>
	<path fill="#FFFFFF" d="M364.2,397.8h-73c-0.4,0-0.8-0.4-0.8-0.8V170.6c0-0.4,0.4-0.8,0.8-0.8h73c0.4,0,0.8,0.4,0.8,0.8V397
		C365,397.4,364.6,397.8,364.2,397.8z"/>
</g>
</svg>
