<?xml version="1.0" encoding="utf-8"?>
<!-- Generator: Adobe Illustrator 18.0.0, SVG Export Plug-In . SVG Version: 6.00 Build 0)  -->
<!DOCTYPE svg PUBLIC "-//W3C//DTD SVG 1.1//EN" "http://www.w3.org/Graphics/SVG/1.1/DTD/svg11.dtd">
<svg version="1.1" id="Laag_1" xmlns="http://www.w3.org/2000/svg" xmlns:xlink="http://www.w3.org/1999/xlink" x="0px" y="0px"
	 viewBox="0 0 50 50" enable-background="new 0 0 50 50" xml:space="preserve">
<g>
	<path fill="#2E4A91" d="M35,451.4L35,451.4c-5,2-10,3.5-15.5,1c-9-3.5-13.5-13-10-22S22,416.9,31,419.9c9,3.5,14,12,11,21.5
		c-0.5,1.5-1,3-1.5,4.5c0.5,0.5,1,1,1.5,1.5c6.5-9.5,5-20-3.5-26.5c-8-6.5-19.5-6-26.5,1.5c-7.5,7.5-8,18.5-1.5,26.5
		c7,8.5,17,10,26.5,4C36,451.9,35,451.4,35,451.4L35,451.4z"/>
	<path fill="#2F418A" d="M41.5,447.4L41.5,447.4c-0.5-0.5-1-1-1.5-1.5c-2,2-3.5,3.5-5.5,5.5l0,0c0.5,0.5,1,1,1.5,1.5
		c5,2.5,8,7.5,12,11c1.5,1.5,3,3.5,5,1c2-2,0-3.5-1-5C49,455.4,44,452.9,41.5,447.4z"/>
</g>
<path fill="#2E4A91" d="M46.8,45.7L35,32.6c3.5-3.5,5.6-8.3,5.6-13.6C40.6,8.5,32-0.2,21.4-0.2S2.2,8.5,2.2,19.1s8.6,19.2,19.2,19.2
	c3.5,0,6.8-1,9.6-2.6c0,0,0.1,0.1,0.1,0.1l12,13.3c0.9,1,2.5,1.1,3.5,0.2C47.6,48.3,47.7,46.8,46.8,45.7z M21.4,34.6
	c-8.5,0-15.5-7-15.5-15.5s7-15.5,15.5-15.5s15.5,7,15.5,15.5S30,34.6,21.4,34.6z"/>
</svg>
