<?xml version="1.0" encoding="utf-8"?>
<!-- Generator: Adobe Illustrator 18.0.0, SVG Export Plug-In . SVG Version: 6.00 Build 0)  -->
<!DOCTYPE svg PUBLIC "-//W3C//DTD SVG 1.1//EN" "http://www.w3.org/Graphics/SVG/1.1/DTD/svg11.dtd">
<svg version="1.1" id="Laag_1" xmlns="http://www.w3.org/2000/svg" xmlns:xlink="http://www.w3.org/1999/xlink" x="0px" y="0px"
	 viewBox="0 247.6 841.9 100" enable-background="new 0 247.6 841.9 100" xml:space="preserve">
<g>
	<g>
		<path fill="none" stroke="#000000" stroke-width="0.5573" stroke-miterlimit="10" d="M-0.9,279.9c140.5,39.7,281-39.7,421.5,0"/>
		<path fill="none" stroke="#000000" stroke-width="0.5573" stroke-miterlimit="10" d="M-0.9,289.7c140.5,39.7,281-39.7,421.5,0"/>
		<path fill="none" stroke="#000000" stroke-width="0.5573" stroke-miterlimit="10" d="M-0.9,299.5c140.5,39.7,281-39.7,421.5,0"/>
		<path fill="none" stroke="#000000" stroke-width="0.5573" stroke-miterlimit="10" d="M-0.9,309.4c140.5,39.7,281-39.7,421.5,0"/>
		<path fill="none" stroke="#000000" stroke-width="0.5573" stroke-miterlimit="10" d="M-0.9,319.2c140.5,39.7,281-39.7,421.5,0"/>
	</g>
	<g>
		<path fill="none" stroke="#000000" stroke-width="0.5573" stroke-miterlimit="10" d="M420,279.9c140.5,39.7,281-39.7,421.5,0"/>
		<path fill="none" stroke="#000000" stroke-width="0.5573" stroke-miterlimit="10" d="M420,289.7c140.5,39.7,281-39.7,421.5,0"/>
		<path fill="none" stroke="#000000" stroke-width="0.5573" stroke-miterlimit="10" d="M420,299.5c140.5,39.7,281-39.7,421.5,0"/>
		<path fill="none" stroke="#000000" stroke-width="0.5573" stroke-miterlimit="10" d="M420,309.4c140.5,39.7,281-39.7,421.5,0"/>
		<path fill="none" stroke="#000000" stroke-width="0.5573" stroke-miterlimit="10" d="M420,319.2c140.5,39.7,281-39.7,421.5,0"/>
	</g>
	<g>
		<path d="M285.2,312.9v4.5v1.2c0,0.7-0.1,1.3-0.1,1.8c-0.1,0.5-0.2,0.9-0.5,1.3c-0.2,0.4-0.5,0.8-1,1.2c-0.5,0.4-0.9,1-1.5,1.5
			c-0.4,0.4-0.6,0.5-0.7,0.4c-0.1-0.1-0.4-0.2-0.6-0.4c-0.3-0.2-0.4-0.4-0.4-0.6c0-0.1,0.2-0.4,0.7-0.8c1.2-1.2,1.9-2.4,1.8-3.4
			s-0.5-1.4-1.5-1.4s-1.6-0.1-2-0.2c-0.4-0.1-0.6-0.4-0.6-0.7V313c0-0.4,0.3-0.6,1-0.7c0.6-0.1,1.4-0.2,2.3-0.2c1,0,1.7,0.1,2.3,0.2
			C284.9,312.5,285.2,312.7,285.2,312.9z"/>
		<path d="M656.3,312.9v4.5v1.2c0,0.7-0.1,1.3-0.1,1.8c-0.1,0.5-0.2,0.9-0.5,1.3c-0.3,0.4-0.5,0.8-1,1.2c-0.4,0.4-0.9,1-1.5,1.5
			c-0.4,0.4-0.6,0.5-0.7,0.4c-0.1-0.1-0.4-0.2-0.6-0.4c-0.3-0.2-0.4-0.4-0.4-0.6c0-0.1,0.2-0.4,0.7-0.8c1.2-1.2,1.9-2.4,1.8-3.4
			c-0.1-1-0.5-1.4-1.5-1.4s-1.6-0.1-2-0.2s-0.6-0.4-0.6-0.7V313c0-0.4,0.3-0.6,1-0.7c0.6-0.1,1.4-0.2,2.3-0.2c1,0,1.7,0.1,2.3,0.2
			C656,312.5,656.3,312.7,656.3,312.9z"/>
		<g>
			<rect x="185.4" y="301.1" width="30.9" height="23.1"/>
			<rect x="95.7" y="294.4" width="17.3" height="17.6"/>
			<g>
				<path fill="#FFFFFF" d="M102.4,308.2c0.1,0.1,0.2,0.1,0.2,0.3c0.1,0.1,0.1,0.3,0.1,0.5v0.4h-2.6v-0.5c0-0.2,0.1-0.4,0.1-0.5
					s0.2-0.2,0.2-0.3c0.1-0.1,0.1-0.1,0.1-0.1c0.1-0.1,0.1-0.1,0.1-0.2v-9.2c0-0.1-0.1-0.2-0.2-0.3c-0.1-0.1-0.2-0.1-0.2-0.2
					c-0.1-0.1-0.1-0.3-0.1-0.5v-0.5h1.7c0.3,0,0.4,0.1,0.4,0.4v10.4c0,0.1,0,0.2,0.1,0.2C102.4,308.1,102.4,308.2,102.4,308.2z"/>
				<path fill="#FFFFFF" d="M106.2,301.1c0.4,0,0.8,0.1,1.1,0.2c0.3,0.1,0.6,0.3,0.8,0.5c0.2,0.2,0.4,0.4,0.5,0.7
					c0.1,0.3,0.2,0.5,0.2,0.8v3.9c0,0.7-0.2,1.3-0.7,1.7c-0.5,0.4-1.1,0.6-1.9,0.6s-1.5-0.2-2-0.7c-0.5-0.5-0.7-1.1-0.7-1.9v-3.3
					c0-0.8,0.2-1.5,0.7-1.9C104.8,301.3,105.4,301.1,106.2,301.1z M106.2,308.2c0.3,0,0.5-0.1,0.8-0.3c0.2-0.2,0.3-0.5,0.3-0.8v-3.4
					c0-0.5-0.1-0.8-0.3-1c-0.2-0.2-0.5-0.2-0.8-0.2c-0.3,0-0.5,0.1-0.8,0.2c-0.2,0.2-0.3,0.5-0.3,0.9v3.4c0,0.4,0.1,0.7,0.3,0.9
					C105.7,308.1,105.9,308.2,106.2,308.2z"/>
			</g>
			<rect x="117.4" y="290.1" width="29.4" height="20.3"/>
			<g>
				<path fill="#FFFFFF" d="M126.7,297.7v0.5c0,0.2-0.1,0.4-0.1,0.5c-0.1,0.1-0.2,0.2-0.2,0.3c0,0-0.1,0.2-0.1,0.4
					c-0.1,0.2-0.1,0.6-0.2,1c-0.1,0.4-0.1,0.8-0.2,1.4c-0.1,0.5-0.2,1-0.2,1.5c-0.1,0.5-0.1,1-0.2,1.3c-0.1,0.4-0.1,0.7-0.2,1
					c-0.1,0.2-0.1,0.3-0.2,0.4c-0.1,0.1-0.2,0.1-0.3,0.1h-1.7c-0.2,0-0.4,0-0.5-0.1c-0.1-0.1-0.2-0.2-0.2-0.4c0-0.1-0.1-0.2-0.1-0.6
					c-0.1-0.3-0.1-0.7-0.2-1.1c-0.1-0.5-0.2-0.9-0.2-1.4c-0.1-0.5-0.2-1-0.2-1.4c-0.1-0.4-0.1-0.8-0.2-1.1s-0.1-0.5-0.1-0.5
					c-0.1-0.1-0.1-0.2-0.1-0.2l-0.1-0.1c-0.1-0.1-0.2-0.1-0.2-0.2c-0.1-0.1-0.1-0.3-0.1-0.5V298h1.4c0.2,0,0.3,0,0.4,0.1
					c0.1,0.1,0.1,0.2,0.2,0.4c0,0,0,0.1,0.1,0.3s0.1,0.4,0.1,0.8c0.1,0.3,0.1,0.7,0.2,1.1s0.1,0.8,0.2,1.2c0.1,1,0.3,2,0.5,3.2
					c0.2-1.1,0.3-2.1,0.4-3c0.1-0.4,0.1-0.8,0.2-1.1c0.1-0.3,0.1-0.7,0.2-1c0.1-0.3,0.1-0.5,0.1-0.7s0.1-0.3,0.1-0.4
					c0.1-0.1,0.1-0.2,0.1-0.3s0.1-0.2,0.1-0.2c0-0.1,0.1-0.1,0.1-0.1c0.1,0,0.2-0.1,0.3-0.1h1.4v-0.5H126.7z"/>
				<path fill="#FFFFFF" d="M129.8,304.8c0.1,0.1,0.2,0.1,0.2,0.3c0.1,0.1,0.1,0.3,0.1,0.5v0.5h-2.7v-0.5c0-0.2,0.1-0.4,0.1-0.5
					c0.1-0.1,0.2-0.2,0.2-0.3c0.1-0.1,0.1-0.1,0.1-0.1c0.1-0.1,0.1-0.1,0.1-0.2v-5.2c0-0.1-0.1-0.2-0.2-0.3
					c-0.1-0.1-0.2-0.1-0.2-0.2c-0.1-0.1-0.1-0.3-0.1-0.5v-0.5h1.7c0.2,0,0.4,0.1,0.4,0.3v6.4c0,0.1,0,0.2,0.1,0.2
					C129.7,304.7,129.7,304.7,129.8,304.8z M128.8,296.7c-0.2,0-0.5-0.1-0.6-0.2c-0.2-0.2-0.2-0.4-0.2-0.6c0-0.2,0.1-0.5,0.2-0.6
					c0.2-0.2,0.4-0.2,0.6-0.2s0.4,0.1,0.6,0.2s0.2,0.4,0.2,0.6c0,0.2-0.1,0.4-0.2,0.6C129.3,296.7,129,296.7,128.8,296.7z"/>
				<path fill="#FFFFFF" d="M134.6,300c0-0.3-0.1-0.5-0.2-0.7c-0.2-0.2-0.4-0.3-0.7-0.3c-0.3,0-0.5,0.1-0.7,0.3
					c-0.2,0.2-0.2,0.5-0.2,0.8v3.5c0,0.4,0.1,0.7,0.2,0.9c0.2,0.2,0.4,0.2,0.7,0.2c0.3,0,0.5-0.1,0.7-0.2c0.2-0.2,0.2-0.5,0.2-0.8
					l0,0c0-0.5,0.3-0.8,0.9-0.8h0.7v1c0,0.7-0.2,1.3-0.7,1.7c-0.5,0.4-1.1,0.6-1.8,0.6c-0.8,0-1.5-0.2-1.9-0.6s-0.7-1-0.7-1.8v-3.4
					c0-0.8,0.2-1.5,0.7-1.9c0.4-0.4,1.1-0.6,1.9-0.6c0.4,0,0.8,0.1,1.1,0.2c0.3,0.1,0.6,0.3,0.8,0.5c0.2,0.2,0.4,0.4,0.5,0.7
					c0.1,0.2,0.2,0.5,0.2,0.8v0.8h-0.7C134.9,300.7,134.6,300.5,134.6,300z"/>
				<path fill="#FFFFFF" d="M143,304.8c0.1,0.1,0.2,0.1,0.2,0.2c0,0.1,0.1,0.3,0.1,0.5v0.5h-1.5c-0.5,0-0.7-0.4-0.7-1v-4.8
					c-0.1-0.4-0.1-0.8-0.4-1c-0.2-0.2-0.4-0.3-0.7-0.3c-0.2,0-0.4,0-0.5,0.1c-0.1,0.1-0.2,0.1-0.4,0.2c-0.1,0.1-0.2,0.1-0.2,0.2v5
					c0,0.1,0,0.2,0.1,0.2c0.1,0.1,0.1,0.1,0.1,0.1c0.1,0.1,0.2,0.1,0.2,0.2s0.1,0.3,0.1,0.5v0.5h-2.6v-0.5c0-0.2,0.1-0.4,0.1-0.5
					c0.1-0.1,0.2-0.2,0.2-0.2c0.1-0.1,0.1-0.1,0.1-0.1c0.1-0.1,0.1-0.1,0.1-0.2v-9.2c0-0.2-0.1-0.3-0.2-0.4s-0.2-0.2-0.2-0.3
					c0-0.1-0.1-0.3-0.1-0.5v-0.4h1.8c0.2,0,0.4,0.1,0.4,0.4v4.2c0.1-0.1,0.2-0.2,0.4-0.2c0.1-0.1,0.3-0.1,0.5-0.2
					c0.2-0.1,0.4-0.1,0.6-0.1c0.8,0,1.4,0.2,1.7,0.7c0.4,0.5,0.5,1.1,0.5,2v4.1c0,0.1,0,0.2,0.1,0.2
					C142.9,304.7,143,304.7,143,304.8z"/>
			</g>
			<rect x="149.7" y="301.1" width="18.7" height="23.9"/>
			<g>
				<path fill="#FFFFFF" d="M157.3,319c0,0.7-0.2,1.3-0.5,1.7c-0.4,0.4-0.8,0.7-1.4,0.8c-0.1,0-0.1,0-0.2,0s-0.1-0.1-0.1-0.1v-1.3
					c0-0.1,0-0.1,0.1-0.1l0.1-0.1c0.1-0.1,0.2-0.2,0.4-0.3c0.1-0.1,0.1-0.4,0.1-0.6v-8.4c0-0.1-0.1-0.2-0.2-0.3
					c-0.1-0.1-0.2-0.1-0.2-0.2c0-0.1-0.1-0.3-0.1-0.5v-0.5h1.8c0.1,0,0.2,0,0.3,0.1c0.1,0.1,0.1,0.2,0.1,0.3L157.3,319L157.3,319z
					 M156.3,308.1c-0.2,0-0.5-0.1-0.6-0.2c-0.2-0.2-0.2-0.4-0.2-0.6c0-0.2,0.1-0.5,0.2-0.6c0.2-0.2,0.4-0.2,0.6-0.2s0.4,0.1,0.6,0.2
					c0.2,0.2,0.2,0.4,0.2,0.6c0,0.2-0.1,0.4-0.2,0.6C156.8,307.9,156.6,308.1,156.3,308.1z"/>
				<path fill="#FFFFFF" d="M160.1,313.6v1.5c0,0.4,0.1,0.7,0.3,0.8c0.2,0.1,0.5,0.2,0.8,0.2c0.3,0,0.5-0.1,0.7-0.2
					c0.2-0.2,0.3-0.4,0.2-0.6v-0.1c0-0.2,0.1-0.5,0.2-0.7c0.2-0.2,0.4-0.3,0.7-0.3h0.7v1.1c0,0.7-0.2,1.2-0.7,1.5s-1.1,0.5-1.9,0.5
					c-0.8,0-1.5-0.2-2-0.6s-0.7-1-0.7-1.8v-3.3c0-0.8,0.2-1.5,0.7-2c0.5-0.5,1.1-0.7,2-0.7c0.8,0,1.4,0.2,1.9,0.7
					c0.5,0.5,0.7,1.1,0.7,2v1.1c0,0.5-0.4,0.8-1.1,0.8C162.6,313.6,160.1,313.6,160.1,313.6z M160.1,312.5h1.9h0.2v-0.9
					c0-0.4-0.1-0.8-0.3-1c-0.2-0.2-0.5-0.3-0.8-0.3s-0.5,0.1-0.8,0.3c-0.2,0.2-0.3,0.5-0.3,1C160.1,311.6,160.1,312.5,160.1,312.5z"
					/>
			</g>
			<path fill="#FFFFFF" d="M195.3,308v0.5c0,0.2-0.1,0.4-0.1,0.5c-0.1,0.1-0.2,0.2-0.2,0.3c-0.1,0.1-0.1,0.1-0.1,0.1
				c0,0.1-0.1,0.1-0.1,0.2v8.4c0,0.8-0.2,1.5-0.7,1.9s-1.1,0.6-2,0.6c-0.4,0-0.8-0.1-1.1-0.2s-0.6-0.3-0.8-0.5
				c-0.2-0.2-0.4-0.4-0.5-0.7c-0.1-0.2-0.2-0.5-0.2-0.8v-1h0.7c0.6,0,0.9,0.2,0.9,0.8v0.2c0,0.3,0.1,0.5,0.2,0.7
				c0.2,0.2,0.4,0.2,0.8,0.2c0.3,0,0.6-0.1,0.8-0.2c0.2-0.2,0.4-0.4,0.4-0.9v-2.2c-0.2,0.1-0.4,0.2-0.5,0.4
				c-0.2,0.1-0.5,0.1-0.8,0.1c-0.8,0-1.4-0.2-1.8-0.8c-0.4-0.5-0.6-1.2-0.6-2v-3c0-0.8,0.2-1.5,0.5-2c0.4-0.5,0.9-0.7,1.7-0.7
				c0.4,0,0.8,0.1,1,0.2s0.4,0.2,0.5,0.2c0-0.1,0.1-0.1,0.1-0.2s0.1-0.1,0.1-0.1c0.1-0.1,0.1-0.1,0.2-0.1L195.3,308L195.3,308z
				 M193.1,314.4v-4.7c-0.1-0.1-0.2-0.2-0.2-0.2c-0.1-0.1-0.2-0.1-0.3-0.2c-0.1-0.1-0.3-0.1-0.5-0.1c-0.3,0-0.5,0.1-0.8,0.3
				c-0.2,0.2-0.3,0.5-0.3,0.8v3.5c0,0.4,0.1,0.7,0.2,0.9c0.2,0.2,0.4,0.3,0.7,0.3c0.2,0,0.4,0,0.5-0.1c0.1-0.1,0.2-0.1,0.4-0.2
				C192.9,314.6,193,314.5,193.1,314.4L193.1,314.4L193.1,314.4z"/>
			<path fill="#FFFFFF" d="M198.2,315c0.1,0.1,0.2,0.1,0.2,0.3c0.1,0.1,0.1,0.3,0.1,0.5v0.5h-2.7v-0.5c0-0.2,0.1-0.4,0.1-0.5
				s0.2-0.2,0.2-0.3c0.1-0.1,0.1-0.1,0.1-0.1c0.1-0.1,0.1-0.1,0.1-0.2v-5.2c0-0.1-0.1-0.2-0.2-0.3c-0.1-0.1-0.2-0.1-0.2-0.2
				s-0.1-0.3-0.1-0.5V308h1.7c0.2,0,0.4,0.1,0.4,0.3v6.4c0,0.1,0,0.2,0.1,0.2C198.1,315,198.2,315,198.2,315z M197.2,307
				c-0.2,0-0.5-0.1-0.6-0.2c-0.2-0.2-0.2-0.4-0.2-0.6s0.1-0.5,0.2-0.6c0.2-0.2,0.4-0.2,0.6-0.2s0.4,0.1,0.6,0.2
				c0.2,0.1,0.2,0.4,0.2,0.6s-0.1,0.4-0.2,0.6C197.6,306.9,197.4,307,197.2,307z"/>
			<path fill="#FFFFFF" d="M205.3,315c0.1,0.1,0.2,0.2,0.2,0.3s0.1,0.3,0.1,0.5v0.5h-1.4c-0.3,0-0.5-0.1-0.6-0.3
				c-0.1-0.2-0.2-0.5-0.2-0.7v-4.7c0-0.5-0.1-0.8-0.3-1c-0.2-0.2-0.5-0.2-0.8-0.2c-0.2,0-0.4,0-0.5,0.1c-0.1,0.1-0.2,0.1-0.4,0.2
				c-0.1,0.1-0.2,0.1-0.2,0.2v4.9c0,0.1,0,0.2,0.1,0.2c0.1,0.1,0.1,0.1,0.1,0.1s0.2,0.2,0.2,0.3s0.1,0.3,0.1,0.5v0.5h-2.5v-0.5
				c0-0.2,0.1-0.4,0.1-0.5s0.2-0.2,0.2-0.2c0.1-0.1,0.1-0.1,0.1-0.1c0.1-0.1,0.1-0.1,0.1-0.2v-5c0-0.1,0-0.1-0.1-0.2
				c-0.1-0.1-0.1-0.1-0.1-0.1c-0.1-0.1-0.2-0.1-0.2-0.2s-0.1-0.3-0.1-0.5v-0.5h1.8c0.1,0,0.2,0,0.2,0.1c0.1,0.1,0.1,0.1,0.1,0.1
				c0,0.1,0.1,0.1,0.1,0.2c0.1-0.1,0.2-0.1,0.4-0.2c0.1-0.1,0.3-0.1,0.5-0.2c0.2-0.1,0.4-0.1,0.6-0.1c0.8,0,1.4,0.2,1.7,0.7
				c0.4,0.4,0.5,1.1,0.5,2v4.2c0,0.1,0,0.2,0.1,0.2C205.2,315,205.2,315,205.3,315z"/>
			<path fill="#FFFFFF" d="M212.3,308v0.5c0,0.2-0.1,0.4-0.1,0.5c-0.1,0.1-0.2,0.2-0.2,0.3c-0.1,0.1-0.1,0.1-0.1,0.1
				c0,0.1-0.1,0.1-0.1,0.2v8.4c0,0.8-0.2,1.5-0.7,1.9s-1.1,0.6-2,0.6c-0.4,0-0.8-0.1-1.1-0.2c-0.3-0.1-0.6-0.3-0.8-0.5
				c-0.2-0.2-0.4-0.4-0.5-0.7c-0.1-0.2-0.2-0.5-0.2-0.8v-1h0.7c0.6,0,0.9,0.2,0.9,0.8v0.2c0,0.3,0.1,0.5,0.2,0.7
				c0.2,0.2,0.4,0.2,0.8,0.2c0.3,0,0.6-0.1,0.8-0.2c0.2-0.2,0.4-0.4,0.4-0.9v-2.2c-0.2,0.1-0.4,0.2-0.5,0.4
				c-0.2,0.1-0.5,0.1-0.8,0.1c-0.8,0-1.4-0.2-1.8-0.8c-0.4-0.6-0.6-1.2-0.6-2v-3c0-0.8,0.2-1.5,0.5-2c0.4-0.5,0.9-0.7,1.7-0.7
				c0.4,0,0.8,0.1,1,0.2s0.4,0.2,0.5,0.2c0-0.1,0.1-0.1,0.1-0.2s0.1-0.1,0.1-0.1c0.1-0.1,0.1-0.1,0.2-0.1L212.3,308L212.3,308z
				 M210.2,314.4v-4.7c-0.1-0.1-0.2-0.2-0.2-0.2c-0.1-0.1-0.2-0.1-0.3-0.2c-0.1-0.1-0.3-0.1-0.5-0.1c-0.3,0-0.5,0.1-0.8,0.3
				c-0.2,0.2-0.3,0.5-0.3,0.8v3.5c0,0.4,0.1,0.7,0.2,0.9c0.2,0.2,0.4,0.3,0.7,0.3c0.2,0,0.4,0,0.5-0.1c0.1-0.1,0.2-0.1,0.4-0.2
				C210,314.6,210.1,314.5,210.2,314.4L210.2,314.4L210.2,314.4z"/>
			<rect x="220.5" y="288.9" width="18.7" height="23.9"/>
			<g>
				<path fill="#FFFFFF" d="M227.1,295.3c0.4,0,0.8,0.1,1.1,0.2c0.3,0.1,0.6,0.3,0.8,0.5c0.2,0.2,0.4,0.4,0.5,0.7s0.2,0.5,0.2,0.8
					v3.9c0,0.7-0.2,1.3-0.7,1.7c-0.5,0.4-1.1,0.6-1.9,0.6c-0.8,0-1.5-0.2-2-0.7c-0.5-0.4-0.7-1.1-0.7-1.9v-3.3
					c0-0.8,0.2-1.5,0.7-1.9C225.7,295.6,226.3,295.3,227.1,295.3z M227.1,302.5c0.3,0,0.5-0.1,0.8-0.3c0.2-0.2,0.3-0.5,0.3-0.8V298
					c0-0.5-0.1-0.8-0.3-1s-0.5-0.2-0.8-0.2c-0.3,0-0.5,0.1-0.8,0.2c-0.2,0.2-0.3,0.5-0.3,0.9v3.5c0,0.4,0.1,0.7,0.3,0.9
					C226.5,302.4,226.8,302.5,227.1,302.5z"/>
				<path fill="#FFFFFF" d="M234.2,295.3c0.8,0,1.4,0.2,1.7,0.7c0.4,0.4,0.5,1.1,0.5,1.9v3.1c0,0.8-0.2,1.5-0.6,2
					c-0.4,0.5-1,0.7-1.8,0.7c-0.3,0-0.6-0.1-0.8-0.1c-0.2-0.1-0.4-0.2-0.6-0.4v3c0,0.1,0,0.2,0.1,0.2c0.1,0.1,0.1,0.1,0.1,0.1
					c0.1,0.1,0.2,0.2,0.2,0.3c0,0.1,0.1,0.3,0.1,0.5v0.5h-2.7v-0.5c0-0.2,0.1-0.4,0.1-0.5c0-0.1,0.2-0.2,0.2-0.2
					c0.1-0.1,0.1-0.1,0.1-0.1c0.1-0.1,0.1-0.1,0.1-0.2v-9.2c0-0.1,0-0.2-0.1-0.2c-0.1-0.1-0.1-0.1-0.1-0.1c-0.1-0.1-0.2-0.1-0.2-0.3
					c-0.1-0.2-0.1-0.3-0.1-0.5v-0.5h1.8c0.1,0,0.1,0,0.2,0.1s0.1,0.1,0.1,0.1c0,0.1,0.1,0.1,0.1,0.2c0.1-0.1,0.2-0.1,0.5-0.2
					C233.4,295.4,233.7,295.3,234.2,295.3z M234.8,297.9c0-0.4-0.1-0.8-0.4-1c-0.2-0.2-0.5-0.4-0.8-0.4c-0.2,0-0.3,0-0.4,0.1
					c-0.1,0.1-0.2,0.1-0.4,0.2c-0.1,0.1-0.2,0.1-0.3,0.2v4.9c0.1,0.1,0.2,0.2,0.3,0.2c0.1,0.1,0.2,0.1,0.4,0.2
					c0.2,0.1,0.3,0.1,0.5,0.1c0.3,0,0.5-0.1,0.7-0.3c0.2-0.2,0.2-0.5,0.2-1L234.8,297.9L234.8,297.9z"/>
			</g>
			<rect x="243.9" y="296.1" width="29.4" height="20.3"/>
			<path fill="#FFFFFF" d="M253.2,303.8c-0.1,0-0.2,0-0.2,0c-0.2-0.1-0.5-0.1-0.8-0.1c-0.2,0.1-0.5,0.1-0.7,0.2s-0.4,0.2-0.5,0.4
				c-0.1,0.2-0.2,0.4-0.2,0.5v4.1c0,0.1,0,0.2,0.1,0.2c0,0.1,0.1,0.1,0.1,0.1c0.1,0.1,0.2,0.1,0.2,0.3c0.1,0.1,0.1,0.3,0.1,0.5v0.5
				h-2.7V310c0-0.2,0.1-0.4,0.1-0.5s0.2-0.2,0.2-0.3c0.1-0.1,0.1-0.1,0.1-0.1c0-0.1,0.1-0.1,0.1-0.2v-5c0-0.1-0.1-0.2-0.2-0.3
				c-0.1-0.1-0.2-0.1-0.2-0.2c-0.1-0.1-0.1-0.3-0.1-0.5v-0.5h1.7c0.2,0,0.4,0.1,0.4,0.4v0.2c0.1-0.1,0.3-0.2,0.5-0.3
				c0.1-0.1,0.3-0.2,0.5-0.2c0.2-0.1,0.4-0.1,0.5-0.1c0.2,0,0.5,0,0.7,0.1c0.1,0,0.1,0.1,0.2,0.1c0.1,0.1,0.1,0.1,0.1,0.2
				L253.2,303.8C253.3,303.8,253.3,303.8,253.2,303.8z"/>
			<path fill="#FFFFFF" d="M255.5,306.9v1.5c0,0.4,0.1,0.7,0.3,0.8c0.2,0.1,0.5,0.2,0.8,0.2s0.5-0.1,0.7-0.2
				c0.2-0.2,0.3-0.4,0.2-0.6v-0.1c0-0.2,0.1-0.5,0.2-0.7c0.2-0.2,0.4-0.3,0.7-0.3h0.7v1.1c0,0.7-0.2,1.2-0.7,1.5
				c-0.5,0.3-1.1,0.5-1.9,0.5s-1.5-0.2-2-0.6s-0.7-1-0.7-1.8v-3.3c0-0.8,0.2-1.5,0.7-2s1.1-0.7,2-0.7s1.4,0.2,1.9,0.7s0.7,1.1,0.7,2
				v1.1c0,0.5-0.4,0.8-1.1,0.8C258,306.9,255.5,306.9,255.5,306.9z M255.5,305.7h1.9h0.2v-0.8c0-0.4-0.1-0.8-0.3-1
				c-0.2-0.2-0.5-0.3-0.8-0.3s-0.5,0.1-0.8,0.3c-0.2,0.2-0.3,0.5-0.3,1L255.5,305.7L255.5,305.7z"/>
			<path fill="#FFFFFF" d="M262.3,309.4c0.1,0.1,0.2,0.1,0.2,0.3c0.1,0.1,0.1,0.3,0.1,0.5v0.5h-2.7v-0.5c0-0.2,0.1-0.4,0.1-0.5
				c0.1-0.1,0.2-0.2,0.2-0.3c0.1-0.1,0.1-0.1,0.1-0.1c0.1-0.1,0.1-0.1,0.1-0.2v-5.2c0-0.1-0.1-0.2-0.2-0.3s-0.2-0.1-0.2-0.2
				c-0.1-0.1-0.1-0.3-0.1-0.5v-0.5h1.7c0.2,0,0.4,0.1,0.4,0.3v6.4c0,0.1,0,0.2,0.1,0.2C262.2,309.3,262.2,309.4,262.3,309.4z
				 M261.3,301.3c-0.2,0-0.5-0.1-0.6-0.2c-0.2-0.2-0.2-0.4-0.2-0.6c0-0.2,0.1-0.5,0.2-0.6c0.2-0.2,0.4-0.2,0.6-0.2
				c0.2,0,0.4,0.1,0.6,0.2c0.2,0.2,0.2,0.4,0.2,0.6c0,0.2-0.1,0.4-0.2,0.6C261.7,301.2,261.5,301.3,261.3,301.3z"/>
			<path fill="#FFFFFF" d="M266.1,303.6c-0.2,0-0.3,0.1-0.4,0.1s-0.2,0.1-0.2,0.2c-0.1,0.1-0.1,0.2-0.1,0.3c0,0.1-0.1,0.2-0.1,0.3
				l0,0c0,0.2,0.1,0.5,0.2,0.6c0.2,0.2,0.4,0.4,0.7,0.5c0.2,0.1,0.5,0.3,0.8,0.4c0.3,0.1,0.6,0.3,0.8,0.5c0.2,0.2,0.5,0.4,0.7,0.7
				c0.2,0.2,0.2,0.5,0.2,0.9v0.4c0,0.8-0.2,1.3-0.7,1.7c-0.5,0.4-1.1,0.6-1.8,0.6c-0.8,0-1.5-0.2-2-0.5c-0.5-0.4-0.8-0.9-0.8-1.6
				v-1.1h0.8c0.3,0,0.5,0.1,0.7,0.2c0.2,0.1,0.2,0.3,0.2,0.7v0.1c0,0.3,0.1,0.5,0.2,0.7c0.1,0.2,0.4,0.3,0.8,0.3s0.7-0.1,0.8-0.3
				c0.1-0.2,0.2-0.5,0.2-0.8v-0.2c0-0.2-0.1-0.4-0.2-0.5c-0.2-0.1-0.4-0.3-0.7-0.4c-0.3-0.1-0.5-0.3-0.8-0.4
				c-0.3-0.2-0.6-0.4-0.8-0.5c-0.2-0.2-0.5-0.5-0.7-0.7c-0.2-0.3-0.2-0.6-0.2-1v-0.4c0-0.6,0.2-1.1,0.7-1.4s1-0.5,1.7-0.5
				c0.5,0,0.9,0.1,1.2,0.2c0.3,0.1,0.6,0.2,0.8,0.5c0.2,0.2,0.4,0.4,0.5,0.7c0.1,0.2,0.1,0.5,0.1,0.8v0.7H268
				c-0.3,0-0.5-0.1-0.7-0.1c-0.2,0-0.3-0.3-0.3-0.7c0-0.2-0.1-0.4-0.2-0.7C266.6,303.7,266.4,303.6,266.1,303.6z"/>
			<rect x="64.5" y="301.1" width="26.7" height="17.6"/>
			<g>
				<path fill="#FFFFFF" d="M79.5,304.5c-0.1,0.1-0.1,0.2-0.2,0.3c-0.1,0.1-0.2,0.1-0.3,0.2v9.3c0,0.1,0,0.2,0.1,0.2
					c0.1,0.1,0.1,0.1,0.1,0.1s0.2,0.2,0.2,0.3c0.1,0.1,0.1,0.3,0.1,0.5v0.5h-2.7v-0.6c0-0.2,0.1-0.4,0.1-0.5s0.2-0.2,0.2-0.3
					c0.1-0.1,0.1-0.1,0.1-0.1c0.1-0.1,0.1-0.1,0.1-0.2v-6.8c0,0,0-0.1-0.1-0.1c0,0-0.1,0-0.1,0.1c-0.4,0.7-0.8,1.4-1.1,2
					c-0.1,0.2-0.3,0.5-0.4,0.8c-0.1,0.2-0.2,0.5-0.4,0.7c-0.1,0.2-0.2,0.4-0.3,0.5c-0.1,0.1-0.1,0.2-0.1,0.2
					c-0.1,0.1-0.1,0.1-0.2,0.2s-0.2,0.1-0.4,0.1s-0.2,0-0.4-0.1c-0.1-0.1-0.2-0.1-0.2-0.2s-0.1-0.1-0.1-0.2
					c-0.1-0.1-0.2-0.3-0.3-0.5c-0.1-0.2-0.2-0.4-0.4-0.7c-0.1-0.2-0.3-0.5-0.4-0.8c-0.3-0.6-0.7-1.2-1.1-2c0,0,0-0.1-0.1-0.1
					c0,0,0,0,0,0.1v6.8l0,0c0,0.1,0,0.2,0.1,0.2c0,0.1,0.1,0.1,0.1,0.1c0.1,0.1,0.2,0.2,0.2,0.3c0.1,0.1,0.1,0.3,0.1,0.5v0.5H69
					v-0.4c0-0.2,0.1-0.4,0.1-0.5s0.2-0.2,0.2-0.3c0.1-0.1,0.1-0.1,0.1-0.1c0.1-0.1,0.1-0.1,0.1-0.2V305c-0.1-0.1-0.2-0.1-0.3-0.2
					c-0.1-0.1-0.1-0.2-0.2-0.3c-0.1-0.1-0.1-0.2-0.1-0.5v-0.5h1.7c0.1,0,0.1,0,0.2,0.1c0.1,0.1,0.1,0.1,0.2,0.2
					c0.1,0.2,0.2,0.5,0.4,0.8c0.2,0.4,0.4,0.7,0.5,1.1c0.2,0.4,0.4,0.8,0.7,1.3c0.2,0.4,0.4,0.8,0.7,1.2c0.2,0.4,0.4,0.7,0.5,0.9
					c0.1,0.2,0.2,0.4,0.2,0.4c0,0.1,0.1,0.1,0.1,0.1l0.1-0.1c0,0,0.1-0.1,0.1-0.2c0.1-0.2,0.2-0.4,0.4-0.7c0.1-0.3,0.3-0.6,0.5-1
					c0.2-0.4,0.4-0.7,0.5-1.1l1.5-2.9c0.1-0.1,0.1-0.2,0.2-0.2c0.1-0.1,0.1-0.1,0.2-0.1h1.6v0.5C79.7,304.2,79.6,304.4,79.5,304.5z"
					/>
				<path fill="#FFFFFF" d="M83.1,307.6c0.4,0,0.8,0.1,1.1,0.2c0.3,0.1,0.6,0.3,0.8,0.5c0.2,0.2,0.4,0.4,0.5,0.7s0.2,0.5,0.2,0.8
					v3.9c0,0.7-0.2,1.3-0.7,1.7c-0.5,0.4-1.1,0.6-1.9,0.6s-1.5-0.2-2-0.7s-0.7-1.1-0.7-1.9v-3.3c0-0.8,0.2-1.5,0.7-1.9
					C81.6,307.8,82.3,307.6,83.1,307.6z M83.1,314.7c0.3,0,0.5-0.1,0.8-0.3c0.2-0.2,0.3-0.5,0.3-0.8v-3.4c0-0.5-0.1-0.8-0.3-1
					c-0.2-0.2-0.5-0.2-0.8-0.2c-0.3,0-0.5,0.1-0.8,0.2c-0.2,0.2-0.3,0.5-0.3,0.9v3.5c0,0.4,0.1,0.7,0.3,0.9
					C82.5,314.5,82.8,314.7,83.1,314.7z"/>
			</g>
			<polygon points="91.3,301.1 95.7,294.4 95.7,312 91.3,318.6 			"/>
			<polygon points="113.1,312 117.4,310.4 117.4,290.1 113.1,294.4 			"/>
			<polygon points="146.9,290.1 149.7,301.1 149.7,325 146.9,310.4 			"/>
		</g>
		<g>
			<rect x="555.8" y="301.1" width="30.9" height="23.1"/>
			<rect x="466.3" y="294.4" width="17.3" height="17.6"/>
			<g>
				<path fill="#FFFFFF" d="M473,308.2c0.1,0.1,0.2,0.1,0.2,0.3c0.1,0.1,0.1,0.3,0.1,0.5v0.4h-2.7v-0.5c0-0.2,0.1-0.4,0.1-0.5
					c0.1-0.1,0.2-0.2,0.2-0.3c0.1-0.1,0.1-0.1,0.1-0.1s0.1-0.1,0.1-0.2v-9.2c0-0.1-0.1-0.2-0.2-0.3c-0.1-0.1-0.2-0.1-0.2-0.2
					c-0.1-0.1-0.1-0.3-0.1-0.5v-0.5h1.7c0.3,0,0.4,0.1,0.4,0.4v10.4c0,0.1,0,0.2,0.1,0.2C473,308.1,473,308.2,473,308.2z"/>
				<path fill="#FFFFFF" d="M476.8,301.1c0.4,0,0.8,0.1,1.1,0.2c0.3,0.1,0.6,0.3,0.8,0.5c0.2,0.2,0.4,0.4,0.5,0.7
					c0.1,0.3,0.2,0.5,0.2,0.8v3.9c0,0.7-0.2,1.3-0.7,1.7c-0.5,0.4-1.1,0.6-1.9,0.6c-0.8,0-1.5-0.2-2-0.7c-0.5-0.4-0.7-1.1-0.7-1.9
					v-3.3c0-0.8,0.2-1.5,0.7-1.9S476,301.1,476.8,301.1z M476.8,308.2c0.3,0,0.5-0.1,0.8-0.3c0.2-0.2,0.3-0.5,0.3-0.8v-3.4
					c0-0.5-0.1-0.8-0.3-1c-0.2-0.2-0.5-0.2-0.8-0.2c-0.3,0-0.5,0.1-0.8,0.2c-0.2,0.2-0.3,0.5-0.3,0.9v3.4c0,0.4,0.1,0.7,0.3,0.9
					C476.3,308.1,476.5,308.2,476.8,308.2z"/>
			</g>
			<rect x="488" y="290.1" width="29.4" height="20.3"/>
			<g>
				<path fill="#FFFFFF" d="M497.3,297.7v0.5c0,0.2-0.1,0.4-0.1,0.5c-0.1,0.1-0.2,0.2-0.2,0.3c0,0-0.1,0.2-0.1,0.4
					c-0.1,0.2-0.1,0.6-0.2,1c-0.1,0.4-0.1,0.8-0.2,1.4c-0.1,0.5-0.2,1-0.2,1.5c-0.1,0.5-0.1,1-0.2,1.3c-0.1,0.4-0.1,0.7-0.2,1
					c-0.1,0.2-0.1,0.3-0.2,0.4c-0.1,0.1-0.2,0.1-0.3,0.1h-1.5c-0.2,0-0.4,0-0.5-0.1c-0.1-0.1-0.2-0.2-0.2-0.4c0-0.1-0.1-0.2-0.1-0.6
					c-0.1-0.3-0.1-0.7-0.2-1.1c-0.1-0.5-0.2-0.9-0.2-1.4c-0.1-0.5-0.2-1-0.2-1.4c-0.1-0.4-0.1-0.8-0.2-1.1c-0.1-0.3-0.1-0.5-0.1-0.5
					c-0.1-0.1-0.1-0.2-0.1-0.2l-0.1-0.1c-0.1-0.1-0.2-0.1-0.2-0.2c-0.1-0.1-0.1-0.3-0.1-0.5V298h1.4c0.2,0,0.3,0,0.4,0.1
					c0.1,0.1,0.1,0.2,0.2,0.4c0,0,0,0.1,0.1,0.3c0.1,0.2,0.1,0.4,0.1,0.8c0.1,0.3,0.1,0.7,0.2,1.1c0.1,0.4,0.1,0.8,0.2,1.2
					c0.1,1,0.3,2,0.5,3.2c0.2-1.1,0.3-2.1,0.4-3c0.1-0.4,0.1-0.8,0.2-1.1c0.1-0.3,0.1-0.7,0.2-1c0.1-0.3,0.1-0.5,0.1-0.7
					s0.1-0.3,0.1-0.4c0.1-0.1,0.1-0.2,0.1-0.3s0.1-0.2,0.1-0.2c0-0.1,0.1-0.1,0.1-0.1c0.1,0,0.2-0.1,0.3-0.1h1.4v-0.5H497.3z"/>
				<path fill="#FFFFFF" d="M500.4,304.8c0.1,0.1,0.2,0.1,0.2,0.3c0.1,0.1,0.1,0.3,0.1,0.5v0.5H498v-0.5c0-0.2,0.1-0.4,0.1-0.5
					c0.1-0.1,0.2-0.2,0.2-0.3c0.1-0.1,0.1-0.1,0.1-0.1c0.1-0.1,0.1-0.1,0.1-0.2v-5.2c0-0.1-0.1-0.2-0.2-0.3
					c-0.1-0.1-0.2-0.1-0.2-0.2c-0.1-0.1-0.1-0.3-0.1-0.5v-0.5h1.7c0.2,0,0.4,0.1,0.4,0.3v6.4c0,0.1,0,0.2,0.1,0.2
					C500.3,304.7,500.3,304.7,500.4,304.8z M499.3,296.7c-0.2,0-0.5-0.1-0.6-0.2c-0.2-0.2-0.2-0.4-0.2-0.6c0-0.2,0.1-0.5,0.2-0.6
					c0.2-0.2,0.4-0.2,0.6-0.2c0.2,0,0.4,0.1,0.6,0.2s0.2,0.4,0.2,0.6c0,0.2-0.1,0.4-0.2,0.6C499.8,296.7,499.6,296.7,499.3,296.7z"
					/>
				<path fill="#FFFFFF" d="M505.1,300c0-0.3-0.1-0.5-0.2-0.7c-0.2-0.2-0.4-0.3-0.7-0.3c-0.3,0-0.5,0.1-0.7,0.3
					c-0.2,0.2-0.2,0.5-0.2,0.8v3.5c0,0.4,0.1,0.7,0.2,0.9c0.2,0.2,0.4,0.2,0.7,0.2s0.5-0.1,0.7-0.2c0.2-0.2,0.2-0.5,0.2-0.8l0,0
					c0-0.5,0.3-0.8,0.9-0.8h0.7v1c0,0.7-0.2,1.3-0.7,1.7c-0.5,0.4-1.1,0.6-1.8,0.6c-0.8,0-1.5-0.2-1.9-0.6s-0.7-1-0.7-1.8v-3.4
					c0-0.8,0.2-1.5,0.7-1.9c0.4-0.4,1.1-0.6,1.9-0.6c0.4,0,0.8,0.1,1.1,0.2c0.3,0.1,0.6,0.3,0.8,0.5c0.2,0.2,0.4,0.4,0.5,0.7
					c0.1,0.2,0.2,0.5,0.2,0.8v0.8h-0.7C505.4,300.7,505.1,300.5,505.1,300z"/>
				<path fill="#FFFFFF" d="M513.5,304.8c0.1,0.1,0.2,0.1,0.2,0.2c0.1,0.1,0.1,0.3,0.1,0.5v0.5h-1.4c-0.5,0-0.7-0.4-0.7-1v-4.8
					c-0.1-0.4-0.1-0.8-0.4-1c-0.2-0.2-0.4-0.3-0.7-0.3c-0.2,0-0.4,0-0.5,0.1c-0.1,0.1-0.2,0.1-0.4,0.2c-0.1,0.1-0.2,0.1-0.2,0.2v5
					c0,0.1,0,0.2,0.1,0.2c0.1,0.1,0.1,0.1,0.1,0.1c0.1,0.1,0.2,0.1,0.2,0.2c0.1,0.1,0.1,0.3,0.1,0.5v0.5h-2.6v-0.5
					c0-0.2,0.1-0.4,0.1-0.5c0.1-0.1,0.2-0.2,0.2-0.2c0.1-0.1,0.1-0.1,0.1-0.1c0.1-0.1,0.1-0.1,0.1-0.2v-9.2c0-0.2-0.1-0.3-0.2-0.4
					s-0.2-0.2-0.2-0.3c-0.1-0.1-0.1-0.3-0.1-0.5v-0.4h1.8c0.2,0,0.4,0.1,0.4,0.4v4.2c0.1-0.1,0.2-0.2,0.4-0.2
					c0.1-0.1,0.3-0.1,0.5-0.2c0.2-0.1,0.4-0.1,0.6-0.1c0.8,0,1.4,0.2,1.7,0.7c0.4,0.5,0.5,1.1,0.5,2v4.1c0,0.1,0,0.2,0.1,0.2
					C513.4,304.7,513.5,304.7,513.5,304.8z"/>
			</g>
			<rect x="520.2" y="301.1" width="18.7" height="23.9"/>
			<g>
				<path fill="#FFFFFF" d="M527.8,319c0,0.7-0.2,1.3-0.5,1.7c-0.4,0.4-0.8,0.7-1.4,0.8c-0.1,0-0.1,0-0.2,0s-0.1-0.1-0.1-0.1v-1.3
					c0-0.1,0-0.1,0.1-0.1l0.1-0.1c0.1-0.1,0.2-0.2,0.4-0.3c0.1-0.1,0.1-0.4,0.1-0.6v-8.4c0-0.1-0.1-0.2-0.2-0.3
					c-0.1-0.1-0.2-0.1-0.2-0.2c-0.1-0.1-0.1-0.3-0.1-0.5v-0.5h1.8c0.1,0,0.2,0,0.3,0.1c0.1,0.1,0.1,0.2,0.1,0.3L527.8,319L527.8,319
					z M526.8,308.1c-0.2,0-0.5-0.1-0.6-0.2c-0.2-0.2-0.2-0.4-0.2-0.6c0-0.2,0.1-0.5,0.2-0.6c0.2-0.2,0.4-0.2,0.6-0.2
					c0.2,0,0.4,0.1,0.6,0.2c0.2,0.2,0.2,0.4,0.2,0.6c0,0.2-0.1,0.4-0.2,0.6C527.3,307.9,527.1,308.1,526.8,308.1z"/>
				<path fill="#FFFFFF" d="M530.6,313.6v1.5c0,0.4,0.1,0.7,0.3,0.8c0.2,0.1,0.5,0.2,0.8,0.2c0.3,0,0.5-0.1,0.7-0.2
					c0.2-0.2,0.3-0.4,0.2-0.6v-0.1c0-0.2,0.1-0.5,0.2-0.7c0.2-0.2,0.4-0.3,0.7-0.3h0.7v1.1c0,0.7-0.2,1.2-0.7,1.5
					c-0.5,0.3-1.1,0.5-1.9,0.5s-1.5-0.2-2-0.6c-0.5-0.4-0.7-1-0.7-1.8v-3.3c0-0.8,0.2-1.5,0.7-2c0.5-0.5,1.1-0.7,2-0.7
					s1.4,0.2,1.9,0.7c0.5,0.5,0.7,1.1,0.7,2v1.1c0,0.5-0.4,0.8-1.1,0.8C533.1,313.6,530.6,313.6,530.6,313.6z M530.6,312.5h1.9h0.2
					v-0.9c0-0.4-0.1-0.8-0.3-1c-0.2-0.2-0.5-0.3-0.8-0.3c-0.3,0-0.5,0.1-0.8,0.3c-0.2,0.2-0.3,0.5-0.3,1L530.6,312.5L530.6,312.5z"
					/>
			</g>
			<path fill="#FFFFFF" d="M565.7,308v0.5c0,0.2-0.1,0.4-0.1,0.5s-0.2,0.2-0.2,0.3c-0.1,0.1-0.1,0.1-0.1,0.1c0,0.1-0.1,0.1-0.1,0.2
				v8.4c0,0.8-0.2,1.5-0.7,1.9c-0.5,0.4-1.1,0.6-2,0.6c-0.4,0-0.8-0.1-1.1-0.2s-0.6-0.3-0.8-0.5c-0.2-0.2-0.4-0.4-0.5-0.7
				c-0.1-0.2-0.2-0.5-0.2-0.8v-1h0.7c0.6,0,0.9,0.2,0.9,0.8v0.2c0,0.3,0.1,0.5,0.2,0.7c0.2,0.2,0.4,0.2,0.8,0.2
				c0.3,0,0.6-0.1,0.8-0.2c0.2-0.2,0.4-0.4,0.4-0.9v-2.2c-0.2,0.1-0.4,0.2-0.5,0.4c-0.2,0.1-0.5,0.1-0.8,0.1c-0.8,0-1.4-0.2-1.8-0.8
				c-0.4-0.6-0.6-1.2-0.6-2v-3c0-0.8,0.2-1.5,0.5-2c0.4-0.5,0.9-0.7,1.7-0.7c0.4,0,0.8,0.1,1,0.2s0.4,0.2,0.5,0.2
				c0-0.1,0.1-0.1,0.1-0.2s0.1-0.1,0.1-0.1c0.1-0.1,0.1-0.1,0.2-0.1L565.7,308L565.7,308z M563.6,314.4v-4.7
				c-0.1-0.1-0.2-0.2-0.2-0.2c-0.1-0.1-0.2-0.1-0.3-0.2s-0.3-0.1-0.5-0.1c-0.3,0-0.6,0.1-0.8,0.3c-0.2,0.2-0.3,0.5-0.3,0.8v3.5
				c0,0.4,0.1,0.7,0.2,0.9c0.2,0.2,0.4,0.3,0.7,0.3c0.2,0,0.4,0,0.5-0.1s0.2-0.1,0.4-0.2C563.4,314.6,563.5,314.5,563.6,314.4
				L563.6,314.4L563.6,314.4z"/>
			<path fill="#FFFFFF" d="M568.7,315c0.1,0.1,0.2,0.1,0.2,0.3c0.1,0.1,0.1,0.3,0.1,0.5v0.5h-2.7v-0.5c0-0.2,0.1-0.4,0.1-0.5
				c0.1-0.1,0.2-0.2,0.2-0.3c0.1-0.1,0.1-0.1,0.1-0.1s0.1-0.1,0.1-0.2v-5.2c0-0.1-0.1-0.2-0.2-0.3c-0.1-0.1-0.2-0.1-0.2-0.2
				s-0.1-0.3-0.1-0.5V308h1.7c0.2,0,0.4,0.1,0.4,0.3v6.4c0,0.1,0,0.2,0.1,0.2C568.6,315,568.7,315,568.7,315z M567.6,307
				c-0.2,0-0.5-0.1-0.6-0.2c-0.2-0.2-0.2-0.4-0.2-0.6s0.1-0.5,0.2-0.6c0.2-0.2,0.4-0.2,0.6-0.2c0.2,0,0.4,0.1,0.6,0.2
				c0.2,0.2,0.2,0.4,0.2,0.6s-0.1,0.4-0.2,0.6C568.1,306.9,567.9,307,567.6,307z"/>
			<path fill="#FFFFFF" d="M575.8,315c0.1,0.1,0.2,0.2,0.2,0.3c0.1,0.1,0.1,0.3,0.1,0.5v0.5h-1.4c-0.3,0-0.5-0.1-0.6-0.3
				s-0.2-0.5-0.2-0.7v-4.7c0-0.5-0.1-0.8-0.3-1c-0.2-0.2-0.5-0.2-0.8-0.2c-0.2,0-0.4,0-0.5,0.1s-0.2,0.1-0.4,0.2
				c-0.1,0.1-0.2,0.1-0.2,0.2v4.9c0,0.1,0,0.2,0.1,0.2c0.1,0.1,0.1,0.1,0.1,0.1s0.2,0.2,0.2,0.3s0.1,0.3,0.1,0.5v0.5h-2.7v-0.5
				c0-0.2,0.1-0.4,0.1-0.5s0.2-0.2,0.2-0.2c0.1-0.1,0.1-0.1,0.1-0.1c0.1-0.1,0.1-0.1,0.1-0.2v-5c0-0.1,0-0.1-0.1-0.2
				c-0.1-0.1-0.1-0.1-0.1-0.1c-0.1-0.1-0.2-0.1-0.2-0.2c-0.1-0.1-0.1-0.3-0.1-0.5v-0.5h1.8c0.1,0,0.2,0,0.2,0.1
				c0.1,0.1,0.1,0.1,0.1,0.1c0,0.1,0.1,0.1,0.1,0.2c0.1-0.1,0.2-0.1,0.4-0.2c0.1-0.1,0.3-0.1,0.5-0.2s0.4-0.1,0.6-0.1
				c0.8,0,1.4,0.2,1.7,0.7c0.3,0.4,0.5,1.1,0.5,2v4.2c0,0.1,0,0.2,0.1,0.2C575.7,315,575.7,315,575.8,315z"/>
			<path fill="#FFFFFF" d="M582.9,308v0.5c0,0.2-0.1,0.4-0.1,0.5s-0.2,0.2-0.2,0.3c-0.1,0.1-0.1,0.1-0.1,0.1c0,0.1-0.1,0.1-0.1,0.2
				v8.4c0,0.8-0.2,1.5-0.7,1.9s-1.1,0.6-2,0.6c-0.4,0-0.8-0.1-1.1-0.2c-0.3-0.1-0.6-0.3-0.8-0.5c-0.2-0.2-0.4-0.4-0.5-0.7
				c-0.1-0.2-0.2-0.5-0.2-0.8v-1h0.7c0.6,0,0.9,0.2,0.9,0.8v0.2c0,0.3,0.1,0.5,0.2,0.7c0.2,0.2,0.4,0.2,0.8,0.2
				c0.3,0,0.6-0.1,0.8-0.2c0.2-0.2,0.4-0.4,0.4-0.9v-2.2c-0.2,0.1-0.4,0.2-0.5,0.4c-0.2,0.1-0.5,0.1-0.8,0.1c-0.8,0-1.4-0.2-1.8-0.8
				c-0.4-0.6-0.6-1.2-0.6-2v-3c0-0.8,0.2-1.5,0.5-2c0.4-0.5,0.9-0.7,1.7-0.7c0.4,0,0.8,0.1,1,0.2c0.2,0.1,0.4,0.2,0.5,0.2
				c0-0.1,0.1-0.1,0.1-0.2s0.1-0.1,0.1-0.1c0.1-0.1,0.1-0.1,0.2-0.1L582.9,308L582.9,308z M580.8,314.4v-4.7
				c-0.1-0.1-0.2-0.2-0.2-0.2c-0.1-0.1-0.2-0.1-0.3-0.2c-0.1-0.1-0.3-0.1-0.5-0.1c-0.3,0-0.6,0.1-0.8,0.3c-0.2,0.2-0.3,0.5-0.3,0.8
				v3.5c0,0.4,0.1,0.7,0.2,0.9c0.2,0.2,0.4,0.3,0.7,0.3c0.2,0,0.4,0,0.5-0.1s0.2-0.1,0.4-0.2C580.6,314.6,580.7,314.5,580.8,314.4
				L580.8,314.4L580.8,314.4z"/>
			<rect x="591.2" y="288.9" width="18.7" height="23.9"/>
			<g>
				<path fill="#FFFFFF" d="M597.7,295.3c0.4,0,0.8,0.1,1.1,0.2c0.3,0.1,0.6,0.3,0.8,0.5c0.2,0.2,0.4,0.4,0.5,0.7s0.2,0.5,0.2,0.8
					v3.9c0,0.7-0.2,1.3-0.7,1.7c-0.5,0.4-1.1,0.6-1.9,0.6c-0.8,0-1.5-0.2-2-0.7c-0.5-0.4-0.7-1.1-0.7-1.9v-3.3
					c0-0.8,0.2-1.5,0.7-1.9C596.3,295.6,596.9,295.3,597.7,295.3z M597.7,302.5c0.3,0,0.5-0.1,0.8-0.3c0.2-0.2,0.3-0.5,0.3-0.8V298
					c0-0.5-0.1-0.8-0.3-1c-0.2-0.2-0.5-0.2-0.8-0.2c-0.3,0-0.5,0.1-0.8,0.2c-0.2,0.2-0.3,0.5-0.3,0.9v3.5c0,0.4,0.1,0.7,0.3,0.9
					C597.2,302.4,597.4,302.5,597.7,302.5z"/>
				<path fill="#FFFFFF" d="M604.8,295.3c0.8,0,1.4,0.2,1.7,0.7c0.4,0.4,0.5,1.1,0.5,1.9v3.1c0,0.8-0.2,1.5-0.6,2
					c-0.4,0.5-1,0.7-1.8,0.7c-0.3,0-0.6-0.1-0.8-0.1c-0.2-0.1-0.4-0.2-0.6-0.4v3c0,0.1,0,0.2,0.1,0.2c0.1,0.1,0.1,0.1,0.1,0.1
					c0.1,0.1,0.2,0.2,0.2,0.3c0.1,0.1,0.1,0.3,0.1,0.5v0.5H601v-0.5c0-0.2,0.1-0.4,0.1-0.5c0.1-0.1,0.2-0.2,0.2-0.2
					c0.1-0.1,0.1-0.1,0.1-0.1c0.1-0.1,0.1-0.1,0.1-0.2v-9.2c0-0.1,0-0.2-0.1-0.2c-0.1-0.1-0.1-0.1-0.1-0.1c-0.1-0.1-0.2-0.1-0.2-0.3
					c-0.1-0.2-0.1-0.3-0.1-0.5v-0.5h1.8c0.1,0,0.1,0,0.2,0.1c0.1,0.1,0.1,0.1,0.1,0.1c0,0.1,0.1,0.1,0.1,0.2
					c0.1-0.1,0.2-0.1,0.5-0.2S604.3,295.3,604.8,295.3z M605.4,297.9c0-0.4-0.1-0.8-0.4-1c-0.2-0.2-0.5-0.4-0.8-0.4
					c-0.2,0-0.3,0-0.4,0.1c-0.1,0.1-0.2,0.1-0.4,0.2c-0.1,0.1-0.2,0.1-0.3,0.2v4.9c0.1,0.1,0.2,0.2,0.3,0.2c0.1,0.1,0.2,0.1,0.4,0.2
					c0.1,0.1,0.3,0.1,0.5,0.1c0.3,0,0.5-0.1,0.7-0.3c0.2-0.2,0.2-0.5,0.2-1L605.4,297.9L605.4,297.9z"/>
			</g>
			<rect x="614.5" y="296.1" width="29.4" height="20.3"/>
			<path fill="#FFFFFF" d="M623.8,303.8c-0.1,0-0.2,0-0.2,0c-0.2-0.1-0.5-0.1-0.8-0.1c-0.2,0.1-0.5,0.1-0.7,0.2s-0.4,0.2-0.5,0.4
				c-0.1,0.2-0.2,0.4-0.2,0.5v4.1c0,0.1,0,0.2,0.1,0.2c0,0.1,0.1,0.1,0.1,0.1c0.1,0.1,0.2,0.1,0.2,0.3c0.1,0.1,0.1,0.3,0.1,0.5v0.5
				h-2.7V310c0-0.2,0.1-0.4,0.1-0.5s0.2-0.2,0.2-0.3c0.1-0.1,0.1-0.1,0.1-0.1c0-0.1,0.1-0.1,0.1-0.2v-5c0-0.1-0.1-0.2-0.2-0.3
				c-0.1-0.1-0.2-0.1-0.2-0.2c-0.1-0.1-0.1-0.3-0.1-0.5v-0.5h1.7c0.2,0,0.4,0.1,0.4,0.4v0.2c0.1-0.1,0.3-0.2,0.5-0.3
				c0.1-0.1,0.3-0.2,0.5-0.2c0.2-0.1,0.4-0.1,0.5-0.1c0.2,0,0.5,0,0.7,0.1c0.1,0,0.1,0.1,0.2,0.1s0.1,0.1,0.1,0.2L623.8,303.8
				C623.9,303.8,623.9,303.8,623.8,303.8z"/>
			<path fill="#FFFFFF" d="M626.1,306.9v1.5c0,0.4,0.1,0.7,0.3,0.8s0.5,0.2,0.8,0.2c0.3,0,0.5-0.1,0.7-0.2c0.2-0.2,0.3-0.4,0.2-0.6
				v-0.1c0-0.2,0.1-0.5,0.2-0.7c0.2-0.2,0.4-0.3,0.7-0.3h0.7v1.1c0,0.7-0.2,1.2-0.7,1.5c-0.5,0.3-1.1,0.5-1.9,0.5s-1.5-0.2-2-0.6
				c-0.5-0.4-0.7-1-0.7-1.8v-3.3c0-0.8,0.2-1.5,0.7-2c0.5-0.5,1.1-0.7,2-0.7s1.4,0.2,1.9,0.7c0.5,0.5,0.7,1.1,0.7,2v1.1
				c0,0.5-0.4,0.8-1.1,0.8C628.6,306.9,626.1,306.9,626.1,306.9z M626.1,305.7h1.9h0.2v-0.8c0-0.4-0.1-0.8-0.3-1
				c-0.2-0.2-0.5-0.3-0.8-0.3c-0.3,0-0.5,0.1-0.8,0.3c-0.2,0.2-0.3,0.5-0.3,1L626.1,305.7L626.1,305.7z"/>
			<path fill="#FFFFFF" d="M632.9,309.4c0.1,0.1,0.2,0.1,0.2,0.3c0.1,0.1,0.1,0.3,0.1,0.5v0.5h-2.7v-0.5c0-0.2,0.1-0.4,0.1-0.5
				c0.1-0.1,0.2-0.2,0.2-0.3s0.1-0.1,0.1-0.1c0.1-0.1,0.1-0.1,0.1-0.2v-5.2c0-0.1-0.1-0.2-0.2-0.3s-0.2-0.1-0.2-0.2
				c-0.1-0.1-0.1-0.3-0.1-0.5v-0.5h1.7c0.2,0,0.4,0.1,0.4,0.3v6.4c0,0.1,0,0.2,0.1,0.2C632.9,309.3,632.9,309.4,632.9,309.4z
				 M631.9,301.3c-0.2,0-0.5-0.1-0.6-0.2c-0.2-0.2-0.2-0.4-0.2-0.6c0-0.2,0.1-0.5,0.2-0.6c0.2-0.2,0.4-0.2,0.6-0.2s0.4,0.1,0.6,0.2
				c0.2,0.2,0.2,0.4,0.2,0.6c0,0.2-0.1,0.4-0.2,0.6C632.3,301.2,632.1,301.3,631.9,301.3z"/>
			<path fill="#FFFFFF" d="M636.7,303.6c-0.2,0-0.3,0.1-0.4,0.1c-0.1,0.1-0.2,0.1-0.2,0.2c-0.1,0.1-0.1,0.2-0.1,0.3
				c0,0.1-0.1,0.2-0.1,0.3l0,0c0,0.2,0.1,0.5,0.2,0.6c0.2,0.2,0.4,0.4,0.7,0.5c0.2,0.1,0.5,0.3,0.8,0.4c0.3,0.1,0.6,0.3,0.8,0.5
				c0.2,0.2,0.5,0.4,0.7,0.7c0.2,0.2,0.2,0.5,0.2,0.9v0.4c0,0.8-0.2,1.3-0.7,1.7c-0.5,0.4-1.1,0.6-1.8,0.6c-0.8,0-1.5-0.2-2-0.5
				c-0.5-0.4-0.8-0.9-0.8-1.6v-1.1h0.8c0.3,0,0.5,0.1,0.7,0.2c0.2,0.1,0.2,0.3,0.2,0.7v0.1c0,0.3,0.1,0.5,0.2,0.7
				c0.1,0.2,0.4,0.3,0.8,0.3c0.4,0,0.7-0.1,0.8-0.3c0.1-0.2,0.2-0.5,0.2-0.8v-0.2c0-0.2-0.1-0.4-0.2-0.5c-0.2-0.1-0.4-0.3-0.7-0.4
				c-0.2-0.1-0.5-0.3-0.8-0.4c-0.3-0.2-0.6-0.4-0.8-0.5c-0.2-0.2-0.5-0.5-0.7-0.7c-0.2-0.3-0.2-0.6-0.2-1v-0.4
				c0-0.6,0.2-1.1,0.7-1.4c0.5-0.3,1-0.5,1.7-0.5c0.5,0,0.9,0.1,1.2,0.2c0.4,0.1,0.6,0.2,0.8,0.5c0.2,0.2,0.4,0.4,0.5,0.7
				c0.1,0.2,0.1,0.5,0.1,0.8v0.7h-0.7c-0.3,0-0.5-0.1-0.7-0.1c-0.2-0.1-0.3-0.3-0.3-0.7c0-0.2-0.1-0.4-0.2-0.7
				C637.2,303.7,637,303.6,636.7,303.6z"/>
			<rect x="435.1" y="301.1" width="26.7" height="17.6"/>
			<g>
				<path fill="#FFFFFF" d="M450.2,304.5c-0.1,0.1-0.1,0.2-0.2,0.3c-0.1,0.1-0.2,0.1-0.3,0.2v9.3c0,0.1,0,0.2,0.1,0.2
					c0.1,0.1,0.1,0.1,0.1,0.1c0.1,0.1,0.2,0.2,0.2,0.3c0.1,0.1,0.1,0.3,0.1,0.5v0.5h-2.7v-0.6c0-0.2,0.1-0.4,0.1-0.5
					c0.1-0.1,0.2-0.2,0.2-0.3c0.1-0.1,0.1-0.1,0.1-0.1c0.1-0.1,0.1-0.1,0.1-0.2v-6.8c0,0,0-0.1-0.1-0.1c0,0-0.1,0-0.1,0.1
					c-0.4,0.7-0.8,1.4-1.1,2c-0.1,0.2-0.3,0.5-0.4,0.8c-0.1,0.2-0.2,0.5-0.4,0.7c-0.1,0.2-0.2,0.4-0.3,0.5c-0.1,0.1-0.1,0.2-0.1,0.2
					c-0.1,0.1-0.1,0.1-0.2,0.2s-0.2,0.1-0.4,0.1c-0.1,0-0.2,0-0.4-0.1c-0.1-0.1-0.2-0.1-0.2-0.2s-0.1-0.1-0.1-0.2
					c-0.1-0.1-0.2-0.3-0.3-0.5c-0.1-0.2-0.2-0.4-0.4-0.7c-0.1-0.3-0.3-0.5-0.4-0.8c-0.3-0.6-0.7-1.2-1.1-2c0,0,0-0.1-0.1-0.1
					c0,0,0,0,0,0.1v6.8l0,0c0,0.1,0,0.2,0.1,0.2c0,0.1,0.1,0.1,0.1,0.1c0.1,0.1,0.2,0.2,0.2,0.3c0.1,0.1,0.1,0.3,0.1,0.5v0.5h-2.7
					v-0.4c0-0.2,0.1-0.4,0.1-0.5c0.1-0.1,0.2-0.2,0.2-0.3c0.1-0.1,0.1-0.1,0.1-0.1c0.1-0.1,0.1-0.1,0.1-0.2V305
					c-0.1-0.1-0.2-0.1-0.3-0.2c-0.1-0.1-0.1-0.2-0.2-0.3s-0.1-0.2-0.1-0.5v-0.5h1.7c0.1,0,0.1,0,0.2,0.1c0.1,0.1,0.1,0.1,0.2,0.2
					c0.1,0.2,0.2,0.5,0.4,0.8c0.2,0.3,0.4,0.7,0.5,1.1c0.2,0.4,0.4,0.8,0.7,1.3c0.2,0.4,0.4,0.8,0.7,1.2c0.2,0.4,0.4,0.7,0.5,0.9
					c0.1,0.2,0.2,0.4,0.2,0.4c0,0.1,0.1,0.1,0.1,0.1l0.1-0.1c0,0,0.1-0.1,0.1-0.2c0.1-0.2,0.2-0.4,0.4-0.7c0.1-0.3,0.3-0.6,0.5-1
					c0.2-0.4,0.4-0.7,0.5-1.1l1.5-2.9c0.1-0.1,0.1-0.2,0.2-0.2c0.1-0.1,0.1-0.1,0.2-0.1h1.6v0.5
					C450.3,304.2,450.2,304.4,450.2,304.5z"/>
				<path fill="#FFFFFF" d="M453.7,307.6c0.4,0,0.8,0.1,1.1,0.2c0.3,0.1,0.6,0.3,0.8,0.5c0.2,0.2,0.4,0.4,0.5,0.7
					c0.1,0.3,0.2,0.5,0.2,0.8v3.9c0,0.7-0.2,1.3-0.7,1.7c-0.5,0.4-1.1,0.6-1.9,0.6c-0.8,0-1.5-0.2-2-0.7s-0.7-1.1-0.7-1.9v-3.3
					c0-0.8,0.2-1.5,0.7-1.9C452.2,307.8,452.9,307.6,453.7,307.6z M453.7,314.7c0.3,0,0.5-0.1,0.8-0.3c0.2-0.2,0.3-0.5,0.3-0.8v-3.4
					c0-0.5-0.1-0.8-0.3-1c-0.2-0.2-0.5-0.2-0.8-0.2c-0.3,0-0.5,0.1-0.8,0.2c-0.2,0.2-0.3,0.5-0.3,0.9v3.5c0,0.4,0.1,0.7,0.3,0.9
					C453.1,314.5,453.4,314.7,453.7,314.7z"/>
			</g>
			<polygon points="461.9,301.1 466.3,294.4 466.3,312 461.9,318.6 			"/>
			<polygon points="483.7,312 488,310.4 488,290.1 483.7,294.4 			"/>
			<polygon points="517.4,290.1 520.2,301.1 520.2,325 517.4,310.4 			"/>
		</g>
		<g>
			<g>
				<rect x="290.9" y="294.4" width="18.7" height="21.7"/>
				<rect x="335.9" y="274.3" width="18.7" height="21.7"/>
				<rect x="312.9" y="286.1" width="18.7" height="21.7"/>
				<path fill="#FFFFFF" d="M297.5,309.4c0.1,0,0.1,0,0.2,0c0.1,0,0.1,0.1,0.1,0.2v0.6c0,0.1,0,0.2-0.1,0.3
					c-0.1,0.1-0.1,0.1-0.1,0.1c-0.4,0.1-0.8,0.1-1.1,0.1c-0.3-0.1-0.6-0.2-0.8-0.3c-0.2-0.2-0.4-0.4-0.5-0.6
					c-0.1-0.2-0.2-0.5-0.2-0.8v-5.2h-1v-0.4c0-0.4,0.1-0.6,0.2-0.8s0.4-0.2,0.8-0.2v-2v-0.1c0-0.4,0.1-0.7,0.2-0.8
					c0.2-0.2,0.4-0.4,0.5-0.4c0.2-0.1,0.5-0.2,0.8-0.2v3.6h1v0.4c0,0.3-0.1,0.6-0.2,0.8c-0.2,0.2-0.4,0.3-0.8,0.3v4.9
					c0,0.2,0.1,0.4,0.2,0.5C296.9,309.4,297.2,309.4,297.5,309.4z"/>
				<path fill="#FFFFFF" d="M300.7,309.4c0.1,0.1,0.2,0.1,0.2,0.3c0.1,0.1,0.1,0.3,0.1,0.5v0.5h-2.7v-0.5c0-0.2,0.1-0.4,0.1-0.5
					c0.1-0.1,0.2-0.2,0.2-0.3c0.1-0.1,0.1-0.1,0.1-0.1c0.1-0.1,0.1-0.1,0.1-0.2v-5.2c0-0.1-0.1-0.2-0.2-0.3
					c-0.1-0.1-0.2-0.1-0.2-0.2s-0.1-0.3-0.1-0.5v-0.5h1.7c0.2,0,0.4,0.1,0.4,0.3v6.4c0,0.1,0,0.2,0.1,0.2
					C300.6,309.3,300.7,309.4,300.7,309.4z M299.7,301.3c-0.2,0-0.5-0.1-0.6-0.2c-0.2-0.2-0.2-0.4-0.2-0.6c0-0.2,0.1-0.5,0.2-0.6
					c0.1-0.1,0.4-0.2,0.6-0.2c0.2,0,0.4,0.1,0.6,0.2c0.2,0.2,0.2,0.4,0.2,0.6c0,0.2-0.1,0.4-0.2,0.6
					C300.1,301.3,299.9,301.3,299.7,301.3z"/>
				<path fill="#FFFFFF" d="M303.5,306.9v1.5c0,0.4,0.1,0.7,0.3,0.8s0.5,0.2,0.8,0.2c0.3,0,0.5-0.1,0.7-0.2c0.2-0.2,0.3-0.4,0.2-0.6
					v-0.1c0-0.2,0.1-0.5,0.2-0.7c0.2-0.2,0.4-0.3,0.7-0.3h0.7v1.1c0,0.7-0.2,1.2-0.7,1.5c-0.5,0.3-1.1,0.5-1.9,0.5
					c-0.8,0-1.5-0.2-2-0.6s-0.7-1-0.7-1.8v-3.3c0-0.8,0.2-1.5,0.7-2s1.1-0.7,2-0.7s1.4,0.2,1.9,0.7c0.5,0.5,0.7,1.1,0.7,2v1.1
					c0,0.5-0.4,0.8-1.1,0.8C305.9,306.9,303.5,306.9,303.5,306.9z M303.5,305.7h1.9h0.2v-0.8c0-0.4-0.1-0.8-0.3-1
					c-0.2-0.2-0.5-0.3-0.8-0.3c-0.3,0-0.5,0.1-0.8,0.3c-0.2,0.2-0.3,0.5-0.3,1L303.5,305.7L303.5,305.7z"/>
				<path fill="#FFFFFF" d="M321.9,294.9c-0.1,0-0.2,0-0.2,0c-0.2-0.1-0.5-0.1-0.8-0.1c-0.2,0.1-0.5,0.1-0.7,0.2
					c-0.2,0.1-0.4,0.2-0.5,0.4c-0.1,0.2-0.2,0.4-0.2,0.5v4.1c0,0.1,0,0.2,0.1,0.2c0,0.1,0.1,0.1,0.1,0.1c0.1,0.1,0.2,0.1,0.2,0.3
					c0.1,0.1,0.1,0.3,0.1,0.5v0.5h-2.7v-0.5c0-0.2,0.1-0.4,0.1-0.5s0.2-0.2,0.2-0.3c0.1-0.1,0.1-0.1,0.1-0.1s0.1-0.1,0.1-0.2v-5
					c0-0.1-0.1-0.2-0.2-0.3c-0.1-0.1-0.2-0.1-0.2-0.2c-0.1-0.1-0.1-0.3-0.1-0.5v-0.5h1.7c0.2,0,0.4,0.1,0.4,0.4v0.2
					c0.1-0.1,0.3-0.2,0.5-0.3c0.1-0.1,0.3-0.2,0.5-0.2c0.2-0.1,0.4-0.1,0.5-0.1c0.2,0,0.5,0,0.7,0.1c0.1,0,0.1,0.1,0.2,0.1
					c0.1,0.1,0.1,0.1,0.1,0.2L321.9,294.9C322,294.8,322,294.9,321.9,294.9z"/>
				<path fill="#FFFFFF" d="M324.2,297.9v1.5c0,0.4,0.1,0.7,0.3,0.8c0.2,0.1,0.5,0.2,0.8,0.2c0.3,0,0.5-0.1,0.7-0.2
					c0.2-0.2,0.3-0.4,0.2-0.6v-0.1c0-0.2,0.1-0.5,0.2-0.7c0.1-0.2,0.4-0.3,0.7-0.3h0.7v1.1c0,0.7-0.2,1.2-0.7,1.5
					c-0.5,0.3-1.1,0.5-1.9,0.5c-0.8,0-1.5-0.2-2-0.6s-0.7-1-0.7-1.8v-3.3c0-0.8,0.2-1.5,0.7-2s1.1-0.7,2-0.7s1.4,0.2,1.9,0.7
					c0.5,0.5,0.7,1.1,0.7,2v1.1c0,0.5-0.4,0.8-1.1,0.8C326.7,297.9,324.2,297.9,324.2,297.9z M324.2,296.8h1.9h0.2V296
					c0-0.4-0.1-0.8-0.3-1c-0.2-0.2-0.5-0.3-0.8-0.3c-0.3,0-0.5,0.1-0.8,0.3c-0.2,0.2-0.3,0.5-0.3,1L324.2,296.8L324.2,296.8z"/>
				<rect x="358.8" y="280.5" width="18.7" height="21.7"/>
				<path fill="#FFFFFF" d="M367.8,289.3c-0.1,0-0.2,0-0.2,0c-0.2-0.1-0.5-0.1-0.8-0.1c-0.2,0.1-0.5,0.1-0.7,0.2
					c-0.2,0.1-0.4,0.2-0.5,0.4c-0.1,0.2-0.2,0.4-0.2,0.5v4.1c0,0.1,0,0.2,0.1,0.2c0,0.1,0.1,0.1,0.1,0.1c0.1,0.1,0.2,0.1,0.2,0.3
					c0.1,0.1,0.1,0.3,0.1,0.5v0.5h-2.7v-0.4c0-0.2,0.1-0.4,0.1-0.5c0.1-0.1,0.2-0.2,0.2-0.3c0.1-0.1,0.1-0.1,0.1-0.1
					c0-0.1,0.1-0.1,0.1-0.2v-5c0-0.1-0.1-0.2-0.2-0.3c-0.1-0.1-0.2-0.1-0.2-0.2c-0.1-0.1-0.1-0.3-0.1-0.5V288h1.7
					c0.2,0,0.4,0.1,0.4,0.4v0.2c0.1-0.1,0.3-0.2,0.5-0.3c0.1-0.1,0.3-0.2,0.5-0.2c0.2-0.1,0.4-0.1,0.5-0.1c0.2,0,0.5,0,0.7,0.1
					c0.1,0,0.1,0.1,0.2,0.1c0.1,0.1,0.1,0.1,0.1,0.2v1C368,289.2,367.9,289.2,367.8,289.3z"/>
				<path fill="#FFFFFF" d="M370.2,292.3v1.5c0,0.4,0.1,0.7,0.3,0.8c0.2,0.1,0.5,0.2,0.8,0.2s0.5-0.1,0.7-0.2
					c0.2-0.2,0.3-0.4,0.2-0.6v-0.1c0-0.2,0.1-0.5,0.2-0.7c0.2-0.2,0.4-0.3,0.7-0.3h0.7v1.1c0,0.7-0.2,1.2-0.7,1.5
					c-0.5,0.3-1.1,0.5-1.9,0.5c-0.8,0-1.5-0.2-2-0.6c-0.5-0.4-0.7-1-0.7-1.8v-3.3c0-0.8,0.2-1.5,0.7-2s1.1-0.7,2-0.7
					s1.4,0.2,1.9,0.7s0.7,1.1,0.7,2v1.1c0,0.5-0.4,0.8-1.1,0.8C372.7,292.3,370.2,292.3,370.2,292.3z M370.2,291.1h1.9h0.2v-0.8
					c0-0.4-0.1-0.8-0.3-1c-0.2-0.2-0.5-0.3-0.8-0.3c-0.3,0-0.5,0.1-0.8,0.3c-0.2,0.2-0.3,0.5-0.3,1L370.2,291.1L370.2,291.1z"/>
				<rect x="403.3" y="271.5" width="18.7" height="21.7"/>
				<path fill="#FFFFFF" d="M412.3,280.2c-0.1,0-0.2,0-0.2,0c-0.2-0.1-0.5-0.1-0.8-0.1c-0.2,0.1-0.5,0.1-0.7,0.2
					c-0.2,0.1-0.4,0.2-0.5,0.4c-0.1,0.2-0.2,0.4-0.2,0.5v4.1c0,0.1,0,0.2,0.1,0.2c0,0.1,0.1,0.1,0.1,0.1c0.1,0.1,0.2,0.1,0.2,0.3
					c0.1,0.1,0.1,0.3,0.1,0.5v0.5h-2.7v-0.5c0-0.2,0.1-0.4,0.1-0.5c0.1-0.1,0.2-0.2,0.2-0.3c0.1-0.1,0.1-0.1,0.1-0.1
					c0-0.1,0.1-0.1,0.1-0.2v-5c0-0.1-0.1-0.2-0.2-0.3c-0.1-0.1-0.2-0.1-0.2-0.2c-0.1-0.1-0.1-0.3-0.1-0.5v-0.5h1.7
					c0.2,0,0.4,0.1,0.4,0.4v0.2c0.1-0.1,0.3-0.2,0.5-0.3c0.1-0.1,0.3-0.2,0.5-0.2c0.2-0.1,0.4-0.1,0.5-0.1c0.2,0,0.5,0,0.7,0.1
					c0.1,0,0.1,0.1,0.2,0.1c0.1,0.1,0.1,0.1,0.1,0.2L412.3,280.2C412.5,280.1,412.4,280.2,412.3,280.2z"/>
				<path fill="#FFFFFF" d="M414.7,283.2v1.5c0,0.4,0.1,0.7,0.3,0.8c0.2,0.1,0.5,0.2,0.8,0.2s0.5-0.1,0.7-0.2
					c0.2-0.2,0.3-0.4,0.2-0.6v-0.1c0-0.2,0.1-0.5,0.2-0.7c0.2-0.2,0.4-0.3,0.7-0.3h0.7v1.1c0,0.7-0.2,1.2-0.7,1.5s-1.1,0.5-1.9,0.5
					c-0.8,0-1.5-0.2-2-0.6s-0.7-1-0.7-1.8v-3.3c0-0.8,0.2-1.5,0.7-2s1.1-0.7,2-0.7c0.8,0,1.4,0.2,1.9,0.7s0.7,1.1,0.7,2v1.1
					c0,0.5-0.4,0.8-1.1,0.8C417.1,283.2,414.7,283.2,414.7,283.2z M414.7,282.1h1.9h0.2v-0.8c0-0.4-0.1-0.8-0.3-1
					c-0.2-0.2-0.5-0.3-0.8-0.3c-0.3,0-0.5,0.1-0.8,0.3c-0.2,0.2-0.3,0.5-0.3,1L414.7,282.1L414.7,282.1z"/>
				<path fill="#FFFFFF" d="M342.2,289.4c0.1,0.1,0.2,0.1,0.2,0.3c0.1,0.1,0.1,0.3,0.1,0.5v0.5h-2.7v-0.5c0-0.2,0.1-0.4,0.1-0.5
					s0.2-0.2,0.2-0.3c0.1-0.1,0.1-0.1,0.1-0.1c0.1-0.1,0.1-0.1,0.1-0.2v-9.3c0-0.1-0.1-0.2-0.2-0.3c-0.1-0.1-0.2-0.1-0.2-0.2
					c-0.1-0.1-0.1-0.3-0.1-0.5v-0.5h1.7c0.3,0,0.4,0.1,0.4,0.4v10.4c0,0.1,0,0.2,0.1,0.2C342.1,289.3,342.2,289.4,342.2,289.4z"/>
				<path fill="#FFFFFF" d="M345.5,289.4c0.1,0.1,0.2,0.1,0.2,0.3c0.1,0.1,0.1,0.3,0.1,0.5v0.5h-2.7v-0.5c0-0.2,0.1-0.4,0.1-0.5
					c0.1-0.1,0.2-0.2,0.2-0.3c0.1-0.1,0.1-0.1,0.1-0.1c0.1-0.1,0.1-0.1,0.1-0.2v-5.2c0-0.1-0.1-0.2-0.2-0.3
					c-0.1-0.1-0.2-0.1-0.2-0.2c-0.1-0.1-0.1-0.3-0.1-0.5v-0.5h1.7c0.2,0,0.4,0.1,0.4,0.3v6.4c0,0.1,0,0.2,0.1,0.2
					C345.4,289.3,345.5,289.4,345.5,289.4z M344.5,281.4c-0.2,0-0.5-0.1-0.6-0.2c-0.2-0.2-0.2-0.4-0.2-0.6c0-0.2,0.1-0.5,0.2-0.6
					c0.2-0.2,0.4-0.2,0.6-0.2c0.2,0,0.4,0.1,0.6,0.2c0.2,0.2,0.2,0.4,0.2,0.6c0,0.2-0.1,0.4-0.2,0.6
					C344.9,281.3,344.7,281.4,344.5,281.4z"/>
				<path fill="#FFFFFF" d="M348.3,286.9v1.5c0,0.4,0.1,0.7,0.3,0.8c0.2,0.1,0.5,0.2,0.8,0.2s0.5-0.1,0.7-0.2
					c0.2-0.2,0.3-0.4,0.2-0.6v-0.1c0-0.2,0.1-0.5,0.2-0.7c0.2-0.2,0.4-0.3,0.7-0.3h0.7v1.1c0,0.7-0.2,1.2-0.7,1.5s-1.1,0.5-1.9,0.5
					s-1.5-0.2-2-0.6c-0.5-0.4-0.7-1-0.7-1.8v-3.3c0-0.8,0.2-1.5,0.7-2c0.5-0.5,1.1-0.7,2-0.7c0.8,0,1.4,0.2,1.9,0.7s0.7,1.1,0.7,2
					v1.1c0,0.5-0.4,0.8-1.1,0.8C350.8,286.9,348.3,286.9,348.3,286.9z M348.3,285.7h1.9h0.2v-0.8c0-0.4-0.1-0.8-0.3-1
					c-0.2-0.2-0.5-0.3-0.8-0.3s-0.5,0.1-0.8,0.3c-0.2,0.2-0.3,0.5-0.3,1L348.3,285.7L348.3,285.7z"/>
				<rect x="381.3" y="287.6" width="18.7" height="21.7"/>
				<path fill="#FFFFFF" d="M387.6,302.7c0.1,0.1,0.2,0.1,0.2,0.3c0.1,0.1,0.1,0.3,0.1,0.5v0.5h-2.6v-0.5c0-0.2,0.1-0.4,0.1-0.5
					c0.1-0.1,0.2-0.2,0.2-0.3c0.1-0.1,0.1-0.1,0.1-0.1c0.1-0.1,0.1-0.1,0.1-0.2v-9.3c0-0.1-0.1-0.2-0.2-0.3
					c-0.1-0.1-0.2-0.1-0.2-0.2c-0.1-0.1-0.1-0.3-0.1-0.5v-0.5h1.7c0.3,0,0.4,0.1,0.4,0.4v10.4c0,0.1,0,0.2,0.1,0.2
					C387.5,302.7,387.6,302.7,387.6,302.7z"/>
				<path fill="#FFFFFF" d="M390.9,302.7c0.1,0.1,0.2,0.1,0.2,0.3c0.1,0.1,0.1,0.3,0.1,0.5v0.5h-2.7v-0.5c0-0.2,0.1-0.4,0.1-0.5
					c0.1-0.1,0.2-0.2,0.2-0.3c0.1-0.1,0.1-0.1,0.1-0.1c0.1-0.1,0.1-0.1,0.1-0.2v-5.2c0-0.1-0.1-0.2-0.2-0.3
					c-0.1-0.1-0.2-0.1-0.2-0.2c-0.1-0.1-0.1-0.3-0.1-0.5v-0.5h1.7c0.2,0,0.4,0.1,0.4,0.3v6.4c0,0.1,0,0.2,0.1,0.2
					C390.8,302.7,390.9,302.7,390.9,302.7z M389.9,294.7c-0.2,0-0.5-0.1-0.6-0.2c-0.2-0.2-0.2-0.4-0.2-0.6c0-0.2,0.1-0.5,0.2-0.6
					s0.4-0.2,0.6-0.2c0.2,0,0.4,0.1,0.6,0.2c0.2,0.2,0.2,0.4,0.2,0.6c0,0.2-0.1,0.4-0.2,0.6C390.3,294.6,390.1,294.7,389.9,294.7z"
					/>
				<path fill="#FFFFFF" d="M393.7,300.2v1.5c0,0.4,0.1,0.7,0.3,0.8c0.2,0.1,0.5,0.2,0.8,0.2s0.5-0.1,0.7-0.2
					c0.2-0.2,0.3-0.4,0.2-0.6v-0.1c0-0.2,0.1-0.5,0.2-0.7c0.2-0.2,0.4-0.3,0.7-0.3h0.7v1.1c0,0.7-0.2,1.2-0.7,1.5s-1.1,0.5-1.9,0.5
					s-1.5-0.2-2-0.6c-0.5-0.4-0.7-1-0.7-1.8v-3.3c0-0.8,0.2-1.5,0.7-2c0.5-0.5,1.1-0.7,2-0.7c0.8,0,1.4,0.2,1.9,0.7s0.7,1.1,0.7,2
					v1.1c0,0.5-0.4,0.8-1.1,0.8L393.7,300.2L393.7,300.2z M393.7,299.1h1.9h0.2v-0.8c0-0.4-0.1-0.8-0.3-1c-0.2-0.2-0.5-0.3-0.8-0.3
					s-0.5,0.1-0.8,0.3c-0.2,0.2-0.3,0.5-0.3,1L393.7,299.1L393.7,299.1z"/>
			</g>
			<polygon points="309.5,316.1 312.9,307.9 312.9,286.1 309.5,294.4 			"/>
			<polygon points="331.5,286.1 335.9,274.3 335.9,295.9 331.5,307.9 			"/>
			<polygon points="354.6,274.3 358.8,280.5 358.8,302.2 354.6,295.9 			"/>
			<polygon points="377.5,280.5 381.3,287.6 381.3,309.2 377.5,302.2 			"/>
			<polygon points="400,309.2 403.3,293.2 403.3,271.5 400,287.6 			"/>
		</g>
		<g>
			<g>
				<rect x="662.2" y="296.2" width="18.7" height="21.7"/>
				<rect x="707.3" y="276" width="18.7" height="21.7"/>
				<rect x="684.2" y="287.9" width="18.7" height="21.7"/>
				<path fill="#FFFFFF" d="M668.8,311.1c0.1,0,0.1,0,0.2,0c0.1,0,0.1,0.1,0.1,0.2v0.6c0,0.1,0,0.2-0.1,0.3
					c-0.1,0.1-0.1,0.1-0.1,0.1c-0.4,0.1-0.8,0.1-1.1,0.1s-0.6-0.2-0.8-0.3c-0.2-0.2-0.4-0.4-0.5-0.6c-0.1-0.2-0.2-0.5-0.2-0.8v-5.2
					h-1v-0.4c0-0.4,0.1-0.6,0.2-0.8c0.1-0.2,0.4-0.2,0.8-0.2v-2V302c0-0.4,0.1-0.7,0.2-0.8c0.2-0.2,0.4-0.4,0.5-0.4
					c0.2-0.1,0.5-0.2,0.8-0.2v3.6h1v0.4c0,0.3-0.1,0.6-0.2,0.8c-0.2,0.2-0.4,0.3-0.8,0.3v4.9c0,0.2,0.1,0.4,0.2,0.5
					C668.3,311.1,668.5,311.2,668.8,311.1z"/>
				<path fill="#FFFFFF" d="M672.1,311.1c0.1,0.1,0.2,0.1,0.2,0.3c0.1,0.1,0.1,0.3,0.1,0.5v0.5h-2.7v-0.5c0-0.2,0.1-0.4,0.1-0.5
					c0-0.1,0.2-0.2,0.2-0.3c0.1-0.1,0.1-0.1,0.1-0.1c0.1-0.1,0.1-0.1,0.1-0.2v-5.2c0-0.1-0.1-0.2-0.2-0.3c-0.1-0.1-0.2-0.1-0.2-0.2
					c0-0.1-0.1-0.3-0.1-0.5v-0.5h1.7c0.2,0,0.4,0.1,0.4,0.3v6.4c0,0.1,0,0.2,0.1,0.2C671.9,311.1,672,311.1,672.1,311.1z M671,303.1
					c-0.2,0-0.5-0.1-0.6-0.2c-0.2-0.2-0.2-0.4-0.2-0.6c0-0.2,0.1-0.5,0.2-0.6c0.2-0.2,0.4-0.2,0.6-0.2c0.2,0,0.4,0.1,0.6,0.2
					c0.2,0.2,0.2,0.4,0.2,0.6c0,0.2-0.1,0.4-0.2,0.6C671.5,303,671.2,303.1,671,303.1z"/>
				<path fill="#FFFFFF" d="M674.8,308.6v1.5c0,0.4,0.1,0.7,0.3,0.8c0.2,0.1,0.5,0.2,0.8,0.2c0.3,0,0.5-0.1,0.7-0.2
					c0.2-0.2,0.3-0.4,0.2-0.6v-0.1c0-0.2,0.1-0.5,0.2-0.7c0.2-0.2,0.4-0.3,0.7-0.3h0.7v1.1c0,0.7-0.2,1.2-0.7,1.5
					c-0.5,0.3-1.1,0.5-1.9,0.5s-1.5-0.2-2-0.6c-0.5-0.4-0.7-1-0.7-1.8v-3.3c0-0.8,0.2-1.5,0.7-2c0.5-0.5,1.1-0.7,2-0.7
					c0.8,0,1.4,0.2,1.9,0.7c0.5,0.5,0.7,1.1,0.7,2v1.1c0,0.5-0.4,0.8-1.1,0.8C677.3,308.6,674.8,308.6,674.8,308.6z M674.8,307.5
					h1.9h0.2v-0.9c0-0.4-0.1-0.8-0.3-1c-0.2-0.2-0.5-0.3-0.8-0.3c-0.3,0-0.5,0.1-0.8,0.3c-0.2,0.2-0.3,0.5-0.3,1L674.8,307.5
					L674.8,307.5z"/>
				<path fill="#FFFFFF" d="M693.3,296.7c-0.1,0-0.2,0-0.2,0c-0.2-0.1-0.5-0.1-0.8-0.1c-0.2,0.1-0.5,0.1-0.7,0.2
					c-0.2,0.1-0.4,0.2-0.5,0.4c-0.1,0.2-0.2,0.4-0.2,0.5v4.1c0,0.1,0,0.2,0.1,0.2c0,0.1,0.1,0.1,0.1,0.1c0.1,0.1,0.2,0.1,0.2,0.3
					c0.1,0.1,0.1,0.3,0.1,0.5v0.5h-2.7v-0.5c0-0.2,0.1-0.4,0.1-0.5s0.2-0.2,0.2-0.3c0.1-0.1,0.1-0.1,0.1-0.1c0-0.1,0.1-0.1,0.1-0.2
					v-5c0-0.1-0.1-0.2-0.2-0.3c-0.1-0.1-0.2-0.1-0.2-0.2c0-0.1-0.1-0.3-0.1-0.5v-0.6h1.7c0.2,0,0.4,0.1,0.4,0.4v0.2
					c0.1-0.1,0.3-0.2,0.5-0.3c0.1-0.1,0.3-0.2,0.5-0.2c0.2-0.1,0.4-0.1,0.5-0.1c0.2,0,0.5,0,0.7,0.1c0.1,0,0.1,0.1,0.2,0.1
					c0.1,0.1,0.1,0.1,0.1,0.2v1C693.4,296.5,693.3,296.6,693.3,296.7z"/>
				<path fill="#FFFFFF" d="M695.6,299.6v1.5c0,0.4,0.1,0.7,0.3,0.8c0.2,0.1,0.5,0.2,0.8,0.2c0.3,0,0.5-0.1,0.7-0.2
					c0.2-0.2,0.3-0.4,0.2-0.6v-0.1c0-0.2,0.1-0.5,0.2-0.7c0.2-0.2,0.4-0.3,0.7-0.3h0.7v1.1c0,0.7-0.2,1.2-0.7,1.5
					c-0.5,0.3-1.1,0.5-1.9,0.5c-0.8,0-1.5-0.2-2-0.6c-0.5-0.4-0.7-1-0.7-1.8v-3.3c0-0.8,0.2-1.5,0.7-2c0.5-0.5,1.1-0.7,2-0.7
					c0.8,0,1.4,0.2,1.9,0.7c0.5,0.5,0.7,1.1,0.7,2v1.1c0,0.5-0.4,0.8-1.1,0.8C698.1,299.6,695.6,299.6,695.6,299.6z M695.6,298.5
					h1.9h0.2v-0.8c0-0.4-0.1-0.8-0.3-1c-0.2-0.2-0.5-0.3-0.8-0.3c-0.3,0-0.5,0.1-0.8,0.3c-0.2,0.2-0.3,0.5-0.3,1L695.6,298.5
					L695.6,298.5z"/>
				<rect x="730.3" y="282.3" width="18.7" height="21.7"/>
				<path fill="#FFFFFF" d="M739.3,291c-0.1,0-0.2,0-0.2,0c-0.2-0.1-0.5-0.1-0.8-0.1c-0.2,0.1-0.5,0.1-0.7,0.2s-0.4,0.2-0.5,0.4
					c-0.1,0.2-0.2,0.4-0.2,0.5v4.1c0,0.1,0,0.2,0.1,0.2c0,0.1,0.1,0.1,0.1,0.1c0.1,0.1,0.2,0.1,0.2,0.3c0.1,0.1,0.1,0.3,0.1,0.5v0.5
					h-2.7v-0.5c0-0.2,0.1-0.4,0.1-0.5c0-0.1,0.2-0.2,0.2-0.3c0.1-0.1,0.1-0.1,0.1-0.1c0-0.1,0.1-0.1,0.1-0.2v-5
					c0-0.1-0.1-0.2-0.2-0.3c-0.1-0.1-0.2-0.1-0.2-0.2c-0.1-0.1-0.1-0.3-0.1-0.5v-0.5h1.7c0.2,0,0.4,0.1,0.4,0.4v0.2
					c0.1-0.1,0.3-0.2,0.5-0.3c0.1-0.1,0.3-0.2,0.5-0.2c0.2-0.1,0.4-0.1,0.5-0.1c0.2,0,0.5,0,0.7,0.1c0.1,0,0.1,0.1,0.2,0.1
					c0.1,0.1,0.1,0.1,0.1,0.2L739.3,291C739.4,291,739.3,291,739.3,291z"/>
				<path fill="#FFFFFF" d="M741.6,294v1.5c0,0.4,0.1,0.7,0.3,0.8c0.2,0.1,0.5,0.2,0.8,0.2c0.3,0,0.5-0.1,0.7-0.2
					c0.2-0.2,0.3-0.4,0.2-0.6v-0.1c0-0.2,0.1-0.5,0.2-0.7c0.2-0.2,0.4-0.3,0.7-0.3h0.7v1.1c0,0.7-0.2,1.2-0.7,1.5
					c-0.5,0.3-1.1,0.5-1.9,0.5c-0.8,0-1.5-0.2-2-0.6c-0.5-0.4-0.7-1-0.7-1.8V292c0-0.8,0.2-1.5,0.7-2c0.5-0.5,1.1-0.7,2-0.7
					c0.8,0,1.4,0.2,1.9,0.7c0.5,0.5,0.7,1.1,0.7,2v1.1c0,0.5-0.4,0.8-1.1,0.8C744.1,294,741.6,294,741.6,294z M741.6,292.9h1.9h0.2
					v-0.8c0-0.4-0.1-0.8-0.3-1c-0.2-0.2-0.5-0.3-0.8-0.3c-0.3,0-0.5,0.1-0.8,0.3c-0.2,0.2-0.3,0.5-0.3,1L741.6,292.9L741.6,292.9z"
					/>
				<rect x="774.7" y="298.9" width="27.9" height="21.7"/>
				<path fill="#FFFFFF" d="M713.6,291.1c0.1,0.1,0.2,0.1,0.2,0.3c0.1,0.1,0.1,0.3,0.1,0.5v0.5h-2.7v-0.5c0-0.2,0.1-0.4,0.1-0.5
					s0.2-0.2,0.2-0.3c0.1-0.1,0.1-0.1,0.1-0.1c0.1-0.1,0.1-0.1,0.1-0.2v-9.2c0-0.1-0.1-0.2-0.2-0.3c-0.1-0.1-0.2-0.1-0.2-0.2
					c0-0.1-0.1-0.3-0.1-0.5v-0.5h1.7c0.3,0,0.4,0.1,0.4,0.4v10.4c0,0.1,0,0.2,0.1,0.2C713.5,291.1,713.5,291.1,713.6,291.1z"/>
				<path fill="#FFFFFF" d="M716.9,291.1c0.1,0.1,0.2,0.1,0.2,0.3c0.1,0.1,0.1,0.3,0.1,0.5v0.5h-2.7v-0.5c0-0.2,0.1-0.4,0.1-0.5
					s0.2-0.2,0.2-0.3c0.1-0.1,0.1-0.1,0.1-0.1c0.1-0.1,0.1-0.1,0.1-0.2v-5.2c0-0.1-0.1-0.2-0.2-0.3c-0.1-0.1-0.2-0.1-0.2-0.2
					s-0.1-0.3-0.1-0.5v-0.5h1.7c0.2,0,0.4,0.1,0.4,0.3v6.4c0,0.1,0,0.2,0.1,0.2C716.8,291.1,716.8,291.1,716.9,291.1z M715.8,283.1
					c-0.2,0-0.5-0.1-0.6-0.2c-0.2-0.2-0.2-0.4-0.2-0.6c0-0.2,0.1-0.5,0.2-0.6c0.2-0.2,0.4-0.2,0.6-0.2s0.4,0.1,0.6,0.2
					c0.2,0.2,0.2,0.4,0.2,0.6c0,0.2-0.1,0.4-0.2,0.6C716.3,283,716.1,283.1,715.8,283.1z"/>
				<path fill="#FFFFFF" d="M719.6,288.6v1.5c0,0.4,0.1,0.7,0.3,0.8c0.2,0.1,0.5,0.2,0.8,0.2c0.3,0,0.5-0.1,0.7-0.2
					c0.2-0.2,0.3-0.4,0.2-0.6v-0.1c0-0.2,0.1-0.5,0.2-0.7c0.2-0.2,0.4-0.3,0.7-0.3h0.7v1.1c0,0.7-0.2,1.2-0.7,1.5
					c-0.5,0.3-1.1,0.5-1.9,0.5c-0.8,0-1.5-0.2-2-0.6c-0.5-0.4-0.7-1-0.7-1.8v-3.3c0-0.8,0.2-1.5,0.7-2c0.5-0.5,1.1-0.7,2-0.7
					c0.8,0,1.4,0.2,1.9,0.7c0.5,0.5,0.7,1.1,0.7,2v1.1c0,0.5-0.4,0.8-1.1,0.8h-2.5V288.6z M719.6,287.5h1.9h0.2v-0.8
					c0-0.4-0.1-0.8-0.3-1c-0.2-0.2-0.5-0.3-0.8-0.3c-0.3,0-0.5,0.1-0.8,0.3c-0.2,0.2-0.3,0.5-0.3,1L719.6,287.5L719.6,287.5z"/>
				<rect x="752.8" y="289.3" width="18.7" height="21.7"/>
				<path fill="#FFFFFF" d="M759.1,304.5c0.1,0.1,0.2,0.1,0.2,0.3c0.1,0.1,0.1,0.3,0.1,0.5v0.5h-2.7v-0.5c0-0.2,0.1-0.4,0.1-0.5
					s0.2-0.2,0.2-0.3c0.1-0.1,0.1-0.1,0.1-0.1s0.1-0.1,0.1-0.2v-9.3c0-0.1-0.1-0.2-0.2-0.3c-0.1-0.1-0.2-0.1-0.2-0.2
					c0-0.1-0.1-0.3-0.1-0.5v-0.5h1.7c0.3,0,0.4,0.1,0.4,0.4v10.4c0,0.1,0,0.2,0.1,0.2C758.9,304.4,759,304.4,759.1,304.5z"/>
				<path fill="#FFFFFF" d="M762.4,304.5c0.1,0.1,0.2,0.1,0.2,0.3c0.1,0.1,0.1,0.3,0.1,0.5v0.5H760v-0.5c0-0.2,0.1-0.4,0.1-0.5
					s0.2-0.2,0.2-0.3c0.1-0.1,0.1-0.1,0.1-0.1s0.1-0.1,0.1-0.2V299c0-0.1-0.1-0.2-0.2-0.3c-0.1-0.1-0.2-0.1-0.2-0.2
					c-0.1-0.1-0.1-0.3-0.1-0.5v-0.5h1.7c0.2,0,0.4,0.1,0.4,0.3v6.4c0,0.1,0,0.2,0.1,0.2C762.3,304.4,762.3,304.4,762.4,304.5z
					 M761.3,296.4c-0.2,0-0.5-0.1-0.6-0.2c-0.2-0.2-0.2-0.4-0.2-0.6c0-0.2,0.1-0.5,0.2-0.6c0.2-0.2,0.4-0.2,0.6-0.2
					c0.2,0,0.4,0.1,0.6,0.2c0.2,0.2,0.2,0.4,0.2,0.6c0,0.2-0.1,0.4-0.2,0.6C761.8,296.4,761.6,296.4,761.3,296.4z"/>
				<path fill="#FFFFFF" d="M765.1,301.9v1.5c0,0.4,0.1,0.7,0.3,0.8s0.5,0.2,0.8,0.2s0.5-0.1,0.7-0.2c0.2-0.2,0.3-0.4,0.2-0.6v-0.1
					c0-0.2,0.1-0.5,0.2-0.7c0.1-0.2,0.4-0.3,0.7-0.3h0.7v1.1c0,0.7-0.2,1.2-0.7,1.5c-0.5,0.3-1.1,0.5-1.9,0.5c-0.8,0-1.5-0.2-2-0.6
					c-0.5-0.4-0.7-1-0.7-1.8v-3.3c0-0.8,0.2-1.5,0.7-2c0.5-0.5,1.1-0.7,2-0.7c0.8,0,1.4,0.2,1.9,0.7s0.7,1.1,0.7,2v1.1
					c0,0.5-0.4,0.8-1.1,0.8h-2.5V301.9z M765.1,300.8h1.9h0.2V300c0-0.4-0.1-0.8-0.3-1c-0.2-0.2-0.5-0.3-0.8-0.3s-0.5,0.1-0.8,0.3
					c-0.2,0.2-0.3,0.5-0.3,1L765.1,300.8L765.1,300.8z"/>
				<g>
					<path fill="#FFFFFF" d="M781.2,314.7c0.1,0.1,0.2,0.1,0.2,0.3c0.1,0.1,0.1,0.3,0.1,0.5v0.5h-2.7v-0.5c0-0.2,0.1-0.4,0.1-0.5
						s0.2-0.2,0.2-0.3c0.1-0.1,0.1-0.1,0.1-0.1c0.1-0.1,0.1-0.1,0.1-0.2v-9.3c0-0.1-0.1-0.2-0.2-0.3c-0.1-0.1-0.2-0.1-0.2-0.2
						c0-0.1-0.1-0.3-0.1-0.5v-0.6h1.7c0.3,0,0.4,0.1,0.4,0.4v10.4c0,0.1,0,0.2,0.1,0.2C781,314.6,781.1,314.7,781.2,314.7z"/>
					<path fill="#FFFFFF" d="M785,307.6c0.4,0,0.8,0.1,1.1,0.2c0.3,0.1,0.6,0.3,0.8,0.5c0.2,0.2,0.4,0.4,0.5,0.7
						c0.1,0.3,0.2,0.5,0.2,0.8v3.9c0,0.7-0.2,1.3-0.7,1.7c-0.5,0.4-1.1,0.6-1.9,0.6s-1.5-0.2-2-0.7c-0.5-0.4-0.7-1.1-0.7-1.9v-3.3
						c0-0.8,0.2-1.5,0.7-1.9C783.5,307.8,784.1,307.6,785,307.6z M785,314.7c0.3,0,0.5-0.1,0.8-0.3c0.2-0.2,0.3-0.5,0.3-0.8v-3.4
						c0-0.5-0.1-0.8-0.3-1c-0.2-0.2-0.5-0.2-0.8-0.2c-0.3,0-0.5,0.1-0.8,0.2c-0.2,0.2-0.3,0.5-0.3,0.9v3.5c0,0.4,0.1,0.7,0.3,0.9
						C784.4,314.6,784.7,314.7,785,314.7z"/>
					<path fill="#FFFFFF" d="M798.4,314.7c0.1,0.1,0.2,0.1,0.2,0.2s0.1,0.3,0.1,0.5v0.5h-1.3c-0.3,0-0.5-0.1-0.6-0.2
						c-0.1-0.2-0.2-0.4-0.2-0.7v-4.8c0-0.4-0.1-0.7-0.3-1c-0.2-0.2-0.5-0.3-0.8-0.3c-0.2,0-0.4,0-0.5,0.1c-0.2,0.1-0.3,0.1-0.4,0.2
						c-0.1,0.1-0.2,0.1-0.4,0.2v5c0,0.1,0,0.2,0.1,0.2c0.1,0.1,0.1,0.1,0.1,0.1c0.1,0.1,0.2,0.1,0.2,0.2s0.1,0.3,0.1,0.5v0.5h-1.1
						c-0.2,0-0.4-0.1-0.5-0.3c-0.2-0.2-0.2-0.4-0.2-0.7v-4.3V310c0-0.2-0.1-0.4-0.1-0.5c-0.1-0.1-0.2-0.2-0.3-0.4
						c-0.1-0.1-0.2-0.2-0.4-0.2c-0.2-0.1-0.3-0.1-0.4-0.1s-0.3,0-0.4,0.1c-0.1,0.1-0.2,0.1-0.4,0.2c-0.1,0.1-0.2,0.1-0.4,0.2v4.9
						c0,0.1,0,0.2,0.1,0.2c0.1,0.1,0.1,0.1,0.1,0.1c0.1,0.1,0.2,0.1,0.2,0.2c0,0.1,0.1,0.3,0.1,0.5v0.5h-2.7v-0.5
						c0-0.2,0.1-0.4,0.1-0.5c0-0.1,0.2-0.2,0.2-0.2c0.1-0.1,0.1-0.1,0.1-0.1c0.1-0.1,0.1-0.1,0.1-0.2v-4.9c0-0.1,0-0.2-0.1-0.2
						c-0.1-0.1-0.1-0.1-0.2-0.2c-0.1-0.1-0.1-0.1-0.2-0.2c-0.1-0.1-0.1-0.2-0.1-0.2v-1h1.7c0.1,0,0.2,0,0.2,0.1
						c0.1,0.1,0.1,0.1,0.1,0.1c0.1,0.1,0.1,0.1,0.1,0.2c0.1-0.1,0.2-0.2,0.4-0.2c0.1-0.1,0.3-0.1,0.5-0.2s0.4-0.1,0.7-0.1
						c0.8,0,1.4,0.2,1.8,0.7c0.2-0.1,0.4-0.2,0.5-0.4c0.2-0.1,0.4-0.2,0.7-0.2c0.2-0.1,0.5-0.1,0.9-0.1c0.8,0,1.4,0.2,1.8,0.7
						c0.4,0.5,0.5,1.1,0.5,1.9v4.2c0,0.1,0,0.2,0.1,0.2C798.3,314.6,798.4,314.6,798.4,314.7z"/>
				</g>
			</g>
			<polygon points="680.9,296.2 684.2,287.9 684.2,309.6 680.9,317.9 			"/>
			<polygon points="702.9,309.6 707.3,297.7 707.3,276 702.9,287.9 			"/>
			<polygon points="726,276 730.3,282.3 730.3,304 726,297.7 			"/>
			<polygon points="749,282.3 752.8,289.3 752.8,311 749,304 			"/>
			<polygon points="771.4,289.3 774.7,298.9 774.7,320.7 771.4,311 			"/>
		</g>
	</g>
</g>
</svg>
