<?xml version="1.0" encoding="utf-8"?>
<!-- Generator: Adobe Illustrator 18.0.0, SVG Export Plug-In . SVG Version: 6.00 Build 0)  -->
<!DOCTYPE svg PUBLIC "-//W3C//DTD SVG 1.1//EN" "http://www.w3.org/Graphics/SVG/1.1/DTD/svg11.dtd">
<svg version="1.1" id="Laag_1" xmlns="http://www.w3.org/2000/svg" xmlns:xlink="http://www.w3.org/1999/xlink" x="0px" y="0px"
	 viewBox="168.8 0 789.1 841.9" enable-background="new 168.8 0 789.1 841.9" xml:space="preserve">
<path fill="#293A84" d="M952.2,848.6L450.5,532.1l309.8-245.8L952.2,848.6z M878.2,771.2l20.2,13.5l-16.8-50.5L878.2,771.2z
	 M800.7,720.7l50.5,33.7l10.1-80.8l-40.4-121.2L800.7,720.7z M709.8,663.4l67.4,40.4l23.6-212.2l-53.9-154.9L709.8,663.4z
	 M608.7,599.4l74.1,47.1L716.5,357L629,427.7L608.7,599.4z M497.6,532.1l84.2,53.9l16.8-131.3L497.6,532.1z"/>
<rect x="542.3" y="127" transform="matrix(-0.1242 -0.9923 0.9923 -0.1242 631.4032 841.6718)" fill="#293A84" width="289.6" height="30.3"/>
<rect x="347.3" y="230.5" transform="matrix(-0.6673 -0.7448 0.7448 -0.6673 645.9515 779.91)" fill="#293A84" width="299.7" height="30.3"/>
<rect x="191.1" y="417.7" transform="matrix(-0.9717 -0.2364 0.2364 -0.9717 573.3244 934.5071)" fill="#293A84" width="303.1" height="30.3"/>
<rect x="384" y="343.7" transform="matrix(-0.7932 -0.6089 0.6089 -0.7932 617.9828 927.4986)" fill="#293A84" width="165" height="30.3"/>
<rect x="572.9" y="245" transform="matrix(-0.4078 -0.9131 0.9131 -0.4078 637.7277 933.98)" fill="#293A84" width="97.7" height="30.3"/>
<rect x="603.8" y="126.7" fill="#293A84" width="36" height="36"/>
<rect x="372.8" y="213.7" fill="#293A84" width="36" height="36"/>
<rect x="255.8" y="150.7" transform="matrix(0.9397 0.3419 -0.3419 0.9397 74.1776 -83.4464)" fill="#293A84" width="36" height="36"/>
<rect x="513.8" y="117.7" transform="matrix(0.9673 -0.2535 0.2535 0.9673 -17.0236 139.2453)" fill="#293A84" width="36" height="36"/>
<rect x="377.2" y="374.2" fill="#293A84" width="27.1" height="27.1"/>
<rect x="234.8" y="309.7" transform="matrix(0.89 -0.456 0.456 0.89 -121.6137 151.3109)" fill="#293A84" width="36" height="36"/>
<rect x="563.3" y="41.1" transform="matrix(0.8857 0.4643 -0.4643 0.8857 89.5926 -260.518)" fill="#293A84" width="21.1" height="21.1"/>
</svg>
